<svg width="674" height="757" viewBox="0 0 674 757" fill="none" xmlns="http://www.w3.org/2000/svg">
<path d="M665.896 419.367C665.896 601.345 518.373 748.867 336.396 748.867C154.418 748.867 6.89551 601.345 6.89551 419.367V7.86719L665.896 7.86719V419.367Z" fill="#FFDC3E"/>
<path d="M460.646 735.392C457.816 736.639 453.482 737.58 450.057 738.758C435.598 743.617 430.023 744.741 416.618 747.858C396.966 753.944 336.363 758.972 336.396 753.403C336.396 753.403 336.396 753.403 336.396 753.403C336.396 753.359 336.401 753.314 336.413 753.269C336.631 752.42 341.712 751.443 342.437 750.449C343.159 749.452 342.526 743.251 349.479 742.65C359.609 742.049 383.995 740.859 389.349 739.685C393.018 739.035 397.408 737.665 402.012 736.612C416.895 733.118 424.748 731.369 437.333 725.692C442.8 724.75 448.237 723.671 453.694 722.432C460.278 719.527 470.715 716.114 474.649 714.159C477.876 712.582 479.497 711.076 482.824 709.366C486.549 707.44 492.594 705.068 499.169 701.138C509.892 694.638 510.807 691.903 516.906 687.607C523.222 683.123 533.523 676.733 540.802 669.976C541.646 669.048 542.484 668.116 543.316 667.179C542.366 667.427 541.416 667.671 540.468 667.908C544.162 664.603 546.337 663.867 549.776 660.863C553.807 657.311 555.253 654.841 557.871 652.367C560.013 650.339 563.338 648.005 566 645.238C569.867 641.196 568.323 641.412 570.259 639.115C571.174 638.316 585.297 621.309 585.922 620.222C591.785 612.793 593.283 612.881 597.841 606.817C610.408 589.905 620.286 570.53 627.962 552.75C631.415 544.8 634.895 536.491 638.027 528.427C636.475 542.458 649.071 514.672 640.433 523.718C644.238 514.808 644.836 507.874 647.348 499.1C648.93 493.447 650.599 489.607 652.221 481.327C655.146 466.576 654.722 450.118 658.692 446.145C659.154 436.012 659.694 426.752 659.389 419.367C659.163 413.781 658.613 409.338 657.223 406.562C657.025 401.919 658.959 390.02 659.222 384.812C659.469 379.887 660.342 342.099 660.391 335.917C660.44 329.735 660.493 318.914 660.208 313.707C659.856 307.166 656.488 302.595 660.425 290.949C660.107 277.409 660.219 272.585 660.677 259.991C660.76 257.711 661.344 257.453 661.345 256.122C661.345 253.378 660.913 248.709 660.86 243.811C660.774 235.757 662.004 231.16 660.125 232.058C659.81 226.748 659.495 221.438 659.18 216.128C659.543 214.265 659.905 212.402 660.268 210.539C659.873 207.7 659.478 204.861 659.083 202.022C661.801 205.356 660.197 185.375 658.637 191.863C659.199 181.569 659.762 171.275 660.324 160.981C663.413 162.418 660.681 138.38 659.001 140.404C659.003 139.226 659.006 138.048 659.008 136.87C659.829 126.558 659.158 117.089 659.709 104.52C660.26 91.9515 660.561 93.1313 661.982 89.3094C661.9 86.3519 661.819 83.3943 661.738 80.4368C657.842 64.9179 664.587 67.6609 661.598 41.0864C663.503 34.4819 663.148 20.3508 662.547 7.86719L665.896 11.216C662.331 11.3876 658.9 11.5794 655.818 11.7443C654.203 11.8305 654.175 12.3058 652.025 12.4523C646.767 12.8047 633.35 12.1938 633.809 13.7267C629.165 13.2832 624.52 12.8397 619.876 12.3962C616.08 12.6749 612.284 12.9536 608.488 13.2324C608.507 13.7109 608.526 14.1894 608.545 14.6679C600.901 13.037 588.89 13.6638 582.965 13.2739C581.786 13.1948 581.531 12.5347 577.866 12.3547C573.582 12.1409 565.599 12.3362 560.495 12.1301C558.511 12.8613 556.526 13.5925 554.542 14.3237C545.413 14.7203 542.205 12.7903 536.844 12.6403C535.879 12.6143 518.272 12.7529 517.323 12.7941C509.556 13.1207 511.756 14.765 489.294 14.4128C485.293 14.3491 482.058 13.7801 478.443 13.7573C472.056 13.716 452.81 15.0063 451.297 16.1987C443.551 14.7064 422.824 15.3163 416.719 14.8852C414.876 14.7526 414.46 13.8021 408.797 13.5998C404.206 13.4348 392.381 14.1959 386.558 14.0685C380.377 13.9298 378.17 13.1313 375.4 13.0749C372.784 13.0224 370.371 13.667 366.806 13.6633C355.675 13.6407 345.596 12.6033 336.798 12.5842C324.076 12.5541 312.837 14.4626 302.192 15.31C299.55 15.1863 296.954 14.7766 294.183 14.7729C259.915 14.7129 221.258 14.3612 186.887 13.9526C170.93 13.7648 131.251 11.1743 141.842 15.4968C136.297 16.2537 95.9778 14.511 88.3087 14.4848C80.6417 14.4588 74.5638 15.2338 68.5375 15.2453C50.3509 15.2791 37.5445 14.7205 15.4076 15.3954C12.5406 15.4839 9.57092 15.7589 6.89551 16.0098L15.0381 7.86719C15.2875 10.5272 15.5131 12.8964 15.5078 14.5844C15.4927 18.6625 14.6047 23.0517 14.5483 28.335C14.4208 40.9288 14.7129 64.3988 14.5593 76.4813C14.5292 78.6873 13.7495 79.462 13.5058 82.6171C12.5535 94.9037 12.6361 108.676 15.1257 106.239C13.7123 121.987 15.0015 136.555 15.0805 151.149C15.2417 182.007 14.6606 238.218 15.7067 265.1C16.3666 282.051 17.4832 281.617 16.5197 306.573C16.306 312.113 16.0178 317.628 15.7629 324.347C15.163 340.096 13.1002 354.545 15.5859 366.549C14.9412 384.041 15.3984 397.972 13.2726 410.951C13.7825 412.481 14.2923 414.011 14.8022 415.541C14.8097 416.816 14.8172 418.092 14.8247 419.367C14.8298 420.221 14.8383 421.073 14.85 421.925C14.3688 422.585 13.8897 423.247 13.4125 423.911C13.3929 438.978 17.1924 457.893 19.2529 470.323C21.3405 491.606 37.4792 544.193 47.0425 562.208C51.5682 571.984 52.8282 571.918 53.9528 578.368C55.2695 580.399 56.6073 582.412 57.9661 584.408C59.1395 585.465 60.3167 586.508 61.5032 587.547C68.6721 599.297 77.5926 613.053 85.9511 623.223C100.859 642.09 127.931 665.945 147.072 680.421C151.806 684.139 157.508 689.191 162.515 692.36C169.832 696.94 172.411 696.68 181.932 701.943C198.15 711.305 229.979 726.272 247.356 730.614C252.455 732.017 255.024 732.055 258.555 732.871C273.461 736.237 285.857 738.45 300.482 739.185C315.921 742.293 314.512 743.922 319.336 746.252C322.935 748.01 334.479 751.75 336.193 753.026C337.372 753.96 332.966 755.14 334.613 756.171C314.921 756.719 306.667 755.027 291.055 751.613C261.991 747.751 233.341 740.002 206.274 728.653C204.027 727.101 201.8 725.521 199.605 723.921C199.605 723.92 199.606 723.919 199.606 723.918C189.681 718.698 184.833 717.746 179.302 715.21C123.458 694.31 43.4855 604.747 24.5441 542.592C18.7239 530.029 6.29968 486.662 6.34143 477.016C6.15869 474.557 6.89691 473.745 6.52863 471.164C3.48468 454.112 1.76862 436.79 1.38672 419.367C1.2569 413.559 1.12708 407.751 0.997192 401.944C2.33575 354.823 1.23029 306.108 1.02405 258.628C0.658325 174.535 0.241028 90.991 0.0542603 7.86719L0.000366211 1.08075L6.89551 1.02594C50.7495 0.927429 94.4866 0.893005 138.126 0.964233C162.546 1.00549 193.534 0.360046 217.441 0.776245C227.419 0.948792 231.576 2.33221 244.683 1.30115C244.821 1.67389 244.958 2.04663 245.096 2.41931C256.535 1.96936 263.844 1.12128 276.669 1.03503C287.468 0.963806 316.04 0.908447 325.583 1.0509C330.533 1.12213 328.689 1.8186 333.303 1.81506C341.204 1.80383 358.084 0.841003 368.986 0.840942C378.861 0.840942 395.51 1.64325 403.103 1.52698C430.447 1.11456 460.231 -0.074646 489.37 0.244019C497.42 0.334229 507.773 1.23724 510.294 1.21204C515.218 1.15955 516.685 0.282349 519.992 0.169556C536.793 -0.40033 562.982 0.642151 579.45 0.683472C607.703 0.754578 636.84 0.682068 665.896 0.621033L673.084 0.563904L673.142 7.86719C673.197 33.9978 673.242 60.0634 673.166 85.3628C673.065 119.119 673.219 175.216 672.559 206.381C672.417 213.102 671.456 211.31 671.456 216.954C671.456 223.211 672.105 226.599 672.158 229.523C672.525 249.763 673.181 294.444 672.518 313.553C672.39 317.193 671.637 319.834 671.64 322.013C671.64 323.116 672.154 325.608 672.206 329.071C672.671 359.647 672.372 381.94 672.195 411.901C672.181 414.373 672.169 416.862 672.159 419.367C672.514 476.054 656.289 540.814 625.204 590.994C618.236 602.457 611.679 609.073 610.638 610.623C608.291 613.999 607.623 616.753 602.746 623.558C586.689 646.383 558.975 672.045 537.941 688.037C527.709 696.138 513.289 707.075 502.115 713.612C493.334 719.125 471.039 729.057 466.942 731.155C464.504 732.537 463.718 734.032 460.646 735.392ZM654.643 472.617C656.168 474.635 657.351 456.108 655.467 462.857C655.078 464.37 654.297 472.087 654.643 472.617ZM248.322 11.7394C248.495 12.2342 248.668 12.729 248.841 13.2238C251.318 13.0179 253.796 12.812 256.273 12.6061C254.881 12.3087 253.489 12.0112 252.096 11.7138C250.838 11.7224 249.58 11.7309 248.322 11.7394Z" fill="#FFDC3E"/>
<path d="M266.296 616.867C266.696 620.667 267.296 624.067 267.496 627.667C267.496 628.867 266.296 629.267 265.496 628.867C265.296 629.067 265.096 629.067 264.696 629.067C241.896 628.067 219.096 631.867 196.296 629.467C194.696 629.267 194.496 627.667 195.096 626.867C194.696 626.067 194.696 624.867 194.496 624.067C194.296 621.667 194.296 619.467 194.096 617.267C193.496 616.267 193.896 614.667 195.296 614.667C204.896 614.467 214.496 614.667 224.296 614.667C224.296 600.267 224.296 585.667 224.496 571.467C224.896 557.067 226.496 542.867 224.696 528.867C216.496 537.667 203.696 537.067 193.296 531.267C192.896 531.467 192.496 531.467 192.096 531.467C192.096 531.267 192.096 531.267 191.896 531.267C191.096 531.267 190.696 530.267 190.896 529.467C190.896 529.267 191.096 529.067 191.096 528.667V517.467V515.867C191.096 514.067 193.296 513.867 193.896 515.067C194.296 515.067 194.496 515.267 194.896 515.467C202.096 519.867 213.696 521.067 218.896 513.067C222.696 506.867 224.096 499.667 223.896 492.667V492.267C222.896 491.467 223.096 489.267 224.696 489.467C230.096 489.867 235.296 490.667 240.696 489.667C242.296 489.267 243.096 491.067 242.496 492.067C242.496 492.267 242.696 492.667 242.696 493.067C243.696 533.667 244.896 574.267 244.896 614.867C251.496 614.867 258.296 615.067 264.896 615.067C266.096 615.067 266.496 616.067 266.296 616.867ZM348.513 613.267C348.913 616.067 349.113 618.667 349.113 621.467C348.913 623.467 349.313 626.067 348.513 628.067C348.113 629.067 346.713 629.267 346.113 628.867H345.713C322.313 629.867 299.113 627.667 275.713 630.267C275.113 630.267 274.713 630.067 274.513 629.667C273.913 629.467 273.513 629.067 273.513 628.467C273.713 612.067 278.313 595.867 286.913 581.667C294.713 568.867 305.313 559.667 315.713 548.867C320.713 543.667 326.313 537.867 328.313 530.667C330.313 523.467 328.913 514.467 323.313 509.067C309.713 496.267 291.113 511.067 287.113 525.467C286.913 526.067 286.513 526.467 285.913 526.467C285.513 526.667 284.913 526.667 284.513 526.467C282.913 525.467 280.913 525.667 279.313 525.067C277.113 524.467 275.313 523.467 273.913 521.867C273.913 521.867 273.913 521.667 273.713 521.667C273.513 521.467 273.513 521.067 273.513 520.667C274.113 511.867 279.913 504.067 286.313 498.067C292.513 492.267 299.513 490.067 307.913 489.467C316.713 489.067 325.713 489.067 332.913 495.067C339.513 500.467 344.113 508.667 345.713 517.067C347.313 525.867 346.513 533.867 341.713 541.467C336.313 549.667 329.513 556.267 322.713 563.067C315.913 569.867 309.713 577.067 304.713 585.267C298.913 594.267 293.513 604.467 292.513 615.067C309.513 612.067 328.313 609.867 345.713 611.267C346.313 611.267 346.713 611.667 346.913 612.267C347.713 612.267 348.313 612.467 348.513 613.267ZM401.153 536.667C395.153 541.467 387.953 543.267 380.353 541.467C366.953 538.467 356.753 526.867 359.553 512.467C361.953 500.667 370.553 488.867 383.353 488.867H383.753C398.953 489.067 411.153 501.267 410.953 516.667C410.753 525.067 407.953 531.467 401.153 536.667ZM451.353 498.267C439.753 521.467 428.153 544.467 416.753 567.467C406.353 588.067 396.753 609.067 385.753 629.267C385.153 630.467 383.953 630.267 383.353 629.467C382.953 629.667 382.553 629.667 382.153 629.267C379.553 627.267 376.553 625.667 373.753 624.067C372.753 623.667 372.753 622.467 373.353 621.867C392.953 577.267 414.553 533.467 437.153 490.267C437.553 489.467 438.153 489.267 438.753 489.467C439.353 489.267 440.353 489.267 440.753 490.067C441.753 491.267 443.953 492.267 445.353 492.867L450.353 495.467C450.953 495.667 451.153 496.067 450.953 496.667C451.553 497.067 451.753 497.667 451.353 498.267ZM382.153 524.667C387.753 526.067 394.353 523.067 395.153 517.067C395.753 512.867 394.153 507.867 390.553 505.467C386.553 502.867 382.153 503.867 378.753 506.667C378.753 507.267 378.753 507.867 378.153 508.267C371.953 512.667 375.353 523.067 382.153 524.667ZM464.953 599.867C466.353 613.067 456.953 629.467 442.953 630.467C427.753 631.867 412.153 622.267 412.153 605.667C411.953 591.267 420.353 576.067 436.153 575.867C449.753 574.067 463.553 586.667 464.953 599.867ZM446.553 610.267C448.953 606.267 451.553 597.667 447.353 593.867C443.353 590.267 437.153 591.067 432.953 593.467C432.553 593.667 431.953 593.667 431.553 593.667C426.953 598.067 427.353 607.867 431.553 611.867C436.353 616.467 442.953 616.067 446.553 610.267Z" fill="#F79335"/>
</svg>
