<svg width="674" height="1516" viewBox="0 0 674 1516" fill="none" xmlns="http://www.w3.org/2000/svg">
<path d="M665.948 336.801C665.948 154.823 518.426 7.30078 336.448 7.30078C154.47 7.30078 6.94824 154.823 6.94824 336.801L6.94824 1507.3L665.948 1507.3L665.948 336.801Z" fill="#F79335"/>
<path d="M528.286 56.6764C524.267 53.762 518.065 50.4854 513.061 47.4768C491.973 35.112 483.555 31.5669 463.12 23.2674C433.646 7.19883 336.358 -4.50204 336.448 2.76465C336.448 2.76476 336.448 2.76488 336.448 2.76499C336.448 2.80917 336.457 2.85386 336.476 2.89907C336.827 3.73426 344.963 4.77265 346.12 5.80374C347.287 6.84238 346.223 12.9322 357.404 13.9255C373.648 14.7386 412.428 20.3407 420.727 23.2328C426.483 24.8234 433.321 27.4359 440.492 29.9777C463.462 38.3705 475.395 43.4702 493.934 55.3728C501.997 58.959 509.947 62.8952 517.74 67.162C527.169 73.8274 541.624 83.7675 546.902 88.4491C551.264 92.232 553.362 94.9531 557.742 99.052C562.635 103.658 570.56 110.378 578.677 119.586C591.823 134.816 592.44 138.883 599.366 148.638C606.488 158.799 617.603 174.729 624.255 189.178C625 191.031 625.727 192.891 626.436 194.758C625.433 193.663 624.424 192.579 623.409 191.504C626.803 198.696 629.012 201.411 631.984 208.109C635.423 216.012 636.223 220.395 638.243 225.818C639.881 230.242 642.59 236.107 644.356 242.01C646.877 250.596 645.378 248.991 646.486 253.674C647.392 255.44 653.913 290.276 653.695 292.31C655.595 307.384 656.885 308.556 657.729 320.738C658.039 326.04 658.187 331.402 658.176 336.801C658.117 366.027 657.327 395.406 656.995 422.3C656.819 436.567 656.894 451.453 657.1 465.678C660.4 443.272 662.968 492.858 657.805 474.314C658.539 490.141 657.146 501.363 657.381 516.367C657.535 526.072 658.251 532.788 658.232 546.646C658.194 571.234 656.159 598.129 659.837 605.201C659.189 634.065 660.523 659.064 657.276 669.467C657.078 676.91 659.012 695.984 659.274 704.332C659.522 712.227 660.395 772.804 660.444 782.714C660.493 792.624 660.546 809.972 660.261 818.318C659.908 828.804 656.541 836.131 660.478 854.8C660.16 876.506 660.272 884.239 660.73 904.427C660.812 908.082 661.397 908.495 661.397 910.63C661.397 915.029 660.965 922.513 660.913 930.364C660.826 943.276 662.056 950.645 660.178 949.206C659.863 957.718 659.548 966.23 659.233 974.743C659.596 977.729 659.958 980.715 660.321 983.701C659.926 988.253 659.53 992.804 659.135 997.355C661.854 992.01 660.249 1024.04 658.69 1013.64C659.252 1030.14 659.814 1046.64 660.377 1063.15C663.466 1060.84 660.733 1099.38 659.054 1096.13C659.056 1098.02 659.058 1099.91 659.061 1101.8C659.882 1118.33 659.21 1133.51 659.762 1153.66C660.313 1173.8 660.614 1171.91 662.035 1178.04C661.953 1182.78 661.872 1187.52 661.79 1192.26C657.895 1217.14 664.64 1212.74 661.651 1255.34C664.1 1268.95 662.814 1302.5 662.071 1324.75C661.985 1327.34 661.51 1327.38 661.363 1330.83C661.011 1339.26 661.622 1360.77 660.089 1360.03C660.532 1367.48 660.976 1374.92 661.419 1382.37C661.141 1388.45 660.862 1394.54 660.583 1400.62C660.105 1400.59 659.626 1400.56 659.148 1400.53C660.778 1412.78 660.152 1432.04 660.542 1441.54C660.621 1443.43 661.281 1443.84 661.461 1449.71C661.674 1456.58 661.479 1469.37 661.685 1477.56C660.954 1480.74 660.223 1483.92 659.492 1487.1C659.232 1496.7 659.973 1502.22 660.556 1507.3L665.948 1501.91C663.282 1502.21 660.734 1502.48 657.778 1502.53C656.231 1502.55 628.005 1502.42 626.484 1502.37C614.033 1502.05 617.561 1500.4 581.552 1500.76C575.139 1500.82 569.953 1501.39 564.158 1501.41C553.919 1501.45 523.067 1500.16 520.641 1498.97C508.223 1500.46 474.997 1499.85 465.211 1500.28C462.257 1500.42 461.59 1501.37 452.512 1501.57C445.152 1501.73 426.196 1500.97 416.861 1501.1C406.953 1501.24 403.414 1502.04 398.974 1502.09C394.78 1502.15 390.913 1501.5 385.198 1501.5C367.355 1501.53 351.197 1502.56 337.094 1502.58C316.699 1502.61 298.683 1500.71 281.618 1499.86C277.382 1499.98 273.221 1500.39 268.78 1500.4C213.845 1500.46 151.876 1500.81 96.7776 1501.22C71.199 1501.4 7.59143 1503.99 24.5687 1499.67C22.1348 1499.46 15.5217 1499.44 6.94824 1499.53L14.7239 1507.3C14.5092 1484.56 13.5849 1448.03 13.5659 1439.1C13.5399 1426.81 14.3149 1417.07 14.3264 1407.41C14.3601 1378.26 13.8016 1357.73 14.4765 1322.24C14.653 1313.08 15.5712 1303.25 15.5605 1297.83C15.5455 1291.29 14.6574 1284.25 14.601 1275.78C14.4735 1255.6 14.7656 1217.97 14.612 1198.6C14.582 1195.07 13.8022 1193.82 13.5585 1188.77C12.6063 1169.07 12.6888 1146.99 15.1784 1150.9C13.765 1125.65 15.0543 1102.3 15.1332 1078.91C15.2944 1029.44 14.7134 939.331 15.7595 896.237C16.4194 869.065 17.5359 869.76 16.5724 829.754C16.3588 820.874 16.0706 812.033 15.8156 801.262C15.2157 776.015 13.153 752.853 15.6386 733.609C14.994 705.569 15.4511 683.236 13.3254 662.431C13.8352 659.979 14.345 657.526 14.8549 655.074C14.8675 651.636 14.8801 648.198 14.8928 644.76C14.4065 643.688 13.9202 642.615 13.434 641.543C13.303 616.915 15.3016 585.67 15.287 564.824C15.2645 529.872 14.4881 439.849 13.832 406.706C13.4835 389.111 14.525 388.164 12.3842 378.09C12.5331 374.155 12.6821 370.219 12.831 366.284C13.2997 363.821 13.7685 361.358 14.2372 358.895C14.2431 351.844 14.1761 344.383 14.0814 336.801C13.8449 320.424 14.8727 303.499 17.0233 289.167C21.6906 250.828 43.2457 196.602 64.0493 164.165C69.0122 155.895 75.2119 145.439 81.0897 137.968C89.7221 127.177 93.0256 125.565 105.032 112.938C125.125 90.5286 170.149 56.0871 196.645 44.821C204.309 41.2198 208.214 40.2111 213.619 38.032C236.395 29.0619 255.875 23.4388 279.071 20.1013C303.627 14.5183 301.465 13.4475 309.102 10.6046C314.916 8.45469 333.367 4.34486 336.123 3.14214C338.013 2.20211 330.954 1.04536 333.592 0.00443077C302.045 -0.124744 288.758 2.8333 264.121 9.33718C218.124 19.3578 174.34 39.3289 136.536 67.3922C133.431 70.3959 130.39 73.454 127.42 76.5595C127.421 76.5605 127.422 76.5614 127.422 76.5624C113.897 88.41 107.525 92.7263 100.325 99.307C51.6509 140.705 -3.11322 241.373 0.508057 336.801C0.794312 378.959 1.11145 418.486 1.22205 450.176C1.297 471.93 0.544189 542.694 1.45154 557.62C1.68787 561.484 2.54932 562.56 2.58679 566.671C2.07452 603.404 1.56226 640.137 1.04993 676.87C2.38849 752.407 1.28302 830.499 1.07678 906.612C0.52887 1108.59 -0.134888 1308.58 0.0344238 1507.3L0.000305176 1514.18L6.94824 1514.21C10.8365 1514.21 14.7242 1514.21 18.6115 1514.2C57.7577 1514.16 107.435 1514.81 145.758 1514.39C161.753 1514.22 168.417 1512.84 189.429 1513.87C189.649 1513.49 189.87 1513.12 190.09 1512.75C208.427 1513.2 220.145 1514.05 240.703 1514.13C258.015 1514.2 303.817 1514.26 319.115 1514.12C327.05 1514.05 324.094 1513.35 331.491 1513.35C344.156 1513.36 371.216 1514.33 388.692 1514.33C404.523 1514.33 431.212 1513.52 443.383 1513.64C487.217 1514.05 534.963 1515.24 581.675 1514.92C594.579 1514.83 611.175 1513.93 615.216 1513.96C623.11 1514.01 625.461 1514.89 630.763 1515C640.903 1515.21 653.177 1515.2 665.948 1515.1L673.705 1515.13L673.743 1507.3C673.573 1486.15 673.158 1463.63 673.132 1447.17C672.997 1361.15 673.38 1270.02 673.219 1184.37C673.117 1130.25 673.272 1040.33 672.612 990.367C672.469 979.593 671.508 982.465 671.508 973.419C671.509 963.388 672.158 957.956 672.21 953.269C672.578 920.823 673.234 849.197 672.57 818.564C672.443 812.729 671.69 808.497 671.693 805.003C671.693 803.235 672.207 799.24 672.259 793.689C672.724 744.674 672.424 708.936 672.248 660.909C671.914 568.925 672.87 462.345 672.353 365.715C672.288 353.56 671.764 343.61 671.336 336.801C671.02 331.707 670.655 328.372 670.628 327.103C670.421 320.554 671.369 316.215 670.353 302.891C667.627 258.155 646.884 200.515 624.708 164.373C614.338 146.182 597.91 122.263 583.826 106.998C573.156 94.2169 542.979 69.2468 537.087 64.8556C533.69 61.9407 532.639 59.8439 528.286 56.6764ZM659.068 561.408C660.8 558.529 659.361 588.781 658.431 577.432C658.222 574.876 658.619 562.152 659.068 561.408ZM195.263 1503.43C195.54 1502.93 195.817 1502.44 196.094 1501.94C200.065 1502.15 204.037 1502.36 208.008 1502.56C205.776 1502.86 203.544 1503.16 201.312 1503.45C199.295 1503.45 197.279 1503.44 195.263 1503.43Z" fill="#F79335"/>
<path d="M266.948 246.701C267.348 249.501 267.548 252.101 267.548 254.901C267.348 256.901 267.748 259.501 266.948 261.501C266.548 262.501 265.148 262.701 264.548 262.301H264.148C240.748 263.301 217.548 261.101 194.148 263.701C193.548 263.701 193.148 263.501 192.948 263.101C192.348 262.901 191.948 262.501 191.948 261.901C192.148 245.501 196.748 229.301 205.348 215.101C213.148 202.301 223.748 193.101 234.148 182.301C239.148 177.101 244.748 171.301 246.748 164.101C248.748 156.901 247.348 147.901 241.748 142.501C228.148 129.701 209.548 144.501 205.548 158.901C205.348 159.501 204.948 159.901 204.348 159.901C203.948 160.101 203.348 160.101 202.948 159.901C201.348 158.901 199.348 159.101 197.748 158.501C195.548 157.901 193.748 156.901 192.348 155.301C192.348 155.301 192.348 155.101 192.148 155.101C191.948 154.901 191.948 154.501 191.948 154.101C192.548 145.301 198.348 137.501 204.748 131.501C210.948 125.701 217.948 123.501 226.348 122.901C235.148 122.501 244.148 122.501 251.348 128.501C257.948 133.901 262.548 142.101 264.148 150.501C265.748 159.301 264.948 167.301 260.148 174.901C254.748 183.101 247.948 189.701 241.148 196.501C234.348 203.301 228.148 210.501 223.148 218.701C217.348 227.701 211.948 237.901 210.948 248.501C227.948 245.501 246.748 243.301 264.148 244.701C264.748 244.701 265.148 245.101 265.348 245.701C266.148 245.701 266.748 245.901 266.948 246.701ZM347.942 191.101C356.142 199.101 360.942 209.901 360.542 221.301C360.142 231.301 357.742 243.501 351.342 251.501C339.142 266.501 311.942 268.701 296.542 257.101C276.942 242.101 274.342 212.301 275.942 189.701C277.342 169.301 280.342 140.701 299.142 128.501C308.742 122.101 321.742 119.301 332.542 124.301C343.742 129.501 350.142 139.501 354.342 150.701C354.542 151.301 354.342 151.901 353.942 152.301C353.942 152.701 353.742 153.301 353.142 153.501C349.342 155.301 345.742 156.701 341.342 156.701C340.742 156.701 340.342 156.301 340.142 155.701C339.742 155.501 339.342 155.101 339.342 154.501C337.942 140.501 316.542 132.701 306.942 143.301C295.742 155.901 294.742 171.501 294.142 187.501C310.542 179.301 333.942 177.701 347.942 191.101ZM337.942 240.901C344.942 230.701 347.742 214.101 337.742 204.901C325.542 194.101 307.342 193.901 293.942 202.701C294.142 214.901 294.942 228.901 301.142 239.901C304.742 246.301 310.742 252.301 318.742 251.701C326.342 251.501 333.542 247.101 337.942 240.901ZM410.604 170.101C404.604 174.901 397.404 176.701 389.804 174.901C376.404 171.901 366.204 160.301 369.004 145.901C371.404 134.101 380.004 122.301 392.804 122.301H393.204C408.404 122.501 420.604 134.701 420.404 150.101C420.204 158.501 417.404 164.901 410.604 170.101ZM460.805 131.701C449.204 154.901 437.604 177.901 426.204 200.901C415.804 221.501 406.204 242.501 395.204 262.701C394.604 263.901 393.404 263.701 392.804 262.901C392.404 263.101 392.004 263.101 391.604 262.701C389.004 260.701 386.004 259.101 383.204 257.501C382.204 257.101 382.204 255.901 382.804 255.301C402.404 210.701 424.004 166.901 446.604 123.701C447.004 122.901 447.604 122.701 448.204 122.901C448.804 122.701 449.804 122.701 450.204 123.501C451.204 124.701 453.404 125.701 454.804 126.301L459.804 128.901C460.404 129.101 460.604 129.501 460.404 130.101C461.004 130.501 461.204 131.101 460.805 131.701ZM391.604 158.101C397.204 159.501 403.804 156.501 404.604 150.501C405.204 146.301 403.604 141.301 400.004 138.901C396.004 136.301 391.604 137.301 388.204 140.101C388.204 140.701 388.204 141.301 387.604 141.701C381.404 146.101 384.804 156.501 391.604 158.101ZM474.404 233.301C475.804 246.501 466.405 262.901 452.404 263.901C437.204 265.301 421.604 255.701 421.604 239.101C421.404 224.701 429.804 209.501 445.604 209.301C459.204 207.501 473.004 220.101 474.404 233.301ZM456.004 243.701C458.404 239.701 461.004 231.101 456.804 227.301C452.804 223.701 446.604 224.501 442.404 226.901C442.004 227.101 441.404 227.101 441.004 227.101C436.404 231.501 436.804 241.301 441.004 245.301C445.804 249.901 452.404 249.501 456.004 243.701Z" fill="#FFDC3E"/>
</svg>
