<svg width="672" height="670" viewBox="0 0 672 670" fill="none" xmlns="http://www.w3.org/2000/svg">
<path d="M0.792969 330.5C0.792969 418.154 35.6134 502.218 97.5942 564.199C159.575 626.18 243.639 661 331.293 661C418.947 661 503.011 626.18 564.992 564.199C626.973 502.218 661.793 418.154 661.793 330.5L331.293 330.5H0.792969Z" fill="#B0DF44" stroke="#B0DF44" stroke-width="20"/>
<path d="M281.393 524C282.193 524.8 281.793 526.6 280.393 526.6C273.793 527.4 267.393 527 260.793 527V527.2C260.793 536.6 260.793 546.2 261.393 555.6V555.8C261.793 556.8 261.193 558 259.993 558H248.793C248.193 558 247.793 557.8 247.393 557.4C246.593 557.6 245.593 557 245.593 556C246.393 546.4 245.793 537 245.193 527.6C225.593 527.8 205.993 527.2 186.393 526.8C186.193 526.8 185.793 526.8 185.593 526.6C184.393 527 183.193 525.2 184.193 524C188.793 518.4 192.593 512 196.393 506C203.193 495.4 209.793 485 216.393 474.4C228.993 454.4 241.193 434.2 253.593 414.2C253.993 413.6 254.793 413.4 255.393 413.6C255.993 413.4 256.993 413.6 256.993 414.6C261.593 446.8 261.593 479.2 260.993 511.6C266.793 511.6 272.593 512.2 278.593 512C278.793 510.6 281.393 510.6 281.393 512.4V524ZM245.793 457.2C233.393 475 222.593 493.6 211.593 512.2C222.593 512.2 233.793 512.2 244.793 512C244.993 493.8 245.993 475.4 245.793 457.2ZM325.738 463.8C319.738 468.6 312.538 470.4 304.938 468.6C291.538 465.6 281.338 454 284.138 439.6C286.538 427.8 295.138 416 307.938 416H308.338C323.538 416.2 335.738 428.4 335.538 443.8C335.338 452.2 332.538 458.6 325.738 463.8ZM375.938 425.4C364.338 448.6 352.738 471.6 341.338 494.6C330.938 515.2 321.338 536.2 310.338 556.4C309.738 557.6 308.538 557.4 307.938 556.6C307.538 556.8 307.138 556.8 306.738 556.4C304.138 554.4 301.138 552.8 298.338 551.2C297.338 550.8 297.338 549.6 297.938 549C317.538 504.4 339.138 460.6 361.738 417.4C362.138 416.6 362.738 416.4 363.338 416.6C363.938 416.4 364.938 416.4 365.338 417.2C366.338 418.4 368.538 419.4 369.938 420L374.938 422.6C375.538 422.8 375.738 423.2 375.538 423.8C376.138 424.2 376.338 424.8 375.938 425.4ZM306.738 451.8C312.338 453.2 318.938 450.2 319.738 444.2C320.338 440 318.738 435 315.138 432.6C311.138 430 306.738 431 303.338 433.8C303.338 434.4 303.338 435 302.738 435.4C296.538 439.8 299.938 450.2 306.738 451.8ZM389.538 527C390.938 540.2 381.538 556.6 367.538 557.6C352.338 559 336.738 549.4 336.738 532.8C336.538 518.4 344.938 503.2 360.738 503C374.338 501.2 388.138 513.8 389.538 527ZM371.138 537.4C373.538 533.4 376.138 524.8 371.938 521C367.938 517.4 361.738 518.2 357.538 520.6C357.138 520.8 356.538 520.8 356.138 520.8C351.538 525.2 351.938 535 356.138 539C360.938 543.6 367.538 543.2 371.138 537.4Z" fill="#FA5DAE"/>
</svg>
