<svg width="1440" height="254" viewBox="0 0 1440 254" fill="none" xmlns="http://www.w3.org/2000/svg">
<path d="M203 27.5211C211 40.0211 45.2 76.5211 0 160.521V293.021H1440.5V117.021C1440.5 117.021 1264 87.0212 1220.5 45.0211C1177 3.02096 1094.73 33.1766 1014 27.5211C905.562 19.9249 768.5 42.521 736 13.5211C703.5 -15.4788 626.545 10.775 556.5 13.5211C486.631 16.2603 446.364 42.2035 378 27.5211C364.337 24.5867 357.257 20.4763 343.5 18.0211C331.526 15.8842 324.567 16.547 312.5 15.0211C286.665 11.7542 272.444 -3.02093 247 2.52109C227.69 6.72705 195 15.0211 203 27.5211Z" fill="#D2E797"/>
</svg>
