<svg width="1207" height="886" viewBox="0 0 1207 886" fill="none" xmlns="http://www.w3.org/2000/svg">
<path d="M486.658 421.1C486.758 428.502 486.858 435.954 486.908 443.356C486.958 447.007 487.008 450.658 487.058 454.359C487.108 457.01 486.608 460.411 489.008 462.212C490.859 463.612 493.46 463.912 495.71 464.012C499.261 464.212 502.812 464.262 506.363 464.362C513.715 464.612 521.117 464.812 528.469 465.063C543.174 465.513 557.828 465.963 572.532 466.413C587.286 466.863 601.99 467.313 616.745 467.763C618.345 467.813 620.045 468.063 621.596 467.813C622.946 467.613 623.496 466.663 623.797 465.363C624.147 463.712 624.297 461.962 624.547 460.261C624.797 458.461 625.047 456.66 625.297 454.81C626.247 447.558 627.248 440.305 628.198 433.053C628.448 431.253 628.698 429.452 628.948 427.602C629.048 426.952 629.898 426.552 630.498 426.752C631.199 426.952 631.449 427.602 631.349 428.302C630.348 435.854 629.298 443.356 628.298 450.908C627.798 454.61 627.298 458.361 626.797 462.062C626.397 465.012 626.347 468.914 622.946 470.014C621.396 470.514 619.645 470.314 618.045 470.264C616.094 470.214 614.194 470.164 612.243 470.064C608.492 469.964 604.741 469.814 600.99 469.714C593.438 469.464 585.886 469.264 578.334 469.014C563.229 468.564 548.075 468.063 532.971 467.613C525.419 467.363 517.866 467.163 510.314 466.913C506.563 466.813 502.812 466.663 499.061 466.563C496.21 466.463 493.259 466.513 490.509 465.613C487.908 464.762 485.657 462.962 485.007 460.211C484.607 458.511 484.657 456.76 484.657 455.06C484.657 453.159 484.607 451.309 484.607 449.408C484.507 441.806 484.407 434.204 484.307 426.552C484.307 424.701 484.257 422.901 484.257 421.05C484.157 419.5 486.658 419.5 486.658 421.1Z" fill="black"/>
<path d="M471.203 427.202C476.855 426.651 481.606 422.9 485.757 419.349C486.508 418.699 487.508 418.999 487.858 419.9C489.759 424.951 493.31 429.352 497.861 432.303C499.211 433.203 497.961 435.354 496.61 434.454C491.509 431.103 487.608 426.251 485.457 420.55C486.158 420.75 486.858 420.9 487.558 421.1C482.857 425.151 477.605 429.052 471.253 429.702C470.603 429.752 470.003 429.102 470.003 428.452C469.953 427.752 470.553 427.302 471.203 427.202Z" fill="black"/>
<path d="M616.945 432.253C620.946 431.403 624.397 429.252 627.748 427.002C628.548 426.452 629.348 425.701 630.398 425.751C631.549 425.801 632.099 426.852 632.649 427.702C633.699 429.352 634.75 431.053 635.95 432.603C637.25 434.404 638.751 436.054 640.401 437.505C640.901 437.955 640.851 438.805 640.401 439.255C639.901 439.755 639.151 439.705 638.651 439.255C635.8 436.805 633.599 433.704 631.549 430.603C631.299 430.203 631.049 429.802 630.799 429.402C630.598 429.052 630.198 428.602 630.048 428.202L629.948 428.052C629.948 428.002 630.348 428.252 630.348 428.202C630.348 428.202 629.948 428.452 629.898 428.452C629.498 428.702 629.098 429.002 628.698 429.252C627.097 430.353 625.447 431.403 623.697 432.303C621.746 433.304 619.695 434.154 617.545 434.604C616.044 435.004 615.344 432.603 616.945 432.253Z" fill="black"/>
<path d="M1049.1 439.246C1049 431.844 1048.9 424.391 1048.85 416.989C1048.8 413.338 1048.75 409.687 1048.7 405.986C1048.65 403.335 1049.15 399.935 1046.75 398.134C1044.9 396.734 1042.3 396.434 1040.05 396.333C1036.5 396.133 1032.95 396.083 1029.39 395.983C1022.04 395.733 1014.64 395.533 1007.29 395.283C992.584 394.833 977.93 394.383 963.226 393.933C948.472 393.483 933.767 393.033 919.013 392.582C917.413 392.532 915.712 392.282 914.162 392.532C912.812 392.732 912.261 393.683 911.961 394.983C911.611 396.634 911.461 398.384 911.211 400.085C910.961 401.885 910.711 403.686 910.461 405.536C909.511 412.788 908.51 420.04 907.56 427.292C907.31 429.093 907.06 430.893 906.81 432.744C906.71 433.394 905.86 433.794 905.259 433.594C904.559 433.394 904.309 432.744 904.409 432.044C905.409 424.491 906.46 416.989 907.46 409.437C907.96 405.736 908.46 401.985 908.96 398.284C909.361 395.333 909.411 391.432 912.812 390.332C914.362 389.832 916.112 390.032 917.713 390.082C919.663 390.132 921.564 390.182 923.515 390.282C927.266 390.382 931.017 390.532 934.768 390.632C942.32 390.882 949.872 391.082 957.424 391.332C972.528 391.782 987.683 392.282 1002.79 392.732C1010.34 392.983 1017.89 393.183 1025.44 393.433C1029.19 393.533 1032.95 393.683 1036.7 393.783C1039.55 393.883 1042.5 393.833 1045.25 394.733C1047.85 395.583 1050.1 397.384 1050.75 400.135C1051.15 401.835 1051.1 403.586 1051.1 405.286C1051.1 407.187 1051.15 409.037 1051.15 410.938C1051.25 418.54 1051.35 426.142 1051.45 433.794C1051.45 435.645 1051.5 437.445 1051.5 439.296C1051.6 440.846 1049.1 440.846 1049.1 439.246Z" fill="black"/>
<path d="M1064.55 433.144C1058.9 433.694 1054.15 437.445 1050 440.996C1049.25 441.647 1048.25 441.346 1047.9 440.446C1046 435.395 1042.45 430.993 1037.9 428.043C1036.55 427.142 1037.8 424.992 1039.15 425.892C1044.25 429.243 1048.15 434.094 1050.3 439.796C1049.6 439.596 1048.9 439.446 1048.2 439.246C1052.9 435.195 1058.15 431.294 1064.5 430.643C1065.15 430.593 1065.75 431.244 1065.75 431.894C1065.8 432.594 1065.2 433.044 1064.55 433.144Z" fill="black"/>
<path d="M918.813 428.092C914.812 428.943 911.361 431.093 908.01 433.344C907.21 433.894 906.41 434.644 905.359 434.594C904.209 434.544 903.659 433.494 903.109 432.644C902.058 430.993 901.008 429.293 899.808 427.742C898.507 425.942 897.007 424.291 895.357 422.841C894.856 422.391 894.906 421.541 895.357 421.09C895.857 420.59 896.607 420.64 897.107 421.09C899.958 423.541 902.158 426.642 904.209 429.743C904.459 430.143 904.709 430.543 904.959 430.943C905.159 431.293 905.559 431.744 905.71 432.144L905.81 432.294C905.81 432.344 905.409 432.094 905.409 432.144C905.409 432.144 905.81 431.894 905.86 431.894C906.26 431.644 906.66 431.343 907.06 431.093C908.66 429.993 910.311 428.943 912.061 428.042C914.012 427.042 916.062 426.192 918.213 425.742C919.713 425.342 920.414 427.742 918.813 428.092Z" fill="black"/>
<path d="M632.658 267.1C632.758 274.502 632.858 281.954 632.908 289.356C632.958 293.007 633.008 296.658 633.058 300.359C633.108 303.01 632.608 306.411 635.008 308.212C636.859 309.612 639.46 309.912 641.71 310.012C645.261 310.212 648.812 310.262 652.363 310.362C659.715 310.612 667.117 310.812 674.469 311.063C689.174 311.513 703.828 311.963 718.532 312.413C733.286 312.863 747.99 313.313 762.745 313.763C764.345 313.813 766.045 314.063 767.596 313.813C768.946 313.613 769.496 312.663 769.797 311.363C770.147 309.712 770.297 307.962 770.547 306.261C770.797 304.461 771.047 302.66 771.297 300.81C772.247 293.558 773.248 286.305 774.198 279.053C774.448 277.253 774.698 275.452 774.948 273.602C775.048 272.952 775.898 272.552 776.498 272.752C777.199 272.952 777.449 273.602 777.349 274.302C776.348 281.854 775.298 289.356 774.298 296.908C773.798 300.61 773.298 304.361 772.797 308.062C772.397 311.012 772.347 314.914 768.946 316.014C767.396 316.514 765.645 316.314 764.045 316.264C762.094 316.214 760.194 316.164 758.243 316.064C754.492 315.964 750.741 315.814 746.99 315.714C739.438 315.464 731.886 315.264 724.334 315.014C709.229 314.564 694.075 314.063 678.971 313.613C671.419 313.363 663.866 313.163 656.314 312.913C652.563 312.813 648.812 312.663 645.061 312.563C642.21 312.463 639.259 312.513 636.509 311.613C633.908 310.762 631.657 308.962 631.007 306.211C630.607 304.511 630.657 302.76 630.657 301.06C630.657 299.159 630.607 297.309 630.607 295.408C630.507 287.806 630.407 280.204 630.307 272.552C630.307 270.701 630.257 268.901 630.257 267.05C630.157 265.5 632.658 265.5 632.658 267.1Z" fill="black"/>
<path d="M617.203 273.202C622.855 272.651 627.606 268.9 631.757 265.349C632.508 264.699 633.508 264.999 633.858 265.9C635.759 270.951 639.31 275.352 643.861 278.303C645.211 279.203 643.961 281.354 642.61 280.454C637.509 277.103 633.608 272.251 631.457 266.55C632.158 266.75 632.858 266.9 633.558 267.1C628.857 271.151 623.605 275.052 617.253 275.702C616.603 275.752 616.003 275.102 616.003 274.452C615.953 273.752 616.553 273.302 617.203 273.202Z" fill="black"/>
<path d="M762.945 278.253C766.946 277.403 770.397 275.252 773.748 273.002C774.548 272.452 775.348 271.701 776.398 271.751C777.549 271.801 778.099 272.852 778.649 273.702C779.699 275.352 780.75 277.053 781.95 278.603C783.25 280.404 784.751 282.054 786.401 283.505C786.901 283.955 786.851 284.805 786.401 285.255C785.901 285.755 785.151 285.705 784.651 285.255C781.8 282.805 779.599 279.704 777.549 276.603C777.299 276.203 777.049 275.802 776.799 275.402C776.598 275.052 776.198 274.602 776.048 274.202L775.948 274.052C775.948 274.002 776.348 274.252 776.348 274.202C776.348 274.202 775.948 274.452 775.898 274.452C775.498 274.702 775.098 275.002 774.698 275.252C773.097 276.353 771.447 277.403 769.697 278.303C767.746 279.304 765.695 280.154 763.545 280.604C762.044 281.004 761.344 278.603 762.945 278.253Z" fill="black"/>
<path d="M908.658 752.246C908.758 744.844 908.858 737.391 908.908 729.989C908.958 726.338 909.008 722.687 909.058 718.986C909.108 716.335 908.608 712.935 911.008 711.134C912.859 709.734 915.46 709.434 917.71 709.333C921.261 709.133 924.812 709.083 928.363 708.983C935.715 708.733 943.117 708.533 950.469 708.283C965.174 707.833 979.828 707.383 994.532 706.933C1009.29 706.483 1023.99 706.033 1038.74 705.582C1040.34 705.532 1042.05 705.282 1043.6 705.532C1044.95 705.732 1045.5 706.683 1045.8 707.983C1046.15 709.634 1046.3 711.384 1046.55 713.085C1046.8 714.885 1047.05 716.686 1047.3 718.536C1048.25 725.788 1049.25 733.04 1050.2 740.292C1050.45 742.093 1050.7 743.893 1050.95 745.744C1051.05 746.394 1051.9 746.794 1052.5 746.594C1053.2 746.394 1053.45 745.744 1053.35 745.044C1052.35 737.491 1051.3 729.989 1050.3 722.437C1049.8 718.736 1049.3 714.985 1048.8 711.284C1048.4 708.333 1048.35 704.432 1044.95 703.332C1043.4 702.832 1041.65 703.032 1040.04 703.082C1038.09 703.132 1036.19 703.182 1034.24 703.282C1030.49 703.382 1026.74 703.532 1022.99 703.632C1015.44 703.882 1007.89 704.082 1000.33 704.332C985.229 704.782 970.075 705.282 954.971 705.732C947.419 705.983 939.866 706.183 932.314 706.433C928.563 706.533 924.812 706.683 921.061 706.783C918.21 706.883 915.259 706.833 912.509 707.733C909.908 708.583 907.657 710.384 907.007 713.135C906.607 714.835 906.657 716.586 906.657 718.286C906.657 720.187 906.607 722.037 906.607 723.938C906.507 731.54 906.407 739.142 906.307 746.794C906.307 748.645 906.257 750.445 906.257 752.296C906.157 753.846 908.658 753.846 908.658 752.246Z" fill="black"/>
<path d="M893.203 746.144C898.855 746.694 903.606 750.445 907.757 753.996C908.508 754.647 909.508 754.346 909.858 753.446C911.759 748.395 915.31 743.993 919.861 741.043C921.211 740.142 919.961 737.992 918.61 738.892C913.509 742.243 909.608 747.094 907.457 752.796C908.158 752.596 908.858 752.446 909.558 752.246C904.857 748.195 899.605 744.294 893.253 743.643C892.603 743.593 892.003 744.244 892.003 744.894C891.953 745.594 892.553 746.044 893.203 746.144Z" fill="black"/>
<path d="M1038.94 741.092C1042.95 741.943 1046.4 744.093 1049.75 746.344C1050.55 746.894 1051.35 747.644 1052.4 747.594C1053.55 747.544 1054.1 746.494 1054.65 745.644C1055.7 743.993 1056.75 742.293 1057.95 740.742C1059.25 738.942 1060.75 737.291 1062.4 735.841C1062.9 735.391 1062.85 734.541 1062.4 734.09C1061.9 733.59 1061.15 733.64 1060.65 734.09C1057.8 736.541 1055.6 739.642 1053.55 742.743C1053.3 743.143 1053.05 743.543 1052.8 743.943C1052.6 744.293 1052.2 744.744 1052.05 745.144L1051.95 745.294C1051.95 745.344 1052.35 745.094 1052.35 745.144C1052.35 745.144 1051.95 744.894 1051.9 744.894C1051.5 744.644 1051.1 744.343 1050.7 744.093C1049.1 742.993 1047.45 741.943 1045.7 741.042C1043.75 740.042 1041.7 739.192 1039.54 738.742C1038.04 738.342 1037.34 740.742 1038.94 741.092Z" fill="black"/>
<path d="M826.948 198.206C826.987 205.609 827.026 213.061 827.046 220.463C827.066 224.114 827.086 227.765 827.105 231.466C827.125 234.117 826.928 237.518 827.874 239.318C828.604 240.719 829.629 241.019 830.517 241.119C831.917 241.319 833.317 241.369 834.716 241.469C837.615 241.719 840.533 241.919 843.432 242.169C849.229 242.619 855.006 243.069 860.803 243.519C866.62 243.969 872.417 244.42 878.234 244.87C878.865 244.92 879.535 245.17 880.147 244.92C880.679 244.72 880.896 243.769 881.014 242.469C881.152 240.819 881.211 239.068 881.31 237.368C881.409 235.567 881.507 233.767 881.606 231.916C881.98 224.664 882.375 217.412 882.749 210.16C882.848 208.359 882.947 206.559 883.045 204.708C883.085 204.058 883.42 203.658 883.656 203.858C883.933 204.058 884.031 204.708 883.992 205.409C883.597 212.961 883.183 220.463 882.789 228.015C882.592 231.716 882.395 235.467 882.197 239.168C882.04 242.119 882.02 246.02 880.679 247.12C880.068 247.621 879.378 247.42 878.747 247.37C877.978 247.32 877.228 247.27 876.459 247.17C874.981 247.07 873.502 246.92 872.023 246.82C869.045 246.57 866.068 246.37 863.091 246.12C857.136 245.67 851.161 245.17 845.206 244.72C842.229 244.47 839.252 244.27 836.274 244.019C834.795 243.919 833.317 243.769 831.838 243.669C830.714 243.569 829.55 243.619 828.466 242.719C827.441 241.869 826.553 240.068 826.297 237.318C826.139 235.617 826.159 233.867 826.159 232.166C826.159 230.266 826.139 228.415 826.139 226.514C826.1 218.912 826.06 211.31 826.021 203.658C826.021 201.807 826.001 200.007 826.001 198.156C825.962 196.606 826.948 196.606 826.948 198.206Z" fill="black"/>
<path d="M872.716 209.36C875.874 208.51 878.597 206.359 881.242 204.109C881.873 203.559 882.505 202.808 883.334 202.858C884.241 202.908 884.676 203.959 885.11 204.809C885.939 206.459 886.767 208.16 887.715 209.71C888.741 211.511 889.925 213.161 891.228 214.612C891.622 215.062 891.583 215.912 891.228 216.362C890.833 216.862 890.241 216.812 889.846 216.362C887.596 213.911 885.86 210.811 884.241 207.71C884.044 207.31 883.847 206.909 883.649 206.509C883.491 206.159 883.176 205.709 883.057 205.309L882.978 205.159C882.978 205.109 883.294 205.359 883.294 205.309C883.294 205.309 882.978 205.559 882.939 205.559C882.623 205.809 882.307 206.109 881.992 206.359C880.729 207.46 879.426 208.51 878.045 209.41C876.505 210.41 874.887 211.261 873.19 211.711C872.006 212.111 871.453 209.71 872.716 209.36Z" fill="black"/>
<path d="M476.658 701.246C476.758 693.844 476.858 686.391 476.908 678.989C476.958 675.338 477.008 671.687 477.058 667.986C477.108 665.335 476.608 661.935 479.008 660.134C480.859 658.734 483.46 658.434 485.71 658.333C489.261 658.133 492.812 658.083 496.363 657.983C503.715 657.733 511.117 657.533 518.469 657.283C533.174 656.833 547.828 656.383 562.532 655.933C577.286 655.483 591.99 655.033 606.745 654.582C608.345 654.532 610.045 654.282 611.596 654.532C612.946 654.732 613.496 655.683 613.797 656.983C614.147 658.634 614.297 660.384 614.547 662.085C614.797 663.885 615.047 665.686 615.297 667.536C616.247 674.788 617.248 682.04 618.198 689.292C618.448 691.093 618.698 692.893 618.948 694.744C619.048 695.394 619.898 695.794 620.498 695.594C621.199 695.394 621.449 694.744 621.349 694.044C620.348 686.491 619.298 678.989 618.298 671.437C617.798 667.736 617.298 663.985 616.797 660.284C616.397 657.333 616.347 653.432 612.946 652.332C611.396 651.832 609.645 652.032 608.045 652.082C606.094 652.132 604.194 652.182 602.243 652.282C598.492 652.382 594.741 652.532 590.99 652.632C583.438 652.882 575.886 653.082 568.334 653.332C553.229 653.782 538.075 654.282 522.971 654.732C515.419 654.983 507.866 655.183 500.314 655.433C496.563 655.533 492.812 655.683 489.061 655.783C486.21 655.883 483.259 655.833 480.509 656.733C477.908 657.583 475.657 659.384 475.007 662.135C474.607 663.835 474.657 665.586 474.657 667.286C474.657 669.187 474.607 671.037 474.607 672.938C474.507 680.54 474.407 688.142 474.307 695.794C474.307 697.645 474.257 699.445 474.257 701.296C474.157 702.846 476.658 702.846 476.658 701.246Z" fill="black"/>
<path d="M461.203 695.144C466.855 695.694 471.606 699.445 475.757 702.996C476.508 703.647 477.508 703.346 477.858 702.446C479.759 697.395 483.31 692.993 487.861 690.043C489.211 689.142 487.961 686.992 486.61 687.892C481.509 691.243 477.608 696.094 475.457 701.796C476.158 701.596 476.858 701.446 477.558 701.246C472.857 697.195 467.605 693.294 461.253 692.643C460.603 692.593 460.003 693.244 460.003 693.894C459.953 694.594 460.553 695.044 461.203 695.144Z" fill="black"/>
<path d="M606.945 690.092C610.946 690.943 614.397 693.093 617.748 695.344C618.548 695.894 619.348 696.644 620.398 696.594C621.549 696.544 622.099 695.494 622.649 694.644C623.699 692.993 624.75 691.293 625.95 689.742C627.25 687.942 628.751 686.291 630.401 684.841C630.901 684.391 630.851 683.541 630.401 683.09C629.901 682.59 629.151 682.64 628.651 683.09C625.8 685.541 623.599 688.642 621.549 691.743C621.299 692.143 621.049 692.543 620.799 692.943C620.598 693.293 620.198 693.744 620.048 694.144L619.948 694.294C619.948 694.344 620.348 694.094 620.348 694.144C620.348 694.144 619.948 693.894 619.898 693.894C619.498 693.644 619.098 693.343 618.698 693.093C617.097 691.993 615.447 690.943 613.697 690.042C611.746 689.042 609.695 688.192 607.545 687.742C606.044 687.342 605.344 689.742 606.945 690.092Z" fill="black"/>
<path d="M540.788 521.712C548.35 484.396 567.912 450.578 596.488 425.418C625.064 400.257 661.087 385.135 699.06 382.358L711.784 556.366L540.788 521.712Z" fill="#2F4157" stroke="#2F4157" stroke-width="20"/>
<path d="M885.223 658.607C860.999 699.21 823.2 729.941 778.506 745.367C733.813 760.792 685.105 759.917 640.995 742.898C596.884 725.879 560.211 693.811 537.461 652.364C514.711 610.917 507.348 562.761 516.675 516.41L713.129 555.94L885.223 658.607Z" fill="#FA5DAE" stroke="#FA5DAE" stroke-width="20"/>
<path d="M806.254 299.772C866.087 322.144 916.245 364.683 948.087 420.06C979.929 475.437 991.461 540.185 980.697 603.15L710.115 556.894L806.254 299.772Z" fill="#B0DF44" stroke="#B0DF44" stroke-width="20"/>
<path d="M1124.01 623.007C1115.96 674.915 1098.18 724.835 1071.59 770.136L712.157 559.17L1124.01 623.007Z" fill="#F79335" stroke="#F79335" stroke-width="20"/>
<path d="M686.103 263.649C723.376 259.984 761.005 263.397 797.009 273.71L715.187 559.375L686.103 263.649Z" fill="#FFDC3E" stroke="#FFDC3E" stroke-width="20"/>
<path d="M823.469 184.65C831.289 186.91 839.036 189.416 846.698 192.163L715.539 557.994L823.469 184.65Z" fill="#79B1BD" stroke="#79B1BD" stroke-width="20"/>
<circle cx="709.838" cy="559.904" r="106.388" transform="rotate(-62.5444 709.838 559.904)" fill="#D2E797"/>
<path d="M624.704 633.628C615.901 621.09 603.993 613.204 598.617 593.925C594.487 574.667 596.863 571.374 597.218 549.62C598.071 533.206 604.739 517.857 610.015 508.038C611.813 504.61 613.39 501.77 614.443 499.489C618.833 490.657 622.316 491.913 630.955 481.519C640.074 471.36 647.489 466.842 658.431 462.336C669.08 456.459 704.295 449.696 717.557 450.664C730.933 449.885 744.989 456.862 752.628 461.051C755.089 462.338 756.887 463.52 758.24 464.522C758.811 464.947 758.982 465.32 758.869 465.539C758.868 465.539 758.868 465.539 758.868 465.539C758.726 465.813 758.145 465.849 757.333 465.483C753.421 463.721 747.283 461.498 739.797 460.407C725.926 458.976 724.778 455.852 705.996 456.918C687.405 459.264 677.106 463.82 657.758 473.1C639.307 484.103 638.185 490.734 621.13 513.813C620.918 514.136 620.704 514.462 620.49 514.793C605.711 541.397 611.061 547.663 614.621 575.709C618.717 604.678 642.031 636.145 658.417 644.24C660.296 645.342 662.247 646.402 664.352 647.448C679.465 655.1 700.666 660.023 722.822 657.642C748.398 655.537 776.325 637.185 792.287 614.35C794.234 611.699 796.149 608.806 797.965 605.694C812.762 582.651 813.634 547.189 808.937 531.012C804.075 512.597 801.73 507.796 789.966 493.616C782.967 485.609 772.292 475.688 762.066 468.238C756.896 464.533 758.639 464.144 764.55 466.905C773.184 471.086 778.933 476.525 783.499 478.83C792.555 483.633 796.706 486.376 802.698 497.79C808.268 509.26 813.715 513.303 816.099 520.581C817.17 528.063 820.006 527.602 822.121 565.573C821.891 586.159 816.457 601.424 811.147 612.543C806.465 622.18 801.643 628.945 797.381 634.282C788.615 646.394 762.427 664.176 739.198 670.125C718.985 677.92 676.767 673.506 656.861 661.864C654.237 660.595 651.959 659.405 649.969 658.342C632.857 648.336 634.361 645.833 624.704 633.628Z" fill="#D2E797"/>
<path d="M404.88 729.696V735.936L403.312 738.72L400.528 740.32H397.072L394.32 738.848L392.688 736.32C392.688 735.637 392.677 735.157 392.656 734.88C392.635 734.603 392.699 734.443 392.848 734.4C393.019 734.336 393.349 734.304 393.84 734.304C394.587 734.304 394.96 734.816 394.96 735.84L397.136 737.92H400.368L402.32 735.904V732.48L400.144 730.368H397.424C396.805 730.368 396.496 729.973 396.496 729.184C396.496 728.416 396.805 728.032 397.424 728.032H400.112L402.032 726.144V723.072L400.112 721.28H397.2L395.248 723.104C395.248 724.043 394.875 724.512 394.128 724.512C393.616 724.512 393.285 724.48 393.136 724.416C392.987 724.352 392.923 724.192 392.944 723.936C392.965 723.659 392.976 723.2 392.976 722.56L394.512 720.224L397.104 718.88H400.4L403.088 720.352L404.592 722.944V726.752L402.288 728.832C400.859 728.981 401.723 729.269 404.88 729.696ZM418.346 718.88L421.418 720.512L423.21 723.52V727.168C422.954 727.829 422.74 728.373 422.57 728.8C422.42 729.227 422.303 729.536 422.218 729.728L418.09 738.432C417.62 739.477 416.916 740 415.978 740C415.039 740 415.327 738.507 416.842 735.52C418.356 732.512 418.623 731.552 417.642 732.64H414.186L411.306 730.944L409.578 727.872V723.744L411.434 720.576L414.602 718.88H418.346ZM418.25 730.176L420.65 727.552V723.616L418.25 721.344H414.666L412.138 723.776V727.84L414.506 730.176H418.25ZM438.148 717.632C438.297 717.675 438.318 718.059 438.212 718.784C438.105 719.488 437.892 720.427 437.572 721.6C437.252 722.752 436.868 724.043 436.42 725.472C435.972 726.901 435.492 728.373 434.98 729.888C434.468 731.403 433.945 732.864 433.411 734.272C432.878 735.659 432.377 736.907 431.908 738.016C431.438 739.125 431.033 739.989 430.692 740.608C430.35 741.248 430.105 741.536 429.956 741.472C429.806 741.408 429.785 741.013 429.891 740.288C430.02 739.584 430.233 738.656 430.532 737.504C430.852 736.331 431.236 735.04 431.684 733.632C432.132 732.203 432.612 730.731 433.124 729.216C433.636 727.701 434.148 726.251 434.66 724.864C435.193 723.456 435.694 722.208 436.164 721.12C436.633 720.011 437.038 719.147 437.38 718.528C437.742 717.888 437.998 717.589 438.148 717.632ZM427.716 729.248L425.828 726.4V721.696L427.716 718.88H431.172L433.06 721.696V726.368L431.14 729.248H427.716ZM430.692 726.88V721.216H428.196V726.88H430.692ZM436.836 740.32L434.948 737.472V732.8L436.836 729.952H440.292L442.18 732.8V737.472L440.292 740.32H436.836ZM439.812 737.984V732.32H437.316V737.984H439.812ZM475.255 719.2C476.108 719.2 476.535 722.667 476.535 729.6C476.535 736.533 476.108 740 475.255 740C474.402 740 473.975 738.464 473.975 735.392C473.975 732.341 472.375 730.816 469.175 730.816C465.975 730.816 464.375 732.341 464.375 735.392C464.375 738.464 463.948 740 463.095 740C462.242 740 461.815 736.533 461.815 729.6C461.815 722.667 462.242 719.2 463.095 719.2C463.948 719.2 464.375 720.736 464.375 723.808C464.375 726.88 465.975 728.416 469.175 728.416C472.375 728.416 473.975 726.88 473.975 723.808C473.975 720.736 474.402 719.2 475.255 719.2ZM493.009 724C493.243 724 493.307 724.32 493.201 724.96C493.115 725.579 492.913 726.421 492.593 727.488C492.273 728.555 491.867 729.76 491.377 731.104C490.907 732.427 490.385 733.792 489.809 735.2C489.233 736.608 488.646 737.984 488.049 739.328C487.451 740.651 486.875 741.845 486.321 742.912C485.787 743.979 485.307 744.821 484.881 745.44C484.475 746.08 484.155 746.4 483.921 746.4C483.025 746.4 483.057 745.291 484.017 743.072C484.977 740.896 484.411 737.163 482.321 731.872C480.251 726.624 479.665 724 480.561 724C481.457 724 482.715 726.112 484.337 730.336C485.958 734.539 487.579 734.539 489.201 730.336C490.843 726.112 492.113 724 493.009 724ZM512.619 725.344C512.619 726.283 511.936 726.752 510.571 726.752C509.44 726.325 508.864 726.176 508.843 726.304C508.821 726.432 509.237 726.88 510.091 727.648V732.704L508.299 735.808L505.291 737.472C504.096 737.472 502.859 737.504 501.579 737.568L499.883 738.144V739.424L500.619 740H507.435L510.763 742.368V745.728C510.763 746.176 510.336 746.4 509.483 746.4C508.629 746.4 508.203 746.283 508.203 746.048V744.032L506.443 742.464H497.323V738.272L499.531 736.992C500.555 737.013 500.448 736.789 499.211 736.32L496.875 732.992V728.576L498.699 725.408L501.739 723.68H504.587C505.205 723.915 506.592 724.011 508.747 723.968C510.133 723.968 511.125 724.085 511.722 724.32C512.32 724.533 512.619 724.875 512.619 725.344ZM505.163 735.072L507.531 732.672V728.608L505.163 726.176H501.835L499.435 728.576V732.672L501.835 735.072H505.163ZM523.94 719.136C523.94 720.181 523.386 720.704 522.276 720.704C521.167 720.704 520.612 720.181 520.612 719.136C520.612 718.112 521.167 717.6 522.276 717.6C523.386 717.6 523.94 718.112 523.94 719.136ZM525.796 737.6C527.29 737.6 528.036 737.995 528.036 738.784C528.036 739.595 526.01 740 521.956 740C517.903 740 515.876 739.595 515.876 738.784C515.876 737.995 516.73 737.6 518.436 737.6C520.143 737.6 520.996 735.733 520.996 732C520.996 728.267 520.143 726.4 518.436 726.4C516.73 726.4 515.876 725.995 515.876 725.184C515.876 724.395 517.156 724 519.716 724C522.276 724 523.556 726.261 523.556 730.784C523.556 735.328 524.303 737.6 525.796 737.6ZM545.406 734.848C546.217 734.848 546.483 735.659 546.206 737.28L542.846 740.32H537.822L534.334 738.208L532.382 734.432V729.632L534.27 725.824L537.694 723.68H543.39L546.878 728.32C546.75 731.221 544.734 732.672 540.83 732.672C536.905 732.672 535.017 733.451 535.166 735.008L537.918 737.856H543.262C543.859 735.851 544.574 734.848 545.406 734.848ZM537.918 726.144L535.582 728.384C535.262 729.707 536.595 730.368 539.582 730.368C542.569 730.368 544.019 729.685 543.934 728.32L541.726 726.144H537.918ZM541.598 722.368C541.406 722.624 540.958 722.603 540.254 722.304C539.55 721.984 538.622 721.44 537.47 720.672C536.339 719.925 535.507 719.264 534.974 718.688C534.441 718.112 534.259 717.696 534.43 717.44C534.622 717.184 535.07 717.216 535.774 717.536C536.478 717.856 537.417 718.389 538.59 719.136C539.721 719.883 540.542 720.544 541.054 721.12C541.587 721.696 541.769 722.112 541.598 722.368ZM559.928 723.68L562.296 724.736L563.928 727.296V734.688C563.928 738.229 563.501 740 562.648 740C561.794 740 561.368 738.336 561.368 735.008V726.24H555.64L553.368 728.992C553.069 730.144 552.92 732.256 552.92 735.328C552.92 738.443 552.493 740 551.64 740C550.786 740 550.36 737.333 550.36 732C550.36 726.667 550.786 724 551.64 724C552.493 724 552.92 724.789 552.92 726.368C552.92 727.968 553.112 728.149 553.496 726.912L556.376 723.68H559.928ZM580.594 734.848C581.404 734.848 581.671 735.659 581.394 737.28L578.034 740.32H573.01L569.522 738.208L567.57 734.432V729.632L569.458 725.824L572.882 723.68H578.578L582.066 728.32C581.938 731.221 579.922 732.672 576.018 732.672C572.092 732.672 570.204 733.451 570.354 735.008L573.106 737.856H578.45C579.047 735.851 579.762 734.848 580.594 734.848ZM573.106 726.144L570.77 728.384C570.45 729.707 571.783 730.368 574.77 730.368C577.756 730.368 579.207 729.685 579.122 728.32L576.914 726.144H573.106Z" fill="#232323"/>
<path d="M401.272 384.6C404.344 384.6 405.88 384.995 405.88 385.784C405.88 386.595 403.853 387 399.8 387C395.747 387 393.72 386.595 393.72 385.784V384.6C393.72 384.6 393.763 384.547 393.848 384.44C393.955 384.312 394.104 384.141 394.296 383.928C394.275 383.949 394.627 383.523 395.352 382.648C396.099 381.752 397.197 380.429 398.648 378.68L401.656 374.84L402.776 372.664V370.072L400.952 368.28H398.072L396.024 370.104C396.024 371.043 395.651 371.512 394.904 371.512C394.413 371.512 394.083 371.491 393.912 371.448C393.763 371.384 393.699 371.224 393.72 370.968C393.741 370.691 393.752 370.232 393.752 369.592L395.32 367.224L397.976 365.88H401.272L403.896 367.352L405.336 369.912V372.856L403.864 375.864L401.816 378.52C401.24 379.203 400.739 379.789 400.312 380.28C399.907 380.749 399.576 381.133 399.32 381.432C399.341 381.411 399.235 381.539 399 381.816C398.787 382.072 398.456 382.467 398.008 383C397.112 384.067 398.2 384.6 401.272 384.6ZM421.042 365.88L424.754 371.8V381.4L421.042 387.32H413.746L410.034 381.4V371.8L413.746 365.88H421.042ZM419.794 384.76L422.194 380.408V372.792L419.794 368.44H414.994L412.594 372.792V380.408L414.994 384.76H419.794ZM439.148 364.632C439.297 364.675 439.318 365.059 439.212 365.784C439.105 366.488 438.892 367.427 438.572 368.6C438.252 369.752 437.868 371.043 437.42 372.472C436.972 373.901 436.492 375.373 435.98 376.888C435.468 378.403 434.945 379.864 434.411 381.272C433.878 382.659 433.377 383.907 432.908 385.016C432.438 386.125 432.033 386.989 431.692 387.608C431.35 388.248 431.105 388.536 430.956 388.472C430.806 388.408 430.785 388.013 430.891 387.288C431.02 386.584 431.233 385.656 431.532 384.504C431.852 383.331 432.236 382.04 432.684 380.632C433.132 379.203 433.612 377.731 434.124 376.216C434.636 374.701 435.148 373.251 435.66 371.864C436.193 370.456 436.694 369.208 437.164 368.12C437.633 367.011 438.038 366.147 438.38 365.528C438.742 364.888 438.998 364.589 439.148 364.632ZM428.716 376.248L426.828 373.4V368.696L428.716 365.88H432.172L434.06 368.696V373.368L432.14 376.248H428.716ZM431.692 373.88V368.216H429.196V373.88H431.692ZM437.836 387.32L435.948 384.472V379.8L437.836 376.952H441.292L443.18 379.8V384.472L441.292 387.32H437.836ZM440.812 384.984V379.32H438.316V384.984H440.812ZM476.255 366.2C477.108 366.2 477.535 369.667 477.535 376.6C477.535 383.533 477.108 387 476.255 387C475.402 387 474.975 385.464 474.975 382.392C474.975 379.341 473.375 377.816 470.175 377.816C466.975 377.816 465.375 379.341 465.375 382.392C465.375 385.464 464.948 387 464.095 387C463.242 387 462.815 383.533 462.815 376.6C462.815 369.667 463.242 366.2 464.095 366.2C464.948 366.2 465.375 367.736 465.375 370.808C465.375 373.88 466.975 375.416 470.175 375.416C473.375 375.416 474.975 373.88 474.975 370.808C474.975 367.736 475.402 366.2 476.255 366.2ZM494.009 371C494.243 371 494.307 371.32 494.201 371.96C494.115 372.579 493.913 373.421 493.593 374.488C493.273 375.555 492.867 376.76 492.377 378.104C491.907 379.427 491.385 380.792 490.809 382.2C490.233 383.608 489.646 384.984 489.049 386.328C488.451 387.651 487.875 388.845 487.321 389.912C486.787 390.979 486.307 391.821 485.881 392.44C485.475 393.08 485.155 393.4 484.921 393.4C484.025 393.4 484.057 392.291 485.017 390.072C485.977 387.896 485.411 384.163 483.321 378.872C481.251 373.624 480.665 371 481.561 371C482.457 371 483.715 373.112 485.337 377.336C486.958 381.539 488.579 381.539 490.201 377.336C491.843 373.112 493.113 371 494.009 371ZM513.619 372.344C513.619 373.283 512.936 373.752 511.571 373.752C510.44 373.325 509.864 373.176 509.843 373.304C509.821 373.432 510.237 373.88 511.091 374.648V379.704L509.299 382.808L506.291 384.472C505.096 384.472 503.859 384.504 502.579 384.568L500.883 385.144V386.424L501.619 387H508.435L511.763 389.368V392.728C511.763 393.176 511.336 393.4 510.483 393.4C509.629 393.4 509.203 393.283 509.203 393.048V391.032L507.443 389.464H498.323V385.272L500.531 383.992C501.555 384.013 501.448 383.789 500.211 383.32L497.875 379.992V375.576L499.699 372.408L502.739 370.68H505.587C506.205 370.915 507.592 371.011 509.747 370.968C511.133 370.968 512.125 371.085 512.722 371.32C513.32 371.533 513.619 371.875 513.619 372.344ZM506.163 382.072L508.531 379.672V375.608L506.163 373.176H502.835L500.435 375.576V379.672L502.835 382.072H506.163ZM524.94 366.136C524.94 367.181 524.386 367.704 523.276 367.704C522.167 367.704 521.612 367.181 521.612 366.136C521.612 365.112 522.167 364.6 523.276 364.6C524.386 364.6 524.94 365.112 524.94 366.136ZM526.796 384.6C528.29 384.6 529.036 384.995 529.036 385.784C529.036 386.595 527.01 387 522.956 387C518.903 387 516.876 386.595 516.876 385.784C516.876 384.995 517.73 384.6 519.436 384.6C521.143 384.6 521.996 382.733 521.996 379C521.996 375.267 521.143 373.4 519.436 373.4C517.73 373.4 516.876 372.995 516.876 372.184C516.876 371.395 518.156 371 520.716 371C523.276 371 524.556 373.261 524.556 377.784C524.556 382.328 525.303 384.6 526.796 384.6ZM546.406 381.848C547.217 381.848 547.483 382.659 547.206 384.28L543.846 387.32H538.822L535.334 385.208L533.382 381.432V376.632L535.27 372.824L538.694 370.68H544.39L547.878 375.32C547.75 378.221 545.734 379.672 541.83 379.672C537.905 379.672 536.017 380.451 536.166 382.008L538.918 384.856H544.262C544.859 382.851 545.574 381.848 546.406 381.848ZM538.918 373.144L536.582 375.384C536.262 376.707 537.595 377.368 540.582 377.368C543.569 377.368 545.019 376.685 544.934 375.32L542.726 373.144H538.918ZM542.598 369.368C542.406 369.624 541.958 369.603 541.254 369.304C540.55 368.984 539.622 368.44 538.47 367.672C537.339 366.925 536.507 366.264 535.974 365.688C535.441 365.112 535.259 364.696 535.43 364.44C535.622 364.184 536.07 364.216 536.774 364.536C537.478 364.856 538.417 365.389 539.59 366.136C540.721 366.883 541.542 367.544 542.054 368.12C542.587 368.696 542.769 369.112 542.598 369.368ZM560.928 370.68L563.296 371.736L564.928 374.296V381.688C564.928 385.229 564.501 387 563.648 387C562.794 387 562.368 385.336 562.368 382.008V373.24H556.64L554.368 375.992C554.069 377.144 553.92 379.256 553.92 382.328C553.92 385.443 553.493 387 552.64 387C551.786 387 551.36 384.333 551.36 379C551.36 373.667 551.786 371 552.64 371C553.493 371 553.92 371.789 553.92 373.368C553.92 374.968 554.112 375.149 554.496 373.912L557.376 370.68H560.928ZM581.594 381.848C582.404 381.848 582.671 382.659 582.394 384.28L579.034 387.32H574.01L570.522 385.208L568.57 381.432V376.632L570.458 372.824L573.882 370.68H579.578L583.066 375.32C582.938 378.221 580.922 379.672 577.018 379.672C573.092 379.672 571.204 380.451 571.354 382.008L574.106 384.856H579.45C580.047 382.851 580.762 381.848 581.594 381.848ZM574.106 373.144L571.77 375.384C571.45 376.707 572.783 377.368 575.77 377.368C578.756 377.368 580.207 376.685 580.122 375.32L577.914 373.144H574.106Z" fill="#232323"/>
<path d="M1005.27 471.6C1008.34 471.6 1009.88 471.995 1009.88 472.784C1009.88 473.595 1007.85 474 1003.8 474C999.747 474 997.72 473.595 997.72 472.784V471.6C997.72 471.6 997.763 471.547 997.848 471.44C997.955 471.312 998.104 471.141 998.296 470.928C998.275 470.949 998.627 470.523 999.352 469.648C1000.1 468.752 1001.2 467.429 1002.65 465.68L1005.66 461.84L1006.78 459.664V457.072L1004.95 455.28H1002.07L1000.02 457.104C1000.02 458.043 999.651 458.512 998.904 458.512C998.413 458.512 998.083 458.491 997.912 458.448C997.763 458.384 997.699 458.224 997.72 457.968C997.741 457.691 997.752 457.232 997.752 456.592L999.32 454.224L1001.98 452.88H1005.27L1007.9 454.352L1009.34 456.912V459.856L1007.86 462.864L1005.82 465.52C1005.24 466.203 1004.74 466.789 1004.31 467.28C1003.91 467.749 1003.58 468.133 1003.32 468.432C1003.34 468.411 1003.23 468.539 1003 468.816C1002.79 469.072 1002.46 469.467 1002.01 470C1001.11 471.067 1002.2 471.6 1005.27 471.6ZM1025.04 452.88L1028.75 458.8V468.4L1025.04 474.32H1017.75L1014.03 468.4V458.8L1017.75 452.88H1025.04ZM1023.79 471.76L1026.19 467.408V459.792L1023.79 455.44H1018.99L1016.59 459.792V467.408L1018.99 471.76H1023.79ZM1043.15 451.632C1043.3 451.675 1043.32 452.059 1043.21 452.784C1043.1 453.488 1042.89 454.427 1042.57 455.6C1042.25 456.752 1041.87 458.043 1041.42 459.472C1040.97 460.901 1040.49 462.373 1039.98 463.888C1039.47 465.403 1038.94 466.864 1038.41 468.272C1037.88 469.659 1037.38 470.907 1036.91 472.016C1036.44 473.125 1036.03 473.989 1035.69 474.608C1035.35 475.248 1035.1 475.536 1034.96 475.472C1034.81 475.408 1034.78 475.013 1034.89 474.288C1035.02 473.584 1035.23 472.656 1035.53 471.504C1035.85 470.331 1036.24 469.04 1036.68 467.632C1037.13 466.203 1037.61 464.731 1038.12 463.216C1038.64 461.701 1039.15 460.251 1039.66 458.864C1040.19 457.456 1040.69 456.208 1041.16 455.12C1041.63 454.011 1042.04 453.147 1042.38 452.528C1042.74 451.888 1043 451.589 1043.15 451.632ZM1032.72 463.248L1030.83 460.4V455.696L1032.72 452.88H1036.17L1038.06 455.696V460.368L1036.14 463.248H1032.72ZM1035.69 460.88V455.216H1033.2V460.88H1035.69ZM1041.84 474.32L1039.95 471.472V466.8L1041.84 463.952H1045.29L1047.18 466.8V471.472L1045.29 474.32H1041.84ZM1044.81 471.984V466.32H1042.32V471.984H1044.81ZM1080.26 453.2C1081.11 453.2 1081.53 456.667 1081.53 463.6C1081.53 470.533 1081.11 474 1080.26 474C1079.4 474 1078.98 472.464 1078.98 469.392C1078.98 466.341 1077.38 464.816 1074.18 464.816C1070.98 464.816 1069.38 466.341 1069.38 469.392C1069.38 472.464 1068.95 474 1068.1 474C1067.24 474 1066.82 470.533 1066.82 463.6C1066.82 456.667 1067.24 453.2 1068.1 453.2C1068.95 453.2 1069.38 454.736 1069.38 457.808C1069.38 460.88 1070.98 462.416 1074.18 462.416C1077.38 462.416 1078.98 460.88 1078.98 457.808C1078.98 454.736 1079.4 453.2 1080.26 453.2ZM1098.01 458C1098.24 458 1098.31 458.32 1098.2 458.96C1098.12 459.579 1097.91 460.421 1097.59 461.488C1097.27 462.555 1096.87 463.76 1096.38 465.104C1095.91 466.427 1095.38 467.792 1094.81 469.2C1094.23 470.608 1093.65 471.984 1093.05 473.328C1092.45 474.651 1091.88 475.845 1091.32 476.912C1090.79 477.979 1090.31 478.821 1089.88 479.44C1089.48 480.08 1089.16 480.4 1088.92 480.4C1088.02 480.4 1088.06 479.291 1089.02 477.072C1089.98 474.896 1089.41 471.163 1087.32 465.872C1085.25 460.624 1084.66 458 1085.56 458C1086.46 458 1087.72 460.112 1089.34 464.336C1090.96 468.539 1092.58 468.539 1094.2 464.336C1095.84 460.112 1097.11 458 1098.01 458ZM1117.62 459.344C1117.62 460.283 1116.94 460.752 1115.57 460.752C1114.44 460.325 1113.86 460.176 1113.84 460.304C1113.82 460.432 1114.24 460.88 1115.09 461.648V466.704L1113.3 469.808L1110.29 471.472C1109.1 471.472 1107.86 471.504 1106.58 471.568L1104.88 472.144V473.424L1105.62 474H1112.43L1115.76 476.368V479.728C1115.76 480.176 1115.34 480.4 1114.48 480.4C1113.63 480.4 1113.2 480.283 1113.2 480.048V478.032L1111.44 476.464H1102.32V472.272L1104.53 470.992C1105.55 471.013 1105.45 470.789 1104.21 470.32L1101.87 466.992V462.576L1103.7 459.408L1106.74 457.68H1109.59C1110.21 457.915 1111.59 458.011 1113.75 457.968C1115.13 457.968 1116.13 458.085 1116.72 458.32C1117.32 458.533 1117.62 458.875 1117.62 459.344ZM1110.16 469.072L1112.53 466.672V462.608L1110.16 460.176H1106.83L1104.43 462.576V466.672L1106.83 469.072H1110.16ZM1128.94 453.136C1128.94 454.181 1128.39 454.704 1127.28 454.704C1126.17 454.704 1125.61 454.181 1125.61 453.136C1125.61 452.112 1126.17 451.6 1127.28 451.6C1128.39 451.6 1128.94 452.112 1128.94 453.136ZM1130.8 471.6C1132.29 471.6 1133.04 471.995 1133.04 472.784C1133.04 473.595 1131.01 474 1126.96 474C1122.9 474 1120.88 473.595 1120.88 472.784C1120.88 471.995 1121.73 471.6 1123.44 471.6C1125.14 471.6 1126 469.733 1126 466C1126 462.267 1125.14 460.4 1123.44 460.4C1121.73 460.4 1120.88 459.995 1120.88 459.184C1120.88 458.395 1122.16 458 1124.72 458C1127.28 458 1128.56 460.261 1128.56 464.784C1128.56 469.328 1129.3 471.6 1130.8 471.6ZM1150.41 468.848C1151.22 468.848 1151.48 469.659 1151.21 471.28L1147.85 474.32H1142.82L1139.33 472.208L1137.38 468.432V463.632L1139.27 459.824L1142.69 457.68H1148.39L1151.88 462.32C1151.75 465.221 1149.73 466.672 1145.83 466.672C1141.9 466.672 1140.02 467.451 1140.17 469.008L1142.92 471.856H1148.26C1148.86 469.851 1149.57 468.848 1150.41 468.848ZM1142.92 460.144L1140.58 462.384C1140.26 463.707 1141.6 464.368 1144.58 464.368C1147.57 464.368 1149.02 463.685 1148.93 462.32L1146.73 460.144H1142.92ZM1146.6 456.368C1146.41 456.624 1145.96 456.603 1145.25 456.304C1144.55 455.984 1143.62 455.44 1142.47 454.672C1141.34 453.925 1140.51 453.264 1139.97 452.688C1139.44 452.112 1139.26 451.696 1139.43 451.44C1139.62 451.184 1140.07 451.216 1140.77 451.536C1141.48 451.856 1142.42 452.389 1143.59 453.136C1144.72 453.883 1145.54 454.544 1146.05 455.12C1146.59 455.696 1146.77 456.112 1146.6 456.368ZM1164.93 457.68L1167.3 458.736L1168.93 461.296V468.688C1168.93 472.229 1168.5 474 1167.65 474C1166.79 474 1166.37 472.336 1166.37 469.008V460.24H1160.64L1158.37 462.992C1158.07 464.144 1157.92 466.256 1157.92 469.328C1157.92 472.443 1157.49 474 1156.64 474C1155.79 474 1155.36 471.333 1155.36 466C1155.36 460.667 1155.79 458 1156.64 458C1157.49 458 1157.92 458.789 1157.92 460.368C1157.92 461.968 1158.11 462.149 1158.5 460.912L1161.38 457.68H1164.93ZM1185.59 468.848C1186.4 468.848 1186.67 469.659 1186.39 471.28L1183.03 474.32H1178.01L1174.52 472.208L1172.57 468.432V463.632L1174.46 459.824L1177.88 457.68H1183.58L1187.07 462.32C1186.94 465.221 1184.92 466.672 1181.02 466.672C1177.09 466.672 1175.2 467.451 1175.35 469.008L1178.11 471.856H1183.45C1184.05 469.851 1184.76 468.848 1185.59 468.848ZM1178.11 460.144L1175.77 462.384C1175.45 463.707 1176.78 464.368 1179.77 464.368C1182.76 464.368 1184.21 463.685 1184.12 462.32L1181.91 460.144H1178.11Z" fill="#232323"/>
<path d="M559.072 219.56L561.92 221.224L563.616 224.296V228.424L561.76 231.624L558.592 233.32H554.848L551.776 231.688L549.984 228.68V225.032C550.24 224.371 550.443 223.827 550.592 223.4C550.763 222.973 550.891 222.664 550.976 222.472L555.104 213.768C555.573 212.723 556.277 212.2 557.216 212.2C558.155 212.2 557.867 213.693 556.352 216.68C554.837 219.688 554.571 220.648 555.552 219.56H559.072ZM561.056 224.36L558.688 222.024H554.944L552.544 224.648V228.584L554.944 230.856H558.528L561.056 228.424V224.36ZM578.554 210.632C578.703 210.675 578.724 211.059 578.618 211.784C578.511 212.488 578.298 213.427 577.978 214.6C577.658 215.752 577.274 217.043 576.826 218.472C576.378 219.901 575.898 221.373 575.386 222.888C574.874 224.403 574.351 225.864 573.818 227.272C573.284 228.659 572.783 229.907 572.314 231.016C571.844 232.125 571.439 232.989 571.098 233.608C570.756 234.248 570.511 234.536 570.362 234.472C570.212 234.408 570.191 234.013 570.298 233.288C570.426 232.584 570.639 231.656 570.938 230.504C571.258 229.331 571.642 228.04 572.09 226.632C572.538 225.203 573.018 223.731 573.53 222.216C574.042 220.701 574.554 219.251 575.066 217.864C575.599 216.456 576.1 215.208 576.57 214.12C577.039 213.011 577.444 212.147 577.786 211.528C578.148 210.888 578.404 210.589 578.554 210.632ZM568.122 222.248L566.234 219.4V214.696L568.122 211.88H571.578L573.466 214.696V219.368L571.546 222.248H568.122ZM571.098 219.88V214.216H568.602V219.88H571.098ZM577.242 233.32L575.354 230.472V225.8L577.242 222.952H580.698L582.586 225.8V230.472L580.698 233.32H577.242ZM580.218 230.984V225.32H577.722V230.984H580.218ZM616.941 229.512L613.421 233.32H605.901L601.901 227.688V217.512L605.901 211.88H613.421L617.005 215.688C617.176 218.035 616.867 219.208 616.077 219.208C615.288 219.208 614.744 218.376 614.445 216.712L612.205 214.28H607.149L604.461 218.504V226.728L607.149 230.92H612.205L614.349 228.488C614.477 226.867 614.947 226.056 615.757 226.056C616.547 226.056 616.941 227.208 616.941 229.512ZM632.679 217C633.532 217 633.959 219.667 633.959 225C633.959 230.333 633.532 233 632.679 233C631.826 233 631.399 232.189 631.399 230.568C631.399 228.925 631.207 228.797 630.823 230.184L628.103 233.32H624.391L622.023 232.264L620.391 229.704V222.312C620.391 218.771 620.818 217 621.671 217C622.524 217 622.951 218.664 622.951 221.992V230.76H628.679L630.951 228.008C631.25 226.856 631.399 224.744 631.399 221.672C631.399 218.557 631.826 217 632.679 217ZM646.753 212.136C646.753 213.181 646.198 213.704 645.089 213.704C643.979 213.704 643.425 213.181 643.425 212.136C643.425 211.112 643.979 210.6 645.089 210.6C646.198 210.6 646.753 211.112 646.753 212.136ZM648.609 230.6C650.102 230.6 650.849 230.995 650.849 231.784C650.849 232.595 648.822 233 644.769 233C640.715 233 638.689 232.595 638.689 231.784C638.689 230.995 639.542 230.6 641.249 230.6C642.955 230.6 643.809 228.733 643.809 225C643.809 221.267 642.955 219.4 641.249 219.4C639.542 219.4 638.689 218.995 638.689 218.184C638.689 217.395 639.969 217 642.529 217C645.089 217 646.369 219.261 646.369 223.784C646.369 228.328 647.115 230.6 648.609 230.6ZM656.891 227.848C657.659 227.848 658.16 228.285 658.395 229.16L661.019 230.888H664.955L666.491 229.8V227.688L665.019 226.664C664.272 226.536 663.461 226.397 662.587 226.248C661.712 226.077 660.773 225.907 659.771 225.736L656.635 223.464V219.272L659.739 216.68H664.891L668.059 219.432C668.101 221.032 667.749 221.832 667.003 221.832C666.235 221.832 665.712 220.957 665.435 219.208H660.859L659.195 220.296V222.28L660.987 223.4C661.755 223.549 662.576 223.709 663.451 223.88C664.347 224.051 665.296 224.221 666.299 224.392L669.051 226.536V230.888L666.075 233.32H660.507L656.987 231.272L655.611 228.68C655.675 228.125 656.101 227.848 656.891 227.848ZM681.94 212.136C681.94 213.181 681.386 213.704 680.276 213.704C679.167 213.704 678.612 213.181 678.612 212.136C678.612 211.112 679.167 210.6 680.276 210.6C681.386 210.6 681.94 211.112 681.94 212.136ZM683.796 230.6C685.29 230.6 686.036 230.995 686.036 231.784C686.036 232.595 684.01 233 679.956 233C675.903 233 673.876 232.595 673.876 231.784C673.876 230.995 674.73 230.6 676.436 230.6C678.143 230.6 678.996 228.733 678.996 225C678.996 221.267 678.143 219.4 676.436 219.4C674.73 219.4 673.876 218.995 673.876 218.184C673.876 217.395 675.156 217 677.716 217C680.276 217 681.556 219.261 681.556 223.784C681.556 228.328 682.303 230.6 683.796 230.6ZM700.334 216.68L702.702 217.736L704.334 220.296V227.688C704.334 231.229 703.907 233 703.054 233C702.201 233 701.774 231.336 701.774 228.008V219.24H696.046L693.774 221.992C693.475 223.144 693.326 225.256 693.326 228.328C693.326 231.443 692.899 233 692.046 233C691.193 233 690.766 230.333 690.766 225C690.766 219.667 691.193 217 692.046 217C692.899 217 693.326 217.789 693.326 219.368C693.326 220.968 693.518 221.149 693.902 219.912L696.782 216.68H700.334ZM721 227.848C721.81 227.848 722.077 228.659 721.8 230.28L718.44 233.32H713.416L709.928 231.208L707.976 227.432V222.632L709.864 218.824L713.288 216.68H718.984L722.472 221.32C722.344 224.221 720.328 225.672 716.424 225.672C712.498 225.672 710.61 226.451 710.76 228.008L713.512 230.856H718.856C719.453 228.851 720.168 227.848 721 227.848ZM713.512 219.144L711.176 221.384C710.856 222.707 712.189 223.368 715.176 223.368C718.162 223.368 719.613 222.685 719.528 221.32L717.32 219.144H713.512Z" fill="#232323"/>
<path d="M852.072 777.56L854.92 779.224L856.616 782.296V786.424L854.76 789.624L851.592 791.32H847.848L844.776 789.688L842.984 786.68V783.032C843.24 782.371 843.443 781.827 843.592 781.4C843.763 780.973 843.891 780.664 843.976 780.472L848.104 771.768C848.573 770.723 849.277 770.2 850.216 770.2C851.155 770.2 850.867 771.693 849.352 774.68C847.837 777.688 847.571 778.648 848.552 777.56H852.072ZM854.056 782.36L851.688 780.024H847.944L845.544 782.648V786.584L847.944 788.856H851.528L854.056 786.424V782.36ZM871.554 768.632C871.703 768.675 871.724 769.059 871.618 769.784C871.511 770.488 871.298 771.427 870.978 772.6C870.658 773.752 870.274 775.043 869.826 776.472C869.378 777.901 868.898 779.373 868.386 780.888C867.874 782.403 867.351 783.864 866.818 785.272C866.284 786.659 865.783 787.907 865.314 789.016C864.844 790.125 864.439 790.989 864.098 791.608C863.756 792.248 863.511 792.536 863.362 792.472C863.212 792.408 863.191 792.013 863.298 791.288C863.426 790.584 863.639 789.656 863.938 788.504C864.258 787.331 864.642 786.04 865.09 784.632C865.538 783.203 866.018 781.731 866.53 780.216C867.042 778.701 867.554 777.251 868.066 775.864C868.599 774.456 869.1 773.208 869.57 772.12C870.039 771.011 870.444 770.147 870.786 769.528C871.148 768.888 871.404 768.589 871.554 768.632ZM861.122 780.248L859.234 777.4V772.696L861.122 769.88H864.578L866.466 772.696V777.368L864.546 780.248H861.122ZM864.098 777.88V772.216H861.602V777.88H864.098ZM870.242 791.32L868.354 788.472V783.8L870.242 780.952H873.698L875.586 783.8V788.472L873.698 791.32H870.242ZM873.218 788.984V783.32H870.722V788.984H873.218ZM908.021 770.2C908.875 770.2 909.301 772.493 909.301 777.08V786.072L907.637 789.432L904.597 791.32H899.381L895.349 787.928C895.243 785.965 895.595 784.984 896.405 784.984C897.173 784.984 897.664 785.603 897.877 786.84L900.533 788.824H904.533L906.741 786.136V777.08C906.741 772.493 907.168 770.2 908.021 770.2ZM925.679 775C926.532 775 926.959 777.667 926.959 783C926.959 788.333 926.575 791 925.807 791C925.039 791 924.634 790.883 924.591 790.648L924.399 788.472V786.744C924.399 786.381 924.356 786.307 924.271 786.52C924.186 786.733 924.058 787.235 923.887 788.024L921.327 791.32H917.359L914.575 789.208L913.007 785.432V780.632L914.607 776.824L917.551 774.68H921.583L923.951 777.432C924.1 778.179 924.207 778.552 924.271 778.552C924.356 778.531 924.399 778.125 924.399 777.336C924.399 775.779 924.826 775 925.679 775ZM921.999 788.856L924.399 785.56V780.344L921.999 777.176H917.615L915.567 780.312V785.656L917.775 788.856H921.999ZM940.425 777.304L937.193 779.384C936.873 780.216 936.713 781.955 936.713 784.6C936.713 787.267 937.641 788.6 939.497 788.6C941.331 788.6 942.249 788.995 942.249 789.784C942.249 790.595 940.371 791 936.617 791C932.862 791 930.985 790.595 930.985 789.784C930.985 788.995 931.518 788.6 932.585 788.6C933.63 788.6 934.153 786.328 934.153 781.784C934.153 777.261 934.579 775 935.433 775C936.286 775 936.713 775.693 936.713 777.08C936.713 777.763 936.755 778.147 936.841 778.232C936.947 778.296 937.086 778.051 937.257 777.496L940.553 774.68C942.729 774.68 943.817 775.117 943.817 775.992C943.817 776.867 942.686 777.304 940.425 777.304ZM960.867 768.6C961.72 768.6 962.147 772.333 962.147 779.8C962.147 787.267 961.763 791 960.995 791C960.227 791 959.821 790.883 959.779 790.648L959.587 788.472V786.808C959.587 786.467 959.544 786.413 959.459 786.648C959.373 786.861 959.245 787.352 959.075 788.12L956.515 791.32H952.547L949.763 789.208L948.195 785.432V780.632L949.795 776.824L952.739 774.68H958.595C958.936 776.301 959.181 777.059 959.331 776.952C959.501 776.824 959.587 775.853 959.587 774.04C959.587 770.413 960.013 768.6 960.867 768.6ZM957.187 788.856L959.587 785.56V780.344L957.187 777.176H952.803L950.755 780.312V785.656L952.963 788.856H957.187ZM974.94 770.136C974.94 771.181 974.386 771.704 973.276 771.704C972.167 771.704 971.612 771.181 971.612 770.136C971.612 769.112 972.167 768.6 973.276 768.6C974.386 768.6 974.94 769.112 974.94 770.136ZM976.796 788.6C978.29 788.6 979.036 788.995 979.036 789.784C979.036 790.595 977.01 791 972.956 791C968.903 791 966.876 790.595 966.876 789.784C966.876 788.995 967.73 788.6 969.436 788.6C971.143 788.6 971.996 786.733 971.996 783C971.996 779.267 971.143 777.4 969.436 777.4C967.73 777.4 966.876 776.995 966.876 776.184C966.876 775.395 968.156 775 970.716 775C973.276 775 974.556 777.261 974.556 781.784C974.556 786.328 975.303 788.6 976.796 788.6ZM993.334 774.68L995.702 775.736L997.334 778.296V785.688C997.334 789.229 996.907 791 996.054 791C995.201 791 994.774 789.336 994.774 786.008V777.24H989.046L986.774 779.992C986.475 781.144 986.326 783.256 986.326 786.328C986.326 789.443 985.899 791 985.046 791C984.193 791 983.766 788.333 983.766 783C983.766 777.667 984.193 775 985.046 775C985.899 775 986.326 775.789 986.326 777.368C986.326 778.968 986.518 779.149 986.902 777.912L989.782 774.68H993.334Z" fill="#232323"/>
<path d="M742.736 169.6C744.272 169.6 745.04 169.995 745.04 170.784C745.04 171.595 742.96 172 738.8 172C734.64 172 732.56 171.595 732.56 170.784C732.56 169.995 733.445 169.6 735.216 169.6C736.965 169.6 737.84 166.933 737.84 161.6C737.84 156.267 737.019 153.6 735.376 153.6C733.712 153.6 732.88 153.195 732.88 152.384C732.88 151.595 734.139 151.2 736.656 151.2C739.152 151.2 740.4 154.261 740.4 160.384C740.4 166.528 741.179 169.6 742.736 169.6ZM760.554 149.632C760.703 149.675 760.724 150.059 760.618 150.784C760.511 151.488 760.298 152.427 759.978 153.6C759.658 154.752 759.274 156.043 758.826 157.472C758.378 158.901 757.898 160.373 757.386 161.888C756.874 163.403 756.351 164.864 755.818 166.272C755.284 167.659 754.783 168.907 754.314 170.016C753.844 171.125 753.439 171.989 753.098 172.608C752.756 173.248 752.511 173.536 752.362 173.472C752.212 173.408 752.191 173.013 752.298 172.288C752.426 171.584 752.639 170.656 752.938 169.504C753.258 168.331 753.642 167.04 754.09 165.632C754.538 164.203 755.018 162.731 755.53 161.216C756.042 159.701 756.554 158.251 757.066 156.864C757.599 155.456 758.1 154.208 758.57 153.12C759.039 152.011 759.444 151.147 759.786 150.528C760.148 149.888 760.404 149.589 760.554 149.632ZM750.122 161.248L748.234 158.4V153.696L750.122 150.88H753.578L755.466 153.696V158.368L753.546 161.248H750.122ZM753.098 158.88V153.216H750.602V158.88H753.098ZM759.242 172.32L757.354 169.472V164.8L759.242 161.952H762.698L764.586 164.8V169.472L762.698 172.32H759.242ZM762.218 169.984V164.32H759.722V169.984H762.218ZM798.653 168.928L795.101 171.84C794.099 171.883 793.341 171.925 792.829 171.968C792.339 171.989 792.093 172 792.093 172H788.157C785.533 172 784.221 168.533 784.221 161.6C784.221 154.667 785.373 151.2 787.677 151.2H794.365L797.981 154.144V158.912L795.709 161.152C795.005 161.259 794.675 161.365 794.717 161.472C794.76 161.579 795.176 161.675 795.965 161.76L798.653 163.84V168.928ZM788.957 153.696C787.507 153.696 786.781 154.816 786.781 157.056C786.781 159.317 787.453 160.448 788.797 160.448H793.021L795.453 158.624V155.232L793.117 153.696H788.957ZM796.093 169.504V164.32L793.149 162.944H788.797C787.453 162.944 786.781 164.032 786.781 166.208C786.781 168.405 787.56 169.504 789.117 169.504H796.093ZM807.095 172.32L803.831 170.304L802.007 166.56V161.504L803.831 157.728L807.095 155.68H811.287L814.519 157.728L816.343 161.504V166.56L814.551 170.304L811.319 172.32H807.095ZM811.287 169.856L813.783 166.784V161.28L811.287 158.144H807.127L804.567 161.28V166.784L807.095 169.856H811.287ZM828.753 151.136C828.753 152.181 828.198 152.704 827.089 152.704C825.979 152.704 825.425 152.181 825.425 151.136C825.425 150.112 825.979 149.6 827.089 149.6C828.198 149.6 828.753 150.112 828.753 151.136ZM830.609 169.6C832.102 169.6 832.849 169.995 832.849 170.784C832.849 171.595 830.822 172 826.769 172C822.715 172 820.689 171.595 820.689 170.784C820.689 169.995 821.542 169.6 823.249 169.6C824.955 169.6 825.809 167.733 825.809 164C825.809 160.267 824.955 158.4 823.249 158.4C821.542 158.4 820.689 157.995 820.689 157.184C820.689 156.395 821.969 156 824.529 156C827.089 156 828.369 158.261 828.369 162.784C828.369 167.328 829.115 169.6 830.609 169.6ZM838.891 166.848C839.659 166.848 840.16 167.285 840.395 168.16L843.019 169.888H846.955L848.491 168.8V166.688L847.019 165.664C846.272 165.536 845.461 165.397 844.587 165.248C843.712 165.077 842.773 164.907 841.771 164.736L838.635 162.464V158.272L841.739 155.68H846.891L850.059 158.432C850.101 160.032 849.749 160.832 849.003 160.832C848.235 160.832 847.712 159.957 847.435 158.208H842.859L841.195 159.296V161.28L842.987 162.4C843.755 162.549 844.576 162.709 845.451 162.88C846.347 163.051 847.296 163.221 848.299 163.392L851.051 165.536V169.888L848.075 172.32H842.507L838.987 170.272L837.611 167.68C837.675 167.125 838.101 166.848 838.891 166.848ZM856.484 166.848C857.252 166.848 857.754 167.285 857.988 168.16L860.612 169.888H864.548L866.084 168.8V166.688L864.612 165.664C863.866 165.536 863.055 165.397 862.18 165.248C861.306 165.077 860.367 164.907 859.364 164.736L856.228 162.464V158.272L859.332 155.68H864.484L867.652 158.432C867.695 160.032 867.343 160.832 866.596 160.832C865.828 160.832 865.306 159.957 865.028 158.208H860.452L858.788 159.296V161.28L860.58 162.4C861.348 162.549 862.17 162.709 863.044 162.88C863.94 163.051 864.89 163.221 865.892 163.392L868.644 165.536V169.888L865.668 172.32H860.1L856.58 170.272L855.204 167.68C855.268 167.125 855.695 166.848 856.484 166.848ZM877.47 172.32L874.206 170.304L872.382 166.56V161.504L874.206 157.728L877.47 155.68H881.662L884.894 157.728L886.718 161.504V166.56L884.926 170.304L881.694 172.32H877.47ZM881.662 169.856L884.158 166.784V161.28L881.662 158.144H877.502L874.942 161.28V166.784L877.47 169.856H881.662ZM899.928 155.68L902.296 156.736L903.928 159.296V166.688C903.928 170.229 903.501 172 902.648 172C901.794 172 901.368 170.336 901.368 167.008V158.24H895.64L893.368 160.992C893.069 162.144 892.92 164.256 892.92 167.328C892.92 170.443 892.493 172 891.64 172C890.786 172 890.36 169.333 890.36 164C890.36 158.667 890.786 156 891.64 156C892.493 156 892.92 156.789 892.92 158.368C892.92 159.968 893.112 160.149 893.496 158.912L896.376 155.68H899.928Z" fill="#232323"/>
</svg>
