<svg width="622" height="172" viewBox="0 0 622 172" fill="none" xmlns="http://www.w3.org/2000/svg">
<g clip-path="url(#clip0_410_9025)">
<path d="M26.8178 120.095C26.5658 119.947 26.3205 119.786 26.0853 119.611C27.0361 120.347 27.9903 121.083 28.9411 121.819C28.2591 121.284 27.6812 120.7 27.1537 120.014L29.3611 122.87C28.8639 122.165 28.4607 121.432 28.1146 120.639L29.5358 124.009C28.9747 122.608 28.632 121.167 28.4069 119.675L28.9109 123.428C28.2222 118.214 28.6824 112.808 28.8605 107.573C29.0688 101.314 29.3846 95.0581 29.8046 88.8122C30.6345 76.4247 31.8843 64.0675 33.5272 51.7639L33.0233 55.5168C33.3021 53.4472 33.5911 51.3809 33.8901 49.3147C34.1387 47.6045 34.2429 45.7768 34.8846 44.1608L33.4634 47.5306C33.5844 47.2585 33.7389 47.0065 33.9271 46.7747L31.7197 49.6305L32.0321 49.3113L29.1763 51.5187C29.3947 51.3305 29.6333 51.1861 29.902 51.0785L26.5322 52.4997C26.7942 52.3989 27.0664 52.3351 27.3486 52.3149C26.0988 52.4829 24.8489 52.6509 23.5957 52.8189C23.8847 52.7988 24.1703 52.8122 24.4558 52.8592L20.703 52.3553C20.9953 52.4057 21.2775 52.4863 21.5496 52.6005L18.1798 51.1793C18.6065 51.3776 18.9458 51.5825 19.3221 51.8681C18.3713 51.1323 17.4171 50.3965 16.4663 49.6607C16.7115 49.869 16.9299 50.1042 17.1248 50.3596C16.389 49.4087 15.6532 48.4546 14.9174 47.5037C15.2265 47.9439 15.4718 48.3638 15.707 48.8443L14.2858 45.4744C15.6129 48.6662 16.0866 52.3317 16.7351 55.7117C17.4406 59.3806 18.0319 63.0696 18.5359 66.7754L18.0319 63.0226C20.3569 80.611 20.3502 98.4447 18.0151 116.033L18.5191 112.28C17.8572 117.149 17.0206 121.987 16.0127 126.795L29.6198 116.436C28.1852 116.309 26.7506 116.181 25.3159 116.053C21.9058 115.751 17.6792 117.844 15.3374 120.186C12.8915 122.632 11.047 126.65 11.2049 130.164C11.3695 133.813 12.5656 137.6 15.3374 140.143C18.2335 142.801 21.4018 143.926 25.3159 144.275C26.7506 144.403 28.1852 144.531 29.6198 144.658L33.3727 144.154C35.2105 143.718 36.8097 142.874 38.1705 141.628C40.4719 139.851 42.6121 137.233 43.2269 134.297C49.3888 104.939 49.4761 74.7583 43.3882 45.3804C42.5583 41.3688 41.7453 37.2463 39.5883 33.685C35.355 26.6966 27.1773 23.226 19.2314 25.225C12.4413 26.9318 7.95597 33.2079 6.96483 39.8569C6.27608 44.4732 5.65116 49.0996 5.0464 53.7261C3.19852 67.8875 1.89157 82.1195 1.12554 96.3818C0.719003 103.985 0.265432 111.659 0.393104 119.275C0.45694 123.149 0.799637 127.235 2.08643 130.907C4.08886 136.625 7.4016 141.228 12.5757 144.47C18.8417 148.395 28.3969 146.006 31.881 139.407C35.5465 132.473 33.5071 124.288 26.8178 120.102V120.095Z" fill="#79B1BD"/>
<path d="M37.139 23.6359C36.8702 23.935 36.3192 24.0492 36.0571 24.4121L36.0471 24.7749C41.4832 32.9089 45.9349 41.9165 47.85 51.6263C49.3451 59.2093 47.934 64.5917 48.0112 71.9596C48.0717 77.9367 48.6798 84.0817 48.3573 90.1193C48.2162 92.7466 47.3191 96.0224 47.3057 98.5053C47.2855 102.191 47.6753 105.967 47.6585 109.915C47.6316 116.614 47.7391 123.287 46.6606 129.919L45.9954 127.06C45.2696 115.916 46.7446 104.644 46.6774 93.4521C46.6438 87.8144 45.9786 82.0155 46.3145 76.3173C46.4624 73.7739 47.3695 70.7468 47.3695 68.2673C47.3628 58.2954 45.4612 48.7503 41.7856 39.5512C39.8167 34.6258 36.7056 30.0666 35.916 24.7548C30.2817 26.3305 24.4424 26.7538 18.7845 25.0874C18.7039 24.5028 19.5472 24.7716 19.9537 24.7548C23.7234 24.6069 35.8757 24.4389 37.6194 20.5819C38.1738 19.3589 37.858 18.9155 37.5993 17.6992C40.109 19.3858 38.7382 21.8519 37.1423 23.6292L37.139 23.6359Z" fill="black"/>
<path d="M2.64415 132.61C1.61269 131.438 1.31703 128.901 1.06505 127.305C-0.514046 117.32 0.0671959 103.77 0.282222 93.4552C0.433412 86.1612 1.61941 77.9834 1.66645 70.9649C1.67989 69.2346 1.03481 67.5917 0.954177 65.9319C0.251984 51.1724 4.39459 36.3255 14.0674 25.0972C11.9843 31.2153 8.23482 36.6212 6.00057 42.7293C3.43033 49.7579 3.47737 53.9778 2.98012 61.2114C1.58582 81.4911 1.99907 102.039 2.66095 122.349C2.77182 125.76 2.55343 129.2 2.64415 132.61Z" fill="black"/>
<path d="M2.31488 133.282L6.17191 139.333C9.28306 143.455 18.6535 147.487 23.6293 147.4C25.6586 147.363 35.8724 144.148 37.2734 142.851L38.9365 136.978C39.5547 137.042 39.306 138.748 39.2388 139.131C39.0305 140.338 38.5501 141.413 37.5892 142.185C37.5354 142.437 37.9319 142.411 38.0864 142.347C40.7306 141.268 44.2718 135.567 45.572 133.027C45.9752 132.234 46.0323 132.351 45.9987 133.117C45.2596 149.648 14.9309 152.241 5.83593 142.021C3.73271 139.656 2.82557 136.346 2.31488 133.285V133.282Z" fill="black"/>
<path d="M41.9569 73.1456C41.4832 74.0594 40.109 74.2677 39.1885 74.5735C31.1888 77.2546 16.9198 78.0004 8.7623 75.9275C6.71284 75.4067 4.06869 74.4962 3.3161 72.3022C3.9511 72.3358 4.2938 73.0313 4.99935 73.3068C5.87625 73.6529 7.31424 73.8881 8.28185 74.0561C19.517 75.9913 30.8025 74.9195 41.9569 73.1422V73.1456Z" fill="black"/>
<path d="M38.5971 86.2485L33.9035 88.1031C26.9084 89.6923 12.1725 89.2924 5.678 86.0704C4.16274 85.3178 3.02377 84.4208 2.98682 82.5527C3.50422 82.5225 3.39671 83.2112 3.81668 83.564C5.53017 85.002 15.2399 86.6147 17.9412 86.9137C24.8019 87.6697 31.7768 87.0011 38.5971 86.2485Z" fill="black"/>
<path d="M42.2929 67.0911C34.6561 64.5646 26.3675 63.2341 18.3041 64.1043L7.01855 66.5939C14.7796 61.8196 24.8019 61.0738 33.628 62.8276C36.719 63.4424 40.398 64.4 42.2929 67.0945V67.0911Z" fill="black"/>
<path d="M32.2135 1.9182C32.2908 2.51624 31.4576 2.2441 31.0813 2.2105C26.1726 1.74685 19.527 0.742278 15.586 4.25325L16.4226 6.27919L15.082 5.94658L15.4214 7.45176L14.746 9.97495C14.064 8.39585 14.6923 7.15274 14.7561 5.76179C14.82 4.37084 13.8591 4.00462 15.2466 2.58344C18.9827 -1.24671 27.7685 -0.252217 32.2102 1.91484L32.2135 1.9182Z" fill="black"/>
<path d="M27.3419 133.954C27.483 133.971 28.9478 134.28 28.8504 134.623C25.8333 135.254 19.8025 137.448 19.1037 132.943C15.6969 133.749 12.5353 134.377 9.53503 136.309C9.3368 135.079 11.3661 133.477 12.2732 133C15.035 131.545 18.2301 132.818 21.1229 131.941L20.4341 133.416C20.4644 133.598 21.2405 133.954 21.2909 133.954C23.1724 133.954 25.541 133.759 27.3385 133.954H27.3419Z" fill="black"/>
<path d="M35.234 7.62308L34.898 4.60264C34.1622 5.18052 33.9338 6.02047 33.0031 6.56475C30.5236 8.01954 27.0798 7.55589 24.3248 7.61636L20.4577 6.61851L31.6323 5.52658C32.1632 5.43587 33.3962 4.98902 33.7523 4.6228C34.2832 4.08188 33.9741 3.30241 34.5621 3.25537C35.4356 4.86135 35.8724 5.76177 35.234 7.61972V7.62308Z" fill="black"/>
<path d="M38.2578 136.642L29.9558 133.02L25.8333 131.942C27.997 131.189 29.3443 131.088 31.5349 131.777C32.2975 132.016 39.3127 135.533 38.2611 136.639L38.2578 136.642Z" fill="black"/>
<path d="M13.7348 17.373C12.0045 19.399 12.5354 21.2603 14.6319 22.6882L18.1025 24.4219C16.0531 24.6335 13.3719 24.3244 12.1087 22.5269C10.7177 20.5514 11.0503 17.7527 13.7382 17.373H13.7348Z" fill="black"/>
<path d="M24.4861 18.0451L20.6257 18.7137C18.7879 18.4046 17.0845 18.2836 15.4214 17.3698C15.0821 17.8166 16.3185 19.772 15.4214 20.0542L14.7461 16.3618L24.4861 18.0451Z" fill="black"/>
<path d="M23.8141 11.6613C23.8981 12.1216 23.2161 12.1686 22.8902 12.2392C19.8798 12.891 15.0787 13.0959 13.7415 9.64209C16.5066 11.4967 20.5383 11.2212 23.8175 11.6613H23.8141Z" fill="black"/>
<path d="M44.9774 80.5336C42.3903 79.1561 39.3968 78.9209 36.5712 78.3564C36.2117 78.2859 35.486 78.3363 35.5733 77.8491C38.7349 77.2746 43.5192 76.9688 44.974 80.5336H44.9774Z" fill="black"/>
<path d="M26.1693 14.6788L30.5303 13.1635L35.5733 10.6504C35.9429 11.0099 34.0312 12.7536 33.7187 12.9922C31.2627 14.877 29.1662 14.83 26.1693 14.6788Z" fill="black"/>
<path d="M27.8492 11.3189L33.0132 9.60205L36.2419 7.29053C35.6808 11.0132 31.0746 12.384 27.8492 11.3189Z" fill="black"/>
<path d="M21.8016 14.01C22.3358 14.4501 21.7646 14.6214 21.301 14.6819C19.2246 14.944 14.6889 14.907 14.0741 12.3301L21.7982 14.0133L21.8016 14.01Z" fill="black"/>
<path d="M34.9014 17.0303V20.0541L34.562 17.3663C33.0065 19.0461 31.3064 18.7572 29.1931 18.7068C29.1192 17.8333 29.1461 18.1491 29.6971 18.0483C31.4442 17.7257 33.1912 17.5275 34.9014 17.0303Z" fill="black"/>
<path d="M10.7109 77.5131L5.00269 80.1942C6.2794 78.1582 8.32887 77.241 10.7109 77.5131Z" fill="black"/>
</g>
<g clip-path="url(#clip1_410_9025)">
<path d="M121.228 120.095C120.976 119.947 120.73 119.786 120.495 119.611C121.446 120.347 122.4 121.083 123.351 121.819C122.669 121.284 122.091 120.7 121.564 120.014L123.771 122.87C123.274 122.165 122.871 121.432 122.524 120.639L123.946 124.009C123.385 122.608 123.042 121.167 122.817 119.675L123.321 123.428C122.632 118.214 123.092 112.808 123.27 107.573C123.479 101.314 123.794 95.0581 124.214 88.8122C125.044 76.4247 126.294 64.0675 127.937 51.7639L127.433 55.5168C127.712 53.4472 128.001 51.3809 128.3 49.3147C128.549 47.6045 128.653 45.7768 129.294 44.1608L127.873 47.5306C127.994 47.2585 128.149 47.0065 128.337 46.7747L126.13 49.6305L126.442 49.3113L123.586 51.5187C123.805 51.3305 124.043 51.1861 124.312 51.0785L120.942 52.4997C121.204 52.3989 121.476 52.3351 121.758 52.3149C120.509 52.4829 119.259 52.6509 118.006 52.8189C118.295 52.7988 118.58 52.8122 118.866 52.8592L115.113 52.3553C115.405 52.4057 115.687 52.4863 115.959 52.6005L112.59 51.1793C113.016 51.3776 113.356 51.5825 113.732 51.8681C112.781 51.1323 111.827 50.3965 110.876 49.6607C111.121 49.869 111.34 50.1042 111.535 50.3596C110.799 49.4087 110.063 48.4546 109.327 47.5037C109.636 47.9439 109.882 48.3638 110.117 48.8443L108.696 45.4744C110.023 48.6662 110.496 52.3317 111.145 55.7117C111.85 59.3806 112.442 63.0696 112.946 66.7754L112.442 63.0226C114.767 80.611 114.76 98.4447 112.425 116.033L112.929 112.28C112.267 117.149 111.431 121.987 110.423 126.795L124.03 116.436C122.595 116.309 121.16 116.181 119.726 116.053C116.316 115.751 112.089 117.844 109.747 120.186C107.301 122.632 105.457 126.65 105.615 130.164C105.779 133.813 106.975 137.6 109.747 140.143C112.643 142.801 115.812 143.926 119.726 144.275C121.16 144.403 122.595 144.531 124.03 144.658L127.783 144.154C129.62 143.718 131.22 142.874 132.58 141.628C134.882 139.851 137.022 137.233 137.637 134.297C143.799 104.939 143.886 74.7583 137.798 45.3804C136.968 41.3688 136.155 37.2463 133.998 33.685C129.765 26.6966 121.587 23.226 113.641 25.225C106.851 26.9318 102.366 33.2079 101.375 39.8569C100.686 44.4732 100.061 49.0996 99.4562 53.7261C97.6084 67.8875 96.3014 82.1195 95.5354 96.3818C95.1289 103.985 94.6753 111.659 94.803 119.275C94.8668 123.149 95.2095 127.235 96.4963 130.907C98.4987 136.625 101.811 141.228 106.986 144.47C113.252 148.395 122.807 146.006 126.291 139.407C129.956 132.473 127.917 124.288 121.228 120.102V120.095Z" fill="#79B1BD"/>
<path d="M131.549 23.6359C131.28 23.935 130.729 24.0492 130.467 24.4121L130.457 24.7749C135.893 32.9089 140.345 41.9165 142.26 51.6263C143.755 59.2093 142.344 64.5917 142.421 71.9596C142.482 77.9367 143.09 84.0817 142.767 90.1193C142.626 92.7466 141.729 96.0224 141.716 98.5053C141.695 102.191 142.085 105.967 142.068 109.915C142.041 116.614 142.149 123.287 141.07 129.919L140.405 127.06C139.679 115.916 141.154 104.644 141.087 93.4521C141.054 87.8144 140.388 82.0155 140.724 76.3173C140.872 73.7739 141.779 70.7468 141.779 68.2673C141.773 58.2954 139.871 48.7503 136.195 39.5512C134.227 34.6258 131.115 30.0666 130.326 24.7548C124.692 26.3305 118.852 26.7538 113.194 25.0874C113.114 24.5028 113.957 24.7716 114.364 24.7548C118.133 24.6069 130.286 24.4389 132.029 20.5819C132.584 19.3589 132.268 18.9155 132.009 17.6992C134.519 19.3858 133.148 21.8519 131.552 23.6292L131.549 23.6359Z" fill="black"/>
<path d="M97.054 132.61C96.0225 131.438 95.7269 128.901 95.4749 127.305C93.8958 117.32 94.477 103.77 94.6921 93.4552C94.8433 86.1612 96.0293 77.9834 96.0763 70.9649C96.0897 69.2346 95.4447 67.5917 95.364 65.9319C94.6618 51.1724 98.8044 36.3255 108.477 25.0972C106.394 31.2153 102.645 36.6212 100.41 42.7293C97.8402 49.7579 97.8872 53.9778 97.39 61.2114C95.9957 81.4911 96.4089 102.039 97.0708 122.349C97.1817 125.76 96.9633 129.2 97.054 132.61Z" fill="black"/>
<path d="M96.7247 133.282L100.582 139.333C103.693 143.455 113.063 147.487 118.039 147.4C120.068 147.363 130.282 144.148 131.683 142.851L133.346 136.978C133.965 137.042 133.716 138.748 133.649 139.131C133.44 140.338 132.96 141.413 131.999 142.185C131.945 142.437 132.342 142.411 132.496 142.347C135.14 141.268 138.682 135.567 139.982 133.027C140.385 132.234 140.442 132.351 140.409 133.117C139.669 149.648 109.341 152.241 100.246 142.021C98.1426 139.656 97.2354 136.346 96.7247 133.285V133.282Z" fill="black"/>
<path d="M136.367 73.1456C135.893 74.0594 134.519 74.2677 133.598 74.5735C125.599 77.2546 111.33 78.0004 103.172 75.9275C101.123 75.4067 98.4785 74.4962 97.726 72.3022C98.361 72.3358 98.7036 73.0313 99.4092 73.3068C100.286 73.6529 101.724 73.8881 102.692 74.0561C113.927 75.9913 125.212 74.9195 136.367 73.1422V73.1456Z" fill="black"/>
<path d="M133.007 86.2485L128.313 88.1031C121.318 89.6923 106.582 89.2924 100.088 86.0704C98.5726 85.3178 97.4336 84.4208 97.3967 82.5527C97.9141 82.5225 97.8066 83.2112 98.2265 83.564C99.94 85.002 109.65 86.6147 112.351 86.9137C119.212 87.6697 126.187 87.0011 133.007 86.2485Z" fill="black"/>
<path d="M136.703 67.0911C129.066 64.5646 120.777 63.2341 112.714 64.1043L101.428 66.5939C109.189 61.8196 119.212 61.0738 128.038 62.8276C131.129 63.4424 134.808 64.4 136.703 67.0945V67.0911Z" fill="black"/>
<path d="M126.623 1.9182C126.701 2.51624 125.867 2.2441 125.491 2.2105C120.583 1.74685 113.937 0.742278 109.996 4.25325L110.832 6.27919L109.492 5.94658L109.831 7.45176L109.156 9.97495C108.474 8.39585 109.102 7.15274 109.166 5.76179C109.23 4.37084 108.269 4.00462 109.657 2.58344C113.393 -1.24671 122.178 -0.252217 126.62 1.91484L126.623 1.9182Z" fill="black"/>
<path d="M121.752 133.954C121.893 133.971 123.358 134.28 123.26 134.623C120.243 135.254 114.212 137.448 113.514 132.943C110.107 133.749 106.945 134.377 103.945 136.309C103.747 135.079 105.776 133.477 106.683 133C109.445 131.545 112.64 132.818 115.533 131.941L114.844 133.416C114.874 133.598 115.65 133.954 115.701 133.954C117.582 133.954 119.951 133.759 121.748 133.954H121.752Z" fill="black"/>
<path d="M129.644 7.62308L129.308 4.60264C128.572 5.18052 128.344 6.02047 127.413 6.56475C124.933 8.01954 121.49 7.55589 118.735 7.61636L114.868 6.61851L126.042 5.52658C126.573 5.43587 127.806 4.98902 128.162 4.6228C128.693 4.08188 128.384 3.30241 128.972 3.25537C129.845 4.86135 130.282 5.76177 129.644 7.61972V7.62308Z" fill="black"/>
<path d="M132.668 136.642L124.366 133.02L120.243 131.942C122.407 131.189 123.754 131.088 125.945 131.777C126.707 132.016 133.723 135.533 132.671 136.639L132.668 136.642Z" fill="black"/>
<path d="M108.145 17.373C106.414 19.399 106.945 21.2603 109.042 22.6882L112.512 24.4219C110.463 24.6335 107.782 24.3244 106.519 22.5269C105.128 20.5514 105.46 17.7527 108.148 17.373H108.145Z" fill="black"/>
<path d="M118.896 18.0451L115.036 18.7137C113.198 18.4046 111.494 18.2836 109.831 17.3698C109.492 17.8166 110.728 19.772 109.831 20.0542L109.156 16.3618L118.896 18.0451Z" fill="black"/>
<path d="M118.224 11.6613C118.308 12.1216 117.626 12.1686 117.3 12.2392C114.29 12.891 109.489 13.0959 108.151 9.64209C110.916 11.4967 114.948 11.2212 118.227 11.6613H118.224Z" fill="black"/>
<path d="M139.387 80.5336C136.8 79.1561 133.807 78.9209 130.981 78.3564C130.622 78.2859 129.896 78.3363 129.983 77.8491C133.145 77.2746 137.929 76.9688 139.384 80.5336H139.387Z" fill="black"/>
<path d="M120.579 14.6788L124.94 13.1635L129.983 10.6504C130.353 11.0099 128.441 12.7536 128.129 12.9922C125.673 14.877 123.576 14.83 120.579 14.6788Z" fill="black"/>
<path d="M122.259 11.3189L127.423 9.60205L130.652 7.29053C130.091 11.0132 125.484 12.384 122.259 11.3189Z" fill="black"/>
<path d="M116.211 14.01C116.746 14.4501 116.174 14.6214 115.711 14.6819C113.634 14.944 109.099 14.907 108.484 12.3301L116.208 14.0133L116.211 14.01Z" fill="black"/>
<path d="M129.311 17.0303V20.0541L128.972 17.3663C127.416 19.0461 125.716 18.7572 123.603 18.7068C123.529 17.8333 123.556 18.1491 124.107 18.0483C125.854 17.7257 127.601 17.5275 129.311 17.0303Z" fill="black"/>
<path d="M105.121 77.5131L99.4125 80.1942C100.689 78.1582 102.739 77.241 105.121 77.5131Z" fill="black"/>
</g>
<g clip-path="url(#clip2_410_9025)">
<path d="M215.637 120.095C215.385 119.947 215.14 119.786 214.905 119.611C215.856 120.347 216.81 121.083 217.761 121.819C217.079 121.284 216.501 120.7 215.973 120.014L218.181 122.87C217.683 122.165 217.28 121.432 216.934 120.639L218.355 124.009C217.794 122.608 217.452 121.167 217.227 119.675L217.73 123.428C217.042 118.214 217.502 112.808 217.68 107.573C217.888 101.314 218.204 95.0581 218.624 88.8122C219.454 76.4247 220.704 64.0675 222.347 51.7639L221.843 55.5168C222.122 53.4472 222.411 51.3809 222.71 49.3147C222.958 47.6045 223.062 45.7768 223.704 44.1608L222.283 47.5306C222.404 47.2585 222.558 47.0065 222.747 46.7747L220.539 49.6305L220.852 49.3113L217.996 51.5187C218.214 51.3305 218.453 51.1861 218.722 51.0785L215.352 52.4997C215.614 52.3989 215.886 52.3351 216.168 52.3149C214.918 52.4829 213.669 52.6509 212.415 52.8189C212.704 52.7988 212.99 52.8122 213.275 52.8592L209.523 52.3553C209.815 52.4057 210.097 52.4863 210.369 52.6005L206.999 51.1793C207.426 51.3776 207.765 51.5825 208.142 51.8681C207.191 51.1323 206.237 50.3965 205.286 49.6607C205.531 49.869 205.75 50.1042 205.944 50.3596C205.209 49.4087 204.473 48.4546 203.737 47.5037C204.046 47.9439 204.291 48.3638 204.527 48.8443L203.105 45.4744C204.432 48.6662 204.906 52.3317 205.555 55.7117C206.26 59.3806 206.852 63.0696 207.355 66.7754L206.852 63.0226C209.176 80.611 209.17 98.4447 206.835 116.033L207.339 112.28C206.677 117.149 205.84 121.987 204.832 126.795L218.439 116.436C217.005 116.309 215.57 116.181 214.136 116.053C210.725 115.751 206.499 117.844 204.157 120.186C201.711 122.632 199.867 126.65 200.024 130.164C200.189 133.813 201.385 137.6 204.157 140.143C207.053 142.801 210.221 143.926 214.136 144.275C215.57 144.403 217.005 144.531 218.439 144.658L222.192 144.154C224.03 143.718 225.629 142.874 226.99 141.628C229.291 139.851 231.432 137.233 232.047 134.297C238.208 104.939 238.296 74.7583 232.208 45.3804C231.378 41.3688 230.565 37.2463 228.408 33.685C224.175 26.6966 215.997 23.226 208.051 25.225C201.261 26.9318 196.776 33.2079 195.784 39.8569C195.096 44.4732 194.471 49.0996 193.866 53.7261C192.018 67.8875 190.711 82.1195 189.945 96.3818C189.539 103.985 189.085 111.659 189.213 119.275C189.277 123.149 189.619 127.235 190.906 130.907C192.908 136.625 196.221 141.228 201.395 144.47C207.661 148.395 217.216 146.006 220.701 139.407C224.366 132.473 222.327 124.288 215.637 120.102V120.095Z" fill="#79B1BD"/>
<path d="M225.959 23.6359C225.69 23.935 225.139 24.0492 224.877 24.4121L224.867 24.7749C230.303 32.9089 234.754 41.9165 236.67 51.6263C238.165 59.2093 236.754 64.5917 236.831 71.9596C236.891 77.9367 237.499 84.0817 237.177 90.1193C237.036 92.7466 236.139 96.0224 236.125 98.5053C236.105 102.191 236.495 105.967 236.478 109.915C236.451 116.614 236.559 123.287 235.48 129.919L234.815 127.06C234.089 115.916 235.564 104.644 235.497 93.4521C235.463 87.8144 234.798 82.0155 235.134 76.3173C235.282 73.7739 236.189 70.7468 236.189 68.2673C236.182 58.2954 234.281 48.7503 230.605 39.5512C228.636 34.6258 225.525 30.0666 224.736 24.7548C219.101 26.3305 213.262 26.7538 207.604 25.0874C207.523 24.5028 208.367 24.7716 208.773 24.7548C212.543 24.6069 224.695 24.4389 226.439 20.5819C226.993 19.3589 226.678 18.9155 226.419 17.6992C228.929 19.3858 227.558 21.8519 225.962 23.6292L225.959 23.6359Z" fill="black"/>
<path d="M191.464 132.61C190.432 131.438 190.137 128.901 189.885 127.305C188.306 117.32 188.887 103.77 189.102 93.4552C189.253 86.1612 190.439 77.9834 190.486 70.9649C190.499 69.2346 189.854 67.5917 189.774 65.9319C189.072 51.1724 193.214 36.3255 202.887 25.0972C200.804 31.2153 197.054 36.6212 194.82 42.7293C192.25 49.7579 192.297 53.9778 191.8 61.2114C190.405 81.4911 190.819 102.039 191.481 122.349C191.591 125.76 191.373 129.2 191.464 132.61Z" fill="black"/>
<path d="M191.134 133.282L194.991 139.333C198.103 143.455 207.473 147.487 212.449 147.4C214.478 147.363 224.692 144.148 226.093 142.851L227.756 136.978C228.374 137.042 228.126 138.748 228.058 139.131C227.85 140.338 227.37 141.413 226.409 142.185C226.355 142.437 226.751 142.411 226.906 142.347C229.55 141.268 233.091 135.567 234.392 133.027C234.795 132.234 234.852 132.351 234.818 133.117C234.079 149.648 203.75 152.241 194.656 142.021C192.552 139.656 191.645 136.346 191.134 133.285V133.282Z" fill="black"/>
<path d="M230.776 73.1456C230.303 74.0594 228.929 74.2677 228.008 74.5735C220.008 77.2546 205.739 78.0004 197.582 75.9275C195.532 75.4067 192.888 74.4962 192.136 72.3022C192.771 72.3358 193.113 73.0313 193.819 73.3068C194.696 73.6529 196.134 73.8881 197.101 74.0561C208.337 75.9913 219.622 74.9195 230.776 73.1422V73.1456Z" fill="black"/>
<path d="M227.417 86.2485L222.723 88.1031C215.728 89.6923 200.992 89.2924 194.498 86.0704C192.982 85.3178 191.843 84.4208 191.806 82.5527C192.324 82.5225 192.216 83.2112 192.636 83.564C194.35 85.002 204.06 86.6147 206.761 86.9137C213.621 87.6697 220.596 87.0011 227.417 86.2485Z" fill="black"/>
<path d="M231.112 67.0911C223.476 64.5646 215.187 63.2341 207.124 64.1043L195.838 66.5939C203.599 61.8196 213.621 61.0738 222.448 62.8276C225.539 63.4424 229.218 64.4 231.112 67.0945V67.0911Z" fill="black"/>
<path d="M221.033 1.9182C221.11 2.51624 220.277 2.2441 219.901 2.2105C214.992 1.74685 208.347 0.742278 204.406 4.25325L205.242 6.27919L203.902 5.94658L204.241 7.45176L203.566 9.97495C202.884 8.39585 203.512 7.15274 203.576 5.76179C203.64 4.37084 202.679 4.00462 204.066 2.58344C207.802 -1.24671 216.588 -0.252217 221.03 1.91484L221.033 1.9182Z" fill="black"/>
<path d="M216.161 133.954C216.303 133.971 217.767 134.28 217.67 134.623C214.653 135.254 208.622 137.448 207.923 132.943C204.516 133.749 201.355 134.377 198.355 136.309C198.156 135.079 200.186 133.477 201.093 133C203.855 131.545 207.05 132.818 209.942 131.941L209.254 133.416C209.284 133.598 210.06 133.954 210.11 133.954C211.992 133.954 214.361 133.759 216.158 133.954H216.161Z" fill="black"/>
<path d="M224.054 7.62308L223.718 4.60264C222.982 5.18052 222.753 6.02047 221.823 6.56475C219.343 8.01954 215.899 7.55589 213.144 7.61636L209.277 6.61851L220.452 5.52658C220.983 5.43587 222.216 4.98902 222.572 4.6228C223.103 4.08188 222.794 3.30241 223.382 3.25537C224.255 4.86135 224.692 5.76177 224.054 7.61972V7.62308Z" fill="black"/>
<path d="M227.077 136.642L218.775 133.02L214.653 131.942C216.817 131.189 218.164 131.088 220.354 131.777C221.117 132.016 228.132 135.533 227.081 136.639L227.077 136.642Z" fill="black"/>
<path d="M202.554 17.373C200.824 19.399 201.355 21.2603 203.451 22.6882L206.922 24.4219C204.873 24.6335 202.192 24.3244 200.928 22.5269C199.537 20.5514 199.87 17.7527 202.558 17.373H202.554Z" fill="black"/>
<path d="M213.306 18.0451L209.445 18.7137C207.607 18.4046 205.904 18.2836 204.241 17.3698C203.902 17.8166 205.138 19.772 204.241 20.0542L203.566 16.3618L213.306 18.0451Z" fill="black"/>
<path d="M212.634 11.6613C212.718 12.1216 212.036 12.1686 211.71 12.2392C208.699 12.891 203.898 13.0959 202.561 9.64209C205.326 11.4967 209.358 11.2212 212.637 11.6613H212.634Z" fill="black"/>
<path d="M233.797 80.5336C231.21 79.1561 228.216 78.9209 225.391 78.3564C225.031 78.2859 224.306 78.3363 224.393 77.8491C227.554 77.2746 232.339 76.9688 233.794 80.5336H233.797Z" fill="black"/>
<path d="M214.989 14.6788L219.35 13.1635L224.393 10.6504C224.762 11.0099 222.851 12.7536 222.538 12.9922C220.082 14.877 217.986 14.83 214.989 14.6788Z" fill="black"/>
<path d="M216.669 11.3189L221.833 9.60205L225.061 7.29053C224.5 11.0132 219.894 12.384 216.669 11.3189Z" fill="black"/>
<path d="M210.621 14.01C211.155 14.4501 210.584 14.6214 210.121 14.6819C208.044 14.944 203.509 14.907 202.894 12.3301L210.618 14.0133L210.621 14.01Z" fill="black"/>
<path d="M223.721 17.0303V20.0541L223.382 17.3663C221.826 19.0461 220.126 18.7572 218.013 18.7068C217.939 17.8333 217.966 18.1491 218.517 18.0483C220.264 17.7257 222.011 17.5275 223.721 17.0303Z" fill="black"/>
<path d="M199.531 77.5131L193.822 80.1942C195.099 78.1582 197.148 77.241 199.531 77.5131Z" fill="black"/>
</g>
<g clip-path="url(#clip3_410_9025)">
<path d="M310.047 120.095C309.795 119.947 309.55 119.786 309.315 119.611C310.265 120.347 311.22 121.083 312.17 121.819C311.488 121.284 310.911 120.7 310.383 120.014L312.59 122.87C312.093 122.165 311.69 121.432 311.344 120.639L312.765 124.009C312.204 122.608 311.861 121.167 311.636 119.675L312.14 123.428C311.451 118.214 311.912 112.808 312.09 107.573C312.298 101.314 312.614 95.0581 313.034 88.8122C313.864 76.4247 315.114 64.0675 316.757 51.7639L316.253 55.5168C316.531 53.4472 316.82 51.3809 317.119 49.3147C317.368 47.6045 317.472 45.7768 318.114 44.1608L316.693 47.5306C316.814 47.2585 316.968 47.0065 317.156 46.7747L314.949 49.6305L315.261 49.3113L312.406 51.5187C312.624 51.3305 312.863 51.1861 313.131 51.0785L309.761 52.4997C310.024 52.3989 310.296 52.3351 310.578 52.3149C309.328 52.4829 308.078 52.6509 306.825 52.8189C307.114 52.7988 307.4 52.8122 307.685 52.8592L303.932 52.3553C304.225 52.4057 304.507 52.4863 304.779 52.6005L301.409 51.1793C301.836 51.3776 302.175 51.5825 302.551 51.8681C301.601 51.1323 300.646 50.3965 299.696 49.6607C299.941 49.869 300.159 50.1042 300.354 50.3596C299.618 49.4087 298.883 48.4546 298.147 47.5037C298.456 47.9439 298.701 48.3638 298.936 48.8443L297.515 45.4744C298.842 48.6662 299.316 52.3317 299.964 55.7117C300.67 59.3806 301.261 63.0696 301.765 66.7754L301.261 63.0226C303.586 80.611 303.579 98.4447 301.244 116.033L301.748 112.28C301.087 117.149 300.25 121.987 299.242 126.795L312.849 116.436C311.415 116.309 309.98 116.181 308.545 116.053C305.135 115.751 300.908 117.844 298.567 120.186C296.121 122.632 294.276 126.65 294.434 130.164C294.599 133.813 295.795 137.6 298.567 140.143C301.463 142.801 304.631 143.926 308.545 144.275C309.98 144.403 311.415 144.531 312.849 144.658L316.602 144.154C318.44 143.718 320.039 142.874 321.4 141.628C323.701 139.851 325.841 137.233 326.456 134.297C332.618 104.939 332.705 74.7583 326.618 45.3804C325.788 41.3688 324.975 37.2463 322.818 33.685C318.584 26.6966 310.407 23.226 302.461 25.225C295.671 26.9318 291.185 33.2079 290.194 39.8569C289.505 44.4732 288.88 49.0996 288.276 53.7261C286.428 67.8875 285.121 82.1195 284.355 96.3818C283.948 103.985 283.495 111.659 283.622 119.275C283.686 123.149 284.029 127.235 285.316 130.907C287.318 136.625 290.631 141.228 295.805 144.47C302.071 148.395 311.626 146.006 315.11 139.407C318.776 132.473 316.736 124.288 310.047 120.102V120.095Z" fill="#79B1BD"/>
<path d="M320.368 23.6359C320.1 23.935 319.549 24.0492 319.287 24.4121L319.276 24.7749C324.713 32.9089 329.164 41.9165 331.079 51.6263C332.574 59.2093 331.163 64.5917 331.241 71.9596C331.301 77.9367 331.909 84.0817 331.587 90.1193C331.446 92.7466 330.549 96.0224 330.535 98.5053C330.515 102.191 330.905 105.967 330.888 109.915C330.861 116.614 330.969 123.287 329.89 129.919L329.225 127.06C328.499 115.916 329.974 104.644 329.907 93.4521C329.873 87.8144 329.208 82.0155 329.544 76.3173C329.692 73.7739 330.599 70.7468 330.599 68.2673C330.592 58.2954 328.691 48.7503 325.015 39.5512C323.046 34.6258 319.935 30.0666 319.145 24.7548C313.511 26.3305 307.672 26.7538 302.014 25.0874C301.933 24.5028 302.777 24.7716 303.183 24.7548C306.953 24.6069 319.105 24.4389 320.849 20.5819C321.403 19.3589 321.087 18.9155 320.829 17.6992C323.338 19.3858 321.968 21.8519 320.372 23.6292L320.368 23.6359Z" fill="black"/>
<path d="M285.874 132.61C284.842 131.438 284.546 128.901 284.294 127.305C282.715 117.32 283.297 103.77 283.512 93.4552C283.663 86.1612 284.849 77.9834 284.896 70.9649C284.909 69.2346 284.264 67.5917 284.184 65.9319C283.481 51.1724 287.624 36.3255 297.297 25.0972C295.214 31.2153 291.464 36.6212 289.23 42.7293C286.66 49.7579 286.707 53.9778 286.209 61.2114C284.815 81.4911 285.228 102.039 285.89 122.349C286.001 125.76 285.783 129.2 285.874 132.61Z" fill="black"/>
<path d="M285.544 133.282L289.401 139.333C292.512 143.455 301.883 147.487 306.859 147.4C308.888 147.363 319.102 144.148 320.503 142.851L322.166 136.978C322.784 137.042 322.535 138.748 322.468 139.131C322.26 140.338 321.78 141.413 320.819 142.185C320.765 142.437 321.161 142.411 321.316 142.347C323.96 141.268 327.501 135.567 328.801 133.027C329.205 132.234 329.262 132.351 329.228 133.117C328.489 149.648 298.16 152.241 289.065 142.021C286.962 139.656 286.055 136.346 285.544 133.285V133.282Z" fill="black"/>
<path d="M325.186 73.1456C324.713 74.0594 323.338 74.2677 322.418 74.5735C314.418 77.2546 300.149 78.0004 291.992 75.9275C289.942 75.4067 287.298 74.4962 286.546 72.3022C287.181 72.3358 287.523 73.0313 288.229 73.3068C289.106 73.6529 290.544 73.8881 291.511 74.0561C302.746 75.9913 314.032 74.9195 325.186 73.1422V73.1456Z" fill="black"/>
<path d="M321.826 86.2485L317.133 88.1031C310.138 89.6923 295.402 89.2924 288.907 86.0704C287.392 85.3178 286.253 84.4208 286.216 82.5527C286.734 82.5225 286.626 83.2112 287.046 83.564C288.76 85.002 298.469 86.6147 301.171 86.9137C308.031 87.6697 315.006 87.0011 321.826 86.2485Z" fill="black"/>
<path d="M325.522 67.0911C317.885 64.5646 309.597 63.2341 301.533 64.1043L290.248 66.5939C298.009 61.8196 308.031 61.0738 316.857 62.8276C319.948 63.4424 323.627 64.4 325.522 67.0945V67.0911Z" fill="black"/>
<path d="M315.443 1.9182C315.52 2.51624 314.687 2.2441 314.311 2.2105C309.402 1.74685 302.756 0.742278 298.815 4.25325L299.652 6.27919L298.311 5.94658L298.651 7.45176L297.975 9.97495C297.293 8.39585 297.922 7.15274 297.985 5.76179C298.049 4.37084 297.088 4.00462 298.476 2.58344C302.212 -1.24671 310.998 -0.252217 315.44 1.91484L315.443 1.9182Z" fill="black"/>
<path d="M310.571 133.954C310.712 133.971 312.177 134.28 312.08 134.623C309.063 135.254 303.032 137.448 302.333 132.943C298.926 133.749 295.765 134.377 292.764 136.309C292.566 135.079 294.595 133.477 295.503 133C298.264 131.545 301.46 132.818 304.352 131.941L303.664 133.416C303.694 133.598 304.47 133.954 304.52 133.954C306.402 133.954 308.77 133.759 310.568 133.954H310.571Z" fill="black"/>
<path d="M318.463 7.62308L318.127 4.60264C317.392 5.18052 317.163 6.02047 316.232 6.56475C313.753 8.01954 310.309 7.55589 307.554 7.61636L303.687 6.61851L314.862 5.52658C315.392 5.43587 316.626 4.98902 316.982 4.6228C317.513 4.08188 317.203 3.30241 317.791 3.25537C318.665 4.86135 319.102 5.76177 318.463 7.61972V7.62308Z" fill="black"/>
<path d="M321.487 136.642L313.185 133.02L309.063 131.942C311.226 131.189 312.574 131.088 314.764 131.777C315.527 132.016 322.542 135.533 321.491 136.639L321.487 136.642Z" fill="black"/>
<path d="M296.964 17.373C295.234 19.399 295.765 21.2603 297.861 22.6882L301.332 24.4219C299.282 24.6335 296.601 24.3244 295.338 22.5269C293.947 20.5514 294.28 17.7527 296.967 17.373H296.964Z" fill="black"/>
<path d="M307.715 18.0451L303.855 18.7137C302.017 18.4046 300.314 18.2836 298.651 17.3698C298.311 17.8166 299.548 19.772 298.651 20.0542L297.975 16.3618L307.715 18.0451Z" fill="black"/>
<path d="M307.043 11.6613C307.127 12.1216 306.445 12.1686 306.12 12.2392C303.109 12.891 298.308 13.0959 296.971 9.64209C299.736 11.4967 303.768 11.2212 307.047 11.6613H307.043Z" fill="black"/>
<path d="M328.207 80.5336C325.62 79.1561 322.626 78.9209 319.801 78.3564C319.441 78.2859 318.715 78.3363 318.803 77.8491C321.964 77.2746 326.749 76.9688 328.203 80.5336H328.207Z" fill="black"/>
<path d="M309.399 14.6788L313.76 13.1635L318.803 10.6504C319.172 11.0099 317.261 12.7536 316.948 12.9922C314.492 14.877 312.396 14.83 309.399 14.6788Z" fill="black"/>
<path d="M311.079 11.3189L316.243 9.60205L319.471 7.29053C318.91 11.0132 314.304 12.384 311.079 11.3189Z" fill="black"/>
<path d="M305.031 14.01C305.565 14.4501 304.994 14.6214 304.53 14.6819C302.454 14.944 297.918 14.907 297.303 12.3301L305.028 14.0133L305.031 14.01Z" fill="black"/>
<path d="M318.131 17.0303V20.0541L317.791 17.3663C316.236 19.0461 314.536 18.7572 312.423 18.7068C312.349 17.8333 312.375 18.1491 312.926 18.0483C314.674 17.7257 316.421 17.5275 318.131 17.0303Z" fill="black"/>
<path d="M293.94 77.5131L288.232 80.1942C289.509 78.1582 291.558 77.241 293.94 77.5131Z" fill="black"/>
</g>
<g clip-path="url(#clip4_410_9025)">
<path d="M495.779 126.176C494.402 126.395 493.021 126.61 491.64 126.808C491.213 126.868 490.79 126.926 490.363 126.989C489.419 127.127 490.85 126.929 490.911 126.915C490.078 127.09 489.197 127.137 488.354 127.238C485.475 127.587 482.592 127.886 479.703 128.132C473.712 128.646 467.701 128.945 461.687 129.029C449.875 129.19 438.051 128.521 426.336 127.02C426.02 126.979 425.691 126.956 425.378 126.895C427.253 127.258 425.711 126.939 425.288 126.879C424.438 126.758 423.588 126.633 422.738 126.506C421.145 126.264 419.556 126.008 417.967 125.736C414.58 125.155 411.207 124.5 407.844 123.781C403.728 122.904 398.93 124.997 397.926 129.412C396.911 133.863 399.27 137.902 403.557 139.33C407.699 140.711 411.842 142.095 415.988 143.476C416.703 138.198 417.416 132.916 418.131 127.638C416.986 127.618 415.84 127.574 414.698 127.483C414.177 127.443 413.659 127.389 413.142 127.339C411.402 127.181 414.688 127.584 412.806 127.302C412.09 132.58 411.378 137.862 410.663 143.14C412.057 143.086 413.444 143.093 414.835 143.194C415.084 143.21 417.194 143.469 415.998 143.288C415.349 143.197 415.417 143.214 416.196 143.335C416.619 143.409 417.039 143.489 417.456 143.58C421.578 144.417 426.363 142.391 427.374 137.949C428.291 133.931 426.161 128.928 421.743 128.031C418.101 127.288 414.382 126.875 410.663 127.016C406.631 127.171 403.284 129.966 402.744 134.008C402.263 137.579 404.548 142.26 408.519 142.854C411.714 143.335 414.899 143.708 418.131 143.765C422.15 143.835 425.53 140.644 426.05 136.773C426.598 132.698 424.125 129.21 420.275 127.927C416.132 126.546 411.99 125.162 407.844 123.781C406.416 128.965 404.984 134.149 403.557 139.333C427.885 144.524 452.965 146.359 477.774 144.42C485.236 143.835 492.675 142.908 500.066 141.729C501.934 141.43 503.97 139.585 504.884 138.023C505.895 136.296 506.326 133.746 505.697 131.811C504.229 127.278 500.254 125.464 495.779 126.18V126.176Z" fill="#79B1BD"/>
<path d="M406.967 137.684C434.393 140.348 462.05 140.489 489.5 138.053C497.765 137.321 506 136.33 514.214 135.181C512.786 129.997 511.355 124.812 509.927 119.628C505.334 121.241 500.738 122.854 496.145 124.466C492.174 125.861 489.107 130.044 490.514 134.384C491.784 138.309 496.172 141.511 500.433 140.015C505.025 138.403 509.622 136.79 514.214 135.177C518.186 133.783 521.253 129.6 519.845 125.259C519.214 123.307 518.004 121.426 516.139 120.441C514.087 119.356 512.202 119.309 509.927 119.628C509.527 119.685 506.762 120.105 508.808 119.786C508.049 119.904 507.283 119.988 506.524 120.085C504.78 120.307 503.04 120.519 501.293 120.72C497.913 121.11 494.529 121.463 491.139 121.775C484.363 122.4 477.573 122.87 470.772 123.186C457.175 123.815 443.551 123.818 429.954 123.2C422.277 122.85 414.614 122.296 406.967 121.553C402.757 121.144 398.722 125.555 398.903 129.617C399.115 134.334 402.455 137.244 406.967 137.68V137.684Z" fill="#79B1BD"/>
<path d="M409.893 100.078C411.066 99.0462 413.602 98.7505 415.198 98.4985C425.184 96.9194 438.734 97.5007 449.048 97.7157C456.342 97.8669 464.52 99.0529 471.538 99.0999C473.269 99.1134 474.912 98.4683 476.571 98.3876C491.331 97.6855 506.178 101.828 517.406 111.501C511.288 109.418 505.882 105.668 499.774 103.434C492.745 100.864 488.525 100.911 481.292 100.414C461.012 99.0193 440.464 99.4325 420.154 100.094C416.744 100.205 413.303 99.9869 409.893 100.078Z" fill="black"/>
<path d="M409.221 99.7485L403.17 103.606C399.048 106.72 395.013 116.087 395.103 121.066C395.14 123.096 398.356 133.309 399.653 134.71L405.525 136.373C405.462 136.992 403.755 136.743 403.372 136.676C402.166 136.468 401.091 135.987 400.318 135.026C400.066 134.972 400.093 135.369 400.156 135.523C401.235 138.168 406.937 141.709 409.477 143.009C410.269 143.412 410.152 143.469 409.386 143.436C392.856 142.693 390.262 112.365 400.482 103.27C402.848 101.166 406.157 100.259 409.218 99.7485H409.221Z" fill="black"/>
<path d="M469.358 139.39C468.444 138.917 468.236 137.542 467.93 136.622C465.249 128.622 464.503 114.353 466.576 106.196C467.097 104.146 468.007 101.502 470.201 100.75C470.168 101.385 469.472 101.727 469.197 102.433C468.851 103.31 468.615 104.748 468.447 105.715C466.512 116.95 467.584 128.236 469.361 139.39H469.358Z" fill="black"/>
<path d="M456.255 136.031L454.4 131.337C452.811 124.342 453.211 109.606 456.433 103.112C457.185 101.596 458.082 100.457 459.951 100.42C459.981 100.938 459.292 100.83 458.939 101.25C457.501 102.964 455.889 112.674 455.59 115.375C454.834 122.235 455.502 129.21 456.255 136.031Z" fill="black"/>
<path d="M475.412 139.726C477.939 132.09 479.269 123.801 478.399 115.738L475.909 104.452C480.684 112.213 481.43 122.235 479.676 131.062C479.061 134.153 478.103 137.832 475.409 139.726H475.412Z" fill="black"/>
<path d="M540.585 129.647C539.987 129.725 540.259 128.891 540.293 128.515C540.757 123.606 541.761 116.961 538.25 113.02L536.224 113.856L536.557 112.516L535.052 112.855L532.528 112.18C534.108 111.498 535.351 112.126 536.742 112.19C538.133 112.254 538.499 111.293 539.92 112.68C543.75 116.416 542.756 125.202 540.589 129.644L540.585 129.647Z" fill="black"/>
<path d="M527.324 118.469C521.384 117.763 514.943 117.095 509.037 118.358C506.389 118.923 503.816 119.931 501.215 120.67C498.615 121.409 495.877 122.111 493.185 122.739C489.076 123.7 486.248 128.626 487.554 132.657C488.942 136.948 493.068 139.32 497.473 138.288C502.623 137.082 507.609 135.318 512.733 134.045C513.028 133.968 513.324 133.9 513.626 133.847C514.234 133.732 514.023 133.759 512.998 133.927C512.998 133.927 514.755 133.857 514.836 133.857C516.143 133.843 517.45 133.874 518.757 133.917C521.623 134.018 524.482 134.253 527.328 134.593C529.236 134.818 531.732 133.528 533.029 132.231C534.427 130.833 535.482 128.538 535.391 126.529C535.3 124.52 534.612 122.282 533.029 120.828C531.353 119.289 529.575 118.731 527.328 118.466L527.324 118.469Z" fill="#79B1BD"/>
<path d="M526.595 134.905C530.143 134.404 533.523 133.265 536.97 132.335C537.749 132.126 538.529 131.928 539.319 131.757C539.47 131.723 540.545 131.646 540.612 131.508C540.505 131.73 538.559 131.71 540.266 131.572C541.035 131.508 541.795 131.525 542.564 131.538C544.036 131.569 541.237 131.206 542.201 131.481C542.614 131.599 543.055 131.696 543.471 131.8C544.546 132.066 543.317 131.878 543.068 131.569C543.243 131.787 543.972 132.019 544.254 132.183C544.829 132.519 545.376 132.906 545.92 133.289C547.395 134.324 548.803 135.274 550.473 135.977C554.441 137.653 558.637 138.436 562.86 139.182C565.044 139.565 567.097 139.525 569.073 138.369C570.746 137.391 572.342 135.473 572.779 133.551C573.672 129.623 571.589 124.412 567.148 123.633C565.068 123.267 562.985 122.904 560.929 122.417C559.904 122.175 558.882 121.906 557.878 121.593C557.374 121.436 556.883 121.247 556.379 121.089C555.207 120.723 558.043 122.064 556.89 121.254C553.779 119.07 550.523 116.809 546.744 115.979C542.289 115.002 537.86 115.455 533.476 116.577C529.753 117.528 526.135 118.815 522.315 119.352C520.46 119.615 518.394 121.526 517.497 123.058C516.485 124.785 516.055 127.335 516.684 129.271C517.315 131.223 518.525 133.104 520.39 134.088C522.442 135.174 524.327 135.221 526.602 134.902L526.595 134.905Z" fill="#79B1BD"/>
<path d="M518.868 134.572C518.569 134.303 518.454 133.752 518.091 133.49L517.729 133.48C509.595 138.916 500.587 143.368 490.877 145.283C483.294 146.778 477.912 145.367 470.544 145.445C464.567 145.505 458.422 146.113 452.384 145.791C449.757 145.649 446.481 144.752 443.998 144.739C440.313 144.719 436.536 145.109 432.588 145.092C425.889 145.065 419.217 145.172 412.584 144.094L415.444 143.429C426.588 142.703 437.86 144.178 449.051 144.111C454.689 144.077 460.488 143.412 466.186 143.748C468.73 143.896 471.757 144.803 474.236 144.803C484.208 144.796 493.753 142.894 502.952 139.219C507.878 137.25 512.437 134.139 517.749 133.349C516.173 127.715 515.75 121.876 517.416 116.218C518.001 116.137 517.732 116.98 517.749 117.387C517.897 121.157 518.065 133.309 521.922 135.053C523.145 135.607 523.588 135.291 524.804 135.033C523.118 137.542 520.652 136.172 518.874 134.576L518.868 134.572Z" fill="black"/>
<path d="M408.549 124.775C408.532 124.917 408.223 126.381 407.881 126.284C407.249 123.267 405.055 117.236 409.56 116.537C408.754 113.13 408.126 109.969 406.194 106.969C407.424 106.77 409.026 108.8 409.503 109.707C410.958 112.469 409.685 115.664 410.562 118.556L409.087 117.868C408.905 117.898 408.549 118.674 408.549 118.724C408.549 120.606 408.744 122.975 408.549 124.772V124.775Z" fill="black"/>
<path d="M534.88 132.667L537.901 132.331C537.323 131.596 536.483 131.367 535.939 130.437C534.484 127.957 534.948 124.513 534.887 121.758L535.885 117.891L536.977 129.066C537.068 129.597 537.514 130.83 537.881 131.186C538.422 131.717 539.201 131.408 539.248 131.995C537.642 132.869 536.742 133.306 534.884 132.667H534.88Z" fill="black"/>
<path d="M405.861 135.691L409.483 127.389L410.562 123.267C411.314 125.43 411.415 126.778 410.726 128.968C410.488 129.731 406.97 136.746 405.865 135.694L405.861 135.691Z" fill="black"/>
<path d="M525.13 111.168C523.104 109.438 521.243 109.969 519.815 112.065L518.081 115.536C517.87 113.487 518.179 110.805 519.976 109.542C521.952 108.151 524.751 108.484 525.13 111.172V111.168Z" fill="black"/>
<path d="M524.458 121.92L523.79 118.059C524.099 116.222 524.22 114.518 525.134 112.855C524.687 112.516 522.731 113.752 522.449 112.855L526.141 112.18L524.458 121.92Z" fill="black"/>
<path d="M530.842 121.247C530.381 121.331 530.334 120.649 530.264 120.323C529.612 117.313 529.407 112.512 532.861 111.175C531.006 113.94 531.282 117.972 530.842 121.251V121.247Z" fill="black"/>
<path d="M461.97 142.411C463.347 139.824 463.582 136.83 464.147 134.005C464.217 133.645 464.167 132.919 464.654 133.007C465.229 136.168 465.534 140.953 461.97 142.407V142.411Z" fill="black"/>
<path d="M527.825 123.603L529.34 127.964L531.853 133.007C531.494 133.377 529.75 131.465 529.511 131.152C527.627 128.696 527.674 126.6 527.825 123.603Z" fill="black"/>
<path d="M531.184 125.283L532.901 130.447L535.213 133.675C531.49 133.114 530.119 128.508 531.184 125.283Z" fill="black"/>
<path d="M528.493 119.235C528.053 119.77 527.882 119.198 527.821 118.735C527.559 116.658 527.596 112.123 530.173 111.508L528.49 119.232L528.493 119.235Z" fill="black"/>
<path d="M525.473 132.335H522.449L525.137 131.996C523.457 130.44 523.746 128.74 523.796 126.627C524.67 126.553 524.354 126.58 524.455 127.131C524.777 128.878 524.976 130.625 525.473 132.335Z" fill="black"/>
<path d="M464.99 108.144L462.309 102.436C464.345 103.713 465.262 105.762 464.99 108.144Z" fill="black"/>
<path d="M566.499 140.718C567.423 140.58 567.339 140.59 566.251 140.745C566.566 140.708 566.886 140.674 567.201 140.644C567.836 140.583 568.471 140.533 569.11 140.496C570.491 140.415 571.875 140.395 573.256 140.432C574.532 140.469 575.799 140.587 577.072 140.691C578.967 140.842 575.745 140.409 577.459 140.741C577.805 140.788 578.151 140.852 578.49 140.936C576.031 140.086 574.65 138.08 574.341 134.915L575.443 130.847L577.415 129.052L576.948 129.355C576.548 129.563 576.122 129.788 575.732 130.017C574.858 130.527 577.109 129.597 576.125 129.839C575.678 129.95 575.245 130.131 574.798 130.249C574.438 130.343 574.075 130.43 573.709 130.504C573.43 130.561 571.801 130.823 573.121 130.632C574.341 130.453 573.044 130.618 572.795 130.638C572.328 130.675 571.861 130.705 571.394 130.722C567.487 130.873 563.583 130.464 559.675 130.753C560.391 136.031 561.103 141.312 561.819 146.591C562.73 146.443 562.615 146.456 561.48 146.631C561.883 146.594 562.286 146.567 562.689 146.554C563.398 146.53 564.104 146.543 564.813 146.591C565.115 146.607 565.417 146.634 565.72 146.668C564.581 146.507 564.467 146.503 565.374 146.661C566.156 146.873 566.943 147.037 567.719 147.276C567.077 142.364 566.435 137.452 565.794 132.537C564.991 132.93 565.091 132.899 566.103 132.446C565.733 132.58 565.357 132.698 564.974 132.805C564.204 133.02 563.425 133.145 562.646 133.306C561.735 133.444 561.859 133.434 563.018 133.272C562.582 133.329 562.142 133.383 561.701 133.434C560.825 133.534 559.944 133.628 559.064 133.706C555.745 134.008 552.418 134.095 549.089 134.216C541.566 134.489 532.391 135.073 528.006 142.179C526.504 144.618 526.575 147.874 528.006 150.32C529.585 153.018 532.041 153.928 534.968 154.315C535.848 154.429 536.728 154.546 537.608 154.664C538.542 154.788 538.489 154.782 537.444 154.641C537.884 154.701 538.324 154.758 538.764 154.819C540.525 155.057 542.282 155.299 544.042 155.548C547.449 156.025 550.856 156.515 554.26 157.019C561.177 158.044 568.085 159.129 574.983 160.265C573.377 156.317 571.771 152.369 570.165 148.418L569.923 148.774C570.887 147.81 571.851 146.846 572.816 145.882C571.878 146.577 573.414 145.529 573.535 145.616C573.387 145.515 572.312 145.794 572.093 145.824C571.105 145.959 570.118 146.093 569.13 146.228C567.154 146.496 565.179 146.769 563.2 147.037C561.426 147.279 559.185 149.218 558.382 150.743C557.522 152.373 557.179 154.053 557.424 155.884C557.952 159.811 561.302 162.865 565.343 162.875C577.687 162.906 590.031 162.943 602.368 163.295C601.011 158.286 599.653 153.276 598.299 148.27C597.822 148.546 597.345 148.791 596.858 149.047C595.541 149.739 597.977 148.67 597.04 148.989C596.102 149.309 595.158 149.651 594.19 149.92C592.329 150.437 590.434 150.81 588.539 151.193C584.135 152.084 579.905 153.206 575.886 155.296C569.704 158.511 571.27 168.359 577.812 170.035C583.735 171.554 590.081 171.043 596.139 171.03C601.958 171.016 607.774 171.003 613.593 170.989C617.81 170.979 621.852 167.287 621.657 162.926C621.462 158.565 618.112 154.852 613.593 154.862C607.999 154.876 602.405 154.886 596.811 154.899C594.127 154.906 591.442 154.913 588.754 154.916C587.478 154.916 586.201 154.933 584.928 154.882C584.699 154.872 582.243 154.674 583.493 154.819C584.743 154.963 582.344 154.546 582.102 154.483C582.744 159.395 583.385 164.307 584.027 169.222C584.454 169 585.116 168.785 585.502 168.503C584.867 168.97 584.209 169.02 585.354 168.617C586.302 168.285 587.266 168.002 588.24 167.754C590.115 167.27 592.02 166.91 593.915 166.524C598.273 165.634 602.553 164.434 606.44 162.197C609.414 160.483 611.231 156.448 610.146 153.092C609.027 149.634 606.047 147.276 602.372 147.172C590.034 146.819 577.691 146.782 565.347 146.752C566.062 152.03 566.775 157.312 567.49 162.59C570.017 162.244 572.54 161.901 575.067 161.555C578.917 161.027 581.776 159.966 584.094 156.559C586.816 152.557 584.252 145.532 579.276 144.712C564.547 142.287 549.774 140.13 534.974 138.184C537.296 142.23 539.618 146.275 541.936 150.317C541.076 151.301 540.931 151.492 541.502 150.884C540.437 151.647 540.263 151.802 540.975 151.351C541.731 150.972 541.516 151.049 540.323 151.587C540.619 151.479 540.914 151.385 541.217 151.298C541.764 151.14 542.322 151.012 542.877 150.898C543.354 150.797 545.917 150.051 543.801 150.7C545.087 150.306 546.804 150.437 548.155 150.38C549.717 150.313 551.279 150.28 552.842 150.226C559.874 149.974 567.558 149.705 573.931 146.466C576.78 145.018 578.185 141.43 577.781 138.433C577.351 135.221 575.107 132.691 572.006 131.73C567.222 130.245 562.424 130.222 557.529 131.041C553.584 131.703 551.269 136.286 551.753 139.888C552.25 143.597 555.661 147.175 559.672 146.879C564.228 146.543 568.804 147.172 573.353 146.715C578.897 146.157 586.056 144.608 589.174 139.421C591.661 135.288 590.354 130.178 586.675 127.336C584.027 125.29 580.923 125.011 577.707 124.634C572.493 124.026 567.39 124.382 562.212 125.165C560.351 125.447 558.298 127.322 557.394 128.871C556.383 130.598 555.953 133.148 556.581 135.083C557.209 137.019 558.422 138.917 560.287 139.901C562.33 140.98 564.235 141.057 566.499 140.714V140.718Z" fill="#79B1BD"/>
</g>
<defs>
<clipPath id="clip0_410_9025">
<rect width="48.5387" height="148.065" fill="white"/>
</clipPath>
<clipPath id="clip1_410_9025">
<rect width="48.5387" height="148.065" fill="white" transform="translate(94.4099)"/>
</clipPath>
<clipPath id="clip2_410_9025">
<rect width="48.5387" height="148.065" fill="white" transform="translate(188.82)"/>
</clipPath>
<clipPath id="clip3_410_9025">
<rect width="48.5387" height="148.065" fill="white" transform="translate(283.229)"/>
</clipPath>
<clipPath id="clip4_410_9025">
<rect width="227.232" height="73.6934" fill="white" transform="translate(394.438 97.4336)"/>
</clipPath>
</defs>
</svg>
