<svg width="522" height="322" viewBox="0 0 522 322" fill="none" xmlns="http://www.w3.org/2000/svg">
<path d="M0.000140407 70.2607C-0.0274088 65.1851 3.14079 55.4946 5.87918 51.8888C23.4115 28.7745 43.5169 16.7911 65.6555 12.8228C112.638 4.4158 158.579 -0.640144 205.809 0.0653366C219.677 0.2809 268.541 26.17 290.87 30.499C306.37 33.504 382.583 2.14037 398.353 41.2669C401.343 48.6865 401.476 53.3785 402.711 61.2822C404.066 69.9559 405.104 74.9006 404.727 83.6714C404.471 89.6128 402.234 92.8376 402.711 98.7653C404.795 124.662 440.845 112.779 466.011 119.232C479.205 122.615 466.206 122.525 500.059 126.798C500.059 126.798 521.906 130.332 522 140.416C522.052 146.1 516.836 147.838 515.19 153.279C511.58 165.209 519.666 184.882 519.666 184.882C521.193 205.37 494.277 227.387 481.566 232.139C451.713 243.309 416.043 245.573 392.604 261.25C373.011 274.37 395.844 305.989 378.846 314.533C357.049 325.498 334.442 323.685 312.347 313.661L262.77 291.174C245.381 283.296 227.854 277.966 210.129 279.975C166.893 284.864 140.523 299.17 96.8301 302.922C80.8957 304.294 44.6078 294.496 42.9659 267.1C42.5692 260.476 45.0707 249.365 47.787 244.416L73.0166 198.472C75.733 193.524 78.3997 181.678 78.262 175.289C77.3419 132.97 0.187475 105.897 0.000140407 70.2607Z" fill="#79B1BD"/>
</svg>
