<svg width="344" height="213" viewBox="0 0 344 213" fill="none" xmlns="http://www.w3.org/2000/svg">
<path d="M343.468 166.363C343.486 169.717 341.392 176.121 339.583 178.504C327.996 193.779 314.709 201.698 300.079 204.321C269.03 209.876 238.67 213.218 207.457 212.751C198.292 212.609 152.674 209.986 151.243 192.639C150.992 189.583 153.016 186.052 154.124 180.971C155.231 175.89 153.891 174.227 151.243 167.744C148.596 161.26 149.911 152.948 149.911 152.948C149.911 152.948 151.923 146.88 151.243 142.973C150.607 139.312 148.021 135.805 146.04 135.008C124.167 126.189 125.129 126.332 102.757 123.509L65.405 118.789L52.708 117.086C42.9713 115.778 1.5377 110.714 0.0411545 90.6149C-0.967468 77.0752 16.82 62.5252 25.2203 59.3847C44.9485 52.003 68.5219 50.5072 84.0117 40.1467C96.9599 31.4764 81.8706 10.5807 93.1038 4.93428C107.509 -2.31153 122.449 -1.11361 137.05 5.51058L169.814 20.3713C181.305 25.5774 192.888 29.1 204.602 27.7725C233.175 24.5414 250.602 15.0875 279.477 12.6075C290.007 11.7009 313.988 18.1762 315.074 36.281C315.336 40.6583 313.683 48.0012 311.887 51.2712L295.214 81.6337C293.419 84.9037 291.657 92.7323 291.748 96.9542C292.356 124.921 343.344 142.812 343.468 166.363Z" fill="white"/>
</svg>
