<svg width="574" height="350" viewBox="0 0 574 350" fill="none" xmlns="http://www.w3.org/2000/svg">
<path d="M0.000196457 76.3703C-0.030138 70.8534 3.45369 60.3202 6.46486 56.4008C25.7437 31.2766 47.852 18.2512 72.1959 13.9378C123.859 4.79977 174.376 -0.695801 226.311 0.0710144C241.561 0.305328 295.292 28.4456 319.846 33.1511C336.89 36.4174 420.694 2.32648 438.035 44.8553C441.324 52.9201 441.47 58.0201 442.828 66.6111C444.318 76.039 445.459 81.4137 445.045 90.9472C444.764 97.4052 442.303 100.91 442.828 107.354C445.119 135.502 484.76 122.586 512.433 129.6C526.942 133.277 512.648 133.18 549.873 137.823C549.873 137.823 573.897 141.665 574 152.626C574.057 158.804 568.321 160.694 566.512 166.607C562.543 179.575 571.434 200.958 571.434 200.958C573.112 223.228 543.515 247.16 529.538 252.325C496.712 264.467 457.488 266.927 431.714 283.967C410.169 298.228 435.276 332.597 416.585 341.884C392.617 353.802 367.758 351.832 343.463 340.936L288.946 316.494C269.825 307.931 250.552 302.137 231.061 304.32C183.519 309.635 154.522 325.184 106.476 329.263C88.9542 330.755 49.0515 320.104 47.246 290.326C46.8098 283.126 49.5605 271.049 52.5474 265.67L80.2903 215.73C83.2773 210.352 86.2097 197.476 86.0582 190.532C85.0464 144.533 0.20619 115.106 0.000196457 76.3703Z" fill="#79B1BD"/>
</svg>
