<svg width="522" height="322" viewBox="0 0 522 322" fill="none" xmlns="http://www.w3.org/2000/svg">
<path d="M522 251.739C522.028 256.815 518.859 266.505 516.121 270.111C498.589 293.226 478.483 305.209 456.345 309.177C409.362 317.584 363.421 322.64 316.191 321.935C302.323 321.719 253.459 295.83 231.13 291.501C215.63 288.496 139.418 319.86 123.647 280.733C120.657 273.314 120.524 268.622 119.289 260.718C117.934 252.044 116.896 247.099 117.273 238.329C117.529 232.387 119.766 229.162 119.289 223.235C117.205 197.338 81.1553 209.221 55.9894 202.768C42.7954 199.385 55.794 199.475 21.9415 195.202C21.9415 195.202 0.0936605 191.668 0.000422304 181.584C-0.0521234 175.9 5.16428 174.162 6.81009 168.721C10.4197 156.791 2.33382 137.118 2.33382 137.118C0.807591 116.63 27.7232 94.613 40.4344 89.8608C70.2867 78.6907 105.957 76.4273 129.396 60.7499C148.989 47.63 126.156 16.0107 143.154 7.46654C164.951 -3.49781 187.558 -1.68511 209.653 8.3386L259.23 30.8258C276.619 38.7037 294.146 44.034 311.871 42.0253C355.107 37.1359 381.477 22.8303 425.17 19.0776C441.104 17.7058 477.392 27.5042 479.034 54.9003C479.431 61.524 476.929 72.6353 474.213 77.5835L448.983 123.528C446.267 128.476 443.6 140.322 443.738 146.711C444.658 189.03 521.813 216.103 522 251.739Z" fill="#79B1BD"/>
</svg>
