<svg width="730" height="241" viewBox="0 0 730 241" fill="none" xmlns="http://www.w3.org/2000/svg">
<path d="M720.062 38.836C724.684 41.5347 730.031 48.7876 729.985 52.5864C729.669 79.2585 599.452 99.5211 597.899 131.195C597.667 135.976 602.167 144.842 606.752 148.546L649.333 182.933C653.917 186.636 658.139 194.953 657.47 199.91C654.699 220.415 593.454 227.748 566.561 226.721C492.818 223.913 448.313 213.206 375.342 209.546C345.427 208.043 315.846 212.032 286.498 217.929L202.824 234.759C165.534 242.261 127.38 243.618 90.592 235.412C61.904 229.017 100.44 205.351 67.372 195.532C27.8133 183.798 -44.8439 131.579 37.9849 66.5C41.5304 63.7142 44.9849 64.5 46.9113 62.6237C51.6359 58.0219 48.0263 52.3583 50.3136 45.8665C52.3979 39.951 52.622 36.4393 57.6693 30.8861C84.2853 1.60196 212.912 25.076 239.072 22.8269C276.758 19.5868 359.227 0.210236 382.633 0.0489044C462.345 -0.479111 539.882 3.30499 619.176 9.59717C656.54 12.5673 690.472 21.5362 720.062 38.836Z" fill="#79B1BD"/>
</svg>
