<svg width="1385" height="671" viewBox="0 0 1385 671" fill="none" xmlns="http://www.w3.org/2000/svg">
<path d="M1374.74 495.735C1235.24 278.735 997.632 203.235 809.737 203.235C758.993 203.235 649.171 256.004 523.237 182.735C462.082 147.156 430.123 69.0732 298.737 27.236C100.07 -36.025 -73.2634 16.4959 -139.763 127.236C-320.026 307.173 -98.9011 430.615 15.2366 510.236C129.374 589.856 560.611 393.511 661.237 573.735C761.862 753.96 1476.84 654.563 1374.74 495.735Z" fill="#79B1BD"/>
<path d="M61.7903 481.7C58.7263 488.097 59.7325 485.92 55.0042 487.02C50.276 488.119 48.9258 484.822 49.2938 481.505C49.6617 478.188 53.8501 477.235 57.4455 477.235C61.0409 477.235 63.2268 478.258 61.7903 481.7Z" fill="#B0DF44"/>
<path d="M808.79 574.7C805.726 581.097 806.733 578.92 802.004 580.02C797.276 581.119 795.926 577.822 796.294 574.505C796.662 571.188 800.85 570.235 804.446 570.235C808.041 570.235 810.227 571.258 808.79 574.7Z" fill="#B0DF44"/>
<path d="M846.79 481.7C843.726 488.097 844.733 485.92 840.004 487.02C835.276 488.119 833.926 484.822 834.294 481.505C834.662 478.188 838.85 477.235 842.446 477.235C846.041 477.235 848.227 478.258 846.79 481.7Z" fill="#B0DF44"/>
<path d="M925.79 614.7C922.726 621.097 923.733 618.92 919.004 620.02C914.276 621.119 912.926 617.822 913.294 614.505C913.662 611.188 917.85 610.235 921.446 610.235C925.041 610.235 927.227 611.258 925.79 614.7Z" fill="#B0DF44"/>
<path d="M1179.79 547.7C1176.73 554.097 1177.73 551.92 1173 553.02C1168.28 554.119 1166.93 550.822 1167.29 547.505C1167.66 544.188 1171.85 543.235 1175.45 543.235C1179.04 543.235 1181.23 544.258 1179.79 547.7Z" fill="#B0DF44"/>
<path d="M1185.79 428.7C1182.73 435.097 1183.73 432.92 1179 434.02C1174.28 435.119 1172.93 431.822 1173.29 428.505C1173.66 425.188 1177.85 424.235 1181.45 424.235C1185.04 424.235 1187.23 425.258 1185.79 428.7Z" fill="#B0DF44"/>
<path d="M1285.79 513.7C1282.73 520.097 1283.73 517.92 1279 519.02C1274.28 520.119 1272.93 516.822 1273.29 513.505C1273.66 510.188 1277.85 509.235 1281.45 509.235C1285.04 509.235 1287.23 510.258 1285.79 513.7Z" fill="#B0DF44"/>
<path d="M1218.79 596.7C1215.73 603.097 1216.73 600.92 1212 602.02C1207.28 603.119 1205.93 599.822 1206.29 596.505C1206.66 593.188 1210.85 592.235 1214.45 592.235C1218.04 592.235 1220.23 593.258 1218.79 596.7Z" fill="#B0DF44"/>
<path d="M1062.79 614.7C1059.73 621.097 1060.73 618.92 1056 620.02C1051.28 621.119 1049.93 617.822 1050.29 614.505C1050.66 611.188 1054.85 610.235 1058.45 610.235C1062.04 610.235 1064.23 611.258 1062.79 614.7Z" fill="#B0DF44"/>
<path d="M1166.79 354.7C1163.73 361.097 1164.73 358.92 1160 360.02C1155.28 361.119 1153.93 357.822 1154.29 354.505C1154.66 351.188 1158.85 350.235 1162.45 350.235C1166.04 350.235 1168.23 351.258 1166.79 354.7Z" fill="#B0DF44"/>
<path d="M821.79 268.7C818.726 275.097 819.733 272.92 815.004 274.02C810.276 275.119 808.926 271.822 809.294 268.505C809.662 265.188 813.85 264.235 817.446 264.235C821.041 264.235 823.227 265.258 821.79 268.7Z" fill="#B0DF44"/>
<path d="M795.79 404.7C792.726 411.097 793.733 408.92 789.004 410.02C784.276 411.119 782.926 407.822 783.294 404.505C783.662 401.188 787.85 400.235 791.446 400.235C795.041 400.235 797.227 401.258 795.79 404.7Z" fill="#B0DF44"/>
<path d="M716.79 319.7C713.726 326.097 714.733 323.92 710.004 325.02C705.276 326.119 703.926 322.822 704.294 319.505C704.662 316.188 708.85 315.235 712.446 315.235C716.041 315.235 718.227 316.258 716.79 319.7Z" fill="#B0DF44"/>
<path d="M689.79 448.7C686.726 455.097 687.733 452.92 683.004 454.02C678.276 455.119 676.926 451.822 677.294 448.505C677.662 445.188 681.85 444.235 685.446 444.235C689.041 444.235 691.227 445.258 689.79 448.7Z" fill="#B0DF44"/>
<path d="M593.79 317.7C590.726 324.097 591.733 321.92 587.004 323.02C582.276 324.119 580.926 320.822 581.294 317.505C581.662 314.188 585.85 313.235 589.446 313.235C593.041 313.235 595.227 314.258 593.79 317.7Z" fill="#B0DF44"/>
<path d="M525.79 416.7C522.726 423.097 523.733 420.92 519.004 422.02C514.276 423.119 512.926 419.822 513.294 416.505C513.662 413.188 517.85 412.235 521.446 412.235C525.041 412.235 527.227 413.258 525.79 416.7Z" fill="#B0DF44"/>
<path d="M512.79 242.7C509.726 249.097 510.733 246.92 506.004 248.02C501.276 249.119 499.926 245.822 500.294 242.505C500.662 239.188 504.85 238.235 508.446 238.235C512.041 238.235 514.227 239.258 512.79 242.7Z" fill="#B0DF44"/>
<path d="M305.79 437.7C302.726 444.097 303.733 441.92 299.004 443.02C294.276 444.119 292.926 440.822 293.294 437.505C293.662 434.188 297.85 433.235 301.446 433.235C305.041 433.235 307.227 434.258 305.79 437.7Z" fill="#B0DF44"/>
<path d="M209.79 213.7C206.726 220.097 207.733 217.92 203.004 219.02C198.276 220.119 196.926 216.822 197.294 213.505C197.662 210.188 201.85 209.235 205.446 209.235C209.041 209.235 211.227 210.258 209.79 213.7Z" fill="#B0DF44"/>
<path d="M133.79 92.6998C130.726 99.0974 131.733 96.9197 127.004 98.0195C122.276 99.1194 120.926 95.8221 121.294 92.5051C121.662 89.188 125.85 88.2354 129.446 88.2354C133.041 88.2354 135.227 89.2576 133.79 92.6998Z" fill="#B0DF44"/>
<path d="M274.79 70.6998C271.726 77.0974 272.733 74.9197 268.004 76.0195C263.276 77.1194 261.926 73.8221 262.294 70.5051C262.662 67.188 266.85 66.2354 270.446 66.2354C274.041 66.2354 276.227 67.2576 274.79 70.6998Z" fill="#B0DF44"/>
<path d="M16.7903 232.7C13.7263 239.097 14.7325 236.92 10.0043 238.02C5.276 239.119 3.92584 235.822 4.2938 232.505C4.66175 229.188 8.85012 228.235 12.4455 228.235C16.041 228.235 18.2268 229.258 16.7903 232.7Z" fill="#B0DF44"/>
</svg>
