<svg width="457" height="322" viewBox="0 0 457 322" fill="none" xmlns="http://www.w3.org/2000/svg">
<path d="M457 251.739C457.027 256.815 453.859 266.505 451.121 270.111C433.589 293.226 413.483 305.209 391.345 309.177C344.362 317.584 298.421 322.64 251.191 321.935C237.323 321.719 188.459 295.83 166.13 291.501C150.63 288.496 74.4174 319.86 58.6472 280.733C55.6567 273.314 55.5239 268.622 54.2889 260.718C52.9336 252.044 51.8959 247.099 52.273 238.329C52.5285 232.387 54.7658 229.162 54.2889 223.235C52.2053 197.338 16.1552 209.221 -9.01073 202.768C-22.2048 199.385 -9.20614 199.475 -43.0586 195.202C-43.0586 195.202 -64.9065 191.668 -64.9997 181.584C-65.0522 175.9 -59.8358 174.162 -58.19 168.721C-54.5805 156.791 -62.6663 137.118 -62.6663 137.118C-64.1925 116.63 -37.277 94.613 -24.5658 89.8608C5.28656 78.6907 40.9573 76.4273 64.3962 60.7499C83.9892 47.63 61.1564 16.0107 78.1542 7.46654C99.9512 -3.49781 122.558 -1.68511 144.653 8.3386L194.23 30.8258C211.619 38.7037 229.146 44.034 246.871 42.0253C290.107 37.1359 316.477 22.8303 360.17 19.0776C376.104 17.7058 412.392 27.5042 414.034 54.9003C414.431 61.524 411.929 72.6353 409.213 77.5835L383.983 123.528C381.267 128.476 378.6 140.322 378.738 146.711C379.658 189.03 456.812 216.103 457 251.739Z" fill="#79B1BD"/>
</svg>
