<svg width="1183" height="1201" viewBox="0 0 1183 1201" fill="none" xmlns="http://www.w3.org/2000/svg">
<path d="M1082.55 922.541C1099.88 939.411 1121.7 922.038 1138.39 933.327C1156.09 945.32 1141.81 970.236 1131.93 982.404C1118.61 998.847 1035.21 1065.68 1016.28 1072.92C969.288 1090.89 958.275 1069.7 920.713 1052.95C864.495 1027.89 786.353 1007.62 743.763 1064.39C721.763 1093.73 735.365 1116.31 723.171 1144.37C702.53 1191.89 617.247 1166.39 584.11 1145.68C556.957 1128.68 547.051 1102.66 510.368 1107.59C476.175 1112.19 463.277 1132.2 422.974 1120.76C382.319 1109.22 331.557 1077.11 290.475 1062.18C265.358 1047.1 293.291 1026.83 301.839 1009.68C312.298 988.74 316.195 962.542 319.59 939.437C329.244 873.69 347.724 749.211 323.637 689.624C308.452 652.112 291.958 653.771 267.093 630.515C235.162 600.671 254.849 565.548 222.868 528.916C179.598 479.386 112.092 477.952 54.6166 458.316C38.3999 452.76 10.1904 444.815 17.1045 423.168C21.3033 410.018 40.889 413.589 43.3278 400.464C17.9594 397.975 -8.49017 393.953 2.59751 360.916C12.9309 330.142 70.3053 344.649 96.2268 336.402C110.357 331.902 121.696 317.873 137.711 317.345C155.939 316.766 168.862 332.857 184.174 338.791C212.66 349.828 267.495 351.764 294.02 335.573C332.387 312.165 285.673 271.812 277.879 245.086C272.272 225.877 276.773 197.417 301.135 196.662C325.498 195.908 337.265 222.508 354.261 234.074C380.358 251.824 434.087 259.668 457.746 235.431C430.416 164.279 544.561 175.467 570.936 134.762C578.881 122.493 583.18 99.5382 584.035 84.9809C585.619 57.9279 573.148 33.1378 599.17 14.6331C612.37 5.25513 649.404 -4.2486 664.314 1.96151C674.27 6.10996 675.678 23.4078 682.34 31.7047C696.219 49.0025 740.771 60.0147 762.468 72.2589C781.174 82.8186 805.813 101.977 818.762 119.048C823.036 124.68 833.193 146.504 835.28 147.761C848.228 155.63 870.203 136.874 889.964 143.386C911.41 150.476 920.537 198.472 944.146 209.862C960.035 217.53 989.125 216.499 1008.69 223.263C1046.1 236.211 1068 265.552 1111.32 273.999C1133.84 278.399 1175.58 273.019 1177.06 306.282C1178.27 332.983 1143.65 376.68 1137.66 409.817C1133.44 433.199 1139.47 453.112 1137.04 474.558C1132.06 518.18 1098.54 492.987 1078.18 513.755C1051.63 555.818 1020.05 597.327 997.422 641.678C992.092 652.137 980.778 667.524 992.418 676.802C1012.56 669.712 1016.96 629.534 1041.62 637.756C1052.78 641.477 1081.32 698.273 1079.23 710.744C1077.85 719.041 1064.8 723.968 1066.99 735.408C1069.18 746.848 1096.73 753.938 1093.84 778.099C1091.23 799.998 1057.18 803.644 1056.86 818.93C1056.61 830.873 1074.63 848.497 1076.24 862.401C1078.48 881.66 1061.03 901.497 1082.58 922.491L1082.55 922.541ZM828.391 153.393C825.952 151.029 819.893 135.391 815.77 129.558C800.785 108.338 779.364 90.6881 756.535 78.1673C731.368 64.3643 688.752 57.3748 673.264 33.2132C664.389 19.385 671.655 7.51792 648.021 7.99562C633.892 8.29733 597.209 18.4296 592.558 33.188C587.907 47.9465 592.91 79.2736 591.125 97.1245C582.752 180.848 511.852 158.672 470.669 195.405C447.337 216.223 478.362 235.532 456.589 249.209C429.612 266.13 380.911 259.719 354.261 244.08C337.114 233.998 308.427 189.396 289.645 210.516C265.308 237.895 316.095 278.827 317.427 308.746C319.866 363.606 219.474 359.231 185.255 347.691C169.566 342.386 153.174 325.39 137.963 325.843C122.752 326.295 112.066 340.048 99.1936 344.423C76.8171 352.066 22.4598 339.595 10.9447 361.746C-8.49017 399.031 51.3481 382.262 52.9572 402.199C54.2897 418.994 8.02821 419.648 29.8264 437.75C49.2613 453.891 114.053 463.295 141.332 472.044C181.182 484.841 224.452 506.263 244.49 544.881C260.38 575.504 245.068 598.333 274.585 625.411C297.842 646.782 317.478 650.629 331.13 684.52C357.705 750.493 337.642 872.835 327.082 944.364C323.713 967.168 319.062 993.316 308.653 1013.93C300.607 1029.85 278.407 1043.05 296.358 1056.2C313.204 1068.54 384.104 1095.87 407.939 1105.53C467.275 1129.54 469.889 1099.87 517.986 1097.38C547.931 1095.82 563.946 1121.89 585.543 1136.63C618.454 1159.08 710.349 1185.53 718.973 1127.6C723.674 1096.02 717.087 1083.27 739.79 1055.39C784.971 999.903 860.372 1018.63 918.199 1042.8C948.319 1055.37 965.818 1076.81 1001.82 1068.52C1030.28 1061.95 1046.95 1040.61 1067.9 1023.96C1080.92 1013.63 1159.44 961.26 1133.44 940.694C1121.9 931.567 1094.32 949.72 1072.8 923.396C1054.44 900.919 1069.83 881.811 1066.39 859.384C1064 843.896 1046.12 834.091 1049.06 814.178C1052.01 794.266 1086.88 798.263 1084.36 771.185C1082.68 752.882 1052.28 753.41 1060.2 724.622C1062.06 717.859 1071.16 710.392 1071.09 706.344C1070.96 696.991 1044.61 644.192 1035.11 644.167C1024.98 644.167 1003.53 695.859 984.65 682.132C973.235 673.835 980.199 656.839 984.725 646.631C998.679 615.229 1044.74 541.713 1066.61 514.786C1086.98 489.669 1090.32 500.731 1115.04 495.326C1136.86 490.549 1125.47 441.572 1126.8 424.123C1130.35 377.836 1158.46 356.265 1165.9 322.423C1175.08 280.712 1147.97 288.833 1121.3 283.981C1067.37 274.175 1052.26 248.53 1009.36 232.49C987.516 224.319 960.337 225.425 941.631 217.254C916.741 206.392 901.655 155.052 885.64 149.998C873.069 146.051 841.188 165.687 828.316 153.292L828.391 153.393Z" fill="black"/>
<path d="M852.854 354.504C833.696 380.728 808.177 404.94 787.912 430.861C786.705 432.495 786.529 434.331 786.303 436.267C785.499 443.105 787.988 470.51 786.756 473.15C783.864 479.31 769.106 482.201 763.298 484.942C749.068 491.68 748.137 515.59 738.558 526.954C741.198 527.583 741.902 525.471 743.486 524.164C744.592 523.233 752.889 514.886 753.241 514.283C756.107 509.179 753.493 502.541 759.602 496.683C766.089 490.448 786.756 486.048 792.086 479.964C793.041 478.857 796.787 467.719 797.29 465.507C799.327 456.783 799 435.412 803.45 429.503C806.367 425.657 811.018 425.104 814.538 422.313C819.34 418.516 822.282 412.683 826.38 408.862C832.992 402.677 841.565 398.428 846.217 390.533C851.195 389.754 860.322 403.934 865.199 406.7C873.496 411.401 902.359 412.658 904.421 423.696C906.181 433.149 900.775 437.373 911.586 444.664C914.377 446.55 921.87 448.461 922.548 450.573C922.196 457.361 924.887 462.515 923.177 469.102C920.638 479.033 907.212 490.021 906.483 497.412C905.527 506.79 913.925 512.322 912.617 518.934L893.207 560.72C894.54 562.003 898.688 557.703 899.594 556.572C904.773 550.161 918.475 522.73 916.866 515.364C915.886 510.788 909.852 503.472 910.329 497.161C910.807 490.85 914.075 492.107 916.439 489.115C919.808 484.866 925.565 478.204 927.451 473.402C930.82 464.904 929.286 455.073 933.51 446.826C937.91 445.896 942.411 445.092 946.584 443.357C957.069 438.982 974.215 425.908 984.825 427.492C994.706 428.975 1021.21 438.429 1023.64 449.341C1024.27 452.106 1022.56 454.394 1022.76 457.084C1023.87 470.686 1043.38 472.622 1053.04 480.19C1054.17 481.07 1055.63 480.14 1054.82 483.383C1046.52 485.671 1037.93 486.727 1029.96 490.171C1003.83 501.41 958.577 523.233 938.841 542.392C924.233 556.547 919.506 571.557 895.244 570.651C888.958 570.425 875.13 568.615 868.669 567.685C853.533 565.447 839.454 547.873 821.175 555.516C811.043 559.74 784.065 575.806 775.819 583.248C766.039 592.098 763.776 600.621 748.992 605.624C743.788 607.384 733.178 607.837 729.985 610.502C723.498 615.932 729.306 622.344 730.06 627.598C731.644 638.485 717.64 659.202 709.368 666.192C707.533 667.75 682.894 681.025 681.36 681.428C680.555 681.629 665.721 681.755 664.892 681.629C657.475 680.523 645.331 671.371 638.819 669.636C631.955 667.826 622.477 670.013 617.851 662.471C615.286 658.322 617.599 656.713 610.736 654.048C612.898 645.474 611.942 640.848 607.618 633.356C603.293 625.864 597.888 625.537 599.497 614.927C599.849 612.589 601.609 610.728 601.885 608.893C603.897 595.291 602.288 582.644 607.115 569.143C612.219 554.862 630.573 543.825 640.63 531.153C641.736 529.77 641.811 528.714 641.585 527.005C643.244 527.105 644.602 525.798 644.099 528.79C643.269 533.743 639.146 545.685 640.856 549.457C643.697 555.767 664.137 559.011 671.403 572.411C680.983 590.061 674.949 599.037 678.795 614.198C680.304 620.156 687.545 627.473 690.864 633.054C692.674 636.096 692.095 640.899 696.395 642.256C699.261 632.099 685.76 623.299 684.05 617.366C682.013 610.275 684.1 597.956 683.698 591.017C683.17 581.613 672.635 562.229 664.766 556.496C660.944 553.706 646.689 549.029 645.909 545.71C651.315 534.17 649.781 521.901 651.491 509.531C651.944 506.212 655.086 503.648 654.005 499.927C650.334 493.113 644.501 487.657 640.127 481.321C638.744 479.31 639.02 476.72 637.939 475.086C634.696 470.183 626.198 467.544 629.642 458.191C630.447 456.028 640.076 439.057 641.786 436.568C646.588 429.554 653.703 427.09 658.43 421.885C666.828 412.608 671.077 395.637 679.223 385.429C683.597 374.593 666.727 364.084 665.897 356.038C665.495 352.141 668.16 345.428 668.336 340.802C668.864 326.521 666.828 312.039 671.403 298.186L728.627 278.801L745.095 247.474C759.803 245.337 780.747 250.718 794.122 244.508C798.044 242.672 801.916 238.222 805.637 236.362C812.577 232.892 822.709 231.283 829.874 227.587C828.441 235.607 821.929 243.276 824.544 251.899C826.078 256.978 838.574 264.672 840.937 269.222C842.898 272.943 842.622 277.343 844.231 281.391C847.549 289.713 854.363 295.446 855.042 304.396C855.821 314.805 851.22 326.245 852.301 337.986C852.678 342.109 856.676 351.186 856.5 351.89C856.148 353.323 853.458 353.624 852.804 354.504H852.854Z" fill="#F79335"/>
<path d="M666.827 22.3271C673.038 44.226 694.559 54.8359 714.648 61.7249C710.147 70.6503 712.033 76.9359 715.327 85.5848C717.338 90.8143 722.869 93.7811 719.525 101.022C716.357 107.886 690.034 116.862 684.402 124.681C673.188 117.364 681.309 100.343 672.484 91.2166C674.999 100.293 670.247 112.411 672.761 121.136C675.25 129.76 691.894 135.718 694.66 145.549C689.757 156.486 684.1 165.461 682.491 177.756C687.896 182.885 697.124 200.334 698.808 207.549C701.373 218.587 696.721 218.964 694.283 226.154C692.472 231.51 691.316 239.606 688.55 244.307C683.471 252.906 669.191 261.177 664.766 272.542C660.944 282.372 664.213 285.942 664.087 294.239C663.961 303.517 659.058 317.32 659.159 327.377C657.449 329.589 657.55 328.131 656.092 327.578C651.943 326.069 649.429 324.511 644.652 323.53C637.285 322.047 624.387 322.625 619.485 317.068C616.116 313.247 614.783 302.612 606.411 303.441L616.267 318.15C626.575 329.891 626.223 325.215 639.096 327.653C663.961 332.38 646.538 340.803 648.826 352.971C650.56 362.148 662.704 364.989 664.011 371.652C666.903 386.561 652.069 395.612 644.602 405.518C637.084 415.525 630.698 428.197 623.231 437.625C615.311 447.606 605.732 450.699 611.012 466.79C614.356 476.947 622.074 489.418 626.122 499.475C627.681 503.347 631.126 511.04 630.07 514.661C629.391 516.974 606.159 542.644 603.595 539.551C603.695 537.163 603.897 534.825 602.866 532.562C602.187 531.053 583.33 509.783 581.118 507.922C575.788 503.497 568.496 499.198 561.432 500.229L582.501 513.579C588.208 522.681 597.737 530.098 600.201 540.984C601.433 546.49 594.996 549.809 593.06 555.014C592.03 557.804 590.999 569.998 588.635 570.577C581.998 572.462 577.321 566.956 572.72 565.548C548.257 558.156 543.757 560.696 523.216 542.292C519.117 538.621 507.451 523.938 504.233 522.983C500.613 521.901 493.447 522.631 489.45 523.083C479.795 524.189 452.742 535.78 447.588 534.724C442.434 533.668 432.327 519.815 425.589 515.893C419.982 512.624 412.791 511.744 407.486 507.319C410.277 498.846 406.506 487.708 407.134 480.166C408.039 469.204 430.265 455.878 435.042 444.816C438.889 435.915 434.137 430.786 443.842 420.579C457.393 406.348 462.749 422.313 475.772 418.064C486.257 414.645 493.472 392.545 506.923 395.085C515.949 396.794 512.807 409.793 513.988 416.229C516.151 427.87 518.841 440.391 531.915 443.986C532.543 443.433 523.492 433.954 522.939 432.798C518.79 423.822 520.374 407.857 517.508 398.68C516.427 395.235 512.203 391.565 512.555 388.749C513.536 380.552 523.291 383.243 528.118 381.885C528.948 381.633 541.695 373.94 543.078 372.934C546.321 370.546 552.908 362.777 553.135 359.006L546.12 315.334L553.009 304.875C536.264 308.696 543.178 320.563 544.561 332.279C544.989 335.85 544.335 339.621 544.737 343.367C545.667 352.293 551.174 359.408 541.871 367.504C540.136 369.012 526.761 376.932 524.95 377.309C521.732 377.988 519.821 375.65 515.949 378.088C513.36 379.723 509.463 389.83 506.647 387.793C502.297 378.566 499.557 366.397 491.687 359.936C485.779 355.058 477.13 351.941 470.995 346.837C468.104 344.448 467.4 340.451 463.176 339.872C467.425 323.379 477.205 301.355 471.574 284.434C470.367 280.788 460.586 267.388 461.668 265.527C462.522 265.603 463.704 266.457 464.458 266.08C467.702 264.446 480.952 240.888 485.578 235.357C499.481 218.662 518.765 205.261 536.139 192.464C536.667 209.913 556.127 216.173 566.837 227.135C568.647 241.541 563.669 255.546 565.957 270.178L579.76 287.35C579.76 293.485 557.736 300.173 561.457 303.517C572.871 303.115 578.93 292.53 589.566 290.87C590.823 289.563 573.902 273.749 572.695 271.913C566.209 262.133 577.925 239.178 574.857 227.588C570.432 210.868 540.689 208.806 545.919 187.612C546.522 186.556 547.88 188.064 549.489 186.933C565.404 175.694 580.338 161.263 585.367 141.878L611.49 150.175C614.532 154.525 619.208 172.778 624.262 174.01C628.938 172.727 634.444 173.356 638.869 172.225C645.985 170.389 648.097 166.014 657.801 167.121C665.118 167.95 668.336 182.96 680.932 178.435C681.661 174.236 679.826 176.222 677.639 175.493C664.238 171.018 671.856 172.979 665.52 165.059C657.273 154.726 636.984 166.517 626.047 166.618C622.401 159.729 621.672 148.817 614.984 143.94C610.66 140.772 589.616 136.95 589.566 131.419C589.566 129.458 591.652 127.446 592.03 125.385C596.228 102.48 595.424 94.7365 607.618 73.4914C621.823 48.7264 640.453 33.1886 666.878 22.4277L666.827 22.3271ZM554.115 449.97L548.785 449.668C548.307 451.906 550.57 450.221 551.5 452.132C558.037 465.432 551.626 472.447 550.796 484.817C550.62 487.23 549.539 488.563 552.33 490.423C554.543 482.881 561.784 454.194 554.14 449.995L554.115 449.97Z" fill="#F79335"/>
<path d="M593.764 1087.83C590.068 1087.52 591.426 1087.62 590.999 1089.94C589.993 1095.29 590.446 1103.54 589.239 1107.89C587.605 1113.87 577.095 1116.59 578.277 1124.36C563.569 1113.45 552.934 1100.3 535.108 1093.76C531.638 1092.48 524.749 1092.3 523.417 1091.4C519.595 1088.86 524.045 1083.83 524.548 1081.14C525.579 1075.68 525.554 1065.25 529.828 1061.12C532.543 1058.51 544.36 1056.2 549.087 1053.68C558.465 1048.7 562.211 1037.82 569.15 1030.2C573.299 1039.68 575.662 1045.41 583.255 1052.68C584.21 1053.58 586.373 1053.93 586.574 1054.21C587.202 1055.12 581.143 1071.51 590.923 1073.75C591.828 1069.8 589.918 1065.52 589.968 1061.95C589.993 1060.14 591.627 1058.21 591.678 1056.2C591.929 1046.82 572.544 1035.73 575.687 1025.55C576.215 1023.84 578.428 1022.91 578.855 1021.78C579.358 1020.42 578.201 1018.53 578.956 1016.25C579.459 1014.71 581.646 1013.3 582.224 1010.89C584.864 999.752 562.89 978.356 562.814 964.88L581.872 938.934L578.252 900.139L578.528 877.939C585.367 868.938 597.083 861.169 602.187 850.986C606.788 841.809 605.556 825.97 610.232 815.46C611.615 812.368 628.888 795.397 627.43 794.014C624.79 793.411 624.086 795.498 622.527 796.805C612.898 804.851 603.872 816.34 600.905 828.585C599.597 833.965 600.628 839.32 600 843.393C598.265 854.406 578.604 865.166 573.399 875.575C571.162 902.327 576.768 931.542 556.227 952.586L526.182 953.39C521.531 950.775 518.564 947.582 515.949 943.007C514.692 940.794 516.905 937.551 512.279 936.595C504.51 935.011 494.403 937.903 486.935 940.14C480.499 923.924 482.209 909.19 465.137 899.385C455.231 893.703 449.876 897.122 441.956 894.432C439.618 893.627 428.078 885.934 428.103 883.52C428.178 878.768 440.976 861.973 440.196 858.177C439.92 856.794 437.707 855.462 437.707 855.11C437.707 854.154 441.152 853.098 441.906 852.193C448.996 843.997 456.916 837.46 466.721 830.747C478.915 822.4 496.515 818.427 499.406 801.582C501.266 790.67 501.241 777.672 502.524 766.735C502.926 763.19 504.108 759.519 504.359 755.899C511.675 745.465 523.995 746.169 535.158 741.744C549.791 735.961 575.712 719.87 585.266 707.5C590.823 700.284 593.764 690.353 601.558 684.294C605.631 686.934 614.406 686.054 617.599 687.839C619.862 689.096 625.418 699.58 629.843 700.888C633.866 702.095 639.221 700.536 643.546 701.24C645.884 701.617 647.694 703.326 649.58 703.628C656.217 704.734 663.106 704.81 669.618 706.796C664.665 717.255 661.849 729.148 659.033 740.461C656.217 751.775 649.303 777.144 649.882 787.653C650.912 806.032 666.827 819.458 673.465 835.75C678.82 848.9 669.492 853.953 663.383 862.879C653.703 876.983 635.4 898.631 632.257 914.722C630.371 924.351 639.473 941.171 638.819 950.65C638.543 954.622 633.816 962.19 633.162 966.162C630.673 981.021 643.797 988.212 649.681 1000.1C656.997 1014.94 648.725 1016.97 647.242 1029.47C646.588 1035.08 648.775 1038.85 648.625 1043.35C648.499 1046.89 643.068 1065.05 644.35 1066.58C650.912 1065.47 650.787 1053.51 651.39 1048.3C661.447 1060.95 678.343 1054.66 689.204 1064.59C697.576 1072.26 694.258 1079.7 693.202 1089.41C692.95 1091.8 691.064 1093.99 690.964 1096.73C690.31 1112.97 701.775 1122.4 714.422 1130.04L714.673 1131.8C701.976 1166.5 651.114 1157.22 623.558 1148.47C609.403 1143.99 593.739 1137.38 582.802 1127.52C581.394 1120.13 593.739 1112.46 593.739 1107.99V1087.6L593.764 1087.83Z" fill="#F79335"/>
<path d="M1033.73 553.681L1002.53 604.719C996.617 618.221 987.465 630.943 981.909 644.544C977.484 655.406 971.148 671.019 982.386 680.221C987.767 684.646 995.888 682.132 997.044 683.138C998.905 684.747 996.29 690.932 1007.08 694.904C1019.32 699.405 1062.67 694.125 1068.25 702.623C1069.65 704.76 1068.45 704.76 1067.52 706.193C1061.16 716.074 1054.17 720.298 1056.33 734.201C1056.86 737.646 1061.48 742.85 1059.82 744.887L1026.21 760.098C1018.01 750.971 1015.75 737.746 1008.21 727.513C1007.05 725.955 1000.89 719.644 999.383 719.443C993.751 718.714 979.495 723.717 973.335 725.879C967.176 728.041 953.699 735.634 949.752 736.188C944.095 736.992 939.368 726.03 936.075 722.334C933.586 719.569 924.937 713.308 924.384 711.548C922.448 705.338 926.32 701.718 926.973 696.388C927.401 692.943 927.325 685.853 926.847 682.383C925.691 674.262 918.903 673.433 916.061 666.468C914.553 662.772 915.081 659.881 914.251 657.266C913.849 655.984 909.474 656.412 911.561 653.545C911.687 653.369 913.799 653.948 914.251 652.489C915.156 649.699 918.676 635.342 918.626 633.08C918.525 627.322 913.019 621.187 910.053 626.744C920.964 628.604 910.053 645.45 908.946 653.143C907.991 659.831 911.737 667.273 915.081 673.056C916.665 675.771 919.808 677.28 921.568 680.623C928.18 693.144 917.469 701.165 918.324 713.786C912.516 713.937 904.622 717.859 899.367 718.035C889.411 718.362 877.971 713.509 868.166 721.253L867.814 746.571C859.944 755.622 844.356 765.352 837.543 774.278C836.16 776.088 835.33 777.622 835.506 779.985C818.435 778.401 803.752 770.104 788.415 763.14L784.744 720.423C783.185 711.548 783.135 703.226 776.548 696.287C767.17 686.431 757.163 682.836 746.352 670.24C745.019 668.681 741.6 667.801 741.299 666.544C739.036 656.889 748.791 654.124 754.02 648.542C745.447 649.623 747.559 623.375 750.4 621.037C752.411 619.377 762.418 617.642 767.119 615.254C773.279 612.136 781.35 605.725 787.032 601.426C799.452 592.023 819.817 568.791 837.04 573.996C854.463 579.275 870.479 595.19 892.428 591.545C898.361 590.564 922.523 578.798 927.652 574.75C932.781 570.702 941.908 558.055 947.615 556.773C976.554 558.03 1005.09 553.656 1033.75 553.681H1033.73Z" fill="#F79335"/>
<path d="M583.582 594.763C588.334 598.786 579.534 613.192 578.076 618.799C572.796 638.988 577.171 647.813 587.554 664.809C587.227 666.544 568.522 688.543 565.706 692.49C563.544 695.508 562.739 700.008 560.024 703.377C554.392 710.392 526.157 720.348 516.201 725.603C512.254 727.69 491.461 739.406 489.651 741.241C483.843 747.074 486.885 754.742 485.502 760.777C485.276 761.807 482.988 761.631 482.737 762.687C482.209 764.975 482.988 767.867 482.41 770.557C480.977 777.27 473.007 777.446 468.205 780.237C462.774 783.404 453.396 792.229 449.021 793.386C440.749 795.548 427.097 793.864 418.071 795.473C417.744 797.509 420.56 797.409 421.993 797.836C430.667 800.325 446.23 799.671 454.578 796.126C459.757 793.939 461.768 790.595 465.464 788.735C470.367 786.271 479.971 784.435 484.069 780.639C487.363 777.571 486.307 772.216 489.726 770.155C490.782 778.125 490.48 785.29 490.254 793.109C490.129 797.308 492.768 799.521 489.802 804.675C488.394 807.113 471.976 818.503 468.255 821.067C452.063 832.331 434.313 839.245 426.192 859.133C421.968 869.466 423.552 885.331 410.403 885.482C402.408 884.375 397.882 860.943 382.973 857.926C372.664 855.839 360.269 862.602 350.59 865.745C348.83 850.132 349.986 834.292 349.157 818.679C347.271 784.108 347.723 746.32 341.79 712.177C339.904 701.366 336.007 690.907 333.694 680.196C343.072 677.657 350.916 679.794 359.691 680.196C364.242 680.422 369.497 675.293 371.332 684.018C373.394 693.823 368.315 698.726 377.391 706.067C386.467 713.409 385.411 708.808 393.231 709.788C405.324 711.297 415.004 719.066 425.865 723.692C425.312 733.799 425.161 752.304 428.631 761.657C432.1 771.009 445.426 775.887 451.058 784.184C454.05 781.72 453.069 782.223 450.982 780.035C447.286 776.189 433.408 764.322 432.402 760.726L428.606 720.951C423.15 718.311 417.92 714.138 412.389 711.85C402.558 707.777 391.521 708.104 382.872 704.835C372.438 700.888 378.07 688.216 373.218 679.643C373.645 677.883 377.944 676.5 379.503 674.69C388.102 664.734 390.641 648.014 398.335 638.711C408.794 626.09 427.323 640.949 439.065 643.011C452.667 645.399 474.943 631.169 488.721 627.875C495.635 624.104 492.844 618.422 494.629 612.689C495.811 608.918 503.001 588.176 504.686 587.598C512.078 586.667 522.009 587.924 529.149 586.743C533.951 585.938 540.513 582.242 543.882 582.418C547.251 582.594 552.431 586.743 556.101 587.799C561.256 589.307 581.042 592.626 583.582 594.763ZM375.883 801.054C373.494 795.624 367.007 800.124 362.683 799.822L353.406 805.278L375.883 801.054Z" fill="#F79335"/>
<path d="M753.191 711.926C756.283 715.144 759.753 718.086 762.166 721.907C765.108 743.052 763.348 767.44 775.894 785.492C793.066 795.8 816.046 801.533 831.333 814.405C841.741 823.18 844.532 833.614 862.232 830.597C858.486 840.528 860.095 853.853 857.682 863.282C856.424 868.209 849.259 877.412 846.77 883.295C843.325 891.466 841.264 894.936 844.834 903.509C847.7 910.423 870.881 944.792 870.378 947.709C869.096 950.072 867.462 952.234 865.752 954.296C858.184 963.548 835.707 981.098 835.481 992.889C835.355 999.728 839.152 1008.25 841.138 1014.71C817.404 1012.63 794.55 1013.58 772.424 1023.06C769.583 1015.19 757.917 1007.82 759.853 998.873C760.432 996.183 763.273 994.398 763.801 991.456C765.862 979.941 744.441 957.816 741.424 945.421C735.566 938.457 710.826 942.58 703.434 947.231L684.452 913.49C678.368 904.992 666.903 906.677 661.346 898.556C660.894 895.866 691.919 868.913 693.554 855.035C694.207 849.453 688.349 827.982 686.137 821.847C682.114 810.584 670.976 795.423 671.051 783.48C671.127 773.977 680.957 760.878 683.924 751.374C688.324 737.294 690.084 721.505 691.417 706.872L725.208 687.236C728.049 687.312 749.646 708.255 753.166 711.951L753.191 711.926ZM751.682 921.033C752.462 920.002 754.9 919.273 756.183 917.84C761.789 911.504 757.213 909.619 758.295 903.082C758.848 899.788 765.385 875.903 766.617 873.389C771.846 862.779 783.437 859.988 792.714 854.482C793.066 850.635 789.144 851.44 786.429 852.42C781.4 854.205 767.346 863.96 764.681 868.637C763.675 870.397 753.14 900.039 753.04 901.799C752.839 905.722 757.037 910.398 756.61 912.611C747.81 919.625 743.41 929.003 737.175 938.13C738.759 940.367 741.022 937.149 742.103 936.043C746.503 931.442 748.238 925.659 751.707 921.033H751.682Z" fill="#F79335"/>
<path d="M263.422 377.963C266.389 387.467 254.748 393.274 253.642 399.862C252.561 406.248 256.684 412.383 256.433 418.743C257.966 418.542 259.902 413.212 260.229 412.005C262.693 402.979 258.57 404.488 267.168 397.096C267.872 396.493 267.646 392.973 270.386 394.984C270.613 395.16 270.286 396.92 270.789 397.247C276.194 400.867 296.434 393.3 304.856 394.909C309.784 395.839 322.657 406.851 328.465 409.24C340.759 414.293 341.086 405.67 347.749 399.736C358.107 390.509 367.184 385.832 381.892 389.579C382.998 389.855 401.377 398.755 402.232 399.485C404.922 401.773 410.981 414.721 414.124 419.196C417.795 424.426 428.606 433.125 427.952 439.083C427.223 445.972 403.464 462.742 399.089 473.578C394.714 484.415 399.617 493.164 398.385 504.478C385.915 502.165 378.472 491.429 364.594 492.485C358.51 492.938 354.034 497.413 348.855 497.137C342.896 496.785 336.007 490.776 329.898 489.368C326.051 488.463 322.481 489.644 318.332 488.287C304.63 483.761 312.826 470.511 308.502 462.968C305.988 458.569 290.048 446.626 288.74 456.708C290.953 456.608 292.914 457.286 294.85 458.342C305.284 464.125 311.092 472.12 304.228 483.384C310.388 483.032 313.782 494.296 315.416 495.402C317.277 496.684 327.082 495.528 331.406 496.206C333.719 496.558 339.804 497.765 340.759 500.254C318.559 506.716 314.712 532.16 287.282 527.76C280.242 526.628 266.087 518.834 262.793 518.658C260.179 518.533 254.346 521.6 251.706 522.958C248.84 524.416 239.185 531.933 238.179 531.179C230.41 515.692 213.967 503.121 198.882 494.522C197.524 492.561 209.894 477.249 210.146 471.416C210.448 464.703 201.723 456.758 202.93 447.657C213.615 446.249 221.158 438.203 230.184 433.929C236.595 430.887 244.591 431.289 249.393 425.054C247.18 421.962 246.828 423.269 244.239 424.074C240.342 425.255 232.799 427.493 229.48 429.001C224.603 431.189 218.141 437.751 214.244 439.083C209.819 440.592 204.891 439.561 200.265 442.629C199.737 437.676 193.099 433.426 191.616 429.429C188.574 421.258 189.58 414.318 187.568 406.097C181.434 405.871 183.068 416.229 183.696 420.529C185.431 432.37 191.314 437.399 194.306 446.475C197.097 454.973 196.041 463.32 201.623 471.492L191.666 487.507C189.73 488.915 153.45 471.869 147.039 469.807C138.843 467.167 84.2592 456.356 83.5552 453.138C89.715 447.707 92.9835 428.675 97.6851 425.13C100.702 422.842 106.309 423.47 109.904 421.886C112.368 420.805 113.499 417.889 116.642 417.336C121.394 416.481 125.14 419.397 129.942 418.14C134.745 416.883 139.471 411.025 144.148 408.36C149.679 405.217 157.523 401.069 163.683 400.465C164.261 397.222 163.055 397.096 160.214 397.699C155.336 398.781 143.771 404.538 138.516 406.952C130.546 410.623 127.302 415.777 115.888 413.112C118.126 406.072 116.064 396.82 119.056 390.308C120.992 386.084 129.339 382.363 129.993 378.692L125.693 359.735C131.979 359.961 138.365 359.383 144.651 359.735C162.326 360.741 187.97 362.4 205.017 365.417C215.954 367.353 228.701 373.488 240.92 375.901C248.236 377.334 255.905 379.145 263.422 377.988V377.963Z" fill="#F79335"/>
<path d="M985.026 875.073C988.848 879.926 992.267 877.688 989.502 888.248C987.566 895.589 983.191 899.838 983.392 910.021C983.644 922.718 1000.31 921.134 1004.34 926.74C1006.27 929.431 1005.54 933.604 1006.98 936.772C1009.94 943.384 1015.55 948.815 1016.78 956.232L1021.11 957.062C1022.84 949.595 1015.62 944.717 1013.01 939.161C1011.17 935.238 1010.6 928.148 1008.53 925.358C1005.74 921.611 992.393 917.589 987.541 916.13C983.493 901.699 995.988 892.748 994.279 879.121C993.499 872.886 979.47 866.173 978.942 857.247C979.621 856.644 992.946 858.027 994.731 858.681C995.611 859.007 1003.43 862.754 1005.67 863.81C1012.76 867.128 1016.66 874.52 1025.86 869.693C1032.82 866.047 1030.84 860.692 1033.12 855.89C1035.24 851.415 1052.36 846.436 1057.51 843.294C1071.11 859.385 1058.82 880.856 1060.63 898.556C1061.28 904.842 1070.59 931.945 1073.9 937.275C1080.67 948.111 1093.67 953.366 1106.16 954.221C1111.14 954.573 1116.12 952.486 1119.81 953.064C1122.7 953.517 1130.83 957.187 1130.78 960.557C1130.62 969.029 1084.51 1005.74 1075.19 1011.85C1072.07 1007.5 1070.31 1003.55 1066.11 999.854C1063.97 997.993 1059.42 994.448 1057.13 992.663C1045.8 983.888 1048.54 987.459 1036.14 984.844C1033.17 984.215 1030.76 981.475 1027.29 980.997C1015.6 979.313 1009.01 990.702 1003.51 990.677C996.164 990.677 981.632 976.069 975.724 976.949C965.466 978.508 948.017 1000.73 935.27 994.297C933.535 993.417 933.284 990.677 932.052 989.822C919.883 981.399 896.325 978.81 886.595 969.205C885.992 968.602 881.365 961.713 881.215 961.235C880.661 959.375 883.301 956.71 883.377 953.542C883.754 935.062 864.646 917.463 864.193 898.43C863.741 879.398 885.137 845.154 881.617 830.069C880.963 827.253 878.801 825.845 877.695 823.482C882.145 823.934 883.1 828.158 887.752 829.566C890.215 830.32 902.736 832.131 904.974 831.904C911.561 831.251 921.995 820.389 928.205 818.478C947.615 812.52 954.403 835.826 962.826 847.241C969.363 856.091 977.911 866.072 984.976 874.998L985.026 875.073Z" fill="#F79335"/>
<path d="M417.543 527.508C423.225 530.902 430.265 538.093 436.098 541.965C437.883 543.146 439.794 543.85 441.956 543.85C442.384 546.188 438.411 545.434 437.129 545.158C433.131 544.278 431.296 540.707 427.927 541.713L442.786 550.815L482.184 543.976C486.885 544.051 492.668 543.046 497.143 544.177C505.314 546.239 509.79 561.123 517.156 566.327C521.405 569.344 530.431 573.392 535.535 576.032C536.994 576.786 538.226 575.278 537.547 578.949C528.546 580.482 508.181 580.407 501.694 585.963C499.28 588.025 489.249 608.541 488.444 612.086C487.765 615.053 488.922 618.598 488.193 621.665L485.98 623.676C473.133 624.959 456.312 636.65 444.043 636.373C428.757 636.046 417.317 619.05 398.561 627.624C386.87 632.979 379.855 664.407 370.628 668.555C360.345 673.181 354.663 667.977 345.737 667.449C341.513 667.198 329.068 670.089 328.037 669.611C326.83 669.033 314.335 652.665 310.589 649.221C302.04 641.276 291.204 635.971 283.812 626.794C280.619 622.847 259.349 593.204 258.218 590.539C252.284 576.309 255.955 553.982 245.395 540.054L246.451 537.439C249.77 535.905 252.334 532.335 255.1 530.575C264.553 524.491 270.789 531.153 281.424 533.567C287.659 534.975 301.688 537.64 307.396 536.484C315.089 534.9 319.539 526.326 325.372 522.152C334.272 515.766 348.226 512.699 357.127 504.779C375.103 515.012 400.396 517.25 417.543 527.508Z" fill="#F79335"/>
<path d="M1000.97 273.522C996.391 279.958 978.766 286.747 971.978 291.599C957.269 302.109 968.558 308.243 968.986 318.325C969.061 319.934 967.502 330.469 966.974 331.575C966.17 333.285 941.958 350.834 937.432 355.435C933.862 359.055 918.098 379.521 921.291 383.569C923.403 386.234 924.308 381.608 924.786 380.803C940.122 354.505 949.576 356.944 969.564 339.771C971.877 337.785 975.02 331.424 977.584 332.128C983.291 336.754 994.807 341.456 997.773 348.546C999.86 353.499 998.653 358.301 1002.9 363.103C1008.18 369.062 1035.89 378.666 1036.19 382.865C1028.82 398.126 1018.52 415.424 1019.67 432.772C1007.1 429.428 986.661 416.681 974.14 421.685C966.673 424.676 939.217 444.388 932.479 440.516C929.538 434.18 922.146 430.384 918.727 424.802C915.307 419.221 915.81 411.577 912.441 407.907C910.228 405.493 895.897 400.917 891.824 399.71C887.123 398.327 882.698 399.61 877.871 396.794C872.163 393.5 867.663 382.262 860.975 378.44L876.01 357.22C875.356 336.201 887.877 310.531 879.756 290.895C878.449 287.727 874.929 285.062 873.269 281.919C870.202 276.162 859.441 253.207 854.539 251.447L851.748 255.646C836.763 238.373 859.265 225.249 868.492 213.357C873.119 207.398 875.985 200.233 879.857 193.821C917.494 220.824 957.999 244.106 1001.44 260.549C1004.06 262.711 1002.75 271.033 1001.02 273.497L1000.97 273.522Z" fill="#F79335"/>
<path d="M1141.74 968.602C1164.57 998.521 1124.69 1043.63 1101.08 1060.3C1069.53 1082.52 1006.35 1096.35 968.458 1090.54C954.202 1088.35 923.152 1071.84 907.161 1066.08C861 1049.51 812.3 1036.06 770.866 1073.04C761.563 1081.34 747.76 1105.95 742.505 1117.77C730.487 1144.8 734.56 1174.87 704.113 1193.25C667.104 1215.57 633.187 1181.86 603.142 1164.89C569.502 1145.9 529.727 1130.19 490.455 1132.81C448.569 1135.6 402.483 1139.72 361.828 1125.06C335.479 1115.56 319.615 1097.23 312.6 1070.25C312.6 1068.64 315.642 1069.77 316.874 1070.18C360.269 1085.11 412.238 1129.18 460.561 1119.76C480.449 1115.88 504.258 1100.27 525.252 1103.59C546.246 1106.91 558.591 1124.61 574.204 1136.17C609.428 1162.25 711.027 1194.03 726.892 1133.06C735.264 1100.85 724.403 1083.55 749.746 1054.71C788.717 1010.39 856.801 1024.54 905.1 1044.2C947.791 1061.58 973.184 1092.53 1022.06 1066.98C1048.13 1053.36 1097.59 1012.53 1119.49 991.506C1126.38 984.894 1134.45 977.578 1137.89 968.426L1141.74 968.552V968.602Z" fill="#F79335"/>
<path d="M454.603 299.242L458.097 295.044C461.969 296.804 460.109 308.268 458.801 311.889L457.393 309.098C455.03 307.112 453.295 324.711 453.22 326.672C452.717 339.445 454.603 352.569 466.721 359.508C472.051 362.575 482.636 363.606 487.011 367.327C492.894 372.305 494.579 385.907 502.398 389.93L501.392 393.45C497.395 394.28 492.09 396.467 488.972 399.032C482.108 404.689 480.021 413.79 469.311 413.262C461.969 412.885 458.022 408.108 448.87 410.949C442.811 412.835 434.338 429.227 431.472 428.548C428.581 424.425 419.152 420.025 417.367 415.902C416.085 412.96 416.864 409.491 415.683 406.373C415.507 405.921 411.962 399.258 411.308 398.076C406.179 388.698 402.508 390.533 394.186 385.606C397.832 378.063 400.497 372.557 400.371 363.833C405.601 361.846 421.742 357.094 423.351 351.689C426.293 341.707 417.191 324.887 422.245 313.322C418.549 312.693 419.756 313.925 419.027 316.364C417.443 321.644 416.06 331.022 416.739 336.402C417.342 341.205 420.862 344.046 418.524 349.527C416.814 353.524 400.12 356.994 396.223 361.092L391.295 385.002C367.209 380.15 350.238 384.449 335.605 404.412C329.596 405.543 310.538 392.017 303.398 390.735C293.668 388.975 281.826 394.456 271.844 393.45L276.345 379.672C291.581 378.616 309.382 371.325 312.248 354.455C313.58 346.61 310.211 339.646 311.217 333.788C311.77 330.494 316.447 325.139 317.829 320.664C322.355 305.88 316.899 294.088 310.312 281.165C303.222 267.236 292.008 260.448 300.557 242.949C316.195 210.943 355.241 260.85 368.139 271.133C387.725 286.722 415.934 290.091 439.241 281.668C445.652 288.155 457.368 288.18 454.552 299.268L454.603 299.242Z" fill="#F79335"/>
<path d="M826.128 154.047C829.924 158.095 837.442 157.341 841.892 160.056C844.306 161.539 853.08 171.093 853.583 173.784C854.237 177.228 851.32 182.86 849.812 186.33C847.977 190.604 839.277 209.435 837.015 211.472C830.1 217.707 812.853 220.699 804.305 224.872C801.237 226.356 796.184 231.636 792.991 233.521C786.957 237.066 772.047 239.455 764.505 240.184C758.093 240.813 746.578 238.751 741.349 240.938C733.253 244.332 730.839 265.904 724.403 271.788L671.051 293.636C670.448 285.264 671.303 276.414 674.999 268.771C679.172 260.097 688.978 255.068 692.699 247.123C695.339 241.491 695.288 235.206 697.476 229.398C699.085 225.124 705.345 217.456 705.974 213.885C707.683 204.558 694.383 184.469 689.631 176.097C689.732 162.419 705.144 153.142 699.261 139.615C697.702 136.02 689.028 129.559 689.43 127.271C696.495 117.088 722.492 111.507 726.188 100.695C729.884 89.8843 721.461 87.2947 719.173 78.9475C718.494 76.4584 716.357 63.3342 719.525 63.1582C732.599 70.7008 747.76 74.3967 761.035 82.0651C774.31 89.7334 809.333 123.223 817.504 136.649C820.32 141.275 822.834 150.577 826.103 154.047H826.128Z" fill="#F79335"/>
<path d="M1075.44 756.553C1076.32 757.408 1080.94 764.573 1081.2 765.554C1089.24 796.001 1040.11 787.151 1046.73 822.526C1047.78 828.157 1052.76 831.929 1053.44 837.586C1048.08 839.396 1032.42 843.092 1028.8 845.983C1023.32 850.333 1027.74 859.233 1020.43 862.627C1010.27 855.764 994.48 846.587 982.261 845.103C979.495 844.776 977.232 847.064 973.36 845.33C965.918 842.011 957.32 813.55 943.215 807.968C925.389 800.929 911.662 823.858 900.197 822.953C889.713 822.123 886.57 812.217 870.051 813.751C868.065 813.927 866.557 816.517 865.098 815.863C860.598 813.902 840.183 796.378 835.506 791.953C833.168 789.74 832.414 785.743 828.542 785.542C829.522 782.6 835.783 784.259 838.02 782.399C839.152 781.469 839.353 778.125 841.138 776.39C849.108 768.596 869.423 754.214 871.811 743.806C874.2 733.397 864.872 722.887 879.807 722.209C887.827 721.831 895.847 724.672 905.024 723.616C909.801 723.063 919.104 720.549 921.995 716.728C930.518 727.338 934.566 748.784 952.266 744.158C963.681 741.166 978.842 730.857 991.538 728.544C996.894 727.564 998.603 728.268 1001.72 732.567C1007.6 740.763 1014.37 766.434 1023.52 768.445C1039.08 771.839 1060.03 741.543 1075.44 756.553Z" fill="#F79335"/>
<path d="M514.843 1091.85C509.941 1093.76 504.51 1092.9 499.507 1094.09C485.502 1097.38 468.707 1107.44 455.307 1108.92C436.978 1110.93 419.303 1104.12 402.584 1097.63C400.095 1094.34 431.195 1060.85 432.101 1051.82C432.754 1045.13 418.172 1024.77 416.739 1015.32C415.758 1008.78 414.828 983.863 422.974 982.355C435.696 979.991 441.956 985.724 455.81 977.251C468.682 969.381 463.025 963.045 470.04 953.542C472.529 950.173 482.988 941.851 484.949 948.664H487.614C490.38 949.293 490.732 944.465 491.964 944.365C493.623 944.214 497.797 946.376 501.719 945.924C504.937 945.572 507.653 942.429 509.915 943.057C516.452 946.251 513.234 962.517 517.332 963.875L550.168 961.864C554.568 966.867 554.065 973.63 556.504 979.514C559.823 987.559 568.321 1000.46 569.603 1008.68C570.382 1013.66 562.739 1019.69 560.25 1024.04C556.328 1030.93 554.945 1039.08 548.835 1044.96C541.796 1051.72 533.172 1050.67 526.66 1055.12C518.791 1060.47 516.804 1082.5 514.843 1091.8V1091.85Z" fill="#F79335"/>
<path d="M1005.49 282.523C1005.64 282.623 1005.29 284.635 1007.35 285.615C1014.14 288.808 1033.58 291.674 1037.25 295.043C1041.12 298.614 1046.65 321.091 1050.14 323.253C1058.82 328.658 1064.32 322.524 1070.86 323.177C1076.39 323.705 1081.37 329.991 1086.6 331.575C1091.1 332.933 1094.44 330.871 1097.41 331.525C1098.95 331.851 1099.83 336.176 1101.18 337.559C1104.35 340.827 1110.08 343.618 1111.69 348.521C1112.57 351.135 1114.21 365.969 1113.8 368.735C1112.77 376.152 1104.28 376.705 1105.68 386.762C1105.93 388.622 1109.4 399.635 1110.31 400.515C1112.95 403.079 1123.63 402.928 1126.25 408.334C1119.08 427.92 1131.1 461.082 1122.83 479.059C1114.18 497.865 1109 491.403 1092.21 493.415C1087.13 494.018 1083.13 496.683 1078.28 497.312C1069.08 488.286 1063.82 473.427 1051.6 467.644C1045.49 464.753 1033.93 464.25 1030.26 456.657C1026.81 449.542 1034.08 451.981 1033.75 446.273C1033.37 439.259 1025.88 436.744 1024.88 433.853C1022.36 426.763 1029.83 409.49 1032.77 401.596C1035.39 394.581 1043.03 385.555 1039.81 378.264C1037.55 373.11 1008.69 368.282 1004.08 356.264C1002.65 352.493 1003.51 348.395 1001.47 344.825C997.824 338.414 982.135 332.832 976.403 327.049C976.453 318.727 975.699 311.788 972.355 304.12C972.581 301.807 982.16 295.999 984.649 294.415C986.937 292.957 1004.49 281.844 1005.49 282.497V282.523Z" fill="#F79335"/>
<path d="M679.047 916.784C682.843 920.053 689.33 937.627 692.975 942.907C694.056 944.466 700.845 951.656 702.026 952.184C708.915 955.327 709.745 948.388 714.195 947.583C719.626 946.578 724.554 948.715 727.772 948.237C729.683 947.935 732.448 944.365 735.616 945.974C737.2 950.625 738.281 955.604 740.569 959.978C744.064 966.666 757.968 982.455 756.233 989.42C755.454 992.537 751.883 995.278 751.255 998.622C749.193 1009.56 760.406 1017.73 764.982 1026.71C751.154 1037.72 736.446 1049.33 727.948 1065.3C718.645 1082.75 719.676 1103.77 717.439 1122.97C699.713 1111.61 693.579 1094.92 701.649 1074.68C697.878 1067.81 693.453 1061.4 686.086 1058.06C673.892 1052.5 651.189 1053.83 652.773 1034.42L649.982 1035.86C651.114 1025.12 659.084 1017.73 657.977 1005.81C657.148 996.711 643.722 989.344 641.886 978.584C639.573 965.107 645.884 959.601 645.859 949.393C645.859 941.725 640.353 933.554 641.836 925.835C642.364 923.07 653.603 905.42 654.96 905.118C660.793 911.177 673.591 912.108 679.047 916.834V916.784Z" fill="#F79335"/>
<path d="M403.036 887.77C410.931 894.483 418.172 887.443 422.345 889.002C424.306 889.756 431.573 898.028 437.406 900.492C446.331 904.288 455.81 903.082 463.503 908.135C474.289 915.25 471.549 929.506 476.652 939.915C477.407 941.448 478.262 941.725 479.871 941.65V944.415C456.363 947.86 470.266 971.619 446.733 976.622C434.363 979.237 419.127 978.131 406.405 981.047C401.1 972.122 386.417 978.156 377.869 979.438C373.871 980.042 369.622 979.011 365.65 979.866C355.216 982.179 351.218 1001.84 343.223 1006.72C336.535 1010.79 327.937 1012.83 320.419 1014.69L318.835 1011.8C322.431 999.049 331.105 987.182 335.831 975.34C339.1 967.119 341.287 956.081 342.921 947.307C347.522 922.743 349.081 897.852 350.841 872.986C362.809 869.492 378.623 858.178 390.063 867.757C395.443 872.257 398.46 883.848 403.061 887.77H403.036Z" fill="#F79335"/>
<path d="M886.972 977.351C901.177 989.947 925.615 983.385 934.667 1003.45L937.483 1003.5C938.488 998.797 942.26 1001.44 945.578 1000.33C957.244 996.383 964.686 989.318 975.422 983.837C983.593 985.547 996.013 997.213 1003.78 997.464C1010.02 997.666 1015.75 987.86 1022.19 986.804C1027.39 985.949 1032.49 991.078 1038.73 990.928C1043.08 990.827 1044.59 988.514 1048.41 987.86C1053.66 999.375 1067.67 1001.74 1070.21 1015.24C1049.29 1031 1025.25 1060.55 997.773 1063.71C960.563 1068.01 942.385 1047.27 910.807 1034.32C891.674 1026.48 869.976 1019.92 849.51 1016.8C849.385 1010.99 845.513 1003.45 845.362 998.445C844.909 984.466 865.853 973.504 875.658 965.71C879.907 969.506 882.647 973.429 886.997 977.3L886.972 977.351Z" fill="#F79335"/>
<path d="M411.006 985.296C402.558 1009.51 412.741 1030.55 423.426 1051.72C415.356 1067.46 400.346 1078.1 393.482 1094.82L312.524 1059.14C309.105 1054.74 312.172 1024.02 316.899 1021.07C322.782 1017.4 334.951 1020.19 344.908 1012.53C350.69 1008.08 363.236 987.081 366.127 985.875C368.089 985.07 370.1 986.553 372.036 986.227C385.965 983.763 397.58 976.27 411.056 985.296H411.006Z" fill="#F79335"/>
<path d="M118.628 359.685L124.109 377.083L111.588 385.933L110.633 411.352C105.303 418.769 98.766 413.262 91.4245 420.302C85.3149 426.16 86.1698 431.264 83.4041 436.041C80.6385 440.818 73.6993 444.137 73.5233 450.875C70.3554 453.666 35.4329 439.511 31.5107 434.533C18.0346 417.31 53.5855 418.039 55.3958 403.859C57.3317 388.623 37.9723 390.685 37.1677 387.09C55.7729 363.129 90.9719 363.204 118.653 359.685H118.628Z" fill="#F79335"/>
<path d="M242.353 569.118L212.107 539.627C170.245 506.489 136.228 500.43 86.5723 488.035C66.2826 482.981 47.2751 469.354 37.1177 451.051C52.1778 456.934 67.6151 461.761 83.2032 466.111C117.195 475.539 152.596 480.517 184.275 497.161C212.182 511.845 237.551 536.61 242.328 569.118H242.353Z" fill="#F79335"/>
<path d="M1071.49 505.71C1057.26 516.144 1049.94 534.498 1038.4 547.873C1008.56 544.052 979.847 556.019 949.4 552.248C948.771 549.809 950.406 549.432 951.487 548.024C959.608 537.464 990.432 518.557 1003.13 511.417C1011.4 506.766 1029.75 496.533 1038.6 493.189C1041.55 492.083 1059.12 487.381 1060.86 487.809C1063.72 489.795 1072.6 503.799 1071.47 505.71H1071.49Z" fill="#F79335"/>
<path d="M1106.81 503.07C1107.34 505.232 1105.93 506.137 1105.13 507.696C1094.04 528.941 1070.99 564.693 1056.81 584.455C1040.84 606.706 1022.94 623.853 1008.21 648.291C1005.09 653.445 997.472 674.891 990.181 671.095C980.777 666.217 996.391 641.176 1000.01 634.463C1005.92 623.476 1012.61 612.212 1019.12 601.577C1034.53 576.385 1058.01 537.263 1076.17 515.239C1084.51 505.132 1093.99 503.221 1106.84 503.045L1106.81 503.07Z" fill="#F79335"/>
<path d="M1158.31 336.729C1158 337.534 1155.29 342.336 1154.26 344.574C1145.79 362.802 1131.33 380.049 1129.29 400.465L1113 396.392C1105.88 387.592 1113.23 381.834 1114.91 374.141C1115.69 370.621 1118.28 352.141 1117.8 349.527C1116.65 343.241 1105.88 332.807 1099.8 330.896C1108.3 322.097 1120.01 317.672 1130.42 311.637L1132.33 296.653C1139.22 292.379 1159.66 305.503 1164.24 311.487C1163.33 319.783 1161.4 328.96 1158.33 336.729H1158.31Z" fill="#F79335"/>
<path d="M1123.38 308.771C1121.93 309.927 1118.13 309.5 1115.84 311.813C1114.06 313.623 1114.21 316.665 1113.55 317.219C1113.03 317.696 1105.63 318.727 1102.99 319.959C1100.35 321.191 1099 325.767 1096.31 326.069C1086.45 327.125 1082.18 319.356 1074.86 317.847C1069.71 316.766 1063.82 317.923 1058.54 317.596C1051.43 307.388 1049.52 289.537 1037.3 283.729C1033.3 281.818 1012.31 277.72 1011.38 276.639C1010.67 272.164 1011.12 267.211 1014.74 264.144C1016.15 265.652 1017.74 266.859 1019.65 267.638C1051.48 280.763 1087.28 289.16 1121.37 293.811C1124.41 294.767 1125.07 307.438 1123.36 308.746L1123.38 308.771Z" fill="#F79335"/>
<path d="M1136.33 410.999C1136.66 409.44 1138.67 403.255 1139.47 400.087C1146.04 374.618 1164.19 350.306 1172.84 325.214L1175.73 325.39C1196.57 372.632 1160.67 413.513 1139.12 452.458C1138.57 452.835 1136.33 450.598 1136.33 450.346C1136.33 440.289 1134.6 419.447 1136.33 410.999Z" fill="#F79335"/>
<path d="M746.98 63.0824C730.538 56.6208 683.949 41.7115 678.77 23.7852C678.217 21.8995 677.865 20.1144 678.091 18.1282C694.081 15.6391 707.231 26.1988 718.872 35.6774C728.501 43.4966 738.508 53.9306 746.955 63.0824H746.98Z" fill="#F79335"/>
<path d="M1081.52 795.447L1075.21 851.665C1071.24 843.594 1055.53 823.858 1056.2 815.963C1056.88 808.069 1074.21 798.213 1081.52 795.447Z" fill="#F79335"/>
<path d="M1085.75 750.468C1080.32 750.845 1078.96 745.44 1075.97 742.674C1072.72 739.682 1067.22 737.797 1066.29 732.567C1064.55 722.938 1077.27 716.828 1078.73 708.305C1081.52 707.827 1082.78 710.09 1084.11 712.051C1091.83 723.39 1085.62 737.847 1085.75 750.468Z" fill="#F79335"/>
<path d="M869.247 347.038C866.783 347.365 867.939 343.845 867.864 342.16C867.235 326.798 870.429 312.04 867.789 295.823C866.833 289.99 861.377 283.403 862.257 276.766L874.552 296.075C880.41 309.124 870.227 325.365 871.987 339.244L869.247 347.038Z" fill="#F79335"/>
<path d="M332.311 730.783C329.646 730.33 330.023 727.816 329.345 726.031C324.894 714.138 320.872 701.542 317.075 689.6C322.782 679.493 325.9 694.176 327.409 699.833C329.998 709.537 331.029 720.751 332.311 730.757V730.783Z" fill="#F79335"/>
<path d="M303.75 656.764C308.778 661.943 325.548 679.819 309.834 678.789C308.301 671.17 305.007 662.974 300.004 656.99C299.124 653.194 303.197 656.236 303.75 656.789V656.764Z" fill="#F79335"/>
<path d="M305.61 318.929L299.979 289.412C306.717 294.918 312.424 312.015 305.61 318.929Z" fill="#F79335"/>
<path d="M42.7493 399.057C42.4224 405.996 34.6787 409.189 28.6948 408.888C28.7703 398.001 32.6421 398.529 42.7493 399.057Z" fill="#F79335"/>
<path d="M384.33 508.676C376.235 507.419 367.963 507.168 361.878 500.957C363.865 497.915 364.971 499.273 367.51 499.474C373.821 500.002 380.157 503.899 384.33 508.676Z" fill="#F79335"/>
<path d="M457.016 274.376C458.148 275.432 465.338 287.073 464.433 288.004L448.996 277.469L453.874 272.943C455.005 273.17 456.136 273.597 456.991 274.376H457.016Z" fill="#F79335"/>
<path d="M928.306 438.429C928.13 446.5 916.514 437.725 911.637 436.845C910.555 434.507 911.787 429.302 914.905 430.006L928.306 438.429Z" fill="#F79335"/>
<path d="M554.115 449.969C561.758 454.168 554.518 482.855 552.305 490.398C549.514 488.537 550.621 487.205 550.771 484.791C551.626 472.447 558.012 465.407 551.475 452.107C550.545 450.196 548.282 451.88 548.76 449.643L554.09 449.944L554.115 449.969Z" fill="#F79335"/>
<path d="M375.883 801.055L353.406 805.279L362.683 799.823C367.007 800.124 373.494 795.624 375.883 801.055Z" fill="#F79335"/>
<path d="M751.682 921.033C748.213 925.659 746.478 931.442 742.078 936.043C740.997 937.149 738.734 940.392 737.15 938.129C743.385 929.003 747.81 919.625 756.585 912.61C756.987 910.398 752.789 905.696 753.015 901.799C753.115 900.039 763.65 870.422 764.656 868.637C767.296 863.96 781.375 854.205 786.404 852.42C789.119 851.439 793.041 850.635 792.689 854.481C783.437 859.988 771.846 862.778 766.592 873.388C765.36 875.903 758.798 899.788 758.27 903.081C757.188 909.593 761.789 911.504 756.158 917.84C754.9 919.248 752.437 920.002 751.657 921.033H751.682Z" fill="#F79335"/>
</svg>
