<svg width="1184" height="1205" viewBox="0 0 1184 1205" fill="none" xmlns="http://www.w3.org/2000/svg">
<path d="M644.753 35.0733C700.619 2.99188 684.553 -0.226318 858.511 178.861C858.511 178.861 977.911 282.22 1144.18 298.89C1144.18 298.89 1218.65 325.214 1162.15 417.007C1105.66 508.801 1056.23 588.401 1056.23 588.401C1056.23 588.401 948.394 702.672 1024.12 700.108C1099.85 697.543 1088.31 732.215 1088.31 732.215L1074.83 864.462C1074.83 864.462 1038.88 966.539 1121.05 957.538C1121.05 957.538 1180.1 979.362 1128.74 1037.14C1128.74 1037.14 1094.72 1099.42 968.91 1094.26C968.91 1094.26 859.793 1045.49 833.47 1052.53C833.47 1052.53 770.564 1055.09 753.241 1103.24C753.241 1103.24 736.547 1123.12 733.982 1154.6C733.982 1154.6 710.877 1238.7 633.187 1187.99C633.187 1187.99 547.176 1123.8 481.681 1138.56C481.681 1138.56 339.175 1153.32 319.263 1091.07C319.263 1091.07 291.657 1055.12 336.586 978.733C336.586 978.733 366.756 880.528 339.15 757.91C339.15 757.91 307.697 644.292 253.139 587.798C253.139 587.798 210.121 506.916 82.3985 488.939C82.3985 488.939 18.2106 470.334 29.1223 404.839C40.034 339.343 207.581 368.885 207.581 368.885C207.581 368.885 326.328 413.814 311.569 334.868C311.569 334.868 278.18 239.856 312.851 234.727C312.851 234.727 325.699 227.034 367.41 273.245C367.41 273.245 418.121 313.045 470.115 261.679C470.115 261.679 479.745 230.855 537.522 193.645C537.522 193.645 590.169 177.604 595.298 104.415C595.298 104.415 609.001 55.6144 644.728 35.0984L644.753 35.0733Z" fill="#B0DF44"/>
<path d="M1082.55 922.541C1099.88 939.411 1121.7 922.038 1138.39 933.327C1156.09 945.32 1141.81 970.236 1131.93 982.404C1118.61 998.847 1035.21 1065.68 1016.28 1072.92C969.288 1090.89 958.275 1069.7 920.713 1052.95C864.495 1027.89 786.353 1007.62 743.763 1064.39C721.763 1093.73 735.365 1116.31 723.171 1144.37C702.53 1191.89 617.247 1166.39 584.11 1145.68C556.957 1128.68 547.051 1102.66 510.368 1107.59C476.175 1112.19 463.277 1132.2 422.974 1120.76C382.319 1109.22 331.557 1077.11 290.475 1062.18C265.358 1047.1 293.291 1026.83 301.839 1009.68C312.298 988.74 316.195 962.542 319.59 939.437C329.244 873.69 347.724 749.211 323.637 689.624C308.452 652.112 291.958 653.771 267.093 630.515C235.162 600.671 254.849 565.548 222.868 528.916C179.598 479.386 112.092 477.952 54.6166 458.316C38.3999 452.76 10.1904 444.815 17.1045 423.168C21.3033 410.018 40.889 413.589 43.3278 400.464C17.9594 397.975 -8.49017 393.953 2.59751 360.916C12.9309 330.142 70.3053 344.649 96.2268 336.402C110.357 331.902 121.696 317.873 137.711 317.345C155.939 316.766 168.862 332.857 184.174 338.791C212.66 349.828 267.495 351.764 294.02 335.573C332.387 312.165 285.673 271.812 277.879 245.086C272.272 225.877 276.773 197.417 301.135 196.662C325.498 195.908 337.265 222.508 354.261 234.074C380.358 251.824 434.087 259.668 457.746 235.431C430.416 164.279 544.561 175.467 570.936 134.762C578.881 122.493 583.18 99.5382 584.035 84.9809C585.619 57.9279 573.148 33.1378 599.17 14.6331C612.37 5.25513 649.404 -4.2486 664.314 1.96151C674.27 6.10996 675.678 23.4078 682.34 31.7047C696.219 49.0025 740.771 60.0147 762.468 72.2589C781.174 82.8186 805.813 101.977 818.762 119.048C823.036 124.68 833.193 146.504 835.28 147.761C848.228 155.63 870.203 136.874 889.964 143.386C911.41 150.476 920.537 198.472 944.146 209.862C960.035 217.53 989.125 216.499 1008.69 223.263C1046.1 236.211 1068 265.552 1111.32 273.999C1133.84 278.399 1175.58 273.019 1177.06 306.282C1178.27 332.983 1143.65 376.68 1137.66 409.817C1133.44 433.199 1139.47 453.112 1137.04 474.558C1132.06 518.18 1098.54 492.987 1078.18 513.755C1051.63 555.818 1020.05 597.327 997.422 641.678C992.092 652.137 980.778 667.524 992.418 676.802C1012.56 669.712 1016.96 629.534 1041.62 637.756C1052.78 641.477 1081.32 698.273 1079.23 710.744C1077.85 719.041 1064.8 723.968 1066.99 735.408C1069.18 746.848 1096.73 753.938 1093.84 778.099C1091.23 799.998 1057.18 803.644 1056.86 818.93C1056.61 830.873 1074.63 848.497 1076.24 862.401C1078.48 881.66 1061.03 901.497 1082.58 922.491L1082.55 922.541ZM828.391 153.393C825.952 151.029 819.893 135.391 815.77 129.558C800.785 108.338 779.364 90.6881 756.535 78.1673C731.368 64.3643 688.752 57.3748 673.264 33.2132C664.389 19.385 671.655 7.51792 648.021 7.99562C633.892 8.29733 597.209 18.4296 592.558 33.188C587.907 47.9465 592.91 79.2736 591.125 97.1245C582.752 180.848 511.852 158.672 470.669 195.405C447.337 216.223 478.362 235.532 456.589 249.209C429.612 266.13 380.911 259.719 354.261 244.08C337.114 233.998 308.427 189.396 289.645 210.516C265.308 237.895 316.095 278.827 317.427 308.746C319.866 363.606 219.474 359.231 185.255 347.691C169.566 342.386 153.174 325.39 137.963 325.843C122.752 326.295 112.066 340.048 99.1936 344.423C76.8171 352.066 22.4598 339.595 10.9447 361.746C-8.49017 399.031 51.3481 382.262 52.9572 402.199C54.2897 418.994 8.02821 419.648 29.8264 437.75C49.2613 453.891 114.053 463.295 141.332 472.044C181.182 484.841 224.452 506.263 244.49 544.881C260.38 575.504 245.068 598.333 274.585 625.411C297.842 646.782 317.478 650.629 331.13 684.52C357.705 750.493 337.642 872.835 327.082 944.364C323.713 967.168 319.062 993.316 308.653 1013.93C300.607 1029.85 278.407 1043.05 296.358 1056.2C313.204 1068.54 384.104 1095.87 407.939 1105.53C467.275 1129.54 469.889 1099.87 517.986 1097.38C547.931 1095.82 563.946 1121.89 585.543 1136.63C618.454 1159.08 710.349 1185.53 718.973 1127.6C723.674 1096.02 717.087 1083.27 739.79 1055.39C784.971 999.903 860.372 1018.63 918.199 1042.8C948.319 1055.37 965.818 1076.81 1001.82 1068.52C1030.28 1061.95 1046.95 1040.61 1067.9 1023.96C1080.92 1013.63 1159.44 961.26 1133.44 940.694C1121.9 931.567 1094.32 949.72 1072.8 923.396C1054.44 900.919 1069.83 881.811 1066.39 859.384C1064 843.896 1046.12 834.091 1049.06 814.178C1052.01 794.266 1086.88 798.263 1084.36 771.185C1082.68 752.882 1052.28 753.41 1060.2 724.622C1062.06 717.859 1071.16 710.392 1071.09 706.344C1070.96 696.991 1044.61 644.192 1035.11 644.167C1024.98 644.167 1003.53 695.859 984.65 682.132C973.235 673.835 980.199 656.839 984.725 646.631C998.679 615.229 1044.74 541.713 1066.61 514.786C1086.98 489.669 1090.32 500.731 1115.04 495.326C1136.86 490.549 1125.47 441.572 1126.8 424.123C1130.35 377.836 1158.46 356.265 1165.9 322.423C1175.08 280.712 1147.97 288.833 1121.3 283.981C1067.37 274.175 1052.26 248.53 1009.36 232.49C987.516 224.319 960.337 225.425 941.631 217.254C916.741 206.392 901.655 155.052 885.64 149.998C873.069 146.051 841.188 165.687 828.316 153.292L828.391 153.393Z" fill="black"/>
</svg>
