<svg width="589" height="592" viewBox="0 0 589 592" fill="none" xmlns="http://www.w3.org/2000/svg">
<path d="M357.161 315.786L277.704 398.195C272.866 386.341 250.149 355.949 251.573 344.774C253.544 329.233 270.065 324.103 280.683 314.834C312.057 287.449 314.367 277.378 359.075 267.646C363.017 266.788 383.159 263.327 384.658 264.779L381.433 280.65L300.288 313.806L373.361 295.663" fill="white"/>
<path d="M534.539 353.723L401.274 411.755C388.393 420.233 381.434 454.973 375.625 469.476L434.468 438.103L402.972 466.572C403.415 479.604 414.09 511.355 428.093 514.269C431.761 515.033 444.482 506.979 448.811 504.424C464.945 494.899 502.439 472.258 515.028 460.754C529.795 447.259 533.492 422.043 534.331 402.976L505.155 393.933C532.606 378.062 557.491 361.626 580.736 339.927L573.72 337.051L542.413 349.772L534.539 353.723Z" fill="white"/>
<path d="M426.273 349.612C414.146 374.959 397.813 395.658 378.812 415.942C366.713 416.791 321.412 413.622 319.214 399.581C318.111 392.565 327.673 378.128 329.418 370.48L360.518 316.239L376.709 296.115C387.223 287.11 399.416 272.512 412.373 267.043C429.63 259.763 425.255 273.106 434.477 283.027L446.896 308.403L443.011 318.106" fill="white"/>
<path d="M445.057 319.304C446.491 319.257 448.028 319.615 448.895 320.822C456.826 331.893 469.359 348.961 475.648 360.362C477.176 363.134 481.41 369.311 479.477 372.413L415.56 397.893C412.071 380.834 421.049 371.376 426.99 357.344C427.753 355.543 431.252 352.346 428.31 350.819" fill="white"/>
<path d="M437.711 280.32L502.099 274.69L545.788 280.641C557.755 301.802 557.057 325.537 546.26 346.886L538.386 350.838L487.304 365.68L450.121 305.696" fill="white"/>
<path d="M573.239 330.95L573.277 330.931C573.296 329.875 562.517 317.436 561.103 313.702C556.859 302.537 560.047 235.094 561.555 219.101C561.772 216.847 562.498 206.691 566.421 208.303C568.93 209.341 572.108 214.735 572.881 217.554C576.106 229.266 585.328 299.68 584.621 310.817C584.15 318.2 578.369 325.518 580.255 333.826" fill="white"/>
<path d="M125.617 181.032C127.173 180.806 128.455 181.343 129.474 182.503C136.895 190.924 158.744 211.547 159.112 221.345C159.301 226.494 148.437 240.922 144.741 242.534C140.007 244.599 112.622 250.842 106.747 251.493C92.1404 253.105 81.6259 252.191 72.6297 239.932C77.1184 246.108 68.4617 265.496 64.2653 268.872C61.8607 270.805 8.95848 282.272 4.03603 282.329C1.6974 282.357 1.47108 282.112 0 280.16V144.764C0.26404 142.982 3.32878 134.325 4.94131 133.967C9.49599 135.683 17.436 138.493 17.6907 143.765L19.5861 143.783C25.7627 128.035 49.4697 147.706 60.8328 149.658" fill="white"/>
<path d="M61.8136 148.206C55.5615 140.115 27.9222 132.175 24.5463 123.669C23.0092 119.803 27.2149 120.906 28.818 120.227C48.7813 111.721 64.3879 111.627 85.8694 115.333C93.8284 116.71 100.278 122.481 107.898 124.697L114.801 134.495C113.829 141.567 132.623 172.554 132.406 174.742C132.171 177.09 125.909 176.458 126.579 179.598" fill="white"/>
<path d="M111.915 126.46C115.395 121.991 105.097 117.804 112.217 114.956L159.602 113.136C166.835 125.923 184.62 138.682 191.495 150.875C193.55 154.515 195.182 160.456 192.089 163.916C190.948 165.199 164.355 179.881 161.988 180.532C141.195 186.209 130.37 147.395 118.827 136.258" fill="white"/>
<path d="M103.994 59.4038C93.1777 73.2942 87.0199 79.7726 69.3009 84.6007L58.8997 75.1047L74.5723 104.517C53.4869 107.506 5.70514 124.754 1.98029 91.7864C-0.990154 65.4579 5.02618 34.999 0.905273 8.28387C2.1406 5.80379 27.4412 2.96536 32.4109 2.52215C50.5353 0.919056 75.3456 -0.514302 93.3097 0.456986C108.086 1.25854 123.156 1.53201 132.472 14.2436" fill="white"/>
<path d="M138.734 13.7628C142.619 10.7452 145.307 5.01177 150.55 4.02162C168.834 0.560814 190.693 2.67313 209.336 1.9093C222.821 17.2047 210.666 34.3107 200.5 48.0879C186.186 67.4854 152.53 103.499 128.455 107.516C114.895 109.779 96.9591 108.053 82.8235 109.939L110.265 58.9324" fill="white"/>
<path d="M449.376 84.9308L465.068 105.526C463.918 107.204 459.985 108.006 458.014 108.27C434.571 111.391 388.412 111.41 363.931 110.505C347.872 109.911 330.285 106.771 314.047 106.422C310.416 83.3371 296.149 37.5923 319.978 21.269C337.245 9.44376 347.919 17.2989 364.582 23.9094" fill="white"/>
<path d="M367.354 23.0607C367.486 23.1173 367.628 23.1644 367.76 23.221C366.609 19.5622 342.186 5.21916 346.184 1.66405C376.435 -0.0427731 405.169 -1.01406 435.448 1.66405C448.584 2.82394 475.148 3.33316 482.928 14.0268C488.897 31.8966 501.477 50.1719 506.135 68.3152C516.923 110.288 474.366 94.6814 452.139 84.0821" fill="white"/>
<path d="M576.511 579.015C556.916 583.428 537.33 588.162 517.15 589.294C478.26 591.481 424.33 591.642 385.517 589.294C369.561 588.332 353.341 584.277 337.518 582.325L364.375 562.097C404.707 537.174 441.304 504.82 485.757 487.252L551.296 501.991L587.639 543.982L576.502 579.005L576.511 579.015Z" fill="white"/>
<path d="M158.961 373.385L187.591 465.685C186.619 471.692 173.021 484.838 167.844 489.175C159.018 496.569 124.485 520.068 114.772 508.799C113.961 507.856 109.124 493.4 107.917 490.156C96.0256 458.339 74.2329 404.749 67.6413 373.46C66.9435 370.15 66.3588 366.953 66.7455 363.559L119.723 367.463" fill="white"/>
<path d="M119.704 366.491L111.877 362.616C148.89 348.961 187.977 341.36 226.555 333.109C246.896 341.012 245.934 366.133 251.168 384.173L158.952 372.432" fill="white"/>
<path d="M257.052 542.115L225.678 561.739C227.64 561.494 230.61 560.937 231.761 562.918C233.571 570.801 239.097 579.184 235.222 587.002L182.508 589.19L225.678 561.739" fill="white"/>
<path d="M273.828 533.327L273.262 533.732L292.848 527.867C299.93 548.122 305.484 567.039 306.606 588.7H264.417C263.068 588.7 249.951 584.89 249.612 583.485L257.533 543.577" fill="white"/>
<path d="M225.678 561.739C213.872 563.229 189.665 580.213 174.7 584.343C162.167 587.804 153.596 587.747 141.289 583.306L146.221 512.694C157.537 502.321 171.786 497.134 185.95 491.599C208.393 482.82 254.666 464.544 276.61 460.584C279.524 460.056 282.107 458.924 285.182 459.962C296.705 463.856 292.65 504.735 296.469 515.268L273.356 531.884" fill="white"/>
<path d="M7.34596 564.134C6.43125 562.88 0.0188599 558.674 0.0188599 554.874V396.912L31.3924 438.121L53.0154 471.485C56.4667 487.365 85.4168 517.041 84.587 531.346C84.4549 533.6 84.5398 534.505 81.956 534.835L55.5992 545.765" fill="white"/>
<path d="M58.8054 547.368L58.183 547.632C82.3803 544.501 109.161 523.538 133.717 528.036C135.914 528.442 137.385 529.026 138.621 530.978V564.332C138.621 566.152 118.686 587.492 115.64 588.445C109.152 588.36 102.9 590.453 96.5159 590.906C84.1249 591.792 41.2184 590.142 30.7983 585.823C29.5441 585.305 10.2975 569.981 9.5054 568.868C9.16592 568.397 10.9576 566.294 10.5616 565.747" fill="white"/>
<path d="M33.3255 437.48C23.3486 411.944 0.584598 382.758 16.8042 355.336L58.9468 362.248L104.173 499.322L85.3224 513.816L54.939 470.834" fill="white"/>
<path d="M213.881 210.501L183.753 237.829L152.992 197.751C164.874 176.647 190.231 170.423 211.92 163.388L245.302 145.773C244.802 149.347 249.414 147.405 251.3 146.867C256.835 145.283 279.948 133.92 281.617 134.033C291.047 134.683 274.573 147.386 275.723 149.696L263.936 159.494L229.592 193.828" fill="white"/>
<path d="M225.669 256.613C219.728 260.357 187.676 256.557 186.563 251.549C189.439 236.98 201.396 228.54 209.987 218.337C211.845 216.13 214.749 215.14 213.891 211.463L229.62 194.79C232.836 197.044 235.033 196.837 236.994 201.146C239.606 206.87 245.708 239.262 247.292 240.912" fill="white"/>
<path d="M247.282 242.195C255.156 239.205 265.275 239.8 273.847 240.12C281.674 240.412 295.828 241.186 303.07 242.298C307.125 242.921 328.729 253.445 329.069 256.849L325.174 269.08L270.782 321.614C266.576 323.519 241.879 323.443 237.504 321.614C234.062 320.171 206.535 286.78 206.111 282.348C205.875 279.924 207.809 271.805 209.138 269.777C211.948 265.487 222.934 262.799 225.678 257.905" fill="white"/>
<path d="M276.214 152.101L331.502 118.983L357.604 146.197L361.527 148.178L309.549 199.185C297.393 203.805 273.083 229.068 262.286 230.53C243.907 233.019 241.936 205.305 243.718 192.225C245.142 181.833 256.222 175.251 262.465 167.802C263.766 166.246 267.614 163.869 264.426 161.908" fill="white"/>
<path d="M211.967 162.096C210.449 158.617 205.508 158.588 202.066 155.354C191.976 145.877 180.839 128.658 174.275 116.361C173.191 114.324 173.087 109.883 172.484 109.392C169.947 107.318 157.594 112.514 159.329 98.8778C160.338 90.9189 184.535 66.6744 190.882 68.2115C203.914 71.38 210.279 97.6048 214.164 108.902C245.066 108.544 275.752 109.317 306.154 115.05L245.349 144.491" fill="white"/>
<path d="M409.601 232.963L437.994 247.702L438.051 246.721C436.618 244.977 449.82 222.363 449.886 216.347C449.98 206.757 438.673 190.669 438.051 180.013L434.09 174.129C410.468 151.846 379.359 118.851 346.58 111.514C342.384 110.571 343.525 113.673 344.194 115.889C346.59 123.773 356.717 133.316 357.566 142.737L361.489 144.717L386.997 197.676L389.006 199.656L396.814 215.329" fill="white"/>
<path d="M394.654 216.753C387.855 216.875 380.01 214.084 373.955 218.629L333.84 265.798L412.336 252.068L407.441 234.406" fill="white"/>
<path d="M384.913 198.939L367.939 179.636L331.775 180.164L292.707 225.4L332.643 249.654C348.513 235.537 366.591 223.335 382.103 208.86C384.413 206.71 386.61 204.211 386.931 200.92" fill="white"/>
<path d="M436.306 175.525C431.205 163.275 420.021 153.345 414.382 141.539C392.268 95.2 450.923 114.522 477.223 111.09C487.53 133.476 505.343 152.94 509.059 178.099C497.705 183.616 482.419 203.296 470.773 205.04C468.189 205.427 458.014 205.521 456.345 204.55C453.705 203.013 445.925 183.587 440.276 181.409" fill="white"/>
<path d="M437.976 247.824L490.256 208.869L497.394 206.879L545.911 248.767C550.796 253.926 549.947 260.838 549.806 267.448L460.975 274.813C449.424 269.683 434.675 268.08 430.092 254.737L437.919 248.805" fill="white"/>
<path d="M99.0902 324.32L90.2732 346.858C89.2925 347.792 66.9906 357.043 65.312 357.259C58.4281 358.136 20.9817 348.093 14.2392 344.416C12.1269 343.265 11.3442 342.888 10.2503 340.549C9.02445 337.919 0.00938147 301.726 0.0848213 299.614L0.90523 296.87C7.93057 292.136 11.7214 287.289 20.0387 284.479C43.1044 276.69 74.0819 275.501 98.1378 269.372V310.581" fill="white"/>
<path d="M100.542 310.572C103.994 311.015 102.41 306.13 102.504 303.725C103.023 289.995 103.683 276.454 104.739 262.771L107.323 260.055C115.234 263.129 130.926 260.253 137.791 264.497C139.158 265.345 146.947 280.547 147.127 282.414L124.051 353.742L101.495 324.321" fill="white"/>
<path d="M226.659 108.459C221.388 107.572 211.411 83.2618 210.449 77.5755C208.846 68.1172 208.827 41.5152 212.137 33.1037C213.533 29.5769 230.111 4.01218 231.968 2.92773L288.114 8.7366L306.135 108.449H226.669L226.659 108.459Z" fill="white"/>
<path d="M194.456 471.277C185.309 446.41 184.564 425.872 184.3 400.166C184.262 396.394 178.953 383.05 185.592 381.438C206.677 384.333 228.347 384.069 248.829 390.425C267.642 396.271 273.394 404.051 284.173 419.837C287.671 424.967 299.534 439.366 293.169 443.723C268.358 460.697 224 467.279 194.456 471.277Z" fill="white"/>
<path d="M419.927 516.645C420.709 520.313 418.069 521.388 415.862 523.321C403.424 534.213 374.154 551.385 358.943 560.589C352.295 564.615 329.295 579.203 323.826 580.571C321.289 581.203 320.893 581.759 318.875 579.449C317.112 577.431 305.956 550.074 305.022 546.161C303.334 539.117 303.344 529.385 302.495 521.916C303.485 518.559 353.804 484.328 358.528 483.602C378.84 480.5 402.113 509.629 419.936 516.635L419.927 516.645Z" fill="white"/>
<path d="M588.676 12.3199L580.651 110.25C567.553 111.325 539.763 125.914 528.315 117.823C522.497 113.711 514.679 69.2676 514.151 60.3657C513.397 47.7107 512.85 43.2597 524.543 37.4603C544.544 27.5494 568.458 22.2686 588.667 12.3294L588.676 12.3199Z" fill="white"/>
<path d="M182.197 246.146L218.691 308.714C220.492 314.089 221.557 320.284 216.644 324.104C212.457 327.366 189.712 338.126 183.837 340.333C165.176 347.367 162.931 335.721 148.154 326.282C143.241 299.472 157.169 274.134 161.328 248.192L182.197 246.136V246.146Z" fill="white"/>
<path d="M588.686 493.051L519.073 491.061L500.449 476.388C500.449 474.201 522.761 457.981 526.448 455.35C532.822 450.805 574.069 423.307 577.822 424.401C579.831 424.986 580.397 427.475 580.783 429.361C584.857 449.447 584.546 472.711 588.695 493.051H588.686Z" fill="white"/>
<path d="M370.862 418.498C378.557 438.385 374.144 464.695 357.83 479.019C354.879 481.612 328.541 498.841 325.655 499.897C318.139 502.641 311.284 494.814 307.229 489.006C300.722 479.689 298.044 469.033 301.194 457.707L370.862 418.498Z" fill="white"/>
<path d="M584.791 241.893L545.779 156.636C548.354 150.431 546.534 143.255 547.892 137.324C550.381 126.413 570.26 125.753 578.841 120.218C588.261 137.748 585.668 153.685 586.743 172.205C587.809 190.471 589.714 208.68 588.723 227.258C588.516 231.18 588.799 240.403 584.791 241.874V241.893Z" fill="white"/>
<path d="M586.394 357.995L588.224 393.48C587.648 395.639 572.032 415.414 570.184 416.668C560.782 423.043 546.128 404.136 539.923 397.497C542.083 388.359 544.516 374.969 551.532 368.585C553.304 366.972 573.126 354.336 574.456 354.072C578.492 353.252 582.632 356.854 586.394 357.995Z" fill="white"/>
<path d="M586.715 4.47423C587.497 8.00105 585.668 8.34053 583.461 10.0285C578.426 13.8854 545.166 27.3042 538.66 28.0115C518.196 30.237 478.987 31.2082 484.682 0.523071L586.715 4.4648V4.47423Z" fill="white"/>
<path d="M545.44 177.231C547.854 195.922 557.02 210.632 551.334 230.039C546.892 229.068 540.696 232.576 537.094 231.756C534.84 231.246 503.325 206.351 500.581 203.456C498.799 201.58 496.253 198.798 496.781 196.054C497.092 194.469 513.482 178.137 515.509 177.533C523.279 175.223 536.849 178.269 545.44 177.222V177.231Z" fill="white"/>
<path d="M280.702 404.909L307.983 385.898C317.838 383.324 312.18 412.972 310.784 418.243C309.068 424.731 305.362 430.907 301.222 436.113L280.702 404.909Z" fill="white"/>
<path d="M488.615 118.294C507.833 115.503 527.504 126.687 537.698 142.774L529.88 156.608C527.589 158.984 526.57 156.806 524.854 155.618C513.18 147.499 499.695 128.328 488.615 118.294Z" fill="white"/>
</svg>
