<svg width="181" height="222" viewBox="0 0 181 222" fill="none" xmlns="http://www.w3.org/2000/svg">
<mask id="mask0_191_2377" style="mask-type:luminance" maskUnits="userSpaceOnUse" x="37" y="2" width="114" height="173">
<path d="M37.4823 14.0829L131.29 2.99023L150.282 163.594L56.4735 174.687L37.4823 14.0829Z" fill="white"/>
</mask>
<g mask="url(#mask0_191_2377)">
<path d="M85.2067 166.294C91.7724 168.787 100.236 169.996 107.138 168.603C110.484 167.93 113.534 166.748 116.607 165.362C118.309 164.593 119.89 163.838 121.461 162.848C128.435 158.438 134.326 153.554 138.658 146.442C140.202 143.911 141.568 141.405 142.602 138.623C145.244 131.531 145.944 124.137 144.673 116.628C143.861 111.821 142.54 107.348 141.139 102.682C139.805 98.2353 138.042 94.1468 136.202 89.9032C135.207 87.6093 134.31 85.4384 133.183 83.2401C132.056 81.0417 130.701 79.1229 129.399 77.0463L122.108 65.4256C119.038 60.5362 116.226 55.6837 112.833 50.984L98.2806 30.8114C97.0976 29.171 95.8185 27.7146 94.9887 25.8935L92.467 20.3712C91.1103 17.4045 89.9066 14.5209 88.7059 11.4853C88.2088 10.2352 87.4564 8.9269 86.1247 8.52041C83.5048 7.71913 81.178 12.1735 80.5332 14.2657L77.5288 24.0231L76.5766 27.0396L70.9191 43.7941C68.5409 50.8386 66.3736 57.7445 64.3525 64.8899L61.613 74.5739L59.0052 83.6279C57.7825 87.8801 56.1523 91.8186 54.4611 95.8821C53.6278 97.8745 53.3011 99.9165 53.0501 102.029L51.5509 114.408C51.089 118.225 50.9449 121.882 50.9691 125.718C50.9852 128.523 51.1757 131.131 51.9062 133.856C53.3206 139.126 55.6375 143.949 59.1295 148.174C63.0739 152.951 67.7618 156.791 72.9508 160.133C76.8646 162.659 80.8582 164.649 85.2077 166.302L85.2067 166.294ZM97.9685 164.204C94.3027 163.669 90.9135 162.769 87.4121 161.454C77.942 157.889 69.5856 152.674 63.3098 144.624C61.7723 142.655 60.5202 140.644 59.4579 138.388C55.6438 130.299 54.5411 125.316 55.0673 116.277C55.3634 111.2 56.445 106.43 57.836 101.573L60.1375 93.5232L62.7575 84.7161L65.4463 75.5642C66.9586 70.415 68.322 65.4306 70.0993 60.3511C71.663 55.886 73.1499 51.5899 74.4093 47.0429L76.0878 40.986L78.6514 33.7301L84.8352 17.1197C87.4947 22.4195 90.6571 27.1675 93.9923 31.8824L96.362 35.2301L101.146 41.8738L104.419 46.2804C108.899 52.3119 112.843 58.5794 116.867 64.9511C120.853 71.2557 124.358 77.655 127.823 84.2485L131.104 90.4976C134.607 97.1707 138.664 111.228 138.71 118.945C138.722 120.972 138.698 122.936 138.509 124.97C138.055 129.814 136.616 134.369 134.637 138.782C133.901 140.418 133.246 141.96 132.373 143.511C130.707 146.477 128.724 149.14 126.572 151.76C123.887 155.036 120.118 158.15 116.388 160.169C110.625 163.288 104.612 165.182 97.9824 164.215L97.9783 164.215L97.9685 164.204Z" fill="#79B1BD"/>
</g>
<path d="M58.9457 138.007C60.0346 140.31 61.3175 142.368 62.894 144.383C69.3211 152.608 77.8768 157.943 87.5787 161.581C91.1681 162.929 94.639 163.844 98.3949 164.393C105.187 165.383 111.347 163.447 117.249 160.257C121.07 158.193 124.932 155.01 127.684 151.658C129.888 148.978 131.923 146.254 133.626 143.22C134.516 141.637 135.192 140.059 135.946 138.388C137.976 133.876 139.453 129.219 139.916 124.265C140.112 122.188 140.135 120.178 140.126 118.104C140.081 110.214 135.928 95.8445 132.344 89.0253L128.983 82.6383C125.438 75.8986 121.849 69.3577 117.77 62.9084C113.646 56.3971 109.61 49.989 105.021 43.823L101.669 39.3205L96.7668 32.5308L94.3421 29.1097C90.9272 24.2906 87.6851 19.4384 84.9652 14.0194L78.6281 31.0057L76.0033 38.4203L74.2818 44.6128C72.9881 49.2606 71.4622 53.6539 69.8641 58.2199C68.0415 63.4142 66.6452 68.5119 65.0958 73.7749L62.3389 83.1327L59.6537 92.1369L57.294 100.37C55.8695 105.337 54.7583 110.211 54.4551 115.407C53.9151 124.65 55.0436 129.743 58.9503 138.01L58.9457 138.007Z" fill="#79B1BD"/>
<path d="M114.512 112.699C112.816 111.767 110.247 117.913 109.206 119.185C105.392 123.836 98.5483 127.713 92.5724 128.571C90.284 128.901 85.1912 128.114 83.8086 128.488C82.2428 128.913 82.5711 130.764 84.3215 131.189C93.1427 133.323 104.99 128.307 110.764 121.542C111.74 120.4 116.403 113.738 114.517 112.702L114.512 112.699Z" fill="black"/>
<path d="M15.6405 54.4172L14.2108 54.2496L13.5568 54.8404C11.2744 58.8518 17.2393 73.2765 19.5437 77.3895C26.7292 90.2137 49.5364 111.822 63.9552 115.096C64.9931 115.331 67.7522 116.099 68.5786 115.934C69.8987 115.672 69.8223 114.065 68.6648 113.423C67.1421 112.577 62.1662 111.961 59.9342 111.131C50.9878 107.795 34.61 92.8297 28.3769 85.2841C24.2463 80.2845 17.4547 69.7242 16.6999 63.3405L15.6447 54.4167L15.6405 54.4172Z" fill="black"/>
<path d="M8.0502 78.353L9.39306 78.6404C10.0935 78.406 10.5104 76.9847 11.1167 76.631C12.0103 76.1087 15.8807 76.1308 14.3904 73.9207C12.6152 71.294 5.75591 76.6042 8.0502 78.353Z" fill="black"/>
<path d="M13.0273 71.9313C14.0569 67.0074 5.81183 72.0227 6.57152 73.7847C7.3312 75.5467 11.9433 72.232 13.0273 71.9313Z" fill="black"/>
<path d="M12.1395 67.84C12.5055 67.1276 11.6697 65.7534 10.7759 65.5981C9.71903 65.4159 6.03619 65.8766 5.81893 67.207C5.37442 69.89 11.8039 68.49 12.1395 67.84Z" fill="black"/>
<path d="M9.85929 61.4769C8.26105 61.2367 6.32588 63.0942 8.13314 64.1768C10.6065 65.6604 12.4607 61.8722 9.85929 61.4769Z" fill="black"/>
<path d="M128.212 103.167L128.418 104.91C129.357 106.907 132.913 103.343 133.752 102.461C144.536 91.1608 152.096 61.2693 153.564 45.8224C153.734 44.0557 154.295 40.2185 154.088 38.7153C153.95 37.7299 152.826 37.1936 151.973 37.7784C151.07 38.3986 150.968 45.2919 150.758 47.0002C149.063 60.7903 145.481 74.9468 139.684 87.5721C137.027 93.3618 133.904 99.8674 128.209 103.171L128.212 103.167Z" fill="black"/>
<path d="M162.69 57.7185L162.459 55.7636C160.864 55.3755 154.034 55.4172 154.315 57.724C154.571 59.8486 161.332 58.5483 162.69 57.7185Z" fill="black"/>
<path d="M154.96 51.9998L155.296 53.635C156.015 54.4423 165.09 53.0999 162.015 50.2649L154.959 51.9956L154.96 51.9998Z" fill="black"/>
<path d="M154.562 48.6C155.377 49.5516 159.949 47.8494 160.629 46.8726C161.427 45.726 160.794 44.3531 159.353 44.7002C158.284 45.5884 152.697 46.4217 154.562 48.5959L154.562 48.6Z" fill="black"/>
<path d="M154.96 61.2208C153.737 63.0826 154.54 63.6105 156.496 63.5644C158.451 63.5184 162.95 63.5462 161.394 60.4601L154.96 61.2208Z" fill="black"/>
<path d="M75.7176 212.646C75.5533 212.644 74.1709 212.307 74.1959 212.199C82.2409 194.884 89.2269 176.053 85.2893 156.599C84.9751 155.046 84.2155 151.255 82.2001 152.933C81.1924 153.772 82.8641 157.623 83.0626 158.946C86.0023 178.467 78.6367 196.295 70.6455 213.565C70.1806 214.475 71.6337 215.658 72.277 215.582L94.2753 212.981C94.956 212.9 95.0287 210.775 93.9808 210.49C88.2443 210.596 81.2909 212.761 75.7181 212.65L75.7176 212.646Z" fill="black"/>
<path d="M133.987 201.652C137.734 188.103 137.307 173.924 133.613 160.367C133.01 158.158 130.09 149.16 128.844 147.804C128.096 146.992 127.319 147.046 126.529 147.796C125.466 148.81 127.085 150.369 127.502 151.406C133.348 165.815 135.424 179.071 132.834 194.537C132.533 196.332 130.531 203.323 130.971 204.265C131.439 205.266 133.228 204.701 134.063 204.534C140.37 203.275 149.372 200.569 155.594 198.558C159.016 197.451 158.582 195.204 155.401 195.749L133.986 201.648L133.987 201.652Z" fill="black"/>
<path d="M105.393 72.7764L103.373 82.9183L93.1045 84.1326C92.76 84.1733 92.6672 84.6346 92.9694 84.8051L101.993 89.8575L99.9721 99.9993C99.903 100.34 100.313 100.569 100.567 100.333L108.163 93.3154L117.186 98.3678C117.488 98.5383 117.834 98.2197 117.687 97.9046L113.357 88.5137L120.953 81.4961C121.207 81.2598 121.013 80.8324 120.665 80.8736L110.396 82.0879L106.066 72.6969C105.919 72.3818 105.454 72.4368 105.385 72.7774L105.393 72.7764Z" fill="white"/>
<path d="M79.1406 75.523L77.1203 85.6649L66.8516 86.8791C66.5071 86.9199 66.4144 87.3811 66.7165 87.5516L75.7397 92.6041L73.7193 102.746C73.6502 103.087 74.0603 103.316 74.3143 103.08L81.9102 96.062L90.9334 101.114C91.2355 101.285 91.5808 100.966 91.4341 100.651L87.1041 91.2602L94.7 84.2426C94.954 84.0064 94.7604 83.579 94.4117 83.6202L84.1431 84.8344L79.813 75.4435C79.6663 75.1284 79.2015 75.1833 79.1323 75.524L79.1406 75.523Z" fill="white"/>
<path d="M105.733 75.716L104.18 83.513L96.2855 84.4465C95.941 84.4872 95.8483 84.9485 96.1504 85.119L103.087 89.0041L101.534 96.8011C101.465 97.1418 101.875 97.3711 102.129 97.1348L107.968 91.7391L114.905 95.6241C115.207 95.7946 115.552 95.476 115.406 95.1609L112.077 87.941L117.916 82.5453C118.17 82.309 117.977 81.8816 117.628 81.9228L109.733 82.8563L106.405 75.6364C106.258 75.3213 105.793 75.3763 105.724 75.7169L105.733 75.716Z" fill="#FFC73E"/>
<path d="M79.5921 78.807L78.0394 86.6041L70.1449 87.5376C69.8004 87.5783 69.7076 88.0396 70.0098 88.2101L76.9463 92.0951L75.3936 99.8922C75.3245 100.233 75.7346 100.462 75.9886 100.226L81.8277 94.8301L88.7642 98.7152C89.0664 98.8857 89.4117 98.5671 89.265 98.2519L85.9365 91.0321L91.7756 85.6363C92.0297 85.4001 91.836 84.9726 91.4874 85.0139L83.5929 85.9474L80.2645 78.7275C80.1178 78.4124 79.6529 78.4673 79.5838 78.808L79.5921 78.807Z" fill="#FFC73E"/>
</svg>
