<svg width="102" height="126" viewBox="0 0 102 126" fill="none" xmlns="http://www.w3.org/2000/svg">
<mask id="mask0_202_2213" style="mask-type:luminance" maskUnits="userSpaceOnUse" x="20" y="1" width="65" height="98">
<path d="M20.6234 8.01052L73.5632 1.75049L84.2807 92.3859L31.3409 98.6459L20.6234 8.01052Z" fill="white"/>
</mask>
<g mask="url(#mask0_202_2213)">
<path d="M47.5562 93.9092C51.2616 95.3165 56.0378 95.9987 59.9327 95.2127C61.8211 94.8327 63.5426 94.1659 65.2766 93.3837C66.237 92.9495 67.1296 92.5234 68.016 91.9649C71.9517 89.4759 75.2763 86.7195 77.7208 82.7063C78.5922 81.2779 79.3631 79.8638 79.947 78.2937C81.4379 74.2911 81.8329 70.1188 81.1156 65.8809C80.6571 63.1681 79.912 60.6436 79.1209 58.0105C78.3681 55.5012 77.3733 53.1938 76.3348 50.799C75.7732 49.5045 75.2673 48.2793 74.6313 47.0387C73.9954 45.7981 73.2308 44.7152 72.4961 43.5433L68.3812 36.9853C66.6488 34.226 65.0614 31.4876 63.147 28.8353L54.9344 17.4511C54.2667 16.5253 53.5449 15.7034 53.0766 14.6757L51.6535 11.5592C50.8879 9.88504 50.2086 8.25766 49.531 6.54457C49.2504 5.83909 48.8259 5.10075 48.0743 4.87136C46.5958 4.41916 45.2827 6.93292 44.9188 8.11363L43.2233 13.6201L42.686 15.3225L39.4932 24.7777C38.1511 28.7532 36.928 32.6506 35.7873 36.683L34.2413 42.1481L32.7697 47.2576C32.0796 49.6573 31.1597 51.8799 30.2053 54.1731C29.735 55.2975 29.5506 56.4499 29.4089 57.6423L28.5629 64.6278C28.3022 66.782 28.2209 68.8461 28.2346 71.0106C28.2437 72.5937 28.3512 74.0655 28.7634 75.6033C29.5616 78.5775 30.8691 81.2992 32.8398 83.6836C35.0658 86.3797 37.7114 88.5465 40.6397 90.4329C42.8485 91.858 45.1022 92.9809 47.5568 93.9139L47.5562 93.9092ZM54.7583 92.7298C52.6895 92.4282 50.7769 91.9204 48.8008 91.1779C43.4565 89.1664 38.7406 86.2231 35.1989 81.6803C34.3312 80.5692 33.6246 79.4343 33.0252 78.1609C30.8727 73.5963 30.2504 70.7841 30.5474 65.6829C30.7145 62.8177 31.3248 60.1258 32.1099 57.3847L33.4086 52.8419L34.8873 47.8717L36.4047 42.7069C37.2581 39.801 38.0275 36.9881 39.0305 34.1215C39.913 31.6017 40.7521 29.1772 41.4628 26.6112L42.4101 23.193L43.8568 19.0982L47.3466 9.72426C48.8475 12.7152 50.6321 15.3947 52.5143 18.0555L53.8517 19.9447L56.5514 23.694L58.3988 26.1809C60.927 29.5847 63.1527 33.1217 65.4234 36.7175C67.6729 40.2754 69.6509 43.8869 71.6062 47.6078L73.4578 51.1344C75.4351 54.9003 77.7246 62.8333 77.7503 67.1886C77.7573 68.3325 77.7435 69.441 77.637 70.5889C77.3807 73.3221 76.5684 75.893 75.452 78.3835C75.0363 79.3067 74.6666 80.1769 74.1739 81.0522C73.2342 82.7262 72.1151 84.229 70.9004 85.7074C69.3852 87.5563 67.2583 89.3136 65.1533 90.4532C61.9009 92.213 58.5073 93.2817 54.7661 92.736L54.7638 92.7363L54.7583 92.7298Z" fill="#79B1BD"/>
</g>
<path d="M32.7364 77.9479C33.3509 79.2481 34.0748 80.4094 34.9646 81.5464C38.5916 86.1884 43.42 89.1991 48.8951 91.2522C50.9208 92.0126 52.8796 92.5291 54.9992 92.839C58.8322 93.3976 62.3084 92.3048 65.6392 90.5049C67.7959 89.3402 69.9751 87.5435 71.5281 85.6521C72.7719 84.1393 73.9202 82.6022 74.8815 80.8901C75.384 79.997 75.7655 79.1064 76.1908 78.163C77.3361 75.6169 78.1702 72.9887 78.431 70.1933C78.5418 69.0211 78.5549 67.8866 78.5495 66.7163C78.5241 62.2636 76.1805 54.1542 74.1579 50.3058L72.2615 46.7014C70.2608 42.8979 68.2353 39.2066 65.9334 35.567C63.6059 31.8924 61.328 28.276 58.7386 24.7963L56.8468 22.2554L54.0803 18.4237L52.712 16.493C50.7848 13.7734 48.9552 11.0351 47.4203 7.97691L43.8439 17.563L42.3626 21.7474L41.3912 25.242C40.6611 27.865 39.7999 30.3443 38.8981 32.9211C37.8695 35.8524 37.0815 38.7293 36.2072 41.6994L34.6513 46.9804L33.1359 52.0618L31.8042 56.7082C31.0004 59.5109 30.3732 62.2619 30.2022 65.194C29.8974 70.4101 30.5342 73.2847 32.739 77.95L32.7364 77.9479Z" fill="#79B1BD"/>
<path d="M64.6467 63.7928C63.6891 63.2671 62.2395 66.7352 61.6522 67.453C59.4996 70.0779 55.6375 72.2661 52.2651 72.7503C50.9737 72.9363 48.0995 72.4924 47.3193 72.7034C46.4356 72.9433 46.6209 73.9878 47.6088 74.2272C52.587 75.4318 59.2731 72.601 62.5316 68.7836C63.0824 68.1389 65.7136 64.3791 64.6493 63.7948L64.6467 63.7928Z" fill="black"/>
<path d="M53.5659 51.1924C53.5466 54.0614 55.955 55.5889 58.8057 55.2518C61.6564 54.9147 63.6321 52.1801 63.4127 49.3202C63.217 46.7616 62.1706 45.6859 59.3461 46.1838C56.3377 46.7129 53.5792 49.3762 53.5683 51.1921L53.5659 51.1924Z" fill="white"/>
<path d="M40.1706 54.6099C40.1521 57.3458 42.7472 59.1053 45.4643 58.784C48.1815 58.4627 50.5861 54.8556 50.3778 52.1299C50.1913 49.6889 49.0707 48.2063 46.4995 49.1398C43.5867 50.1967 40.1845 52.8792 40.1733 54.612L40.1706 54.6099Z" fill="white"/>
<path d="M46.9432 50.6617C46.0368 50.7095 43.5714 52.4166 42.8875 53.1008C40.4359 55.5473 43.1663 57.7682 46.1666 56.7484C49.1669 55.7285 49.9404 50.4997 46.9455 50.6615L46.9432 50.6617Z" fill="black"/>
<path d="M60.0596 47.7382C58.9106 47.6223 55.7818 49.3033 55.4382 50.3747C54.4532 53.453 59.2887 55.0378 61.164 51.916C61.9657 50.5814 61.9059 47.926 60.0596 47.7382Z" fill="black"/>
<path d="M8.85161 30.9021L8.04476 30.8075L7.67566 31.1409C6.38765 33.4047 9.75387 41.5452 11.0544 43.8663C15.1095 51.1035 27.9805 63.2978 36.1176 65.1454C36.7033 65.278 38.2604 65.7115 38.7267 65.6183C39.4717 65.4708 39.4286 64.5639 38.7754 64.2017C37.9161 63.7238 35.108 63.3766 33.8484 62.908C28.7996 61.0254 19.5569 52.5799 16.0393 48.3216C13.7082 45.5001 9.87546 39.5405 9.44946 35.9379L8.85395 30.9018L8.85161 30.9021Z" fill="black"/>
<path d="M4.56578 44.4102L5.32361 44.5723C5.71886 44.4401 5.95416 43.638 6.29632 43.4384C6.80062 43.1436 8.98483 43.1561 8.14381 41.9089C7.14198 40.4265 3.27101 43.4232 4.56578 44.4102Z" fill="black"/>
<path d="M7.37452 40.7862C7.95561 38.0075 3.30254 40.8378 3.73126 41.8321C4.15998 42.8265 6.7628 40.9559 7.37452 40.7862Z" fill="black"/>
<path d="M6.87349 38.4775C7.08008 38.0755 6.60837 37.2999 6.10398 37.2123C5.50754 37.1095 3.42918 37.3695 3.30658 38.1203C3.05572 39.6344 6.6841 38.8443 6.87349 38.4775Z" fill="black"/>
<path d="M5.5867 34.8867C4.68475 34.7511 3.59265 35.7994 4.61256 36.4103C6.00838 37.2476 7.05477 35.1098 5.5867 34.8867Z" fill="black"/>
<path d="M72.3805 58.4132L72.4968 59.397C73.0267 60.5243 75.0334 58.5128 75.5065 58.0151C81.5928 51.6379 85.8588 34.7689 86.6877 26.0515C86.7836 25.0545 87.1 22.889 86.983 22.0407C86.9054 21.4846 86.2711 21.182 85.7899 21.512C85.2803 21.862 85.2225 25.7522 85.1038 26.7162C84.1477 34.4986 82.1258 42.4876 78.8547 49.6126C77.3552 52.88 75.5923 56.5514 72.3784 58.4158L72.3805 58.4132Z" fill="black"/>
<path d="M91.8376 32.765L91.7071 31.6617C90.8072 31.4427 86.9528 31.4662 87.1115 32.768C87.2556 33.9671 91.0712 33.2332 91.8376 32.765Z" fill="black"/>
<path d="M87.4753 29.5373L87.6651 30.4602C88.0705 30.9157 93.1919 30.1581 91.4566 28.5583L87.475 29.535L87.4753 29.5373Z" fill="black"/>
<path d="M87.2484 27.6193C87.7085 28.1563 90.2883 27.1957 90.672 26.6444C91.1228 25.9973 90.7652 25.2226 89.9523 25.4185C89.3489 25.9197 86.1957 26.3899 87.2481 27.6169L87.2484 27.6193Z" fill="black"/>
<path d="M87.4731 34.7417C86.7827 35.7923 87.2359 36.0903 88.3397 36.0643C89.4434 36.0382 91.9819 36.054 91.1038 34.3123L87.4731 34.7417Z" fill="black"/>
<path d="M42.7532 120.197C42.6605 120.196 41.8803 120.006 41.8945 119.945C46.4346 110.174 50.3771 99.5468 48.155 88.5681C47.9777 87.6913 47.5489 85.5521 46.4116 86.4989C45.8429 86.9723 46.7863 89.1456 46.8984 89.8924C48.5573 100.909 44.4006 110.97 39.8908 120.716C39.6285 121.23 40.4485 121.897 40.8116 121.854L53.2261 120.386C53.6103 120.341 53.6513 119.141 53.0599 118.981C49.8226 119.041 45.8985 120.262 42.7535 120.2L42.7532 120.197Z" fill="black"/>
<path d="M75.637 113.993C77.7516 106.347 77.5108 98.3449 75.4257 90.6942C75.0859 89.4471 73.438 84.3692 72.7348 83.6044C72.3124 83.1461 71.8743 83.1765 71.4279 83.5998C70.8282 84.1719 71.7421 85.0519 71.9776 85.6368C75.2763 93.7686 76.4482 101.249 74.9864 109.977C74.8164 110.99 73.6869 114.936 73.935 115.467C74.1989 116.032 75.2087 115.713 75.6797 115.619C79.2391 114.909 84.3194 113.382 87.831 112.247C89.7617 111.622 89.5168 110.354 87.7219 110.661L75.6367 113.991L75.637 113.993Z" fill="black"/>
</svg>
