<svg width="125" height="221" viewBox="0 0 125 221" fill="none" xmlns="http://www.w3.org/2000/svg">
<g clip-path="url(#clip0_191_2493)">
<path d="M62.4894 220.773C28.0704 220.799 0.162162 212.699 0.154521 202.681C0.14688 192.663 28.0427 184.521 62.4617 184.495C96.8806 184.468 124.789 192.568 124.797 202.586C124.804 212.604 96.9083 220.747 62.4894 220.773Z" fill="#79B1BD"/>
<mask id="mask0_191_2493" style="mask-type:luminance" maskUnits="userSpaceOnUse" x="16" y="0" width="95" height="162">
<path d="M16.0201 0.0827942L110.482 0.0107422L110.605 161.734L16.1435 161.806L16.0201 0.0827942Z" fill="white"/>
</mask>
<g mask="url(#mask0_191_2493)">
<path d="M45.6598 156.822C51.8898 160.065 60.1544 162.253 67.1714 161.675C70.5733 161.396 73.7407 160.579 76.954 159.561C78.7341 158.995 80.3929 158.43 82.0683 157.63C89.5093 154.064 95.9301 149.9 101.062 143.343C102.891 141.009 104.54 138.68 105.892 136.037C109.343 129.301 110.901 122.04 110.515 114.434C110.269 109.565 109.479 104.968 108.631 100.171C107.825 95.5988 106.552 91.3324 105.219 86.9032C104.498 84.5088 103.861 82.2482 102.999 79.9334C102.136 77.6186 101.014 75.5547 99.9635 73.3404L94.0776 60.9484C91.5993 55.7342 89.3719 50.5867 86.551 45.5233L74.4514 23.7906C73.4679 22.0234 72.3674 20.4276 71.7558 18.5222L69.8957 12.7434C68.8944 9.63873 68.0353 6.6343 67.197 3.47939C66.8491 2.17983 66.2545 0.792673 64.9793 0.233588C62.4708 -0.867896 59.6402 3.28454 58.7557 5.28721L54.6334 14.6274L53.3358 17.5123L45.7621 33.4923C42.5783 40.2112 39.62 46.8171 36.779 53.6779L32.9284 62.9761L29.2821 71.664C27.5716 75.7445 25.493 79.4659 23.3393 83.3043C22.2792 85.1859 21.7164 87.1758 21.2206 89.2451L18.2875 101.364C17.3834 105.101 16.8136 108.717 16.3902 112.529C16.0788 115.317 15.9638 117.929 16.3713 120.721C17.1612 126.12 18.8996 131.18 21.8747 135.784C25.2348 140.989 29.4428 145.349 34.2063 149.274C37.7988 152.239 41.5329 154.681 45.6598 156.83L45.6598 156.822ZM58.5741 156.24C54.9957 155.281 51.7347 153.992 48.4106 152.277C39.4211 147.632 31.7302 141.477 26.4364 132.75C25.1392 130.615 24.1303 128.472 23.3385 126.107C20.4942 117.629 19.9804 112.551 21.5576 103.635C22.444 98.6272 24.0747 94.0159 26.023 89.3543L29.2479 81.628L32.8777 73.1868L36.6158 64.4111C38.7185 59.4734 40.6542 54.6822 43.0119 49.8447C45.0859 45.5925 47.0639 41.4993 48.8452 37.1303L51.2189 31.3106L54.6116 24.4034L62.6912 8.62784C64.7141 14.2018 67.301 19.2863 70.0633 24.3582L72.0263 27.9594L76.0023 35.1159L78.7394 39.8743C82.485 46.3874 85.6707 53.0722 88.9234 59.8698C92.1468 66.5964 94.8812 73.361 97.553 80.3137L100.082 86.9029C102.784 93.9392 105.173 108.373 104.318 116.044C104.094 118.058 103.84 120.006 103.415 122.004C102.399 126.761 100.438 131.118 97.9586 135.27C97.0361 136.809 96.2054 138.264 95.1575 139.703C93.1576 142.454 90.8774 144.868 88.4342 147.218C85.3853 150.159 81.2789 152.812 77.3388 154.382C71.251 156.807 65.0579 157.986 58.5866 156.252L58.5825 156.252L58.5741 156.24Z" fill="#79B1BD"/>
</g>
<path d="M22.8784 125.668C23.6911 128.084 24.7251 130.277 26.0559 132.462C31.4794 141.381 39.3542 147.678 48.5654 152.423C51.973 154.18 55.3135 155.494 58.9797 156.478C65.6098 158.253 71.9534 157.049 78.1874 154.57C82.2236 152.966 86.4303 150.254 89.5543 147.247C92.056 144.842 94.3947 142.374 96.4405 139.559C97.5093 138.092 98.365 136.603 99.3084 135.031C101.85 130.787 103.862 126.334 104.899 121.468C105.336 119.428 105.594 117.434 105.826 115.374C106.702 107.532 104.254 92.7761 101.49 85.5853L98.8977 78.8498C96.1631 71.7425 93.3617 64.8275 90.063 57.9464C86.7266 50.9983 83.4655 44.1631 79.6278 37.5039L76.8238 32.641L72.7473 25.3258L70.7384 21.6451C67.909 16.4605 65.2552 11.2632 63.1862 5.56385L54.9105 21.6948L51.4385 28.7525L49.0064 34.7018C47.1791 39.167 45.1511 43.3522 43.0312 47.7006C40.615 52.6468 38.6335 57.5467 36.4807 62.5931L32.6507 71.5653L28.9333 80.1947L25.6292 88.0965C23.635 92.8627 21.9626 97.5743 21.0554 102.699C19.4407 111.816 19.9671 117.006 22.8826 125.673L22.8784 125.668Z" fill="#79B1BD"/>
<path d="M31.0625 203.142C30.8995 203.122 29.5659 202.625 29.6034 202.521C39.6135 186.263 48.7489 168.376 47.1079 148.596C46.9772 147.016 46.6649 143.162 44.4676 144.594C43.3689 145.309 44.5799 149.329 44.6227 150.666C45.2647 170.397 35.8694 187.244 25.9178 203.464C25.35 204.313 26.655 205.658 27.3029 205.657L49.4544 205.64C50.1398 205.64 50.46 203.537 49.4525 203.132C43.7428 202.568 36.5843 203.907 31.0625 203.146L31.0625 203.142Z" fill="black"/>
<path d="M90.2165 199.022C95.5188 186.003 96.7493 171.871 94.6615 157.976C94.3212 155.711 92.471 146.434 91.3915 144.942C90.743 144.048 89.9656 144.011 89.0926 144.664C87.9188 145.547 89.3453 147.284 89.6387 148.362C93.7628 163.355 94.2788 176.763 89.9017 191.821C89.3932 193.568 86.5896 200.279 86.9164 201.265C87.2641 202.314 89.107 201.961 89.9554 201.894C96.3664 201.379 105.623 199.742 112.037 198.471C115.564 197.77 115.396 195.488 112.173 195.658L90.2165 199.018L90.2165 199.022Z" fill="black"/>
<path d="M21.6717 105.206C14.6634 117.295 14.8833 131.588 16.0137 145.083C17.1441 158.578 17.8322 172.926 28.2295 182.121C29.6431 183.37 27.5675 185.436 26.1622 184.192C15.3508 174.633 14.3152 159.337 13.1555 145.909C11.9242 131.62 11.7205 116.532 19.1419 103.729C20.0852 102.102 22.615 103.571 21.6675 105.202L21.6717 105.206Z" fill="black"/>
<path d="M19.4833 189.672L20.8289 189.408C21.3761 188.914 21.1994 187.447 21.6169 186.879C22.2307 186.042 25.7947 184.535 23.5492 183.095C20.8813 181.383 16.6825 188.972 19.4791 189.672L19.4833 189.672Z" fill="black"/>
<path d="M21.5127 181.805C20.5101 176.878 14.9197 184.744 16.3166 186.059C17.7513 187.412 20.6356 182.508 21.5127 181.805Z" fill="black"/>
<path d="M19.0818 178.4C19.1355 177.602 17.8225 176.667 16.9449 176.881C15.9002 177.132 12.7043 179.011 13.0271 180.319C13.6812 182.956 19.0322 179.132 19.0818 178.4Z" fill="black"/>
<path d="M14.468 173.455C12.9052 173.866 11.8622 176.337 13.9522 176.619C16.8113 177.002 17.017 172.789 14.468 173.455Z" fill="black"/>
<path d="M102.019 100.121C111.348 111.14 113.963 125.503 115.298 139.47C116.634 153.437 118.481 169.092 109.178 180.848C108.009 182.324 105.951 180.244 107.107 178.78C115.788 167.807 113.607 152.398 112.373 139.472C111.121 126.362 108.724 112.555 99.952 102.192C98.7431 100.763 100.802 98.6803 102.019 100.121Z" fill="black"/>
<path d="M100.248 178.259L101.386 179.032C102.121 179.077 103.044 177.919 103.742 177.818C104.77 177.671 108.345 179.152 107.795 176.54C107.141 173.439 98.7877 175.773 100.252 178.255L100.248 178.259Z" fill="black"/>
<path d="M109.511 173.997C112.204 169.749 102.722 171.545 102.815 173.463C102.908 175.382 108.391 173.898 109.511 173.997Z" fill="black"/>
<path d="M111.092 170.055C111.543 169.39 110.873 167.923 110.008 167.669C108.979 167.365 105.268 167.38 104.889 168.676C104.126 171.285 110.679 170.665 111.092 170.059L111.092 170.055Z" fill="black"/>
<path d="M110.427 163.782C108.818 163.912 107.361 166.166 109.368 166.804C112.118 167.68 113.052 163.567 110.427 163.782Z" fill="black"/>
<path d="M44.9602 121.965C46.1108 123.523 51.0225 119.027 52.5015 118.311C57.9162 115.69 65.7565 115.049 71.5423 116.783C73.758 117.446 78.0483 120.302 79.4612 120.543C81.058 120.818 81.5414 118.999 80.1279 117.88C73.0184 112.239 60.1618 111.814 52.0814 115.523C50.7152 116.151 43.6883 120.236 44.9644 121.969L44.9602 121.965Z" fill="black"/>
<path d="M66.2676 83.6812C65.6403 88.7264 69.5631 91.9124 74.6496 91.9085C79.7361 91.9046 83.7786 87.5005 83.9837 82.4222C84.1683 77.8789 82.5492 75.7695 77.4755 76.0617C72.0716 76.371 66.6664 80.4877 66.2718 83.6812L66.2676 83.6812Z" fill="white"/>
<path d="M41.987 86.9263C41.3888 91.7374 45.592 95.3703 50.4402 95.3666C55.2885 95.3629 60.266 89.512 60.463 84.6719C60.6394 80.3376 58.9738 77.4968 54.2559 78.608C48.9112 79.8659 42.3692 83.8833 41.9912 86.9304L41.987 86.9263Z" fill="white"/>
<path d="M54.722 81.3787C53.1169 81.2754 48.4252 83.77 47.0802 84.8326C42.2599 88.6313 46.6059 93.1043 52.0969 91.9298C57.4166 90.789 60.0302 81.7132 54.7261 81.3787L54.722 81.3787Z" fill="black"/>
<path d="M78.4097 78.9407C76.4115 78.4992 70.5578 80.8108 69.7316 82.6253C67.3616 87.839 75.5439 91.6278 79.4896 86.5216C81.1765 84.3386 81.6201 79.653 78.4097 78.9407Z" fill="black"/>
<path d="M79.6933 106.951C80.3915 107.314 81.3196 107.56 82.1053 107.497C82.4856 107.467 82.8408 107.375 83.2001 107.258C83.4007 107.195 83.5846 107.132 83.7726 107.04C84.6082 106.642 85.3267 106.173 85.9029 105.437C86.1075 105.174 86.2912 104.915 86.4456 104.618C86.8337 103.861 87.0087 103.05 86.962 102.197C86.9324 101.65 86.8442 101.136 86.7518 100.597C86.6637 100.083 86.517 99.6065 86.3704 99.1092C86.2907 98.8418 86.2195 98.5869 86.1232 98.3279C86.0268 98.0688 85.9013 97.839 85.7841 97.5883L85.1226 96.1971C84.8463 95.6121 84.5951 95.0356 84.2771 94.4674L82.921 92.0317C82.8122 91.8354 82.6867 91.6558 82.6197 91.4427L82.4102 90.795C82.2971 90.4482 82.2007 90.1097 82.1085 89.7545C82.0707 89.6083 82.0037 89.4537 81.8616 89.3911C81.5815 89.2659 81.2642 89.7343 81.164 89.9559L80.7009 91.0011L80.5549 91.323L79.7078 93.1125C79.3489 93.8651 79.0193 94.6051 78.7022 95.3744L78.2725 96.4154L77.8637 97.3896C77.6718 97.8453 77.4381 98.2634 77.196 98.6941C77.0791 98.9032 77.0124 99.1289 76.9582 99.3588L76.6291 100.717C76.5291 101.135 76.4625 101.541 76.4169 101.967C76.3837 102.281 76.3672 102.573 76.4176 102.887C76.5058 103.493 76.7027 104.061 77.0333 104.575C77.4099 105.16 77.8825 105.648 78.4137 106.087C78.8152 106.421 79.2333 106.692 79.6974 106.934L79.6933 106.951ZM81.1393 106.883C80.738 106.775 80.3743 106.633 80.0022 106.437C78.9945 105.915 78.133 105.226 77.5387 104.248C77.3923 104.01 77.2792 103.768 77.1913 103.505C76.8729 102.556 76.814 101.984 76.9929 100.985C77.0928 100.425 77.2763 99.9061 77.4932 99.3835L77.8562 98.5181L78.2651 97.5732L78.6823 96.5907C78.9159 96.0388 79.1328 95.4995 79.3999 94.9559C79.6336 94.4793 79.8548 94.0194 80.055 93.5302L80.322 92.878L80.7017 92.1045L81.6074 90.3359C81.8335 90.9626 82.1224 91.5308 82.4321 92.099L82.6539 92.5042L83.1017 93.3064L83.4072 93.8411C83.8257 94.5722 84.1858 95.3201 84.55 96.0847C84.91 96.8367 85.2198 97.5971 85.5172 98.3743L85.8019 99.1139C86.1035 99.9036 86.3722 101.521 86.2767 102.382C86.2518 102.608 86.2227 102.825 86.1769 103.051C86.0645 103.586 85.8433 104.071 85.5637 104.539C85.4593 104.711 85.3675 104.874 85.2506 105.037C85.0251 105.346 84.7704 105.614 84.4989 105.877C84.1564 106.208 83.6969 106.505 83.254 106.681C82.573 106.953 81.8751 107.083 81.1519 106.891L81.1393 106.883Z" fill="black"/>
<path d="M77.1411 103.455C77.2332 103.726 77.3463 103.973 77.4969 104.215C78.1037 105.214 78.9861 105.919 80.0189 106.453C80.3994 106.65 80.7756 106.796 81.1853 106.908C81.9294 107.108 82.6399 106.974 83.3376 106.693C83.7889 106.513 84.2609 106.208 84.6118 105.873C84.8916 105.605 85.1547 105.325 85.3843 105.012C85.5054 104.848 85.6014 104.681 85.7058 104.506C85.9896 104.029 86.2149 103.531 86.3315 102.984C86.3815 102.754 86.4106 102.532 86.4355 102.302C86.5351 101.425 86.258 99.7698 85.9481 98.9634L85.6592 98.2071C85.3534 97.409 85.0394 96.6361 84.6668 95.8631C84.2942 95.086 83.9259 94.3173 83.499 93.5695L83.1851 93.0264L82.7289 92.2075L82.5029 91.7939C82.1848 91.2132 81.8876 90.6283 81.6572 89.989L80.7308 91.7953L80.3427 92.5855L80.0715 93.2544C79.8671 93.7561 79.6376 94.2244 79.3997 94.7094C79.1285 95.2655 78.9074 95.8132 78.6654 96.3776L78.2357 97.3852L77.8185 98.351L77.4472 99.2374C77.2219 99.7725 77.0384 100.299 76.9343 100.876C76.7554 101.896 76.8143 102.481 77.1369 103.451L77.1411 103.455Z" fill="#79B1BD"/>
<path d="M48.9643 111.029C49.6625 111.392 50.5906 111.638 51.3763 111.574C51.7566 111.545 52.1118 111.453 52.4711 111.335C52.6717 111.272 52.8556 111.21 53.0436 111.117C53.8792 110.72 54.5977 110.251 55.1739 109.515C55.3785 109.252 55.5622 108.992 55.7166 108.695C56.1047 107.939 56.2797 107.128 56.233 106.275C56.2034 105.728 56.1152 105.214 56.0228 104.675C55.9347 104.16 55.788 103.684 55.6414 103.187C55.5617 102.919 55.4905 102.665 55.3942 102.405C55.2978 102.146 55.1723 101.917 55.0551 101.666L54.3936 100.275C54.1173 99.6898 53.8661 99.1132 53.5481 98.545L52.192 96.1094C52.0832 95.913 51.9577 95.7334 51.8906 95.5203L51.6812 94.8726C51.5681 94.5258 51.4717 94.1873 51.3795 93.8322C51.3417 93.6859 51.2747 93.5313 51.1326 93.4687C50.8525 93.3436 50.5352 93.8119 50.435 94.0335L49.9719 95.0787L49.8259 95.4007L48.9788 97.1902C48.6199 97.9427 48.2903 98.6828 47.9732 99.452L47.5435 100.493L47.1347 101.467C46.9428 101.923 46.709 102.341 46.467 102.772C46.3501 102.981 46.2834 103.207 46.2292 103.436L45.9001 104.795C45.8001 105.213 45.7335 105.619 45.6879 106.045C45.6547 106.358 45.6382 106.651 45.6886 106.964C45.7768 107.57 45.9737 108.139 46.3043 108.652C46.6809 109.237 47.1535 109.726 47.6847 110.164C48.0862 110.498 48.5043 110.77 48.9684 111.012L48.9643 111.029ZM50.4103 110.961C50.009 110.852 49.6453 110.71 49.2732 110.514C48.2655 109.993 47.404 109.304 46.8097 108.326C46.6633 108.088 46.5502 107.846 46.4623 107.582C46.1439 106.634 46.085 106.061 46.2639 105.062C46.3638 104.502 46.5473 103.984 46.7642 103.461L47.1272 102.596L47.5361 101.651L47.9533 100.668C48.1869 100.116 48.4038 99.5771 48.6709 99.0336C48.9046 98.5569 49.1258 98.097 49.326 97.6078L49.593 96.9556L49.9727 96.1821L50.8784 94.4135C51.1045 95.0402 51.3933 95.6084 51.7031 96.1766L51.9249 96.5819L52.3727 97.384L52.6782 97.9187C53.0967 98.6498 53.4567 99.3977 53.821 100.162C54.181 100.914 54.4908 101.675 54.7882 102.452L55.0729 103.191C55.3745 103.981 55.6432 105.598 55.5477 106.46C55.5228 106.685 55.4937 106.903 55.4479 107.128C55.3355 107.663 55.1143 108.148 54.8347 108.617C54.7303 108.788 54.6385 108.951 54.5216 109.114C54.2961 109.424 54.0414 109.691 53.7699 109.955C53.4274 110.285 52.9679 110.583 52.525 110.758C51.844 111.031 51.1461 111.161 50.4229 110.969L50.4103 110.961Z" fill="black"/>
<path d="M46.4079 107.537C46.5001 107.808 46.6131 108.055 46.7637 108.297C47.3705 109.295 48.253 110.001 49.2857 110.535C49.6662 110.731 50.0425 110.877 50.4521 110.99C51.1962 111.19 51.9067 111.056 52.6044 110.775C53.0557 110.595 53.5277 110.29 53.8786 109.955C54.1584 109.687 54.4215 109.407 54.6511 109.093C54.7722 108.93 54.8682 108.763 54.9726 108.587C55.2564 108.111 55.4817 107.613 55.5983 107.066C55.6483 106.836 55.6774 106.614 55.7023 106.384C55.8019 105.506 55.5248 103.852 55.2149 103.045L54.926 102.289C54.6202 101.491 54.3062 100.718 53.9336 99.9449C53.5611 99.1678 53.1927 98.3991 52.7658 97.6512L52.4519 97.1082L51.9957 96.2893L51.7697 95.8757C51.4516 95.295 51.1544 94.7101 50.9241 94.0708L49.9976 95.8771L49.6095 96.6673L49.3383 97.3362C49.1339 97.8379 48.9044 98.3062 48.6665 98.7912C48.3953 99.3473 48.1742 99.895 47.9322 100.459L47.5025 101.467L47.0853 102.433L46.714 103.319C46.4887 103.854 46.3052 104.381 46.2011 104.958C46.0222 105.978 46.0812 106.563 46.4037 107.532L46.4079 107.537Z" fill="#79B1BD"/>
<path d="M44.4453 131.788C45.1435 132.151 46.0716 132.397 46.8573 132.333C47.2376 132.304 47.5928 132.212 47.9521 132.094C48.1527 132.031 48.3366 131.969 48.5246 131.876C49.3602 131.479 50.0787 131.01 50.6549 130.274C50.8595 130.011 51.0432 129.751 51.1976 129.454C51.5857 128.698 51.7607 127.887 51.714 127.034C51.6844 126.487 51.5962 125.973 51.5038 125.434C51.4157 124.92 51.269 124.443 51.1224 123.946C51.0428 123.678 50.9715 123.424 50.8752 123.165C50.7789 122.905 50.6533 122.676 50.5361 122.425L49.8747 121.034C49.5984 120.449 49.3471 119.872 49.0291 119.304L47.673 116.868C47.5642 116.672 47.4387 116.492 47.3717 116.279L47.1622 115.632C47.0491 115.285 46.9527 114.946 46.8605 114.591C46.8227 114.445 46.7558 114.29 46.6136 114.228C46.3335 114.103 46.0162 114.571 45.9161 114.793L45.4529 115.838L45.3069 116.16L44.4598 117.949C44.1009 118.702 43.7713 119.442 43.4543 120.211L43.0246 121.252L42.6157 122.226C42.4238 122.682 42.1901 123.1 41.948 123.531C41.8311 123.74 41.7644 123.966 41.7103 124.196L41.3811 125.554C41.2811 125.972 41.2146 126.378 41.1689 126.804C41.1357 127.117 41.1192 127.41 41.1696 127.723C41.2578 128.329 41.4547 128.898 41.7853 129.412C42.1619 129.996 42.6346 130.485 43.1657 130.923C43.5672 131.258 43.9853 131.529 44.4494 131.771L44.4453 131.788ZM45.8955 131.72C45.4942 131.611 45.1305 131.469 44.7584 131.273C43.7507 130.752 42.8892 130.063 42.2949 129.085C42.1485 128.847 42.0354 128.605 41.9475 128.341C41.6291 127.393 41.5702 126.82 41.7491 125.821C41.849 125.261 42.0325 124.743 42.2494 124.22L42.6124 123.355L43.0213 122.41L43.4385 121.427C43.6721 120.875 43.889 120.336 44.1561 119.793C44.3898 119.316 44.611 118.856 44.8112 118.367L45.0782 117.715L45.4579 116.941L46.3636 115.173C46.5897 115.799 46.8785 116.367 47.1883 116.936L47.4101 117.341L47.8579 118.143L48.1634 118.678C48.5819 119.409 48.9419 120.157 49.3062 120.921C49.6662 121.673 49.976 122.434 50.2734 123.211L50.5581 123.951C50.8597 124.74 51.1284 126.358 51.0329 127.219C51.008 127.444 50.9789 127.662 50.9331 127.887C50.8207 128.422 50.5995 128.907 50.3199 129.376C50.2155 129.547 50.1237 129.71 50.0068 129.873C49.7813 130.183 49.5266 130.45 49.2551 130.714C48.9126 131.044 48.4531 131.342 48.0102 131.517C47.3292 131.79 46.6313 131.92 45.9081 131.728L45.8955 131.72Z" fill="black"/>
<path d="M41.8931 128.296C41.9853 128.567 42.0983 128.814 42.2489 129.056C42.8557 130.054 43.7382 130.76 44.7709 131.294C45.1514 131.49 45.5277 131.636 45.9373 131.749C46.6814 131.949 47.3919 131.815 48.0896 131.534C48.5409 131.354 49.0129 131.049 49.3638 130.714C49.6436 130.446 49.9067 130.166 50.1363 129.852C50.2574 129.689 50.3534 129.522 50.4578 129.346C50.7416 128.87 50.9669 128.372 51.0835 127.825C51.1335 127.595 51.1626 127.373 51.1875 127.143C51.2871 126.265 51.01 124.611 50.7001 123.804L50.4112 123.048C50.1054 122.25 49.7914 121.477 49.4188 120.704C49.0463 119.927 48.6779 119.158 48.251 118.41L47.9371 117.867L47.4809 117.048L47.2549 116.635C46.9368 116.054 46.6396 115.469 46.4093 114.83L45.4828 116.636L45.0947 117.426L44.8235 118.095C44.6191 118.597 44.3896 119.065 44.1517 119.55C43.8805 120.106 43.6594 120.654 43.4174 121.218L42.9877 122.226L42.5705 123.192L42.1992 124.078C41.9739 124.613 41.7904 125.14 41.6863 125.717C41.5074 126.737 41.5664 127.322 41.8889 128.291L41.8931 128.296Z" fill="#79B1BD"/>
<path d="M82.5754 132.093C83.2737 132.456 84.2017 132.702 84.9874 132.638C85.3677 132.609 85.7229 132.517 86.0823 132.399C86.2828 132.337 86.4667 132.274 86.6547 132.182C87.4903 131.784 88.2088 131.315 88.785 130.579C88.9896 130.316 89.1733 130.057 89.3278 129.76C89.7159 129.003 89.8908 128.192 89.8442 127.339C89.8145 126.792 89.7263 126.278 89.634 125.739C89.5458 125.225 89.3992 124.748 89.2525 124.251C89.1729 123.984 89.1016 123.729 89.0053 123.47C88.909 123.211 88.7834 122.981 88.6662 122.73L88.0048 121.339C87.7285 120.754 87.4773 120.177 87.1592 119.609L85.8032 117.174C85.6944 116.977 85.5688 116.798 85.5018 116.585L85.2923 115.937C85.1792 115.59 85.0828 115.252 84.9906 114.896C84.9529 114.75 84.8859 114.596 84.7437 114.533C84.4636 114.408 84.1463 114.876 84.0462 115.098L83.5831 116.143L83.437 116.465L82.5899 118.254C82.2311 119.007 81.9014 119.747 81.5844 120.516L81.1547 121.557L80.7458 122.531C80.5539 122.987 80.3202 123.405 80.0781 123.836C79.9612 124.045 79.8945 124.271 79.8404 124.501L79.5112 125.859C79.4112 126.277 79.3447 126.683 79.299 127.109C79.2658 127.423 79.2493 127.715 79.2997 128.029C79.388 128.635 79.5848 129.203 79.9154 129.717C80.292 130.302 80.7647 130.79 81.2958 131.229C81.6973 131.563 82.1155 131.834 82.5796 132.076L82.5754 132.093ZM84.0215 132.025C83.6202 131.916 83.2564 131.775 82.8843 131.578C81.8766 131.057 81.0151 130.368 80.4209 129.39C80.2744 129.152 80.1614 128.91 80.0734 128.647C79.7551 127.698 79.6961 127.126 79.8751 126.127C79.9749 125.566 80.1584 125.048 80.3754 124.525L80.7383 123.66L81.1472 122.715L81.5644 121.733C81.7981 121.181 82.015 120.641 82.2821 120.098C82.5157 119.621 82.7369 119.161 82.9372 118.672L83.2041 118.02L83.5839 117.246L84.4895 115.478C84.7157 116.104 85.0045 116.673 85.3142 117.241L85.536 117.646L85.9839 118.448L86.2894 118.983C86.7079 119.714 87.0679 120.462 87.4321 121.227C87.7921 121.979 88.102 122.739 88.3993 123.516L88.6841 124.256C88.9856 125.045 89.2543 126.663 89.1589 127.524C89.134 127.749 89.1049 127.967 89.0591 128.193C88.9466 128.728 88.7255 129.213 88.4458 129.681C88.3415 129.852 88.2496 130.015 88.1327 130.179C87.9073 130.488 87.6525 130.756 87.3811 131.019C87.0386 131.35 86.5791 131.647 86.1362 131.823C85.4551 132.095 84.7572 132.225 84.034 132.033L84.0215 132.025Z" fill="black"/>
<path d="M80.0232 128.601C80.1154 128.872 80.2284 129.119 80.3791 129.361C80.9859 130.36 81.8683 131.065 82.901 131.599C83.2815 131.796 83.6578 131.942 84.0675 132.054C84.8116 132.254 85.522 132.12 86.2198 131.839C86.671 131.659 87.1431 131.354 87.4939 131.019C87.7737 130.751 88.0368 130.471 88.2665 130.158C88.3875 129.994 88.4835 129.827 88.5879 129.652C88.8717 129.175 89.0971 128.677 89.2137 128.13C89.2636 127.9 89.2927 127.678 89.3176 127.448C89.4173 126.571 89.1402 124.916 88.8303 124.109L88.5413 123.353C88.2356 122.555 87.9215 121.782 87.549 121.009C87.1764 120.232 86.808 119.463 86.3811 118.715L86.0672 118.172L85.611 117.354L85.385 116.94C85.0669 116.359 84.7697 115.774 84.5394 115.135L83.6129 116.941L83.2248 117.731L82.9537 118.4C82.7492 118.902 82.5197 119.37 82.2819 119.855C82.0106 120.412 81.7895 120.959 81.5475 121.524L81.1178 122.531L80.7006 123.497L80.3293 124.383C80.104 124.918 79.9205 125.445 79.8165 126.022C79.6375 127.042 79.6965 127.627 80.019 128.597L80.0232 128.601Z" fill="#79B1BD"/>
<path d="M86.5765 155.708C87.2748 156.071 88.2028 156.317 88.9885 156.254C89.3689 156.224 89.7241 156.132 90.0834 156.015C90.284 155.952 90.4678 155.889 90.6558 155.797C91.4914 155.399 92.21 154.931 92.7862 154.195C92.9908 153.931 93.1745 153.672 93.3289 153.375C93.717 152.618 93.8919 151.807 93.8453 150.955C93.8156 150.407 93.7275 149.893 93.6351 149.354C93.5469 148.84 93.4003 148.364 93.2536 147.867C93.174 147.599 93.1028 147.344 93.0064 147.085C92.9101 146.826 92.7846 146.596 92.6673 146.346L92.0059 144.954C91.7296 144.369 91.4784 143.793 91.1603 143.225L89.8043 140.789C89.6955 140.593 89.57 140.413 89.5029 140.2L89.2935 139.552C89.1803 139.205 89.084 138.867 88.9917 138.512C88.954 138.366 88.887 138.211 88.7449 138.148C88.4647 138.023 88.1475 138.492 88.0473 138.713L87.5842 139.758L87.4381 140.08L86.5911 141.87C86.2322 142.622 85.9026 143.362 85.5855 144.132L85.1558 145.173L84.747 146.147C84.5551 146.603 84.3213 147.021 84.0792 147.451C83.9624 147.661 83.8957 147.886 83.8415 148.116L83.5124 149.475C83.4124 149.893 83.3458 150.298 83.3002 150.725C83.267 151.038 83.2505 151.331 83.3009 151.644C83.3891 152.25 83.586 152.818 83.9165 153.332C84.2931 153.917 84.7658 154.406 85.2969 154.844C85.6984 155.178 86.1166 155.45 86.5807 155.692L86.5765 155.708ZM88.0268 155.644C87.6255 155.536 87.2617 155.394 86.8896 155.198C85.8819 154.676 85.0204 153.988 84.4262 153.01C84.2797 152.772 84.1667 152.529 84.0787 152.266C83.7604 151.318 83.7014 150.745 83.8804 149.746C83.9803 149.186 84.1638 148.668 84.3807 148.145L84.7437 147.28L85.1525 146.335L85.5697 145.352C85.8034 144.8 86.0203 144.261 86.2874 143.717C86.5211 143.241 86.7422 142.781 86.9425 142.292L87.2095 141.639L87.5892 140.866L88.4948 139.097C88.721 139.724 89.0098 140.292 89.3195 140.86L89.5414 141.266L89.9892 142.068L90.2947 142.603C90.7132 143.334 91.0732 144.082 91.4374 144.846C91.7974 145.598 92.1073 146.359 92.4046 147.136L92.6894 147.875C92.9909 148.665 93.2597 150.282 93.1642 151.143C93.1393 151.369 93.1102 151.586 93.0644 151.812C92.9519 152.347 92.7308 152.832 92.4511 153.301C92.3468 153.472 92.2549 153.635 92.138 153.798C91.9126 154.108 91.6578 154.375 91.3864 154.639C91.0439 154.969 90.5844 155.266 90.1415 155.442C89.4604 155.714 88.7625 155.845 88.0393 155.653L88.0268 155.644Z" fill="black"/>
<path d="M84.0244 152.216C84.1165 152.488 84.2295 152.734 84.3802 152.977C84.987 153.975 85.8694 154.681 86.9022 155.215C87.2826 155.411 87.6589 155.557 88.0686 155.67C88.8127 155.87 89.5231 155.735 90.2209 155.455C90.6721 155.275 91.1442 154.969 91.495 154.635C91.7749 154.367 92.0379 154.087 92.2676 153.773C92.3887 153.61 92.4847 153.443 92.589 153.267C92.8729 152.79 93.0982 152.293 93.2148 151.745C93.2648 151.515 93.2939 151.294 93.3188 151.064C93.4184 150.186 93.1413 148.531 92.8314 147.725L92.5424 146.969C92.2367 146.171 91.9227 145.398 91.5501 144.625C91.1775 143.847 90.8091 143.079 90.3822 142.331L90.0684 141.788L89.6122 140.969L89.3862 140.555C89.0681 139.975 88.7709 139.39 88.5405 138.75L87.614 140.557L87.2259 141.347L86.9548 142.016C86.7504 142.518 86.5209 142.986 86.283 143.471C86.0117 144.027 85.7906 144.575 85.5487 145.139L85.1189 146.147L84.7017 147.112L84.3304 147.999C84.1051 148.534 83.9216 149.061 83.8176 149.638C83.6386 150.658 83.6976 151.243 84.0202 152.212L84.0244 152.216Z" fill="#79B1BD"/>
<path d="M43.7746 156.539C44.4728 156.902 45.4009 157.148 46.1866 157.085C46.5669 157.055 46.9221 156.963 47.2814 156.846C47.482 156.783 47.6659 156.72 47.8539 156.628C48.6895 156.23 49.408 155.762 49.9842 155.026C50.1888 154.762 50.3725 154.503 50.5269 154.206C50.915 153.449 51.09 152.638 51.0433 151.786C51.0137 151.238 50.9255 150.724 50.8331 150.185C50.745 149.671 50.5983 149.195 50.4517 148.698C50.372 148.43 50.3008 148.175 50.2045 147.916C50.1081 147.657 49.9826 147.427 49.8654 147.177L49.2039 145.785C48.9276 145.201 48.6764 144.624 48.3584 144.056L47.0023 141.62C46.8935 141.424 46.768 141.244 46.7009 141.031L46.4915 140.383C46.3784 140.037 46.282 139.698 46.1898 139.343C46.152 139.197 46.085 139.042 45.9429 138.979C45.6628 138.854 45.3455 139.323 45.2453 139.544L44.7822 140.589L44.6362 140.911L43.7891 142.701C43.4302 143.453 43.1006 144.194 42.7835 144.963L42.3538 146.004L41.945 146.978C41.7531 147.434 41.5194 147.852 41.2773 148.282C41.1604 148.492 41.0937 148.717 41.0395 148.947L40.7104 150.306C40.6104 150.724 40.5438 151.129 40.4982 151.556C40.465 151.869 40.4485 152.162 40.4989 152.475C40.5871 153.081 40.784 153.649 41.1146 154.163C41.4912 154.748 41.9638 155.237 42.495 155.675C42.8965 156.009 43.3146 156.281 43.7787 156.523L43.7746 156.539ZM45.2248 156.471C44.8235 156.363 44.4598 156.221 44.0876 156.025C43.08 155.503 42.2185 154.814 41.6242 153.837C41.4778 153.599 41.3647 153.356 41.2768 153.093C40.9584 152.145 40.8994 151.572 41.0784 150.573C41.1783 150.013 41.3618 149.494 41.5787 148.972L41.9417 148.106L42.3505 147.162L42.7678 146.179C43.0014 145.627 43.2183 145.088 43.4854 144.544C43.7191 144.068 43.9402 143.608 44.1405 143.119L44.4075 142.466L44.7872 141.693L45.6928 139.924C45.919 140.551 46.2078 141.119 46.5176 141.687L46.7394 142.093L47.1872 142.895L47.4927 143.429C47.9112 144.161 48.2712 144.908 48.6354 145.673C48.9955 146.425 49.3053 147.186 49.6027 147.963L49.8874 148.702C50.189 149.492 50.4577 151.109 50.3622 151.97C50.3373 152.196 50.3082 152.413 50.2624 152.639C50.15 153.174 49.9288 153.659 49.6491 154.127C49.5448 154.299 49.453 154.462 49.3361 154.625C49.1106 154.935 48.8559 155.202 48.5844 155.466C48.2419 155.796 47.7824 156.093 47.3395 156.269C46.6584 156.541 45.9606 156.671 45.2374 156.48L45.2248 156.471Z" fill="black"/>
<path d="M41.2224 153.043C41.3145 153.315 41.4276 153.561 41.5782 153.804C42.185 154.802 43.0674 155.508 44.1002 156.042C44.4807 156.238 44.8569 156.384 45.2666 156.497C46.0107 156.697 46.7212 156.562 47.4189 156.282C47.8702 156.102 48.3422 155.796 48.6931 155.462C48.9729 155.194 49.236 154.914 49.4656 154.6C49.5867 154.437 49.6827 154.27 49.787 154.094C50.0709 153.617 50.2962 153.12 50.4128 152.572C50.4628 152.342 50.4919 152.121 50.5168 151.891C50.6164 151.013 50.3393 149.358 50.0294 148.552L49.7405 147.795C49.4347 146.997 49.1207 146.224 48.7481 145.452C48.3755 144.674 48.0072 143.906 47.5803 143.158L47.2664 142.615L46.8102 141.796L46.5842 141.382C46.2661 140.802 45.9689 140.217 45.7386 139.577L44.8121 141.384L44.424 142.174L44.1528 142.843C43.9484 143.345 43.7189 143.813 43.481 144.298C43.2098 144.854 42.9887 145.402 42.7467 145.966L42.317 146.974L41.8998 147.939L41.5285 148.826C41.3032 149.361 41.1197 149.888 41.0156 150.464C40.8367 151.484 40.8956 152.07 41.2182 153.039L41.2224 153.043Z" fill="#79B1BD"/>
<path d="M41.9702 180.101C42.6685 180.464 43.5965 180.71 44.3823 180.646C44.7626 180.617 45.1178 180.525 45.4771 180.407C45.6777 180.344 45.8615 180.282 46.0495 180.189C46.8851 179.792 47.6037 179.323 48.1799 178.587C48.3845 178.324 48.5682 178.064 48.7226 177.767C49.1107 177.011 49.2856 176.2 49.239 175.347C49.2093 174.8 49.1212 174.286 49.0288 173.747C48.9407 173.233 48.794 172.756 48.6473 172.259C48.5677 171.991 48.4965 171.737 48.4002 171.478C48.3038 171.218 48.1783 170.989 48.061 170.738L47.3996 169.347C47.1233 168.762 46.8721 168.185 46.554 167.617L45.198 165.181C45.0892 164.985 44.9637 164.805 44.8966 164.592L44.6872 163.945C44.574 163.598 44.4777 163.259 44.3854 162.904C44.3477 162.758 44.2807 162.603 44.1386 162.541C43.8584 162.416 43.5412 162.884 43.441 163.106L42.9779 164.151L42.8318 164.473L41.9848 166.262C41.6259 167.015 41.2963 167.755 40.9792 168.524L40.5495 169.565L40.1407 170.539C39.9488 170.995 39.715 171.413 39.4729 171.844C39.3561 172.053 39.2894 172.279 39.2352 172.508L38.9061 173.867C38.8061 174.285 38.7395 174.691 38.6939 175.117C38.6607 175.43 38.6442 175.723 38.6946 176.036C38.7828 176.642 38.9797 177.211 39.3102 177.725C39.6869 178.309 40.1595 178.798 40.6906 179.236C41.0921 179.57 41.5103 179.842 41.9744 180.084L41.9702 180.101ZM43.4163 180.033C43.015 179.924 42.6513 179.782 42.2791 179.586C41.2715 179.065 40.41 178.376 39.8157 177.398C39.6693 177.16 39.5562 176.918 39.4683 176.654C39.1499 175.706 39.0909 175.133 39.2699 174.134C39.3698 173.574 39.5533 173.056 39.7702 172.533L40.1332 171.668L40.5421 170.723L40.9593 169.74C41.1929 169.188 41.4098 168.649 41.6769 168.106C41.9106 167.629 42.1317 167.169 42.332 166.68L42.599 166.028L42.9787 165.254L43.8843 163.486C44.1105 164.112 44.3993 164.68 44.709 165.249L44.9309 165.654L45.3787 166.456L45.6842 166.991C46.1027 167.722 46.4627 168.47 46.8269 169.234C47.1869 169.986 47.4968 170.747 47.7942 171.524L48.0789 172.264C48.3805 173.053 48.6492 174.67 48.5537 175.532C48.5288 175.757 48.4997 175.975 48.4539 176.2C48.3415 176.735 48.1203 177.22 47.8407 177.689C47.7363 177.86 47.6445 178.023 47.5276 178.186C47.3021 178.496 47.0474 178.763 46.7759 179.027C46.4334 179.357 45.9739 179.655 45.531 179.83C44.8499 180.103 44.1521 180.233 43.4289 180.041L43.4163 180.033Z" fill="black"/>
<path d="M39.4139 176.609C39.506 176.88 39.6191 177.127 39.7697 177.369C40.3765 178.367 41.2589 179.073 42.2917 179.607C42.6722 179.803 43.0484 179.949 43.4581 180.062C44.2022 180.262 44.9127 180.128 45.6104 179.847C46.0617 179.667 46.5337 179.362 46.8846 179.027C47.1644 178.759 47.4275 178.479 47.6571 178.165C47.7782 178.002 47.8742 177.835 47.9785 177.659C48.2624 177.183 48.4877 176.685 48.6043 176.138C48.6543 175.908 48.6834 175.686 48.7083 175.456C48.8079 174.578 48.5308 172.924 48.2209 172.117L47.9319 171.361C47.6262 170.563 47.3122 169.79 46.9396 169.017C46.567 168.24 46.1987 167.471 45.7718 166.723L45.4579 166.18L45.0017 165.361L44.7757 164.948C44.4576 164.367 44.1604 163.782 43.93 163.143L43.0036 164.949L42.6155 165.739L42.3443 166.408C42.1399 166.91 41.9104 167.378 41.6725 167.863C41.4013 168.419 41.1802 168.967 40.9382 169.531L40.5085 170.539L40.0913 171.505L39.7199 172.391C39.4947 172.926 39.3112 173.453 39.2071 174.03C39.0282 175.05 39.0871 175.635 39.4097 176.604L39.4139 176.609Z" fill="#79B1BD"/>
<path d="M87.4976 179.64C88.1958 180.003 89.1239 180.249 89.9096 180.185C90.2899 180.156 90.6451 180.064 91.0044 179.946C91.205 179.883 91.3888 179.821 91.5769 179.729C92.4125 179.331 93.131 178.862 93.7072 178.126C93.9118 177.863 94.0955 177.603 94.2499 177.307C94.638 176.55 94.8129 175.739 94.7663 174.886C94.7366 174.339 94.6485 173.825 94.5561 173.286C94.468 172.772 94.3213 172.295 94.1747 171.798C94.095 171.531 94.0238 171.276 93.9275 171.017C93.8311 170.758 93.7056 170.528 93.5884 170.277L92.9269 168.886C92.6506 168.301 92.3994 167.724 92.0813 167.156L90.7253 164.72C90.6165 164.524 90.491 164.344 90.4239 164.131L90.2145 163.484C90.1014 163.137 90.005 162.798 89.9128 162.443C89.875 162.297 89.808 162.142 89.6659 162.08C89.3858 161.955 89.0685 162.423 88.9683 162.645L88.5052 163.69L88.3592 164.012L87.5121 165.801C87.1532 166.554 86.8236 167.294 86.5065 168.063L86.0768 169.104L85.668 170.078C85.4761 170.534 85.2423 170.952 85.0003 171.383C84.8834 171.592 84.8167 171.818 84.7625 172.048L84.4334 173.406C84.3334 173.824 84.2668 174.23 84.2212 174.656C84.188 174.969 84.1715 175.262 84.2219 175.575C84.3101 176.181 84.507 176.75 84.8376 177.264C85.2142 177.848 85.6868 178.337 86.218 178.776C86.6195 179.11 87.0376 179.381 87.5017 179.623L87.4976 179.64ZM88.9478 179.572C88.5465 179.463 88.1828 179.322 87.8106 179.125C86.803 178.604 85.9415 177.915 85.3472 176.937C85.2008 176.699 85.0877 176.457 84.9998 176.193C84.6814 175.245 84.6224 174.672 84.8014 173.673C84.9013 173.113 85.0848 172.595 85.3017 172.072L85.6647 171.207L86.0735 170.262L86.4908 169.279C86.7244 168.728 86.9413 168.188 87.2084 167.645C87.4421 167.168 87.6632 166.708 87.8635 166.219L88.1305 165.567L88.5102 164.793L89.4158 163.025C89.642 163.651 89.9308 164.22 90.2405 164.788L90.4624 165.193L90.9102 165.995L91.2157 166.53C91.6342 167.261 91.9942 168.009 92.3584 168.773C92.7184 169.525 93.0283 170.286 93.3256 171.063L93.6104 171.803C93.912 172.592 94.1807 174.21 94.0852 175.071C94.0603 175.296 94.0312 175.514 93.9854 175.739C93.873 176.274 93.6518 176.759 93.3721 177.228C93.2678 177.399 93.176 177.562 93.0591 177.725C92.8336 178.035 92.5789 178.303 92.3074 178.566C91.9649 178.896 91.5054 179.194 91.0625 179.369C90.3814 179.642 89.6836 179.772 88.9604 179.58L88.9478 179.572Z" fill="black"/>
<path d="M84.9454 176.148C85.0375 176.419 85.1506 176.666 85.3012 176.908C85.908 177.906 86.7904 178.612 87.8232 179.146C88.2037 179.342 88.5799 179.488 88.9896 179.601C89.7337 179.801 90.4441 179.667 91.1419 179.386C91.5932 179.206 92.0652 178.901 92.416 178.566C92.6959 178.298 92.959 178.018 93.1886 177.704C93.3097 177.541 93.4057 177.374 93.51 177.198C93.7939 176.722 94.0192 176.224 94.1358 175.677C94.1858 175.447 94.2149 175.225 94.2398 174.995C94.3394 174.118 94.0623 172.463 93.7524 171.656L93.4634 170.9C93.1577 170.102 92.8437 169.329 92.4711 168.556C92.0985 167.779 91.7301 167.01 91.3033 166.262L90.9894 165.719L90.5332 164.9L90.3072 164.487C89.9891 163.906 89.6919 163.321 89.4615 162.682L88.5351 164.488L88.147 165.278L87.8758 165.947C87.6714 166.449 87.4419 166.917 87.204 167.402C86.9328 167.958 86.7117 168.506 86.4697 169.07L86.04 170.078L85.6227 171.044L85.2514 171.93C85.0262 172.465 84.8427 172.992 84.7386 173.569C84.5597 174.589 84.6186 175.174 84.9412 176.143L84.9454 176.148Z" fill="#79B1BD"/>
<path d="M75.921 87.4815C76.2059 88.3506 76.2266 88.1123 77.4049 87.7269C78.5833 87.3415 78.9503 86.2755 78.6696 85.4063C78.3847 84.5372 78.0218 85.4486 76.8434 85.834C75.6651 86.2194 75.6361 86.6123 75.921 87.4815Z" fill="white"/>
<path d="M51.3813 90.7559C51.6662 91.625 51.6869 91.3868 52.8652 91.0013C54.0436 90.6159 54.4105 89.5499 54.1299 88.6807C53.845 87.8116 53.4821 88.723 52.3037 89.1084C51.1254 89.4939 51.0964 89.8868 51.3813 90.7559Z" fill="white"/>
</g>
<defs>
<clipPath id="clip0_191_2493">
<rect width="124.638" height="220.725" fill="white" transform="matrix(-1 0.000762764 0.000762764 1 124.642 0)"/>
</clipPath>
</defs>
</svg>
