<svg width="542" height="401" viewBox="0 0 542 401" fill="none" xmlns="http://www.w3.org/2000/svg">
<path d="M307.708 324.38C294.82 331.101 277.723 335.641 263.204 334.458C256.161 333.884 249.613 332.201 242.954 330.095C239.272 328.927 235.833 327.76 232.37 326.105C216.963 318.74 203.678 310.128 193.046 296.569C189.262 291.742 185.842 286.923 183.04 281.456C175.89 267.523 172.656 252.505 173.442 236.764C173.945 226.69 175.572 217.175 177.313 207.251C178.972 197.79 181.601 188.963 184.352 179.789C185.838 174.837 187.159 170.152 188.939 165.365C190.72 160.577 193.035 156.305 195.212 151.714L207.369 126.061C212.486 115.264 217.093 104.609 222.917 94.1302L247.923 49.1391C249.958 45.4799 252.226 42.1745 253.492 38.2362L257.332 26.2721C259.395 19.8459 261.168 13.6281 262.905 7.09971C263.62 4.41133 264.851 1.53822 267.488 0.378757C272.68 -1.90087 278.544 6.68309 280.372 10.8257L288.912 30.1475L291.601 36.1177L307.299 69.1683C313.902 83.0662 320.033 96.7282 325.921 110.921L333.9 130.156L341.462 148.126C345.011 156.564 349.311 164.268 353.776 172.203C355.969 176.098 357.136 180.214 358.17 184.49L364.258 209.566C366.137 217.297 367.324 224.78 368.204 232.664C368.849 238.43 369.096 243.842 368.255 249.612C366.628 260.782 363.04 271.257 356.892 280.792C349.947 291.565 341.246 300.597 331.4 308.729C323.968 314.868 316.248 319.927 307.712 324.38H307.708ZM280.981 323.189C288.386 321.196 295.13 318.528 302.005 314.971C320.599 305.349 336.502 292.599 347.444 274.535C350.124 270.113 352.211 265.676 353.846 260.782C359.714 243.237 360.776 232.723 357.498 214.278C355.658 203.914 352.27 194.375 348.238 184.733L341.552 168.749L334.029 151.29L326.283 133.135C321.924 122.92 317.915 113.008 313.025 103.001C308.729 94.2088 304.63 85.7349 300.936 76.7029L296.011 64.6641L288.983 50.3811L272.244 17.7471C268.066 29.2867 262.72 39.8123 257.01 50.3064L252.953 57.7624L244.735 72.576L239.083 82.4255C231.344 95.9068 224.765 109.75 218.04 123.82C211.382 137.746 205.734 151.742 200.219 166.135L194.992 179.773C189.415 194.335 184.494 224.206 186.278 240.077C186.746 244.247 187.273 248.276 188.157 252.411C190.268 262.256 194.328 271.265 199.473 279.849C201.383 283.032 203.108 286.039 205.274 289.014C209.413 294.702 214.141 299.697 219.195 304.559C225.511 310.635 234.013 316.118 242.164 319.361C254.769 324.372 267.586 326.801 280.969 323.197L280.981 323.189Z" fill="#79B1BD"/>
<path d="M351.918 256.797C350.279 261.69 348.192 266.127 345.511 270.549C334.573 288.613 318.67 301.363 300.076 310.985C293.198 314.542 286.453 317.207 279.048 319.203C265.661 322.807 252.844 320.378 240.244 315.367C232.088 312.125 223.587 306.646 217.27 300.565C212.216 295.703 207.488 290.708 203.349 285.021C201.187 282.049 199.458 279.043 197.552 275.859C192.407 267.275 188.343 258.267 186.236 248.421C185.348 244.29 184.825 240.258 184.353 236.087C182.569 220.22 187.49 190.346 193.067 175.787L198.295 162.149C203.809 147.756 209.457 133.756 216.111 119.831C222.84 105.76 229.415 91.9209 237.154 78.4357L242.81 68.5901L251.029 53.7765L255.085 46.3206C260.792 35.8225 266.141 25.3009 270.315 13.7573L287.054 46.3913L294.082 60.6743L299.007 72.7131C302.705 81.7451 306.805 90.219 311.097 99.0113C315.986 109.018 319.995 118.93 324.354 129.146L332.101 147.3L339.623 164.759L346.309 180.748C350.341 190.389 353.726 199.928 355.569 210.292C358.843 228.738 357.786 239.251 351.918 256.797Z" fill="#79B1BD"/>
<rect width="337.227" height="349.018" transform="translate(102 51)" fill="white" fill-opacity="0.01"/>
<path d="M0 49.2069C0 49.6219 0 50.0368 0 50.4518C9.03333 50.5901 18.0667 50.7146 27.1 50.8253C63.2333 51.2679 99.3667 51.4893 135.5 51.4893C261.967 51.4893 388.433 51.188 514.9 50.5855C523.933 50.5425 532.967 50.4979 542 50.4518C542 50.0368 542 49.6219 542 49.2069C532.967 49.1608 523.933 49.1162 514.9 49.0732C388.433 48.4707 261.967 48.1695 135.5 48.1695C99.3667 48.1695 63.2333 48.3908 27.1 48.8334C18.0667 48.9441 9.03333 49.0686 0 49.2069Z" fill="#79B1BD"/>
</svg>
