<svg width="196" height="335" viewBox="0 0 196 335" fill="none" xmlns="http://www.w3.org/2000/svg">
<path d="M134.381 324.38C121.493 331.101 104.396 335.641 89.8775 334.458C82.8342 333.884 76.2862 332.201 69.6281 330.095C65.9454 328.927 62.5063 327.76 59.0436 326.105C43.6365 318.74 30.3518 310.128 19.7201 296.569C15.9352 291.742 12.5157 286.923 9.71336 281.456C2.56399 267.523 -0.670717 252.505 0.11536 236.764C0.618449 226.69 2.24563 217.175 3.98679 207.251C5.64541 197.79 8.27484 188.963 11.0261 179.789C12.5118 174.837 13.8324 170.152 15.6129 165.365C17.3933 160.577 19.7083 156.305 21.8858 151.714L34.0424 126.061C39.1598 115.264 43.7662 104.609 49.591 94.1302L74.5962 49.1391C76.6321 45.4799 78.8999 42.1745 80.1655 38.2362L84.0055 26.2721C86.0689 19.8459 87.8416 13.6281 89.5788 7.09971C90.2941 4.41133 91.5243 1.53822 94.1616 0.378757C99.3537 -1.90087 105.218 6.68309 107.045 10.8257L115.586 30.1475L118.275 36.1177L133.972 69.1683C140.576 83.0662 146.707 96.7282 152.595 110.921L160.573 130.156L168.135 148.126C171.685 156.564 175.984 164.268 180.449 172.203C182.642 176.098 183.81 180.214 184.843 184.49L190.932 209.566C192.81 217.297 193.997 224.78 194.878 232.664C195.522 238.43 195.77 243.842 194.929 249.612C193.302 260.782 189.713 271.257 183.566 280.792C176.621 291.565 167.919 300.597 158.074 308.729C150.641 314.868 142.922 319.927 134.385 324.38H134.381ZM107.655 323.189C115.059 321.196 121.804 318.528 128.678 314.971C147.273 305.349 163.175 292.599 174.117 274.535C176.798 270.113 178.885 265.676 180.52 260.782C186.388 243.237 187.449 232.723 184.171 214.278C182.332 203.914 178.944 194.375 174.911 184.733L168.226 168.749L160.703 151.29L152.956 133.135C148.597 122.92 144.588 113.008 139.699 103.001C135.403 94.2088 131.304 85.7349 127.609 76.7029L122.684 64.6641L115.657 50.3811L98.9174 17.7471C94.7394 29.2867 89.3941 39.8123 83.6832 50.3064L79.627 57.7624L71.4086 72.576L65.7567 82.4255C58.0178 95.9068 51.4383 109.75 44.7134 123.82C38.0554 137.746 32.4074 151.742 26.8931 166.135L21.6657 179.773C16.0884 194.335 11.1676 224.206 12.952 240.077C13.4197 244.247 13.9464 248.276 14.8307 252.411C16.9413 262.256 21.0014 271.265 26.1463 279.849C28.0565 283.032 29.7819 286.039 31.9475 289.014C36.0862 294.702 40.8145 299.697 45.869 304.559C52.1851 310.635 60.6865 316.118 68.8381 319.361C81.4429 324.372 94.2599 326.801 107.643 323.197L107.655 323.189Z" fill="#79B1BD"/>
<path d="M178.591 256.797C176.952 261.69 174.865 266.127 172.185 270.549C161.246 288.613 145.344 301.363 126.749 310.985C119.871 314.542 113.127 317.207 105.722 319.203C92.335 322.807 79.518 320.378 66.9172 315.367C58.7616 312.125 50.2602 306.646 43.9441 300.565C38.8896 295.703 34.1614 290.708 30.0227 285.021C27.861 282.049 26.1316 279.043 24.2254 275.859C19.0805 267.275 15.0165 258.267 12.9098 248.421C12.0215 244.29 11.4988 240.258 11.0271 236.087C9.24274 220.22 14.1636 190.346 19.7408 175.787L24.9682 162.149C30.4825 147.756 36.1305 133.756 42.7846 119.831C49.5135 105.76 56.089 91.9209 63.8279 78.4357L69.4837 68.5901L77.7022 53.7765L81.7583 46.3206C87.4652 35.8225 92.8145 25.3009 96.9886 13.7573L113.728 46.3913L120.756 60.6743L125.68 72.7131C129.379 81.7451 133.478 90.219 137.77 99.0113C142.66 109.018 146.669 118.93 151.027 129.146L158.774 147.3L166.297 164.759L172.983 180.748C177.015 190.389 180.399 199.928 182.243 210.292C185.517 228.738 184.459 239.251 178.591 256.797Z" fill="#79B1BD"/>
</svg>
