<svg width="98" height="120" viewBox="0 0 98 120" fill="none" xmlns="http://www.w3.org/2000/svg">
<path d="M56.2417 107.072C33.9747 109.705 15.2894 106.475 14.5069 99.8579C13.7244 93.2405 31.141 85.7416 53.408 83.1085C75.6749 80.4755 94.3602 83.7055 95.1427 90.3229C95.9252 96.9403 78.5086 104.439 56.2417 107.072Z" fill="#B6D0D4"/>
<mask id="mask0_192_514" style="mask-type:luminance" maskUnits="userSpaceOnUse" x="18" y="23" width="62" height="95">
<path d="M68.009 23.22L79.9377 110.393L30.0687 117.257L18.14 30.0833L68.009 23.22Z" fill="white"/>
</mask>
<g mask="url(#mask0_192_514)">
<path d="M52.7894 28.0515C49.2628 26.7535 44.7375 26.1712 41.0752 26.9889C39.2989 27.3867 37.6889 28.0534 36.0635 28.8363C35.1661 29.2699 34.3303 29.6939 33.5053 30.2471C29.8377 32.7072 26.7557 35.4163 24.5263 39.3229C23.733 40.7127 23.0323 42.0893 22.5126 43.6116C21.1861 47.4916 20.8951 51.517 21.6573 55.5919C22.1448 58.1973 22.9 60.6198 23.6965 63.1451C24.4565 65.5511 25.4419 67.7586 26.4712 70.0526C27.0257 71.2899 27.5302 72.4644 28.1548 73.6499C28.7794 74.8354 29.5224 75.8649 30.2427 76.9865L34.259 83.2411C35.9496 85.8736 37.5057 88.4877 39.3653 91.0132L47.3488 101.854C47.9981 102.737 48.696 103.518 49.1573 104.498L50.5641 107.48C51.3185 109.081 51.9938 110.638 52.6699 112.278C52.9493 112.952 53.3648 113.659 54.078 113.868C55.4834 114.278 56.6749 111.836 56.9927 110.693L58.4838 105.36L58.9571 103.71L61.783 94.5492C62.9715 90.697 64.0502 86.9219 65.0465 83.0191L66.3967 77.7282L67.6845 72.7811C68.2891 70.4588 69.1104 68.3009 69.9666 66.0771C70.387 64.9856 70.5381 63.8732 70.6487 62.7221L71.3088 55.9763C71.5114 53.8962 71.5495 51.9042 71.4915 49.8205C71.4502 48.2958 71.3207 46.8778 70.8998 45.4049C70.087 42.5518 68.7969 39.9498 66.8893 37.6818C64.7338 35.1203 62.1905 33.0718 59.3882 31.2989C57.2719 29.96 55.1229 28.9136 52.7875 28.054L52.7894 28.0515ZM46.0115 29.3018C47.9708 29.5601 49.7879 30.0184 51.6678 30.7051C56.7538 32.5583 61.2679 35.3218 64.7033 39.6416C65.5437 40.6985 66.2348 41.7823 66.8272 42.999C68.9493 47.3642 69.5961 50.0652 69.4174 54.9841C69.3182 57.7481 68.7939 60.3517 68.1076 63.0066L66.9724 67.4043L65.6756 72.2173L64.3472 77.2195C63.5989 80.0327 62.9296 82.7565 62.0402 85.5338C61.2569 87.9757 60.5143 90.3258 59.8928 92.8081L59.0661 96.1161L57.7813 100.083L54.6733 109.172C53.1958 106.313 51.4563 103.759 49.6249 101.226L48.3243 99.4265L45.6997 95.8557L43.906 93.4896C41.4505 90.2491 39.2796 86.8743 37.062 83.4455C34.8666 80.0529 32.927 76.6049 31.0062 73.0494L29.186 69.6812C27.2445 66.0846 24.9228 58.4756 24.8122 54.2778C24.7828 53.1753 24.7731 52.1072 24.8528 50.9986C25.0409 48.3592 25.7558 45.8705 26.7618 43.4526C27.1358 42.5566 27.4687 41.7113 27.9155 40.8616C28.7684 39.2358 29.7969 37.7678 30.9135 36.3237C32.3082 34.5193 34.2819 32.793 36.245 31.661C39.2813 29.9121 42.466 28.8303 46.009 29.2998L46.0112 29.2995L46.0115 29.3018Z" fill="#79B1BD"/>
</g>
<path d="M67.1025 43.2024C66.4955 41.9575 65.7882 40.8505 64.9271 39.7708C61.4106 35.353 56.7885 32.529 51.5788 30.6355C49.6525 29.9359 47.7919 29.469 45.7822 29.2029C42.153 28.7253 38.8906 29.8324 35.7803 31.6198C33.7662 32.7762 31.7458 34.5423 30.3155 36.3876C29.1714 37.8646 28.1176 39.3654 27.2444 41.028C26.7887 41.897 26.4444 42.7597 26.0639 43.6771C25.0329 46.1483 24.2978 48.6944 24.1076 51.3913C24.0261 52.5229 24.0365 53.6162 24.0644 54.744C24.1769 59.0332 26.5523 66.8122 28.5393 70.4904L30.402 73.9337C32.3681 77.5686 34.3549 81.0934 36.6019 84.5623C38.8734 88.0672 41.0957 91.5161 43.6114 94.8295L45.4494 97.2477L48.1372 100.898L49.4694 102.737C51.3434 105.327 53.1256 107.938 54.6375 110.861L57.8224 101.569L59.1391 97.5111L59.9882 94.1272C60.6254 91.5881 61.3887 89.1852 62.1902 86.6885C63.1034 83.8465 63.7903 81.0634 64.5557 78.1863L65.918 73.0725L67.2471 68.1526L68.4105 63.6531C69.1126 60.9414 69.6501 58.279 69.7529 55.4505C69.9365 50.4211 69.2755 47.6577 67.1041 43.1976L67.1025 43.2024Z" fill="#79B1BD"/>
<path d="M37.439 57.4627C38.3224 58.0108 39.8257 54.735 40.4068 54.0732C42.5392 51.6413 46.2688 49.705 49.4724 49.3903C50.6983 49.2683 53.3948 49.8241 54.1397 49.6559C54.9828 49.4646 54.8494 48.45 53.9267 48.1767C49.2756 46.7964 42.8548 49.2272 39.6321 52.7566C39.088 53.3522 36.459 56.8573 37.4414 57.4647L37.439 57.4627Z" fill="black"/>
<path d="M47.407 70.0843C47.5358 67.3236 45.3216 65.7445 42.62 65.9426C39.9185 66.1407 37.9453 68.6867 38.0411 71.4505C38.1271 73.9224 39.0713 75.0037 41.7592 74.6515C44.6193 74.2767 47.3246 71.8342 47.407 70.0843Z" fill="white"/>
<path d="M60.1815 67.3876C60.3054 64.7558 57.925 62.9467 55.3478 63.1347C52.7706 63.3227 50.3608 66.6896 50.4524 69.3234C50.5339 71.6814 51.534 73.1591 53.9959 72.3757C56.7862 71.487 60.1006 69.055 60.1793 67.3879L60.1815 67.3876Z" fill="white"/>
<path d="M53.6361 70.8887C54.4942 70.8811 56.8854 69.3481 57.5601 68.7188C59.97 66.4715 57.4781 64.2131 54.6069 65.0633C51.8246 65.8869 50.804 70.9122 53.6361 70.8887Z" fill="black"/>
<path d="M41.1434 73.1238C42.2235 73.2869 45.2424 71.8079 45.6067 70.7917C46.6564 67.8718 42.1555 66.1303 40.2629 69.0537C39.453 70.3035 39.4079 72.8619 41.1437 73.1261L41.1434 73.1238Z" fill="black"/>
<path d="M63.0138 106.4L62.2838 105.707L63.1483 106.892C65.4902 106.137 70.7382 103.764 71.318 101.271C73.1193 93.4972 71.9555 76.448 67.4723 69.8112C67.1491 69.3343 66.3418 68.0078 65.9592 67.7691C65.3465 67.3859 64.7974 68.0531 65.0198 68.7389C65.3123 69.6385 67.0438 71.7258 67.62 72.8804C69.9313 77.5186 70.9652 89.5434 70.692 94.8581C70.5119 98.3805 69.3716 105.105 67.3661 107.927L63.0097 106.402L63.0138 106.4Z" fill="black"/>
<path d="M28.3776 103.889C28.4168 103.974 28.4895 104.039 28.5778 104.065L28.8336 104.142C28.8709 104.154 28.9112 104.172 28.9474 104.156C31.3892 103.165 31.3063 77.5224 34.0482 110.193C34.717 118.163 41.1261 88.9091 38.5825 81.2828C38.3988 80.7343 37.9747 79.2343 37.6705 78.8994C37.1827 78.3594 36.4758 78.8483 36.5073 79.5704C36.5496 80.5157 37.6602 83.0038 37.9067 84.2729C38.8932 89.3723 36.6758 101.214 34.9942 106.244C33.8789 109.577 31.9333 104.238 29.248 106.395L28.6057 102.917C28.319 103.148 28.2251 103.548 28.3796 103.887L28.3776 103.889Z" fill="black"/>
<path d="M28.9858 9.26706C29.0402 9.19651 29.6316 8.71672 29.6707 8.76247C34.3733 17.9951 40.0598 27.2784 49.5605 32.0786C50.3189 32.4606 52.1682 33.4005 52.1141 31.9758C52.088 31.2622 49.9174 30.6969 49.2921 30.3403C40.0882 25.0907 34.9468 15.9787 30.2462 6.78249C30.0117 6.27899 29.0411 6.51056 28.8635 6.8109L22.8148 17.1293C22.6283 17.449 23.5007 18.1885 23.9634 17.8339C25.7827 15.3336 27.1273 11.6255 28.986 9.26932L28.9858 9.26706Z" fill="black"/>
<path d="M11.6087 18.6376C13.7157 25.9859 17.8942 32.4365 23.3755 37.6707C24.2704 38.5243 28.1194 41.8656 29.0667 42.1382C29.6356 42.3022 29.9696 42.0544 30.1173 41.4828C30.3153 40.7106 29.1425 40.4463 28.6604 40.0866C21.9644 35.0693 17.2997 29.5142 14.1286 21.6071C13.7599 20.689 12.7037 16.8778 12.2385 16.5665C11.7441 16.2357 11.0929 17.0065 10.7622 17.3204C8.25997 19.6976 4.94103 23.5133 2.68592 26.2162C1.44644 27.7023 2.27501 28.621 3.56232 27.4635L11.6065 18.6379L11.6087 18.6376Z" fill="black"/>
<path d="M14.5047 99.8582C13.7221 93.2395 31.1166 91.3566 53.3834 88.7236C75.6503 86.0906 94.3603 83.7064 95.1427 90.3229C95.9251 96.9393 78.6356 111.337 56.3687 113.97C34.1019 116.603 15.2871 106.475 14.5047 99.8582Z" fill="#B6D0D4"/>
<path d="M75.7057 74.4018C74.53 76.3131 73.4852 78.3073 72.5711 80.364C72.2751 81.0287 71.2526 80.5748 71.5483 79.9079C72.5036 77.7639 73.6021 75.6924 74.8307 73.697C74.9906 73.4376 75.3933 73.4289 75.6137 73.6044C75.8715 73.812 75.8679 74.1422 75.7082 74.4037L75.7057 74.4018Z" fill="#79B1BD"/>
<path d="M83.061 66.7681C81.2593 68.7534 79.7602 71.0029 78.621 73.4503C78.3154 74.1092 77.2906 73.6556 77.5982 72.9942C78.7748 70.4645 80.3185 68.1182 82.1838 66.0635C82.3881 65.8379 82.7164 65.7693 82.9668 65.971C83.1899 66.1507 83.2656 66.5447 83.0613 66.7704L83.061 66.7681Z" fill="#79B1BD"/>
<path d="M74.0944 66.5599C74.6353 66.2028 75.1485 65.801 75.6253 65.3576C75.68 65.3076 75.7344 65.2554 75.7865 65.2035C75.8209 65.1719 75.8528 65.1384 75.8872 65.1068C75.9536 65.0417 75.8392 65.156 75.9031 65.0889C76.013 64.9752 76.1229 64.8614 76.23 64.7434C76.4563 64.4946 76.6701 64.2357 76.8743 63.9712C77.053 63.7371 77.4274 63.6791 77.6573 63.8786C77.8873 64.0781 77.9419 64.4265 77.7519 64.678C76.9183 65.7657 75.9049 66.7167 74.7693 67.4692C74.526 67.6308 74.1682 67.6204 73.9888 67.3554C73.8259 67.116 73.8344 66.7326 74.0966 66.5596L74.0944 66.5599Z" fill="#79B1BD"/>
<path d="M64.7786 80.7542C65.0729 79.4303 65.3649 78.1066 65.6592 76.7827C65.7248 76.4841 65.9786 76.2595 66.2937 76.307C66.5748 76.3516 66.8284 76.6559 66.763 76.9567C66.4688 78.2806 66.1767 79.6043 65.8825 80.9282C65.8169 81.2268 65.5631 81.4514 65.248 81.4039C64.9668 81.3593 64.7133 81.055 64.7786 80.7542Z" fill="#79B1BD"/>
<path d="M71.2579 66.6228C71.7334 65.7881 72.2088 64.9533 72.6821 64.1188C72.7583 63.9862 72.8378 63.8806 72.9809 63.8202C73.1094 63.7684 73.2882 63.7633 73.4145 63.8262C73.66 63.9483 73.8608 64.3 73.7049 64.5749C73.2294 65.4096 72.754 66.2444 72.2808 67.0789C72.2045 67.2115 72.125 67.3171 71.9819 67.3775C71.8535 67.4293 71.6746 67.4344 71.5483 67.3715C71.3029 67.2494 71.1021 66.8977 71.2579 66.6228Z" fill="#79B1BD"/>
<path d="M31.9031 84.1242C31.3927 82.71 30.77 81.3319 30.03 80.0249C29.8797 79.7588 29.8766 79.4294 30.1378 79.2291C30.3535 79.0616 30.7655 79.0747 30.9183 79.3429C31.709 80.7377 32.3894 82.1868 32.9359 83.6975C33.0394 83.9852 32.9175 84.3202 32.631 84.4388C32.3445 84.5574 32.0091 84.4139 31.9031 84.1242Z" fill="#79B1BD"/>
<path d="M28.2634 83.6341C27.4321 82.5601 26.5482 81.5334 25.6118 80.5565C25.4071 80.3426 25.4939 79.9202 25.7196 79.7607C25.995 79.5679 26.2802 79.6463 26.5 79.8745C27.4364 80.8514 28.3228 81.88 29.1516 82.9521C29.3319 83.1872 29.2883 83.577 29.0439 83.7479C28.7994 83.9188 28.4566 83.8837 28.2634 83.6341Z" fill="#79B1BD"/>
<path d="M29.0398 74.2871C28.4455 73.1118 27.7154 71.9823 26.8843 70.9288C26.6947 70.6902 26.7578 70.3141 26.9921 70.133C27.2388 69.9435 27.5826 70.0059 27.7726 70.2468C28.6589 71.3693 29.4235 72.5817 30.0704 73.8607C30.205 74.1265 30.0321 74.5041 29.7656 74.602C29.46 74.7114 29.1834 74.5724 29.0376 74.2874L29.0398 74.2871Z" fill="#79B1BD"/>
<path d="M26.6338 78.1986C26.0303 76.9259 25.1114 75.7935 23.9795 74.9267C23.7379 74.7424 23.7021 74.3642 23.8849 74.1273C24.0677 73.8905 24.4263 73.8504 24.6679 74.0347C25.9478 75.0145 26.9705 76.3041 27.6644 77.7722C27.7959 78.0497 27.6267 78.4018 27.3596 78.5135C27.0667 78.6351 26.7634 78.4787 26.6316 78.1989L26.6338 78.1986Z" fill="#79B1BD"/>
<path d="M27.5918 86.5093L26.3312 84.5541C26.1717 84.3051 26.1801 83.94 26.4389 83.7583C26.6729 83.5932 27.0489 83.606 27.2194 83.872L28.4801 85.8272C28.6396 86.0763 28.6312 86.4413 28.3723 86.6231C28.1384 86.7881 27.7624 86.7753 27.5918 86.5093Z" fill="#79B1BD"/>
<path d="M21.6357 88.734C21.5261 88.6416 21.4104 88.5545 21.291 88.4748C21.2665 88.4571 21.2398 88.4396 21.2133 88.4244C21.1962 88.4127 21.1794 88.4032 21.1623 88.3915L21.2323 88.4336C21.1736 88.3925 21.1072 88.3614 21.0449 88.3276C20.8008 88.1984 20.544 88.0937 20.279 88.0151L20.4184 88.0559C20.2605 88.0105 20.1037 87.974 19.9413 87.9475C19.653 87.8991 19.416 87.602 19.472 87.2977C19.528 86.9934 19.7978 86.7715 20.1065 86.822C20.9143 86.9577 21.6871 87.3105 22.3217 87.84C22.548 88.0285 22.6148 88.403 22.4162 88.6394C22.2176 88.8758 21.8767 88.9322 21.6332 88.732L21.6357 88.734Z" fill="#79B1BD"/>
<path d="M22.4693 84.3284C20.7711 82.8073 19.0707 81.2865 17.3724 79.7654C16.8331 79.2819 17.5193 78.3902 18.0609 78.8734C19.7591 80.3945 21.4596 81.9153 23.1578 83.4364C23.6972 83.9199 23.0109 84.8116 22.4693 84.3284Z" fill="#79B1BD"/>
<path d="M18.5366 86.3482C17.4354 86.4051 16.3342 86.4621 15.2352 86.5187C14.9455 86.5347 14.6398 86.3396 14.6155 86.0196C14.5946 85.729 14.7896 85.4059 15.1017 85.3897C16.2029 85.3327 17.3041 85.2758 18.4031 85.2191C18.6928 85.2031 18.9984 85.3983 19.0228 85.7182C19.0437 86.0088 18.8487 86.3319 18.5366 86.3482Z" fill="#79B1BD"/>
<path d="M20.2498 77.3553C20.0505 77.1498 19.8372 76.9576 19.6063 76.7879C19.5449 76.7425 19.4812 76.6974 19.4178 76.6545C19.3911 76.6371 19.3666 76.6194 19.3401 76.6042C19.2963 76.575 19.2579 76.5544 19.3255 76.5945C19.2001 76.52 19.0727 76.4481 18.9395 76.3837C18.8156 76.3227 18.6879 76.2669 18.5607 76.2155C18.4973 76.1909 18.4316 76.1667 18.3659 76.1424C18.3309 76.1305 18.2934 76.1166 18.2561 76.105C18.2048 76.0881 18.1653 76.0768 18.242 76.0998C17.9613 76.0208 17.6764 75.9629 17.3858 75.9331C17.0952 75.9034 16.8614 75.5761 16.9165 75.2834C16.9758 74.9695 17.2399 74.7757 17.551 74.8076C18.8119 74.9448 20.0439 75.5387 20.936 76.4636C21.0458 76.5765 21.1253 76.6793 21.1448 76.8442C21.1611 76.9819 21.1211 77.1561 21.0306 77.2629C20.8556 77.4714 20.4672 77.5814 20.2476 77.3555L20.2498 77.3553Z" fill="#79B1BD"/>
<path d="M22.2865 72.0656C22.1925 71.9919 22.0947 71.9234 21.9972 71.857C21.9509 71.8259 21.9023 71.795 21.8563 71.7661C21.7907 71.7235 21.9404 71.8134 21.8709 71.7758C21.8469 71.7626 21.8227 71.7471 21.7987 71.734C21.5919 71.6164 21.3776 71.5113 21.1586 71.4227C21.0548 71.38 20.9494 71.3421 20.8443 71.3064C20.8186 71.298 20.7908 71.2899 20.7651 71.2815C20.751 71.2763 20.6624 71.2478 20.7347 71.2713C20.8142 71.2986 20.7 71.2617 20.6837 71.2568C20.6558 71.2486 20.6304 71.2424 20.6028 71.2366C20.3739 71.1789 20.1403 71.1378 19.9039 71.1108C19.613 71.0788 19.3794 70.7538 19.4345 70.4611C19.4941 70.1495 19.7578 69.9512 20.0691 69.9854C21.1193 70.1039 22.1314 70.5269 22.9774 71.1756C23.2118 71.3562 23.2647 71.7461 23.0719 71.975C22.8792 72.2038 22.5382 72.2602 22.2889 72.0676L22.2865 72.0656Z" fill="#79B1BD"/>
<path d="M24.7626 68.3107C24.0504 68.3949 23.9169 67.2658 24.6291 67.1816C25.3413 67.0974 25.4748 68.2264 24.7626 68.3107Z" fill="#79B1BD"/>
<path d="M75.1724 69.1709C74.6867 69.6726 74.239 70.2109 73.8406 70.787C73.7431 70.929 73.6457 71.0733 73.5531 71.2194C73.5097 71.2886 73.4663 71.3579 73.4229 71.4271C73.3984 71.4666 73.3762 71.5059 73.3514 71.5432C73.3008 71.627 73.357 71.5334 73.3269 71.5827C73.1505 71.8921 72.9858 72.2069 72.8331 72.5272C72.7076 72.794 72.3795 72.9587 72.1006 72.8199C71.8384 72.6884 71.6759 72.3573 71.8103 72.0712C72.4378 70.7399 73.273 69.5146 74.2927 68.4644C74.4966 68.2548 74.8281 68.1561 75.0757 68.3718C75.2835 68.5556 75.388 68.9462 75.1702 69.1712L75.1724 69.1709Z" fill="#79B1BD"/>
<path d="M78.7241 79.6524C78.1995 80.5456 77.6212 81.4017 76.9913 82.2203C76.8105 82.4547 76.4383 82.5124 76.2083 82.3129C75.9784 82.1134 75.9213 81.763 76.1138 81.5135C76.7437 80.6949 77.322 79.8388 77.8466 78.9456C77.9137 78.8301 78.0947 78.7491 78.2186 78.7345C78.3535 78.7185 78.5244 78.7601 78.6296 78.853C78.7348 78.9459 78.8271 79.0815 78.8383 79.2336C78.8507 79.3947 78.8043 79.5147 78.7241 79.6524Z" fill="#79B1BD"/>
<path d="M61.7299 76.6314C61.4998 77.3409 61.1596 78.0108 60.7434 78.6256C60.5771 78.8697 60.1804 78.9097 59.9604 78.7182C59.72 78.5062 59.6882 78.1802 59.8658 77.9188C59.9576 77.7843 60.0444 77.6458 60.1287 77.5053L60.056 77.6307C60.3246 77.1708 60.543 76.6847 60.7071 76.1753C60.7479 76.0468 60.8883 75.9249 61.0059 75.8767C61.1344 75.8248 61.3132 75.8197 61.4395 75.8826C61.5658 75.9455 61.6836 76.0507 61.7336 76.189C61.7874 76.3406 61.7791 76.479 61.7299 76.6314Z" fill="#79B1BD"/>
</svg>
