<svg width="185" height="323" viewBox="0 0 185 323" fill="none" xmlns="http://www.w3.org/2000/svg">
<g clip-path="url(#clip0_252_7873)">
<path d="M96.093 159.802C93.9395 169.359 92.7953 178.496 91.6106 188.004L90.5338 196.632C90.1479 199.727 89.9185 202.981 89.6055 206.143L87.4169 228.368L84.9827 251.904C83.8169 263.174 82.7564 273.905 82.1357 285.224C81.6175 294.678 80.6838 303.562 79.5747 313.011C78.0688 315.535 74.0236 317.027 71.1846 317.401C47.0048 320.588 22.5741 319.392 0 309.496L0.588303 277.614L1.1874 267.188C1.85666 255.532 1.70284 244.346 4.01827 232.885C8.19036 212.228 3.78079 202.568 6.98137 186.466C8.85962 177.014 10.3277 167.924 9.97956 158.14C8.99995 130.542 13.5391 119.638 14.5861 96.3766C15.2392 81.8905 14.2434 67.7681 16.4644 53.4732C17.4062 47.4073 18.5369 41.3979 19.9672 35.472C22.6173 24.4983 25.4185 14.4028 24.4146 2.98736C30.1788 2.24124 34.9824 2.00151 40.5767 1.70521C57.1652 0.829799 73.2383 -0.530461 89.9024 0.215662L132.865 2.14427C145.823 2.72608 158.205 4.57388 170.856 7.0843L182.555 9.40617L182.916 36.3689C183.03 44.7864 184.131 53.1365 183.688 61.7048L182.368 87.38C182.182 90.9787 182.099 94.2568 182.263 97.8473L184.193 139.926C184.902 155.428 182.484 168.36 182.959 176.562L184.382 201.219L184.767 252.26C184.921 272.766 182.398 292.984 180.199 313.156C169.895 320.911 158.518 322.083 146.244 322.29C129.667 322.57 113.675 321.412 98.2195 314.22C97.8444 306.88 98.198 299.607 98.6378 292.238C99.1155 284.251 98.4058 276.833 97.893 268.957C96.935 254.169 98.0846 239.67 98.3599 224.958C98.4058 222.498 98.3761 220.206 98.8132 217.69C100.168 209.89 94.768 213.413 98.1278 204.354C95.3941 200.085 97.3857 195.465 97.2157 190.822L96.0957 159.802H96.093ZM50.5778 17.9529L63.3289 17.1718L64.4758 4.44459L44.657 4.92135C39.2085 5.05334 34.1863 5.80216 28.8079 6.59946C27.9417 11.4775 27.3939 15.3294 27.2751 20.1536L50.5751 17.9529H50.5778ZM68.0191 15.3374L68.6695 6.52134C68.7477 5.47354 69.023 4.63853 68.5912 4.25873C65.3259 1.3739 64.1898 12.1671 65.3016 16.5657C65.4095 16.9913 67.0449 17.6943 67.2527 17.3226C67.4605 16.9509 67.9813 15.8869 68.0218 15.3401L68.0191 15.3374ZM94.3713 17.5974L95.6882 5.01563C87.1389 4.49846 79.2913 4.07018 70.7852 4.19678C68.8017 8.6385 68.6965 12.528 69.2659 17.1825C78.9675 16.6411 85.7869 18.2734 94.3713 17.5974ZM100.079 73.6077L102.443 50.5156L107.433 5.80485L99.8576 5.03718C98.959 4.9456 96.9323 5.48701 96.6975 6.31932C96.4978 7.03312 96.7488 8.89439 96.9971 9.056C98.9563 7.77386 100.926 6.10653 102.357 6.46208C104.723 7.05467 105.959 10.3274 105.533 12.2344C104.901 15.0708 103.471 16.6519 100.632 16.5226C99.0183 16.4499 97.6582 14.7933 96.1308 12.7758C93.3863 31.173 94.625 56.8536 100.076 73.6077H100.079ZM143.017 20.159C143.613 15.5637 143.932 11.6068 142.159 7.39406L108.569 5.30384L107.23 18.7098C120.972 18.1495 129.294 19.8546 143.014 20.159H143.017ZM145.546 20.4903C147.543 17.5489 148.004 6.0769 143.797 7.94355C146.412 15.4479 142.404 19.534 145.546 20.4903ZM104.389 11.7038C104.389 9.85061 102.885 8.35029 101.029 8.35029C99.1722 8.35029 97.669 9.85061 97.669 11.7038C97.669 13.557 99.1722 15.0573 101.029 15.0573C102.885 15.0573 104.389 13.557 104.389 11.7038ZM179.481 12.8189C176.032 12.0001 173.15 11.2136 170.006 10.8122L147.802 7.97588L147.626 20.4741L178.663 25.5865L179.484 12.8216L179.481 12.8189ZM83.8439 231.813L85.8328 205.871C86.0838 202.606 87.2091 199.25 87.2874 195.735C87.3602 192.422 89.2817 189.133 88.5206 185.75C89.9428 176.363 91.2544 167.202 92.1125 157.618C93.0058 147.622 94.6978 138.246 96.8837 128.43C98.8267 119.703 98.3626 110.898 98.9725 101.923L99.4043 95.5739C101.199 69.1822 95.1485 68.4415 94.3308 49.6753L93.8559 38.7528C93.7722 36.8484 93.8505 35.076 93.8855 33.1393L94.1392 19.526C91.6457 19.2728 89.2682 18.7071 87.0607 18.7179L59.2027 18.866C53.9997 36.0053 36.8067 49.2766 20.3774 53.3574C19.0659 66.5452 18.4479 79.0973 19.5246 92.2393L14.2515 139.372C13.8602 147.856 14.3244 155.975 13.4311 164.379L9.66651 199.826L9.36966 216.163C9.05932 233.353 5.68063 249.822 4.92771 267.163L3.22487 306.376C9.77176 310.18 16.8584 311.696 24.1744 313.283C33.5764 315.322 42.7032 316.138 52.3158 315.187C59.9205 314.436 67.1637 314.034 74.3852 311.128C76.1771 310.215 77.1594 306.091 77.3429 304.135L78.5951 290.773L83.8385 231.805L83.8439 231.813ZM21.5864 46.3918C36.0079 42.1682 47.3071 32.5818 53.1146 19.5906L45.4207 19.7684L26.7867 21.9313C24.9003 29.7266 23.2245 37.3979 21.5837 46.3891L21.5864 46.3918ZM21.9318 51.1944C37.0685 46.8416 52.3913 35.2915 57.4243 19.6337C53.5841 17.2337 53.9646 24.1966 48.3784 30.6181C35.0418 45.9419 22.4661 47.0005 20.9468 48.2988C20.3693 48.7918 20.9873 51.4665 21.9318 51.1944ZM181.435 247.29C182.131 227.449 181.043 208.901 179.794 189.47C179.154 179.517 178.785 170.157 179.643 160.252C180.787 147.07 180.328 134.537 179.524 121.349C178.755 108.729 178.245 96.5274 178.256 83.8622C178.264 75.9188 180.309 68.3202 179.608 60.0833C171.072 56.9183 161.843 53.0557 156.71 44.8861C163.035 50.0604 170.87 56.2449 178.547 57.4112C179.235 57.5163 180.037 56.1695 179.726 55.9163C176.34 53.1392 154.975 51.2968 148.778 23.5529C148.66 23.0276 147.915 22.2626 147.526 21.9798C143.594 19.1381 151.626 38.8013 152.276 39.2861C148.144 34.6478 146.779 28.598 145.022 21.9259L136.492 21.1637L125.379 20.5468C119.048 20.1967 113.173 19.9677 107.004 20.1239L105.104 35.3319C102.168 58.8388 99.5338 90.079 100.476 113.731C101.026 127.539 100.036 140.85 100.222 154.69L100.724 192.171C100.781 196.327 100.683 199.883 101.158 203.834L102.273 213.141C103.188 220.769 100.627 235.869 101.461 248.3C102.494 263.713 102.71 278.735 102.319 294.253L101.903 310.778C107.837 314.587 113.963 316.591 120.915 317.469C136.864 319.483 157.881 320.784 172.688 313.862C175.822 312.397 177.481 310.018 177.848 306.368C179.824 286.689 180.72 267.543 181.429 247.29H181.435ZM177.972 27.1946L160.769 23.5394C157.225 22.9387 153.784 22.5455 150.077 22.4485C152.422 38.0524 163.715 50.1843 179.511 53.2469C179.211 44.3096 178.747 35.7737 177.97 27.1946H177.972Z" fill="black"/>
<path d="M181.435 247.291C180.725 267.547 179.829 286.69 177.854 306.37C177.487 310.019 175.827 312.401 172.694 313.863C157.886 320.786 136.872 319.485 120.92 317.47C113.966 316.592 107.843 314.588 101.909 310.779L102.324 294.254C102.715 278.736 102.5 263.714 101.466 248.301C100.632 235.87 103.19 220.773 102.278 213.142L101.164 203.836C100.689 199.881 100.786 196.329 100.729 192.172L100.227 154.691C100.041 140.852 101.031 127.54 100.481 113.733C99.5391 90.0829 102.173 58.8401 105.109 35.3332L107.009 20.1252C113.178 19.969 119.053 20.1979 125.384 20.5481L136.497 21.1649L145.027 21.9272C146.784 28.5992 148.15 34.6463 152.281 39.2873C151.631 38.8025 143.6 19.1393 147.532 21.9811C147.92 22.2612 148.668 23.0262 148.784 23.5541C154.977 51.298 176.342 53.1404 179.732 55.9175C180.042 56.1707 179.241 57.5175 178.553 57.4125C170.875 56.2461 163.041 50.0617 156.715 44.8873C161.848 53.0569 171.077 56.9195 179.613 60.0845C180.312 68.3215 178.269 75.9201 178.261 83.8635C178.25 96.5287 178.76 108.731 179.529 121.35C180.334 134.538 180.792 147.071 179.648 160.253C178.787 170.158 179.16 179.521 179.799 189.471C181.049 208.905 182.136 227.45 181.44 247.291H181.435Z" fill="#79B1BD"/>
<path d="M83.8439 231.812L78.6004 290.78L77.3483 304.143C77.1648 306.099 76.1852 310.223 74.3906 311.136C67.169 314.042 59.9259 314.444 52.3211 315.195C42.7086 316.146 33.5818 315.33 24.1797 313.291C16.861 311.704 9.77712 310.185 3.23022 306.384L4.93306 267.171C5.68598 249.827 9.06468 233.359 9.37502 216.171L9.67187 199.834L13.4365 164.387C14.3297 155.98 13.8655 147.862 14.2569 139.379L19.53 92.2471C18.4505 79.1024 19.0712 66.553 20.3828 53.3652C36.8094 49.2844 54.0024 36.0132 59.208 18.8739L87.0661 18.7257C89.2735 18.715 91.651 19.2806 94.1446 19.5338L93.8909 33.1472C93.8558 35.0866 93.7776 36.8562 93.8612 38.7606L94.3362 49.6831C95.1512 68.4493 101.202 69.1873 99.4096 95.5818L98.9778 101.931C98.3679 110.906 98.8321 119.711 96.8891 128.438C94.7032 138.254 93.0111 147.63 92.1179 157.626C91.2597 167.21 89.9482 176.37 88.526 185.758C89.2843 189.141 87.3656 192.432 87.2927 195.743C87.2145 199.26 86.0891 202.614 85.8382 205.879L83.8493 231.821L83.8439 231.812Z" fill="#79B1BD"/>
<path d="M177.973 27.1953C178.75 35.7771 179.214 44.3103 179.513 53.2477C163.718 50.1851 152.425 38.0532 150.079 22.4492C153.787 22.5435 157.225 22.9395 160.771 23.5401L177.975 27.1953H177.973Z" fill="#79B1BD"/>
<path d="M50.5779 17.9517L27.2778 20.1523C27.3966 15.3281 27.9417 11.4763 28.8107 6.59823C34.189 5.80093 39.2112 5.05211 44.6597 4.92012L64.4785 4.44336L63.3316 17.1705L50.5806 17.9517H50.5779Z" fill="#79B1BD"/>
<path d="M143.017 20.1588C129.297 19.8544 120.975 18.1494 107.233 18.7097L108.572 5.30371L142.162 7.39393C143.932 11.6067 143.616 15.5636 143.02 20.1588H143.017Z" fill="#79B1BD"/>
<path d="M21.5865 46.3912C23.2273 37.3974 24.9032 29.7287 26.7895 21.9335L45.4236 19.7706L53.1174 19.5928C47.3099 32.5839 36.0108 42.1704 21.5892 46.3939L21.5865 46.3912Z" fill="#79B1BD"/>
<path d="M100.079 73.6075C94.6277 56.8561 93.389 31.1727 96.1335 12.7756C97.661 14.7931 99.0211 16.4496 100.635 16.5223C103.474 16.6516 104.904 15.0705 105.536 12.2342C105.959 10.3271 104.726 7.0544 102.359 6.46181C100.929 6.10357 98.9617 7.77359 96.9998 9.05573C96.7488 8.89143 96.4978 7.03016 96.7002 6.31905C96.935 5.48674 98.9617 4.94802 99.8603 5.03691L107.435 5.80458L102.446 50.5154L100.082 73.6075H100.079Z" fill="#79B1BD"/>
<path d="M179.481 12.8194L178.661 25.5843L147.624 20.4719L147.799 7.97363L170.003 10.81C173.147 11.2113 176.029 11.9978 179.478 12.8167L179.481 12.8194Z" fill="#79B1BD"/>
<path d="M94.3713 17.5968C85.787 18.2729 78.9675 16.6406 69.2659 17.182C68.6992 12.5275 68.8018 8.63796 70.7853 4.19624C79.2914 4.06964 87.139 4.49792 95.6883 5.01509L94.3713 17.5968Z" fill="#79B1BD"/>
<path d="M21.9318 51.194C20.9846 51.4661 20.3693 48.7913 20.9468 48.2984C22.4688 46.9974 35.0445 45.9388 48.3784 30.6177C53.9673 24.1962 53.5841 17.236 57.4242 19.6333C52.3913 35.2911 37.0657 46.8412 21.9318 51.194Z" fill="#79B1BD"/>
<path d="M68.0192 15.337C67.9788 15.8838 67.4579 16.9504 67.2501 17.3195C67.0423 17.6885 65.407 16.9882 65.299 16.5626C64.1872 12.1639 65.3233 1.37075 68.5887 4.25558C69.0204 4.63807 68.7452 5.47308 68.6669 6.51819L68.0165 15.3343L68.0192 15.337Z" fill="#79B1BD"/>
<path d="M101.029 15.0566C102.885 15.0566 104.389 13.5552 104.389 11.7031C104.389 9.85103 102.885 8.34961 101.029 8.34961C99.1735 8.34961 97.6693 9.85103 97.6693 11.7031C97.6693 13.5552 99.1735 15.0566 101.029 15.0566Z" fill="white"/>
<path d="M145.545 20.4911C142.404 19.5349 146.412 15.4487 143.797 7.94438C148.004 6.07772 147.542 17.5497 145.545 20.4911Z" fill="#79B1BD"/>
</g>
<defs>
<clipPath id="clip0_252_7873">
<rect width="184.77" height="322.33" fill="white"/>
</clipPath>
</defs>
</svg>
