<svg width="542" height="4" viewBox="0 0 542 4" fill="none" xmlns="http://www.w3.org/2000/svg">
<path d="M0 1.03746C0 1.45244 0 1.86741 0 2.28239C9.03333 2.42071 18.0667 2.5452 27.1 2.65586C63.2333 3.0985 99.3667 3.31982 135.5 3.31982C261.967 3.31982 388.433 3.01858 514.9 2.4161C523.933 2.37307 532.967 2.3285 542 2.28239C542 1.86741 542 1.45244 542 1.03746C532.967 0.991356 523.933 0.946784 514.9 0.90375C388.433 0.301268 261.967 2.74181e-05 135.5 2.74181e-05C99.3667 2.74181e-05 63.2333 0.221347 27.1 0.663987C18.0667 0.774647 9.03333 0.899139 0 1.03746Z" fill="#79B1BD"/>
</svg>
