<svg width="174" height="257" viewBox="0 0 174 257" fill="none" xmlns="http://www.w3.org/2000/svg">
<path d="M150.791 252.685C148.871 253.685 146.813 254.54 144.651 254.364C143.602 254.279 142.626 254.028 141.633 253.714C141.085 253.539 140.572 253.365 140.056 253.118C137.762 252.02 135.782 250.738 134.198 248.716C133.635 247.997 133.125 247.278 132.708 246.464C131.643 244.388 131.161 242.149 131.278 239.804C131.353 238.303 131.596 236.885 131.855 235.406C132.115 233.927 132.493 232.682 132.904 231.314C133.125 230.577 133.321 229.878 133.587 229.165C133.852 228.452 134.196 227.814 134.52 227.131L136.33 223.309C137.092 221.701 137.778 220.113 138.647 218.551L142.371 211.846C142.674 211.301 143.012 210.809 143.201 210.221L143.774 208.439C144.082 207.481 144.345 206.555 144.604 205.583C144.711 205.182 144.894 204.754 145.286 204.582C146.85 204.582 147.022 205.553 147.206 206.138L148.478 209.018L148.878 209.907L151.217 214.832C152.201 216.902 153.114 218.938 153.991 221.054L155.18 223.921L156.306 226.599C156.834 227.857 157.474 229.003 158.14 230.186C158.466 230.767 158.64 231.379 158.794 232.017L159.701 235.754C159.981 236.907 160.159 238.021 160.288 239.196C160.384 240.055 160.422 240.861 160.297 241.722C160.054 243.387 159.519 244.947 158.604 246.369C157.569 247.973 156.273 249.32 154.807 250.531C153.7 251.447 152.576 251.715 151.304 252.378L150.791 252.685ZM147.299 252.685C148.403 252.387 149.407 251.99 150.431 251.459C153.201 250.025 155.571 248.125 157.201 245.433C157.599 244.775 157.911 244.112 158.154 243.383C159.029 240.768 159.187 239.202 158.699 236.453C158.426 234.91 157.919 233.488 157.32 232.052L156.324 229.669L155.204 227.069L154.05 224.362C153.4 222.841 152.803 221.362 152.076 219.871C151.436 218.561 150.824 217.299 150.276 215.952L149.543 214.157L148.496 212.028L146.165 208.439C145.137 209.836 144.584 210.452 143.733 212.016L143.13 213.126L141.905 215.334L141.062 216.801C139.91 218.81 138.93 220.872 137.928 222.969C136.936 225.043 136.096 227.129 135.273 229.274L134.496 231.306C133.666 233.476 132.933 237.928 133.198 240.292C133.267 240.914 133.346 241.513 133.477 242.129C133.791 243.596 134.397 244.939 135.162 246.217C135.446 246.691 135.705 247.138 136.027 247.582C136.642 248.429 137.347 249.174 138.1 249.899C139.042 250.805 140.307 251.621 141.522 252.105C143.399 252.853 145.309 253.213 147.303 252.677L147.299 252.685Z" fill="black" stroke="#0F0F0F" stroke-width="5.13933" stroke-miterlimit="10"/>
<path d="M36.9014 107.936C37.4725 102.653 37.8653 94.4975 37.2234 89.2147C36.7941 85.684 36.8812 83.2209 33.2891 82.364C29.4722 81.4545 25.4833 80.9704 21.5956 80.4599C19.2245 80.148 16.7481 79.8928 14.4964 80.6969C11.0886 81.9143 8.92604 85.3133 7.79415 88.7529C6.53469 92.5813 6.24311 96.6508 5.95963 100.672C5.43924 108.061 4.91885 115.451 4.5969 122.85C3.97729 137.052 4.09676 151.369 6.60555 165.362C6.79184 166.397 7.07127 167.552 7.97233 168.093C8.57979 168.457 9.33304 168.451 10.0417 168.423C15.0755 168.224 20.0911 167.54 24.9953 166.383C28.5428 165.546 32.3536 164.22 34.2104 161.082C35.644 158.661 35.5974 155.676 35.5124 152.864C35.1479 140.643 34.8746 128.392 35.7594 116.188C36.0956 111.557 35.2532 106.884 40.2425 105.562C45.6691 104.123 51.5735 106.366 57.2917 104.328C64.9416 101.601 75.074 94.1086 80.8347 87.2742C87.6362 79.2081 80.3872 66.9835 86.1803 58.0828C89.493 52.9924 97.0072 53.5616 102.217 54.1876C108.77 54.9776 115.468 55.0241 116.644 62.7317C117.906 70.9962 117.092 79.3317 123.087 89.0689C126.657 94.8642 133.57 95.8608 140.185 97.455C147.845 99.3003 157.459 102.227 160.359 114.183C161.436 118.627 163.844 121.767 164.643 127.529C165.172 131.336 166.176 135.042 166.385 138.879C167.223 154.312 168.031 169.748 168.813 185.183C168.926 187.441 167.233 189.386 164.982 189.585C154.473 190.512 143.405 191.144 133.062 192.161C130.782 192.386 128.226 192.53 126.477 191.051C124.369 189.273 124.444 186.07 124.598 183.317C125.102 174.305 124.545 165.236 122.944 156.354C122.573 154.298 122.12 152.187 120.919 150.478C119.977 149.139 118.635 148.132 117.219 147.31C112.226 144.407 106.326 143.613 100.599 142.878C79.0346 140.105 57.3221 137.323 35.6177 138.573" stroke="black" stroke-width="8.56555" stroke-miterlimit="10"/>
<path d="M91.2871 53.5915C92.1537 49.7468 90.1431 45.2094 92.4737 42.0312C93.7088 40.3459 95.9078 39.5863 97.9975 39.5903C100.087 39.5944 102.114 40.2548 104.092 40.9273C106.49 41.7416 109.005 42.6632 110.616 44.618C112.759 47.2168 112.753 50.9136 112.641 54.2802C112.631 54.6083 112.538 55.0317 112.212 55.0682C111.886 55.1046 111.729 56.4629 111.903 56.7404" stroke="black" stroke-width="8.56555" stroke-miterlimit="10"/>
<path d="M96.0415 38.8977C96.0597 34.9984 97.2463 29.0876 97.2665 25.1883C97.2726 23.9851 97.2179 22.6319 96.3391 21.8095C95.7013 21.212 94.78 21.052 93.9134 20.9466C80.2091 19.2998 66.8512 25.2146 53.2117 27.3273C49.9416 27.8338 46.4143 28.0789 43.5005 26.513C38.6611 23.9142 37.5191 16.8528 40.279 12.1007C43.0368 7.34858 48.6396 4.82465 54.1128 4.37294C59.586 3.92122 65.0369 5.22775 70.3744 6.52618C78.1823 8.42419 86.1055 9.61647 93.9134 11.5145C94.7719 11.7231 95.6709 11.9318 96.5274 11.715C97.7505 11.4051 98.5847 10.3194 99.508 9.45644C104.015 5.25327 111.536 7.02448 116.31 10.9218C117.098 11.5639 117.863 12.2891 118.831 12.6051C119.996 12.9839 121.259 12.7104 122.454 12.443C133.497 9.9819 144.737 8.40799 156.03 7.7375C157.86 7.62812 159.78 7.56128 161.438 8.34722C164.018 9.5707 165.306 12.6355 165.267 15.4916C165.227 18.3477 164.113 21.0641 163.016 23.6994C162.633 24.6211 162.198 25.6015 161.343 26.116C160.798 26.4442 160.146 26.5394 159.517 26.6204C145.503 28.4273 131.124 27.3618 117.529 23.5111C115.668 22.9844 113.565 22.4314 111.898 23.4098C110.147 24.4388 109.648 26.7014 109.318 28.7068C108.666 32.6831 108.014 36.6594 107.36 40.6357" stroke="black" stroke-width="8.56555" stroke-miterlimit="10"/>
</svg>
