<svg width="675" height="3115" viewBox="0 0 675 3115" fill="none" xmlns="http://www.w3.org/2000/svg">
<path d="M7.86719 336.771C7.86719 154.793 155.389 7.27051 337.367 7.27051C519.345 7.27051 666.867 154.793 666.867 336.771V3107.27H7.86719V336.771Z" fill="#FA5DAE"/>
<path d="M38.441 175.722C42.5367 167.817 49.5009 157.363 55.3651 148.71C80.6254 112.929 92.5269 101.291 122.583 75.6881C144.775 56.6834 194.833 24.945 244.312 12.1606C293.461 -1.79555 337.53 0.653125 337.367 2.73438C337.367 2.73449 337.367 2.7346 337.367 2.73472C337.367 2.77889 337.35 2.82358 337.317 2.8688C336.679 3.65292 322.129 4.91504 320.071 6.0789C317.996 7.26651 319.786 12.9637 299.867 15.377C270.511 16.9953 203.323 38.5066 190.118 47.3957C180.632 52.2742 169.463 59.2693 158.194 66.9047C122.325 92.1008 105.237 108.416 81.8348 140.1C71.571 152.078 62.1379 164.869 53.6768 178.315C43.5541 196.383 30.8066 225.193 27.3091 237.338C24.247 247.207 23.2391 253.253 20.8196 263.7C18.148 275.453 13.9841 293.618 12.692 315.596C12.1892 324.124 12.1827 330.93 12.3477 336.771C12.8958 355.757 13.9163 363.496 14.0795 380.222C14.3007 402.93 13.386 438.244 13.9782 467.218C14.1633 470.852 14.3485 474.486 14.5336 478.12C14.9523 475.516 15.371 472.913 15.7897 470.309C15.9846 484.902 15.1265 491.179 15.111 504.589C15.0923 520.366 15.9058 528.417 15.902 539.033C15.8982 547.731 15.2459 559.523 15.2868 570.801C15.343 587.243 16.2849 583.647 16.4611 592.495C16.5296 596.025 17.0493 661.291 17.0568 664.973C17.094 692.976 15.8048 695.414 15.6921 717.744C15.3846 779.677 16.4263 843.252 16.82 900.54C16.9961 926.121 16.9212 952.811 16.715 978.317C13.4156 938.143 10.8479 1027.05 16.0107 993.801C15.2762 1022.18 16.6699 1042.3 16.4343 1069.2C16.2805 1086.6 15.5647 1098.65 15.5834 1123.49C15.6213 1167.58 17.6561 1215.8 13.9782 1228.48C14.6266 1280.24 13.2924 1325.06 16.5392 1343.72C16.7376 1357.06 14.8037 1391.26 14.5409 1406.23C14.2935 1420.39 13.4202 1529 13.3715 1546.77C13.3228 1564.54 13.2698 1595.64 13.5546 1610.61C13.9071 1629.41 17.2742 1642.55 13.3373 1676.02C13.6559 1714.94 13.5432 1728.81 13.0859 1765C13.0032 1771.56 12.4187 1772.3 12.4181 1776.13C12.4181 1784.01 12.8501 1797.43 12.9028 1811.51C12.989 1834.66 11.7592 1847.87 13.6376 1845.29C13.9526 1860.56 14.2675 1875.82 14.5824 1891.08C14.2199 1896.44 13.8573 1901.79 13.4948 1907.14C13.8899 1915.3 14.285 1923.47 14.6801 1931.63C11.9618 1922.04 13.5659 1979.48 15.1257 1960.83C14.5633 1990.41 14.001 2020 13.4386 2049.59C10.3493 2045.46 13.0821 2114.55 14.7619 2108.74C14.7594 2112.12 14.757 2115.51 14.7546 2118.89C13.9334 2148.53 14.605 2175.75 14.0539 2211.88C13.5027 2248 13.2019 2244.61 11.7809 2255.6C11.8623 2264.1 11.9437 2272.6 12.0251 2281.1C15.9207 2325.7 9.17593 2317.82 12.1642 2394.2C9.71584 2418.61 11.0019 2478.77 11.7443 2518.65C11.8305 2523.29 12.3058 2523.37 12.4523 2529.55C12.8047 2544.67 12.1938 2583.23 13.7267 2581.91C13.2832 2595.26 12.8397 2608.61 12.3962 2621.96C12.6749 2632.87 12.9536 2643.78 13.2323 2654.69C13.7109 2654.64 14.1894 2654.58 14.6679 2654.53C13.037 2676.5 13.6638 2711.02 13.2738 2728.06C13.1948 2731.44 12.5347 2732.18 12.3547 2742.71C12.1409 2755.02 12.3363 2777.97 12.13 2792.64C12.8612 2798.34 13.5925 2804.05 14.3237 2809.75C14.7203 2835.99 12.7903 2845.21 12.6403 2860.62C12.6142 2863.39 12.7529 2914 12.7941 2916.73C13.1207 2939.05 14.7649 2932.73 14.4128 2997.29C14.349 3008.79 13.7801 3018.09 13.7572 3028.48C13.716 3046.84 15.0063 3102.16 16.1987 3106.51C16.1819 3106.76 16.1655 3107.01 16.1493 3107.27L7.86719 3098.99C30.7005 3100.42 89.1419 3099.83 106.493 3100.25C111.789 3100.39 112.985 3101.34 129.263 3101.54C142.46 3101.7 176.448 3100.94 193.185 3101.07C210.951 3101.21 217.295 3102.01 225.256 3102.06C232.777 3102.12 239.71 3101.47 249.958 3101.47C281.951 3101.5 310.923 3102.53 336.209 3102.55C372.778 3102.58 405.082 3100.68 435.68 3099.83C443.274 3099.95 450.735 3100.36 458.698 3100.36C524.912 3100.41 596.827 3100.58 666.867 3100.81L660.407 3107.27C660.52 3073.12 660.648 3039.42 660.782 3007.04C660.97 2961.17 663.56 2847.12 659.238 2877.56C658.481 2861.62 660.223 2745.74 660.25 2723.69C660.276 2701.66 659.501 2684.19 659.489 2666.86C659.455 2614.59 660.014 2577.78 659.339 2514.15C659.162 2497.72 658.244 2480.11 658.255 2470.38C658.27 2458.66 659.158 2446.04 659.214 2430.86C659.342 2394.66 659.05 2327.2 659.203 2292.47C659.233 2286.13 660.013 2283.9 660.257 2274.83C661.209 2239.52 661.127 2199.93 658.637 2206.94C660.05 2161.67 658.761 2119.8 658.682 2077.85C658.521 1989.15 659.102 1827.59 658.056 1750.32C657.396 1701.6 656.279 1702.84 657.243 1631.11C657.457 1615.19 657.745 1599.34 658 1580.03C658.6 1534.76 660.662 1493.23 658.177 1458.72C658.821 1408.45 658.364 1368.4 660.49 1331.1C659.98 1326.7 659.47 1322.31 658.961 1317.91C658.948 1311.74 658.935 1305.58 658.923 1299.42C659.409 1297.49 659.895 1295.57 660.381 1293.65C660.512 1249.49 658.514 1193.47 658.528 1156.09C658.551 1093.42 659.327 932.005 659.983 872.579C660.332 841.031 659.29 839.333 661.431 821.271C661.282 814.214 661.133 807.158 660.984 800.101C660.516 795.685 660.047 791.269 659.578 786.853C659.559 746.377 660.288 698.369 660.28 659.81C660.265 589.546 658.975 484.037 659.822 413.479C660.036 395.787 661.003 373.671 660.992 356.346C660.987 348.392 660.824 342.337 660.602 336.771C660.003 324.866 659.213 315.344 656.54 294.095C653.246 239.64 608.684 146.024 569.702 111.452C559.017 100.619 553.267 96.3785 545.261 89.6285C511.309 61.8004 479.016 44.0068 438.999 31.3483C396.271 16.8534 399.809 17.7875 386.243 13.0725C375.971 9.50776 342.87 4.04535 337.949 3.11221C334.565 2.1496 347.209 1.07985 342.484 0.000394344C398.969 1.37861 422.77 9.00486 464.788 26.5469C543.021 58.4177 608.055 121.071 642.894 198.063C645.569 205.296 647.975 212.577 650.132 219.945C650.131 219.945 650.13 219.946 650.129 219.946C660.463 250.473 664.138 263.745 667.615 280.834C670.774 297.667 672.852 316.498 673.061 336.771C674.913 510.779 672.91 788.078 672.593 950.522C672.518 989.527 673.271 1116.41 672.364 1143.17C672.128 1150.1 671.266 1152.03 671.229 1159.4C671.741 1225.26 672.253 1291.13 672.766 1356.99C671.427 1492.43 672.532 1632.45 672.739 1768.92C673.297 2138.15 673.976 2503.7 673.77 2866.88C673.729 2937.07 674.374 3026.14 673.958 3094.86C673.931 3099.35 673.874 3103.44 673.802 3107.27L673.821 3114.19L666.867 3114.21C646.224 3113.81 632.748 3112.97 600.977 3113.84C600.581 3113.46 600.186 3113.09 599.79 3112.72C566.912 3113.17 545.902 3114.02 509.041 3114.1C478 3114.17 395.875 3114.23 368.446 3114.09C354.218 3114.02 359.518 3113.32 346.255 3113.32C323.547 3113.33 275.028 3114.3 243.693 3114.3C215.307 3114.3 167.454 3113.49 145.63 3113.61C101.403 3113.84 54.9558 3114.32 7.86719 3114.64L0.520349 3114.66L0.499928 3107.27C0.253647 3070.68 0.104669 3033.7 0.244031 2997.07C0.334202 2973.94 1.23725 2944.18 1.21205 2936.93C1.15957 2922.78 0.28235 2918.56 0.169569 2909.06C-0.400313 2860.77 0.64213 2785.49 0.683486 2738.16C0.818466 2583.92 0.43559 2420.52 0.596816 2266.94C0.698035 2169.91 0.543662 2008.67 1.20351 1919.1C1.34598 1899.78 2.30702 1904.93 2.30702 1888.71C2.30682 1870.72 1.6576 1860.98 1.60512 1852.58C1.23766 1794.4 0.581399 1665.98 1.24501 1611.05C1.37243 1600.59 2.12543 1593 2.1227 1586.73C2.1227 1583.56 1.60882 1576.4 1.55629 1566.45C1.09136 1478.56 1.39105 1414.49 1.56728 1328.37C1.90094 1163.44 0.944931 972.341 1.4623 799.082C1.57478 761.332 3.06421 735.445 3.04921 730.137C3.01917 718.488 2.01737 711.032 1.76991 687.439C0.956542 608.996 2.02555 503.353 1.52333 428.743C1.34239 401.789 0.613743 367.459 0.125134 336.771C-0.0571856 325.182 0.395284 314.151 1.27246 304.217C1.77317 274.097 23.6943 207.037 30.2858 195.523C33.3588 188.14 34.024 184.281 38.441 175.722ZM14.7472 1149.96C13.015 1144.8 14.4546 1199.04 15.3844 1178.69C15.5938 1174.11 15.1969 1151.3 14.7472 1149.96ZM590.516 3103.4C590.02 3102.9 589.523 3102.41 589.026 3101.91C581.905 3102.12 574.784 3102.33 567.663 3102.53C571.665 3102.83 575.667 3103.13 579.669 3103.42C583.285 3103.42 586.901 3103.41 590.516 3103.4Z" fill="#FA5DAE"/>
<path d="M263.467 365.271C273.867 379.271 277.467 399.871 268.667 415.671C260.067 431.471 243.267 440.271 225.467 438.671C208.667 437.271 196.867 426.871 192.067 410.871V410.471C191.867 410.071 191.867 409.471 192.467 409.071C196.067 406.271 200.667 406.071 204.667 403.471C205.867 402.671 207.067 403.871 206.867 405.071C210.867 415.671 220.867 422.471 232.467 421.871C242.467 421.271 252.667 415.271 255.667 405.271C259.667 391.671 255.467 373.071 240.467 368.271C227.667 364.071 211.267 368.471 200.867 376.671C200.667 376.871 200.467 376.871 200.067 376.871C199.467 377.071 198.667 376.871 198.267 376.071C198.267 375.671 198.067 375.271 198.267 375.071C198.467 363.071 200.467 351.071 201.467 339.271C202.467 326.671 204.667 312.471 202.067 300.07C201.667 299.27 202.067 297.871 203.467 298.071H204.067C224.867 299.871 245.667 300.07 266.467 298.671C267.667 298.47 268.267 299.671 267.867 300.671V303.471C267.867 303.671 267.867 303.87 267.667 304.071C267.467 307.271 267.267 310.47 267.867 313.671C268.267 314.471 267.867 315.87 266.467 315.87H266.067C260.667 316.071 255.067 317.071 249.667 317.471C239.267 318.071 229.067 317.87 218.467 317.271C218.667 329.471 215.267 341.271 214.667 353.471C232.067 348.671 251.667 349.671 263.467 365.271ZM357.711 373.271C366.111 383.871 370.911 400.071 367.111 413.271C361.911 432.671 340.511 438.271 322.711 438.271C304.711 438.271 285.511 430.671 282.311 410.871C280.911 401.871 282.111 392.271 286.911 384.271C292.711 374.271 301.911 367.271 310.911 360.271C296.911 352.071 286.311 338.471 290.111 321.671C293.111 307.271 306.511 298.671 320.711 297.671C338.111 296.47 353.111 307.871 355.911 325.271C357.911 338.07 348.711 350.271 338.311 357.071C345.911 361.271 352.511 366.471 357.711 373.271ZM307.511 332.071C309.311 340.071 317.511 344.671 324.111 348.471C328.111 345.671 332.311 342.471 335.311 338.471C338.911 334.27 339.911 330.471 338.511 325.271C336.311 316.87 328.311 313.271 319.911 314.271C311.311 315.271 305.511 323.871 307.511 332.071ZM346.711 414.871C350.911 410.071 352.111 403.671 351.311 397.471C349.711 384.471 336.111 376.471 326.511 368.871C315.111 378.071 299.311 386.271 299.311 402.871C299.311 418.471 315.711 422.071 328.311 421.671C335.111 421.471 342.311 420.271 346.711 414.871ZM414.43 345.071C408.43 349.871 401.23 351.671 393.63 349.871C380.23 346.871 370.03 335.27 372.83 320.871C375.23 309.071 383.83 297.27 396.63 297.27H397.03C412.23 297.47 424.43 309.671 424.23 325.07C424.03 333.47 421.23 339.871 414.43 345.071ZM464.63 306.67C453.03 329.87 441.43 352.871 430.03 375.871C419.63 396.471 410.03 417.471 399.03 437.671C398.43 438.871 397.23 438.671 396.63 437.871C396.23 438.071 395.83 438.071 395.43 437.671C392.83 435.671 389.83 434.071 387.03 432.471C386.03 432.071 386.03 430.871 386.63 430.271C406.23 385.671 427.83 341.871 450.43 298.671C450.83 297.871 451.43 297.671 452.03 297.871C452.63 297.671 453.63 297.671 454.03 298.47C455.03 299.671 457.23 300.671 458.63 301.27L463.63 303.87C464.23 304.071 464.43 304.471 464.23 305.071C464.83 305.471 465.03 306.071 464.63 306.67ZM395.43 333.071C401.03 334.47 407.63 331.47 408.43 325.471C409.03 321.271 407.43 316.271 403.83 313.871C399.83 311.27 395.43 312.27 392.03 315.07C392.03 315.671 392.03 316.271 391.43 316.67C385.23 321.071 388.63 331.47 395.43 333.071ZM478.23 408.271C479.63 421.471 470.23 437.871 456.23 438.871C441.03 440.271 425.43 430.671 425.43 414.071C425.23 399.671 433.63 384.471 449.43 384.271C463.03 382.471 476.83 395.071 478.23 408.271ZM459.83 418.671C462.23 414.671 464.83 406.071 460.63 402.271C456.63 398.671 450.43 399.471 446.23 401.871C445.83 402.071 445.23 402.071 444.83 402.071C440.23 406.471 440.63 416.271 444.83 420.271C449.63 424.871 456.23 424.471 459.83 418.671Z" fill="#B0DF44"/>
</svg>
