<svg width="294" height="303" viewBox="0 0 294 303" fill="none" xmlns="http://www.w3.org/2000/svg">
<g clip-path="url(#clip0_245_3747)">
<path d="M239.52 293.796C237.277 294.388 234.468 295.043 232.078 295.416L213.172 298.323L204.685 299.333L197.333 300.045L185.557 301.111L175.008 301.676C156.017 302.692 137.11 302.709 118.118 301.631L105.54 300.92C88.2159 299.937 71.1626 297.544 53.9398 293.909C54.4766 291.159 54.8438 288.772 55.1433 286.085L56.3808 275.1L57.5052 265.102L58.2229 257.233L59.1834 247.592L59.9632 238.108L60.9069 227.276L62.0935 209.861L62.6924 199.136L63.6982 175.405C64.2802 161.761 64.026 148.427 63.7378 134.789C63.6191 129.178 62.6246 124.053 62.8732 118.323C62.9354 116.838 62.3647 115.004 61.7601 113.017L56.0983 122.619C36.1632 119.074 17.6069 112.012 -0.0114746 101.998C5.6447 85.3962 11.5608 69.4888 19.4094 54.1742C23.506 46.1809 27.8965 39.0345 33.8182 32.3509C43.0116 24.3859 56.9232 20.3102 68.552 16.7709C76.1689 14.4508 83.5146 12.1815 90.7868 9.05426C102.037 4.21655 102.975 -1.56385 107.976 0.428808C113.756 2.73194 119.384 4.38026 125.588 4.94475L134.064 5.7181C147.473 6.94305 146.106 6.94305 159.503 5.7181L167.962 4.95039C174.307 4.37461 180.178 2.63033 186.049 0.338489C188.083 -0.457446 189.648 0.287685 191.112 1.59166C194.677 4.76976 198.723 7.30433 203.176 9.21231C219.783 16.3306 234.627 18.2386 250.951 26.4068C255.997 28.93 259.975 32.2267 263.399 36.6467C277.26 55.3822 285.832 79.74 293.613 102.037C275.943 111.967 257.393 119.085 237.469 122.692L231.886 112.864C230.598 116.511 230.886 119.779 230.632 123.522L229.784 135.941L229.812 175.817L230.462 185.825L230.971 201.241L231.858 216.308L232.649 226.779L233.627 237.583L234.372 247.101L235.356 257.301L236.062 264.555L237.192 274.609L238.373 285.086L239.509 293.824L239.52 293.796ZM188.225 1.68763C179.11 5.21006 170.872 6.29389 161.989 7.46239L156.666 8.16236C150.106 9.02603 143.546 8.70427 136.952 8.04946L125.894 6.95434C119.508 6.32211 113.259 4.57218 107.292 2.30857C106.767 2.111 105.529 2.17309 104.795 2.24647C105.207 4.97862 105.806 7.91398 107.326 10.1155C124.249 18.3966 169.499 18.549 186.202 10.0365C187.942 8.14542 188.908 4.60041 188.225 1.69327V1.68763ZM190.75 4.24478C188.631 11.5324 184.964 17.3241 180.009 22.619C161.288 42.6133 133.477 43.144 114.169 23.1722C108.812 17.6289 105.06 11.634 102.794 4.25607L95.8723 8.86233C99.4604 18.8708 105.569 26.785 113.496 33.3952C136.957 52.9548 168.114 48.9357 187.772 25.8705C192.186 20.6941 195.83 15.1056 197.61 8.60831L190.762 4.25042L190.75 4.24478ZM164.571 295.038C168.069 295.049 171.273 294.812 174.737 294.575L187.19 293.734L196.791 292.983L206.809 291.938C216.957 290.883 226.62 289.257 236.503 287.462L234.943 272.492L233.886 262.336L233.09 254.631L232.14 244.295L231.146 232.966L230.457 222.799L229.479 208.681C229.315 206.333 228.801 203.714 228.925 201.388C229.264 194.942 228.117 189.065 228.117 182.647V129.76L229.157 114.964C229.807 105.662 230.541 104.041 230.846 93.5024C230.892 91.8653 231.259 89.7823 231.553 88.1453L232.705 81.744C232.96 80.3327 233.514 78.5941 233.926 77.1434C234.446 80.519 233.073 83.6632 232.683 86.8921L231.4 97.5385C230.321 106.514 231.332 109.161 236.271 115.947C250.719 113.593 263.405 108.162 277.192 102.918C273.378 105.678 268.903 106.926 264.71 108.879L250.691 113.553C249.55 113.931 247.934 114.31 246.753 114.592L237.102 116.878C237.028 117.245 237.311 118.622 237.582 119.283C237.831 119.887 239.52 120.355 240.311 120.18C257.896 116.313 274.548 110.454 290.171 101.558C291.222 100.959 290.403 97.9054 289.505 97.5215C285.368 99.5594 281.486 101.8 276.887 103.274C278.853 101.45 281.232 100.66 283.487 99.4295L289.403 96.2006C284.487 81.569 278.74 67.4059 271.717 53.7451C268.507 47.5019 260.625 34.0613 254.392 30.8719C245.758 43.1553 240.955 56.7087 235.847 70.584C238.774 56.0313 245.656 43.3415 253.386 30.3639C245.583 24.5778 228.852 20.0111 218.67 16.9176C212.121 14.9306 206.024 12.6162 199.56 9.79939C187.987 39.9207 153.943 57.4539 123.633 42.4101C110.033 35.6588 99.5678 24.0641 93.9116 9.75987C88.8996 11.9501 84.187 13.9766 79.1298 15.5572L60.2231 21.4674C53.0922 23.6972 46.6619 26.2826 39.9491 30.1832L44.1022 36.7708C47.3738 41.9529 57.7426 64.1036 57.5165 70.1832C53.386 58.3966 49.4476 47.4849 42.9382 37.2337C41.7911 34.8741 40.7175 33.0565 39.1919 30.6574C31.8631 35.3822 24.6757 48.1115 20.9068 55.6418C14.3126 68.8227 8.84855 82.1335 4.17557 96.3079L20.6751 104.73C14.5895 103.81 10.0408 99.8755 4.5485 97.7304C3.57661 97.3522 2.01141 100.79 3.01721 101.354C18.8104 110.279 35.519 116.319 53.2391 120.163C54.098 120.35 55.7705 119.904 55.9739 119.266L56.7255 116.951L52.4141 115.947C49.6849 115.309 46.9783 114.772 44.3 113.909L33.4679 110.431C28.8797 108.958 24.4892 107.321 20.3078 104.871C26.3313 106.412 31.462 108.93 37.1972 110.765C43.9779 112.938 50.459 114.784 57.4996 116.003L62.1952 108.038C63.5118 105.803 61.2572 88.4784 60.4605 84.7245C59.9293 82.2294 59.6072 79.7626 59.579 77.149C60.0423 78.628 60.6017 80.3214 60.873 81.7609L62.0596 88.0494C62.3647 89.6582 62.6924 91.8879 62.7263 93.5024C62.9806 104.679 63.7152 104.555 64.4102 114.434L65.4499 129.201C66.71 147.095 66.2805 164.753 65.4216 182.754L64.4215 203.697L63.6926 215.817C63.5061 218.921 62.8676 221.891 62.8902 225.08C62.9072 227.806 62.6811 230.352 62.4438 233.005L61.3419 245.407L60.4209 255.128L59.6807 262.393L58.5845 273.011L57.0758 287.598L80.4351 291.363L86.5829 292.091L94.6575 292.971L104.693 293.745L124.453 294.891L164.554 295.049L164.571 295.038ZM109.066 13.3444C119.508 30.2284 139.037 40.282 158.463 34.1685C169.239 30.7759 178.477 23.2625 184.631 13.1751C179.319 14.7951 174.432 16.1669 169.177 16.8047L160.413 17.866C141.506 18.0579 127.973 19.0458 109.072 13.3444H109.066ZM235 292.949C235.689 292.836 236.972 291.984 236.955 291.323C236.938 290.764 236.604 289.24 236.446 289.02C225.36 291.024 214.516 292.757 203.47 293.801L192.276 294.863L181.58 295.608L162.622 296.488C151.423 297.008 140.336 297.132 129.08 296.55L119.056 296.037L105.292 295.275L94.9682 294.36L87.131 293.57L78.0845 292.497L57.6013 289.24C57.0136 289.251 56.4373 290.742 56.6012 291.351C56.7368 291.859 57.7595 292.768 58.3133 292.859L68.4955 294.541L82.215 296.545L90.6343 297.578L98.4998 298.272L111.451 299.345L125.605 299.982C140.184 300.637 154.48 300.536 168.928 299.909L183.258 299.288L195.135 298.278L201.933 297.674L225.089 294.535L235.011 292.938L235 292.949Z" fill="black"/>
<path d="M164.572 295.039L124.47 294.881L104.71 293.735L94.6746 292.962L86.6 292.081L80.4522 291.353L57.093 287.588L58.6017 273.001L59.6979 262.383L60.4381 255.118L61.3591 245.397L62.461 232.996C62.6983 230.342 62.9243 227.797 62.9074 225.07C62.8848 221.881 63.5233 218.911 63.7097 215.807L64.4386 203.687L65.4388 182.744C66.2977 164.737 66.7271 147.085 65.467 129.191L64.4273 114.424C63.7323 104.551 62.9978 104.669 62.7435 93.4925C62.7096 91.878 62.3819 89.6539 62.0767 88.0395L60.8901 81.751C60.6189 80.3172 60.0595 78.6181 59.5961 77.1391C59.6244 79.7527 59.9465 82.2196 60.4776 84.7146C61.2743 88.4685 63.5289 105.793 62.2123 108.028L57.5168 115.993C50.4762 114.774 43.995 112.928 37.2144 110.755C31.4791 108.92 26.3484 106.402 20.325 104.861C24.512 107.311 28.8968 108.948 33.4851 110.422L44.3171 113.899C46.9955 114.757 49.7021 115.299 52.4313 115.937L56.7426 116.942L55.9911 119.256C55.782 119.894 54.1151 120.34 53.2563 120.153C35.5362 116.309 18.8276 110.269 3.03436 101.345C2.02856 100.774 3.59376 97.3367 4.56565 97.7205C10.058 99.8656 14.6066 103.8 20.6923 104.72L4.19272 96.298C8.8657 82.1236 14.3298 68.8129 20.9239 55.632C24.6928 48.1016 31.8747 35.3723 39.209 30.6475C40.7347 33.0466 41.8083 34.8643 42.9553 37.2239C49.4647 47.475 53.4032 58.3867 57.5337 70.1733C57.7597 64.0937 47.3854 41.943 44.1193 36.761L39.9662 30.1733C46.679 26.2727 53.115 23.6873 60.2403 21.4576L79.147 15.5473C84.2042 13.9668 88.9167 11.9346 93.9287 9.75C99.5849 24.0542 110.05 35.6489 123.651 42.4003C153.96 57.4496 187.999 39.9108 199.577 9.78951C206.041 12.6063 212.138 14.9151 218.687 16.9078C228.869 20.0012 245.6 24.5679 253.404 30.354C245.668 43.3373 238.791 56.0215 235.864 70.5741C240.972 56.6989 245.775 43.1454 254.409 30.862C260.642 34.0514 268.524 47.492 271.734 53.7353C278.758 67.4016 284.504 81.5591 289.42 96.1908L283.504 99.4197C281.244 100.65 278.871 101.441 276.904 103.264C281.498 101.791 285.386 99.5495 289.522 97.5117C290.42 97.8955 291.24 100.949 290.189 101.548C274.565 110.444 257.913 116.304 240.328 120.17C239.532 120.345 237.848 119.877 237.599 119.273C237.328 118.612 237.04 117.235 237.119 116.868L246.77 114.582C247.951 114.3 249.567 113.921 250.708 113.543L264.727 108.869C268.92 106.916 273.395 105.669 277.209 102.908C263.422 108.152 250.737 113.583 236.288 115.937C231.35 109.152 230.338 106.504 231.417 97.5286L232.7 86.8823C233.09 83.659 234.463 80.5091 233.943 77.1335C233.531 78.5842 232.977 80.3229 232.723 81.7341L231.57 88.1355C231.276 89.7725 230.909 91.8555 230.864 93.4925C230.559 104.032 229.824 105.652 229.174 114.954L228.14 129.75V182.637C228.14 189.055 229.282 194.932 228.942 201.378C228.818 203.704 229.332 206.318 229.496 208.672L230.474 222.79L231.163 232.956L232.158 244.285L233.107 254.621L233.904 262.327L234.96 272.482L236.52 287.452C226.637 289.247 216.975 290.873 206.826 291.929L196.808 292.973L187.208 293.724L174.754 294.565C171.29 294.796 168.086 295.039 164.589 295.028L164.572 295.039Z" fill="white"/>
<path d="M190.75 4.2449L197.599 8.60279C195.819 15.1057 192.174 20.6886 187.761 25.865C168.103 48.9301 136.946 52.955 113.485 33.3897C105.557 26.7794 99.4549 18.8653 95.8612 8.85681L102.783 4.25055C105.049 11.6285 108.801 17.6234 114.158 23.1667C133.465 43.1441 161.283 42.6135 179.998 22.6135C184.953 17.3186 188.62 11.5269 190.739 4.23926L190.75 4.2449Z" fill="white"/>
<path d="M109.066 13.3442C127.967 19.0455 141.501 18.0577 160.407 17.8657L169.171 16.8045C174.426 16.1666 179.319 14.7949 184.625 13.1748C178.478 23.2623 169.233 30.7757 158.458 34.1683C139.037 40.2817 119.503 30.2281 109.061 13.3442H109.066Z" fill="white"/>
<path d="M188.225 1.68729C188.908 4.58878 187.942 8.13379 186.202 10.0305C169.499 18.543 124.25 18.3963 107.326 10.1095C105.806 7.90799 105.202 4.97828 104.795 2.24049C105.529 2.1671 106.767 2.10501 107.292 2.30258C113.265 4.56055 119.509 6.31613 125.894 6.94836L136.952 8.04347C143.546 8.69828 150.106 9.02004 156.667 8.15637L161.989 7.4564C170.866 6.2879 179.11 5.20972 188.225 1.68164V1.68729Z" fill="white"/>
<path d="M235 292.949L225.077 294.546L201.922 297.685L195.124 298.289L183.247 299.299L168.917 299.92C154.468 300.547 140.173 300.648 125.594 299.994L111.44 299.356L98.4887 298.283L90.6232 297.589L82.2039 296.556L68.4844 294.552L58.3022 292.87C57.7484 292.779 56.7257 291.871 56.5901 291.363C56.4262 290.753 57.0025 289.263 57.5902 289.251L78.0734 292.509L87.1199 293.581L94.9571 294.371L105.281 295.286L119.045 296.048L129.069 296.562C140.325 297.137 151.412 297.019 162.611 296.499L181.568 295.619L192.265 294.874L203.459 293.812C214.505 292.763 225.349 291.035 236.435 289.031C236.593 289.251 236.932 290.776 236.944 291.334C236.961 291.995 235.678 292.847 234.989 292.96L235 292.949Z" fill="white"/>
</g>
<defs>
<clipPath id="clip0_245_3747">
<rect width="293.618" height="302.427" fill="white"/>
</clipPath>
</defs>
</svg>
